<?xml version="1.0" encoding="UTF-8" standalone="no"?>
<!DOCTYPE svg PUBLIC "-//W3C//DTD SVG 1.1//EN"
 "http://www.w3.org/Graphics/SVG/1.1/DTD/svg11.dtd">
<!-- Generated by graphviz version 2.46.0 (20210118.1747)
 -->
<!-- Pages: 1 -->
<svg width="1391pt" height="908pt"
 viewBox="0.00 0.00 1390.52 908.00" xmlns="http://www.w3.org/2000/svg" xmlns:xlink="http://www.w3.org/1999/xlink">
<g id="graph0" class="graph" transform="scale(1 1) rotate(0) translate(4 904)">
<polygon fill="white" stroke="transparent" points="-4,4 -4,-904 1386.52,-904 1386.52,4 -4,4"/>
<!-- 人工智能 -->
<g id="node1" class="node">
<title>人工智能</title>
<ellipse fill="none" stroke="black" cx="910" cy="-882" rx="55.79" ry="18"/>
<text text-anchor="middle" x="910" y="-878.3" font-family="Times New Roman,serif" font-size="14.00">人工智能</text>
</g>
<!-- 数理逻辑 -->
<g id="node2" class="node">
<title>数理逻辑</title>
<ellipse fill="none" stroke="black" cx="192" cy="-234" rx="55.79" ry="18"/>
<text text-anchor="middle" x="192" y="-230.3" font-family="Times New Roman,serif" font-size="14.00">数理逻辑</text>
</g>
<!-- 人工智能&#45;&gt;数理逻辑 -->
<g id="edge1" class="edge">
<title>人工智能&#45;&gt;数理逻辑</title>
<path fill="none" stroke="black" d="M856.22,-877.05C728.48,-865.84 418,-828.7 418,-739 418,-739 418,-739 418,-593 418,-529.11 376.95,-524.44 347,-468 305.17,-389.17 316,-355.83 258,-288 247.56,-275.79 233.72,-264.98 221.33,-256.36"/>
<polygon fill="black" stroke="black" points="223.28,-253.46 213.03,-250.76 219.36,-259.26 223.28,-253.46"/>
</g>
<!-- 编译器设计专题实验 -->
<g id="node3" class="node">
<title>编译器设计专题实验</title>
<ellipse fill="none" stroke="black" cx="1240" cy="-738" rx="111.58" ry="18"/>
<text text-anchor="middle" x="1240" y="-734.3" font-family="Times New Roman,serif" font-size="14.00">编译器设计专题实验</text>
</g>
<!-- 人工智能&#45;&gt;编译器设计专题实验 -->
<g id="edge2" class="edge">
<title>人工智能&#45;&gt;编译器设计专题实验</title>
<path fill="none" stroke="black" d="M951.55,-869.88C959.33,-867.87 967.4,-865.83 975,-864 1047.12,-846.61 1071.77,-861.43 1138,-828 1169.81,-811.94 1199.72,-783.68 1218.83,-763.31"/>
<polygon fill="black" stroke="black" points="1221.42,-765.67 1225.6,-755.93 1216.26,-760.93 1221.42,-765.67"/>
</g>
<!-- 计算机组成 -->
<g id="node4" class="node">
<title>计算机组成</title>
<ellipse fill="none" stroke="black" cx="1062" cy="-810" rx="66.89" ry="18"/>
<text text-anchor="middle" x="1062" y="-806.3" font-family="Times New Roman,serif" font-size="14.00">计算机组成</text>
</g>
<!-- 人工智能&#45;&gt;计算机组成 -->
<g id="edge3" class="edge">
<title>人工智能&#45;&gt;计算机组成</title>
<path fill="none" stroke="black" d="M940.76,-866.83C963.68,-856.28 995.24,-841.75 1020.41,-830.15"/>
<polygon fill="black" stroke="black" points="1022.09,-833.23 1029.71,-825.87 1019.17,-826.87 1022.09,-833.23"/>
</g>
<!-- 计算机网络原理 -->
<g id="node5" class="node">
<title>计算机网络原理</title>
<ellipse fill="none" stroke="black" cx="945" cy="-738" rx="89.08" ry="18"/>
<text text-anchor="middle" x="945" y="-734.3" font-family="Times New Roman,serif" font-size="14.00">计算机网络原理</text>
</g>
<!-- 人工智能&#45;&gt;计算机网络原理 -->
<g id="edge4" class="edge">
<title>人工智能&#45;&gt;计算机网络原理</title>
<path fill="none" stroke="black" d="M914.22,-863.87C920.21,-839.56 931.24,-794.82 938.34,-766.01"/>
<polygon fill="black" stroke="black" points="941.77,-766.74 940.76,-756.19 934.97,-765.06 941.77,-766.74"/>
</g>
<!-- 数理逻辑&#45;&gt;人工智能 -->
<g id="edge23" class="edge">
<title>数理逻辑&#45;&gt;人工智能</title>
<path fill="none" stroke="black" d="M225.11,-248.57C242.22,-258 262.12,-271.76 276,-288 334,-355.83 323.17,-389.17 365,-468 394.95,-524.44 436,-529.11 436,-593 436,-739 436,-739 436,-739 436,-824.42 717.56,-862.18 846.73,-875.26"/>
<polygon fill="black" stroke="black" points="846.58,-878.77 856.88,-876.27 847.27,-871.8 846.58,-878.77"/>
</g>
<!-- 形式语言与编译 -->
<g id="node17" class="node">
<title>形式语言与编译</title>
<ellipse fill="none" stroke="black" cx="1151" cy="-666" rx="89.08" ry="18"/>
<text text-anchor="middle" x="1151" y="-662.3" font-family="Times New Roman,serif" font-size="14.00">形式语言与编译</text>
</g>
<!-- 编译器设计专题实验&#45;&gt;形式语言与编译 -->
<g id="edge45" class="edge">
<title>编译器设计专题实验&#45;&gt;形式语言与编译</title>
<path fill="none" stroke="black" d="M1213.07,-720.41C1200.73,-711.48 1186.34,-700.3 1174.45,-690.49"/>
<polygon fill="black" stroke="black" points="1176.59,-687.71 1166.68,-683.96 1172.08,-693.07 1176.59,-687.71"/>
</g>
<!-- 操作系统原理i -->
<g id="node18" class="node">
<title>操作系统原理i</title>
<ellipse fill="none" stroke="black" cx="1094" cy="-90" rx="79.89" ry="18"/>
<text text-anchor="middle" x="1094" y="-86.3" font-family="Times New Roman,serif" font-size="14.00">操作系统原理i</text>
</g>
<!-- 编译器设计专题实验&#45;&gt;操作系统原理i -->
<g id="edge46" class="edge">
<title>编译器设计专题实验&#45;&gt;操作系统原理i</title>
<path fill="none" stroke="black" d="M1241.72,-719.89C1249.3,-693.58 1268,-641.37 1268,-595 1268,-595 1268,-595 1268,-521 1268,-421.47 1202,-406.53 1202,-307 1202,-307 1202,-307 1202,-233 1202,-181.39 1155.4,-138.37 1123.28,-113.65"/>
<polygon fill="black" stroke="black" points="1125.16,-110.68 1115.06,-107.46 1120.95,-116.27 1125.16,-110.68"/>
</g>
<!-- 数据库系统 -->
<g id="node19" class="node">
<title>数据库系统</title>
<ellipse fill="none" stroke="black" cx="1295" cy="-18" rx="66.89" ry="18"/>
<text text-anchor="middle" x="1295" y="-14.3" font-family="Times New Roman,serif" font-size="14.00">数据库系统</text>
</g>
<!-- 编译器设计专题实验&#45;&gt;数据库系统 -->
<g id="edge47" class="edge">
<title>编译器设计专题实验&#45;&gt;数据库系统</title>
<path fill="none" stroke="black" d="M1254.67,-720.09C1279.04,-695.62 1324,-647.46 1324,-595 1324,-595 1324,-595 1324,-161 1324,-119.81 1308.9,-74.12 1299.99,-45.98"/>
<polygon fill="black" stroke="black" points="1303.23,-44.61 1296.92,-36.09 1296.54,-46.68 1303.23,-44.61"/>
</g>
<!-- 计算机组成&#45;&gt;编译器设计专题实验 -->
<g id="edge53" class="edge">
<title>计算机组成&#45;&gt;编译器设计专题实验</title>
<path fill="none" stroke="black" d="M1098.45,-794.67C1124.86,-784.28 1160.89,-770.11 1189.98,-758.67"/>
<polygon fill="black" stroke="black" points="1191.54,-761.82 1199.56,-754.9 1188.98,-755.3 1191.54,-761.82"/>
</g>
<!-- 计算机组成&#45;&gt;计算机网络原理 -->
<g id="edge54" class="edge">
<title>计算机组成&#45;&gt;计算机网络原理</title>
<path fill="none" stroke="black" d="M1031.24,-793.98C1013.93,-784.34 992.5,-771.64 975.27,-760.88"/>
<polygon fill="black" stroke="black" points="977.01,-757.84 966.69,-755.46 973.27,-763.76 977.01,-757.84"/>
</g>
<!-- 计算机组成&#45;&gt;形式语言与编译 -->
<g id="edge50" class="edge">
<title>计算机组成&#45;&gt;形式语言与编译</title>
<path fill="none" stroke="black" d="M1072.56,-792.15C1087.93,-767.63 1116.61,-721.87 1134.7,-693"/>
<polygon fill="black" stroke="black" points="1137.83,-694.6 1140.18,-684.27 1131.9,-690.88 1137.83,-694.6"/>
</g>
<!-- 计算机组成&#45;&gt;操作系统原理i -->
<g id="edge51" class="edge">
<title>计算机组成&#45;&gt;操作系统原理i</title>
<path fill="none" stroke="black" d="M1058.22,-791.9C1050.58,-755.75 1034,-668.81 1034,-595 1034,-595 1034,-595 1034,-233 1034,-189.48 1058.21,-143.95 1075.87,-116.53"/>
<polygon fill="black" stroke="black" points="1078.95,-118.22 1081.57,-107.95 1073.12,-114.34 1078.95,-118.22"/>
</g>
<!-- 计算机组成&#45;&gt;数据库系统 -->
<g id="edge52" class="edge">
<title>计算机组成&#45;&gt;数据库系统</title>
<path fill="none" stroke="black" d="M1127.26,-805.78C1204.98,-800.56 1328.43,-787.45 1361,-756 1390.09,-727.9 1380,-707.45 1380,-667 1380,-667 1380,-667 1380,-161 1380,-113.93 1345.19,-68.95 1320.12,-42.66"/>
<polygon fill="black" stroke="black" points="1322.53,-40.12 1313.03,-35.44 1317.54,-45.03 1322.53,-40.12"/>
</g>
<!-- 计算机网络原理&#45;&gt;计算机组成 -->
<g id="edge58" class="edge">
<title>计算机网络原理&#45;&gt;计算机组成</title>
<path fill="none" stroke="black" d="M977.35,-754.91C994.41,-764.45 1015.11,-776.73 1031.83,-787.18"/>
<polygon fill="black" stroke="black" points="1030.34,-790.38 1040.66,-792.76 1034.08,-784.46 1030.34,-790.38"/>
</g>
<!-- 计算机网络原理&#45;&gt;形式语言与编译 -->
<g id="edge55" class="edge">
<title>计算机网络原理&#45;&gt;形式语言与编译</title>
<path fill="none" stroke="black" d="M988.44,-722.24C1020.34,-711.4 1063.87,-696.61 1097.86,-685.06"/>
<polygon fill="black" stroke="black" points="1099.28,-688.27 1107.62,-681.74 1097.03,-681.64 1099.28,-688.27"/>
</g>
<!-- 计算机网络原理&#45;&gt;操作系统原理i -->
<g id="edge56" class="edge">
<title>计算机网络原理&#45;&gt;操作系统原理i</title>
<path fill="none" stroke="black" d="M955.57,-719.79C970.51,-693.77 996,-642.41 996,-595 996,-595 996,-595 996,-233 996,-192.03 996.65,-177.67 1020,-144 1028.78,-131.34 1041.61,-120.63 1054.12,-112.23"/>
<polygon fill="black" stroke="black" points="1056.12,-115.11 1062.69,-106.79 1052.37,-109.2 1056.12,-115.11"/>
</g>
<!-- 计算机网络原理&#45;&gt;数据库系统 -->
<g id="edge57" class="edge">
<title>计算机网络原理&#45;&gt;数据库系统</title>
<path fill="none" stroke="black" d="M947.57,-720C951.36,-693.4 958,-640.3 958,-595 958,-595 958,-595 958,-161 958,-116.27 968.93,-98.46 1005,-72 1038.7,-47.28 1147.43,-32.53 1221.74,-25.09"/>
<polygon fill="black" stroke="black" points="1222.38,-28.55 1231.99,-24.09 1221.69,-21.58 1222.38,-28.55"/>
</g>
<!-- 大学物理II&#45;2 -->
<g id="node6" class="node">
<title>大学物理II&#45;2</title>
<ellipse fill="none" stroke="black" cx="439" cy="-378" rx="68.79" ry="18"/>
<text text-anchor="middle" x="439" y="-374.3" font-family="Times New Roman,serif" font-size="14.00">大学物理II&#45;2</text>
</g>
<!-- 概率统计与随机过程 -->
<g id="node7" class="node">
<title>概率统计与随机过程</title>
<ellipse fill="none" stroke="black" cx="576" cy="-306" rx="111.58" ry="18"/>
<text text-anchor="middle" x="576" y="-302.3" font-family="Times New Roman,serif" font-size="14.00">概率统计与随机过程</text>
</g>
<!-- 大学物理II&#45;2&#45;&gt;概率统计与随机过程 -->
<g id="edge5" class="edge">
<title>大学物理II&#45;2&#45;&gt;概率统计与随机过程</title>
<path fill="none" stroke="black" d="M464.33,-361.12C482.66,-351.16 507.81,-338.23 529.65,-327.51"/>
<polygon fill="black" stroke="black" points="531.32,-330.59 538.78,-323.06 528.26,-324.3 531.32,-330.59"/>
</g>
<!-- 电路 -->
<g id="node8" class="node">
<title>电路</title>
<ellipse fill="none" stroke="black" cx="457" cy="-234" rx="33.29" ry="18"/>
<text text-anchor="middle" x="457" y="-230.3" font-family="Times New Roman,serif" font-size="14.00">电路</text>
</g>
<!-- 大学物理II&#45;2&#45;&gt;电路 -->
<g id="edge6" class="edge">
<title>大学物理II&#45;2&#45;&gt;电路</title>
<path fill="none" stroke="black" d="M436.59,-359.87C437.1,-335.43 442.55,-290.33 448.23,-261.55"/>
<polygon fill="black" stroke="black" points="451.66,-262.26 450.33,-251.75 444.82,-260.79 451.66,-262.26"/>
</g>
<!-- 概率统计与随机过程&#45;&gt;大学物理II&#45;2 -->
<g id="edge24" class="edge">
<title>概率统计与随机过程&#45;&gt;大学物理II&#45;2</title>
<path fill="none" stroke="black" d="M549.32,-323.62C530.29,-333.91 504.42,-347.17 482.47,-357.9"/>
<polygon fill="black" stroke="black" points="480.81,-354.82 473.33,-362.33 483.86,-361.12 480.81,-354.82"/>
</g>
<!-- 概率统计与随机过程&#45;&gt;电路 -->
<g id="edge26" class="edge">
<title>概率统计与随机过程&#45;&gt;电路</title>
<path fill="none" stroke="black" d="M542.6,-288.76C524.03,-278.52 501.32,-265.22 483.89,-254.41"/>
<polygon fill="black" stroke="black" points="485.63,-251.38 475.3,-249.02 481.91,-257.3 485.63,-251.38"/>
</g>
<!-- 数字逻辑电路 -->
<g id="node20" class="node">
<title>数字逻辑电路</title>
<ellipse fill="none" stroke="black" cx="547" cy="-90" rx="77.99" ry="18"/>
<text text-anchor="middle" x="547" y="-86.3" font-family="Times New Roman,serif" font-size="14.00">数字逻辑电路</text>
</g>
<!-- 概率统计与随机过程&#45;&gt;数字逻辑电路 -->
<g id="edge25" class="edge">
<title>概率统计与随机过程&#45;&gt;数字逻辑电路</title>
<path fill="none" stroke="black" d="M573.68,-287.85C568.66,-250.83 556.78,-163.18 550.71,-118.39"/>
<polygon fill="black" stroke="black" points="554.15,-117.67 549.34,-108.23 547.21,-118.61 554.15,-117.67"/>
</g>
<!-- 电路&#45;&gt;大学物理II&#45;2 -->
<g id="edge32" class="edge">
<title>电路&#45;&gt;大学物理II&#45;2</title>
<path fill="none" stroke="black" d="M459.41,-252.19C458.89,-276.53 453.5,-321.28 447.84,-350.06"/>
<polygon fill="black" stroke="black" points="444.41,-349.36 445.76,-359.87 451.26,-350.82 444.41,-349.36"/>
</g>
<!-- 电路&#45;&gt;概率统计与随机过程 -->
<g id="edge34" class="edge">
<title>电路&#45;&gt;概率统计与随机过程</title>
<path fill="none" stroke="black" d="M481.49,-246.38C499.84,-256.22 524.91,-270.74 544.69,-282.86"/>
<polygon fill="black" stroke="black" points="543.01,-285.94 553.36,-288.23 546.7,-279.99 543.01,-285.94"/>
</g>
<!-- 电路&#45;&gt;数字逻辑电路 -->
<g id="edge33" class="edge">
<title>电路&#45;&gt;数字逻辑电路</title>
<path fill="none" stroke="black" d="M477.8,-219.78C491.3,-210.22 508.3,-196.18 519,-180 531.38,-161.28 538.56,-136.74 542.54,-118.18"/>
<polygon fill="black" stroke="black" points="545.99,-118.78 544.49,-108.29 539.13,-117.43 545.99,-118.78"/>
</g>
<!-- 离散数学a -->
<g id="node22" class="node">
<title>离散数学a</title>
<ellipse fill="none" stroke="black" cx="450" cy="-162" rx="59.59" ry="18"/>
<text text-anchor="middle" x="450" y="-158.3" font-family="Times New Roman,serif" font-size="14.00">离散数学a</text>
</g>
<!-- 电路&#45;&gt;离散数学a -->
<g id="edge35" class="edge">
<title>电路&#45;&gt;离散数学a</title>
<path fill="none" stroke="black" d="M455.27,-215.7C454.5,-207.98 453.57,-198.71 452.71,-190.11"/>
<polygon fill="black" stroke="black" points="456.19,-189.71 451.71,-180.1 449.22,-190.4 456.19,-189.71"/>
</g>
<!-- 大学英语i -->
<g id="node9" class="node">
<title>大学英语i</title>
<ellipse fill="none" stroke="black" cx="124" cy="-450" rx="57.69" ry="18"/>
<text text-anchor="middle" x="124" y="-446.3" font-family="Times New Roman,serif" font-size="14.00">大学英语i</text>
</g>
<!-- 大学计算机iii -->
<g id="node10" class="node">
<title>大学计算机iii</title>
<ellipse fill="none" stroke="black" cx="177" cy="-522" rx="72.59" ry="18"/>
<text text-anchor="middle" x="177" y="-518.3" font-family="Times New Roman,serif" font-size="14.00">大学计算机iii</text>
</g>
<!-- 大学英语i&#45;&gt;大学计算机iii -->
<g id="edge7" class="edge">
<title>大学英语i&#45;&gt;大学计算机iii</title>
<path fill="none" stroke="black" d="M142.16,-467.31C149.5,-475.76 157.68,-486.26 164.38,-495.73"/>
<polygon fill="black" stroke="black" points="161.53,-497.76 170.05,-504.05 167.31,-493.82 161.53,-497.76"/>
</g>
<!-- 模拟电子技术基础 -->
<g id="node11" class="node">
<title>模拟电子技术基础</title>
<ellipse fill="none" stroke="black" cx="159" cy="-594" rx="100.98" ry="18"/>
<text text-anchor="middle" x="159" y="-590.3" font-family="Times New Roman,serif" font-size="14.00">模拟电子技术基础</text>
</g>
<!-- 大学英语i&#45;&gt;模拟电子技术基础 -->
<g id="edge8" class="edge">
<title>大学英语i&#45;&gt;模拟电子技术基础</title>
<path fill="none" stroke="black" d="M111.06,-467.88C98.75,-486.14 83.66,-515.88 95,-540 100.67,-552.05 110.57,-562.3 120.92,-570.49"/>
<polygon fill="black" stroke="black" points="119.11,-573.5 129.24,-576.6 123.25,-567.86 119.11,-573.5"/>
</g>
<!-- 软件工程 -->
<g id="node12" class="node">
<title>软件工程</title>
<ellipse fill="none" stroke="black" cx="144" cy="-378" rx="55.79" ry="18"/>
<text text-anchor="middle" x="144" y="-374.3" font-family="Times New Roman,serif" font-size="14.00">软件工程</text>
</g>
<!-- 大学英语i&#45;&gt;软件工程 -->
<g id="edge9" class="edge">
<title>大学英语i&#45;&gt;软件工程</title>
<path fill="none" stroke="black" d="M128.84,-432.05C131.07,-424.26 133.77,-414.82 136.26,-406.08"/>
<polygon fill="black" stroke="black" points="139.68,-406.85 139.06,-396.28 132.95,-404.93 139.68,-406.85"/>
</g>
<!-- 大学计算机iii&#45;&gt;大学英语i -->
<g id="edge12" class="edge">
<title>大学计算机iii&#45;&gt;大学英语i</title>
<path fill="none" stroke="black" d="M158.6,-504.41C151.38,-496.08 143.37,-485.8 136.77,-476.49"/>
<polygon fill="black" stroke="black" points="139.48,-474.25 130.96,-467.96 133.7,-478.19 139.48,-474.25"/>
</g>
<!-- 高等数学I&#45;2 -->
<g id="node14" class="node">
<title>高等数学I&#45;2</title>
<ellipse fill="none" stroke="black" cx="532" cy="-450" rx="65.79" ry="18"/>
<text text-anchor="middle" x="532" y="-446.3" font-family="Times New Roman,serif" font-size="14.00">高等数学I&#45;2</text>
</g>
<!-- 大学计算机iii&#45;&gt;高等数学I&#45;2 -->
<g id="edge13" class="edge">
<title>大学计算机iii&#45;&gt;高等数学I&#45;2</title>
<path fill="none" stroke="black" d="M232.08,-510.14C296.54,-497.43 403.01,-476.43 470.23,-463.18"/>
<polygon fill="black" stroke="black" points="471.12,-466.57 480.26,-461.2 469.77,-459.7 471.12,-466.57"/>
</g>
<!-- 模拟电子技术基础&#45;&gt;数理逻辑 -->
<g id="edge30" class="edge">
<title>模拟电子技术基础&#45;&gt;数理逻辑</title>
<path fill="none" stroke="black" d="M118.05,-577.36C70.94,-556.38 0,-514.29 0,-451 0,-451 0,-451 0,-377 0,-307.24 82.95,-267.84 139.8,-249.02"/>
<polygon fill="black" stroke="black" points="140.93,-252.34 149.39,-245.96 138.8,-245.67 140.93,-252.34"/>
</g>
<!-- 模拟电子技术基础&#45;&gt;大学物理II&#45;2 -->
<g id="edge27" class="edge">
<title>模拟电子技术基础&#45;&gt;大学物理II&#45;2</title>
<path fill="none" stroke="black" d="M210.63,-578.49C236.45,-569.78 267.36,-557.04 292,-540 347.39,-501.7 396.79,-438.87 421.78,-404.1"/>
<polygon fill="black" stroke="black" points="424.66,-406.09 427.59,-395.9 418.95,-402.04 424.66,-406.09"/>
</g>
<!-- 模拟电子技术基础&#45;&gt;大学计算机iii -->
<g id="edge29" class="edge">
<title>模拟电子技术基础&#45;&gt;大学计算机iii</title>
<path fill="none" stroke="black" d="M163.45,-575.7C165.45,-567.9 167.87,-558.51 170.1,-549.83"/>
<polygon fill="black" stroke="black" points="173.5,-550.66 172.6,-540.1 166.72,-548.92 173.5,-550.66"/>
</g>
<!-- 模拟电子技术基础&#45;&gt;软件工程 -->
<g id="edge31" class="edge">
<title>模拟电子技术基础&#45;&gt;软件工程</title>
<path fill="none" stroke="black" d="M129.24,-576.79C114.61,-567.59 97.66,-554.94 86,-540 64.77,-512.81 63.56,-501.87 57,-468 53.96,-452.29 49.16,-445.95 57,-432 65.91,-416.15 81.69,-404.48 97.4,-396.19"/>
<polygon fill="black" stroke="black" points="99.14,-399.23 106.58,-391.69 96.06,-392.95 99.14,-399.23"/>
</g>
<!-- 大学英语iii1 -->
<g id="node13" class="node">
<title>大学英语iii1</title>
<ellipse fill="none" stroke="black" cx="192" cy="-306" rx="65.79" ry="18"/>
<text text-anchor="middle" x="192" y="-302.3" font-family="Times New Roman,serif" font-size="14.00">大学英语iii1</text>
</g>
<!-- 模拟电子技术基础&#45;&gt;大学英语iii1 -->
<g id="edge28" class="edge">
<title>模拟电子技术基础&#45;&gt;大学英语iii1</title>
<path fill="none" stroke="black" d="M209.91,-578.46C228.73,-570.34 248.11,-558.1 259,-540 280.35,-504.52 229.31,-385.95 204.54,-332.96"/>
<polygon fill="black" stroke="black" points="207.67,-331.41 200.24,-323.87 201.35,-334.4 207.67,-331.41"/>
</g>
<!-- 软件工程&#45;&gt;数理逻辑 -->
<g id="edge61" class="edge">
<title>软件工程&#45;&gt;数理逻辑</title>
<path fill="none" stroke="black" d="M131.55,-360.23C119.51,-341.79 104.75,-311.66 117,-288 124.4,-273.71 137.61,-262.46 150.91,-254.06"/>
<polygon fill="black" stroke="black" points="152.76,-257.04 159.61,-248.95 149.21,-251 152.76,-257.04"/>
</g>
<!-- 软件工程&#45;&gt;大学计算机iii -->
<g id="edge60" class="edge">
<title>软件工程&#45;&gt;大学计算机iii</title>
<path fill="none" stroke="black" d="M163.8,-394.91C174.03,-404.45 185.5,-417.51 191,-432 198.64,-452.14 194.01,-476.37 188.1,-494.46"/>
<polygon fill="black" stroke="black" points="184.73,-493.48 184.65,-504.07 191.32,-495.84 184.73,-493.48"/>
</g>
<!-- 软件工程&#45;&gt;大学英语iii1 -->
<g id="edge59" class="edge">
<title>软件工程&#45;&gt;大学英语iii1</title>
<path fill="none" stroke="black" d="M149.74,-360.05C154.63,-351.63 161.52,-341.28 168.38,-331.97"/>
<polygon fill="black" stroke="black" points="171.34,-333.86 174.63,-323.79 165.78,-329.61 171.34,-333.86"/>
</g>
<!-- 大学英语iii1&#45;&gt;数理逻辑 -->
<g id="edge10" class="edge">
<title>大学英语iii1&#45;&gt;数理逻辑</title>
<path fill="none" stroke="black" d="M192,-287.7C192,-279.98 192,-270.71 192,-262.11"/>
<polygon fill="black" stroke="black" points="195.5,-262.1 192,-252.1 188.5,-262.1 195.5,-262.1"/>
</g>
<!-- 大学英语iii1&#45;&gt;软件工程 -->
<g id="edge11" class="edge">
<title>大学英语iii1&#45;&gt;软件工程</title>
<path fill="none" stroke="black" d="M186.15,-324.12C181.19,-332.67 174.18,-343.17 167.23,-352.55"/>
<polygon fill="black" stroke="black" points="164.24,-350.7 160.93,-360.76 169.8,-354.96 164.24,-350.7"/>
</g>
<!-- 程序设计基础 -->
<g id="node16" class="node">
<title>程序设计基础</title>
<ellipse fill="none" stroke="black" cx="604" cy="-378" rx="77.99" ry="18"/>
<text text-anchor="middle" x="604" y="-374.3" font-family="Times New Roman,serif" font-size="14.00">程序设计基础</text>
</g>
<!-- 高等数学I&#45;2&#45;&gt;程序设计基础 -->
<g id="edge66" class="edge">
<title>高等数学I&#45;2&#45;&gt;程序设计基础</title>
<path fill="none" stroke="black" d="M543.55,-432.05C551.84,-423.07 563.16,-411.9 573.82,-402.12"/>
<polygon fill="black" stroke="black" points="576.31,-404.59 581.42,-395.31 571.64,-399.38 576.31,-404.59"/>
</g>
<!-- 工程制图 -->
<g id="node15" class="node">
<title>工程制图</title>
<ellipse fill="none" stroke="black" cx="334" cy="-594" rx="55.79" ry="18"/>
<text text-anchor="middle" x="334" y="-590.3" font-family="Times New Roman,serif" font-size="14.00">工程制图</text>
</g>
<!-- 工程制图&#45;&gt;大学计算机iii -->
<g id="edge14" class="edge">
<title>工程制图&#45;&gt;大学计算机iii</title>
<path fill="none" stroke="black" d="M302.61,-579C278.94,-568.45 246.2,-553.85 220.08,-542.21"/>
<polygon fill="black" stroke="black" points="221.34,-538.94 210.79,-538.06 218.49,-545.33 221.34,-538.94"/>
</g>
<!-- 工程制图&#45;&gt;程序设计基础 -->
<g id="edge15" class="edge">
<title>工程制图&#45;&gt;程序设计基础</title>
<path fill="none" stroke="black" d="M389.26,-591.23C466.06,-587.47 599.04,-575.82 629,-540 660.85,-501.92 637.28,-440.39 619.31,-405.45"/>
<polygon fill="black" stroke="black" points="622.24,-403.51 614.44,-396.34 616.07,-406.81 622.24,-403.51"/>
</g>
<!-- 程序设计基础&#45;&gt;概率统计与随机过程 -->
<g id="edge42" class="edge">
<title>程序设计基础&#45;&gt;概率统计与随机过程</title>
<path fill="none" stroke="black" d="M597.22,-360.05C594.07,-352.18 590.25,-342.62 586.72,-333.79"/>
<polygon fill="black" stroke="black" points="589.87,-332.26 582.91,-324.28 583.37,-334.86 589.87,-332.26"/>
</g>
<!-- 程序设计基础&#45;&gt;大学英语iii1 -->
<g id="edge41" class="edge">
<title>程序设计基础&#45;&gt;大学英语iii1</title>
<path fill="none" stroke="black" d="M546.95,-365.59C536.98,-363.67 526.7,-361.74 517,-360 427.53,-343.97 323.83,-327.41 258.09,-317.16"/>
<polygon fill="black" stroke="black" points="258.29,-313.65 247.87,-315.57 257.22,-320.56 258.29,-313.65"/>
</g>
<!-- 程序设计基础&#45;&gt;高等数学I&#45;2 -->
<g id="edge44" class="edge">
<title>程序设计基础&#45;&gt;高等数学I&#45;2</title>
<path fill="none" stroke="black" d="M592.28,-396.12C583.98,-405.11 572.69,-416.25 562.07,-425.98"/>
<polygon fill="black" stroke="black" points="559.61,-423.48 554.5,-432.76 564.28,-428.69 559.61,-423.48"/>
</g>
<!-- 线性代数与解析几何 -->
<g id="node23" class="node">
<title>线性代数与解析几何</title>
<ellipse fill="none" stroke="black" cx="818" cy="-306" rx="111.58" ry="18"/>
<text text-anchor="middle" x="818" y="-302.3" font-family="Times New Roman,serif" font-size="14.00">线性代数与解析几何</text>
</g>
<!-- 程序设计基础&#45;&gt;线性代数与解析几何 -->
<g id="edge43" class="edge">
<title>程序设计基础&#45;&gt;线性代数与解析几何</title>
<path fill="none" stroke="black" d="M647.05,-362.92C679.85,-352.19 725.31,-337.32 761.11,-325.61"/>
<polygon fill="black" stroke="black" points="762.52,-328.83 770.93,-322.4 760.34,-322.18 762.52,-328.83"/>
</g>
<!-- 形式语言与编译&#45;&gt;编译器设计专题实验 -->
<g id="edge17" class="edge">
<title>形式语言与编译&#45;&gt;编译器设计专题实验</title>
<path fill="none" stroke="black" d="M1177.54,-683.31C1189.94,-692.27 1204.49,-703.56 1216.49,-713.46"/>
<polygon fill="black" stroke="black" points="1214.43,-716.3 1224.33,-720.05 1218.93,-710.94 1214.43,-716.3"/>
</g>
<!-- 形式语言与编译&#45;&gt;模拟电子技术基础 -->
<g id="edge16" class="edge">
<title>形式语言与编译&#45;&gt;模拟电子技术基础</title>
<path fill="none" stroke="black" d="M1063.46,-662.45C904.73,-657.21 559,-643.05 269,-612 259.52,-610.98 249.6,-609.73 239.77,-608.36"/>
<polygon fill="black" stroke="black" points="239.98,-604.86 229.58,-606.91 238.99,-611.79 239.98,-604.86"/>
</g>
<!-- 操作系统原理i&#45;&gt;编译器设计专题实验 -->
<g id="edge19" class="edge">
<title>操作系统原理i&#45;&gt;编译器设计专题实验</title>
<path fill="none" stroke="black" d="M1125.94,-106.68C1163.44,-129.7 1220,-176.14 1220,-233 1220,-307 1220,-307 1220,-307 1220,-406.53 1286,-421.47 1286,-521 1286,-595 1286,-595 1286,-595 1286,-636.48 1271.04,-682.63 1257.83,-710.74"/>
<polygon fill="black" stroke="black" points="1254.59,-709.38 1253.25,-719.89 1260.85,-712.51 1254.59,-709.38"/>
</g>
<!-- 操作系统原理i&#45;&gt;数据库系统 -->
<g id="edge18" class="edge">
<title>操作系统原理i&#45;&gt;数据库系统</title>
<path fill="none" stroke="black" d="M1135.65,-74.5C1167.78,-63.31 1212.3,-47.8 1246.12,-36.02"/>
<polygon fill="black" stroke="black" points="1247.5,-39.25 1255.8,-32.65 1245.2,-32.64 1247.5,-39.25"/>
</g>
<!-- 数据库系统&#45;&gt;编译器设计专题实验 -->
<g id="edge22" class="edge">
<title>数据库系统&#45;&gt;编译器设计专题实验</title>
<path fill="none" stroke="black" d="M1308.22,-35.66C1322.58,-61.8 1342,-114.3 1342,-161 1342,-595 1342,-595 1342,-595 1342,-643.29 1303.9,-687.94 1274.11,-713.82"/>
<polygon fill="black" stroke="black" points="1271.79,-711.2 1266.36,-720.3 1276.28,-716.57 1271.79,-711.2"/>
</g>
<!-- 数据库系统&#45;&gt;形式语言与编译 -->
<g id="edge21" class="edge">
<title>数据库系统&#45;&gt;形式语言与编译</title>
<path fill="none" stroke="black" d="M1287.51,-36.11C1276.7,-62.42 1258,-114.63 1258,-161 1258,-307 1258,-307 1258,-307 1258,-436.08 1193.35,-580.79 1164.56,-638.85"/>
<polygon fill="black" stroke="black" points="1161.3,-637.53 1159.94,-648.03 1167.56,-640.67 1161.3,-637.53"/>
</g>
<!-- 数学建模ii -->
<g id="node21" class="node">
<title>数学建模ii</title>
<ellipse fill="none" stroke="black" cx="494" cy="-18" rx="59.59" ry="18"/>
<text text-anchor="middle" x="494" y="-14.3" font-family="Times New Roman,serif" font-size="14.00">数学建模ii</text>
</g>
<!-- 数字逻辑电路&#45;&gt;数学建模ii -->
<g id="edge20" class="edge">
<title>数字逻辑电路&#45;&gt;数学建模ii</title>
<path fill="none" stroke="black" d="M534.17,-72.05C527.79,-63.63 519.95,-53.28 512.9,-43.97"/>
<polygon fill="black" stroke="black" points="515.54,-41.65 506.71,-35.79 509.96,-45.87 515.54,-41.65"/>
</g>
<!-- 离散数学a&#45;&gt;大学物理II&#45;2 -->
<g id="edge36" class="edge">
<title>离散数学a&#45;&gt;大学物理II&#45;2</title>
<path fill="none" stroke="black" d="M435.18,-179.83C427.54,-189.65 419,-202.69 415,-216 401.21,-261.91 416.23,-317.68 427.94,-350.07"/>
<polygon fill="black" stroke="black" points="424.78,-351.61 431.58,-359.73 431.33,-349.13 424.78,-351.61"/>
</g>
<!-- 离散数学a&#45;&gt;概率统计与随机过程 -->
<g id="edge40" class="edge">
<title>离散数学a&#45;&gt;概率统计与随机过程</title>
<path fill="none" stroke="black" d="M465.59,-179.58C475.29,-189.96 487.97,-203.67 499,-216 518.25,-237.53 539.72,-262.41 555.09,-280.39"/>
<polygon fill="black" stroke="black" points="552.53,-282.79 561.69,-288.13 557.86,-278.25 552.53,-282.79"/>
</g>
<!-- 离散数学a&#45;&gt;操作系统原理i -->
<g id="edge37" class="edge">
<title>离散数学a&#45;&gt;操作系统原理i</title>
<path fill="none" stroke="black" d="M505.19,-155C619.12,-142.62 880.79,-114.17 1013.57,-99.74"/>
<polygon fill="black" stroke="black" points="1014.12,-103.2 1023.68,-98.64 1013.36,-96.24 1014.12,-103.2"/>
</g>
<!-- 离散数学a&#45;&gt;数字逻辑电路 -->
<g id="edge38" class="edge">
<title>离散数学a&#45;&gt;数字逻辑电路</title>
<path fill="none" stroke="black" d="M472.01,-145.12C485.09,-135.67 501.89,-123.56 516.26,-113.18"/>
<polygon fill="black" stroke="black" points="518.34,-116 524.4,-107.31 514.25,-110.32 518.34,-116"/>
</g>
<!-- 离散数学a&#45;&gt;数学建模ii -->
<g id="edge39" class="edge">
<title>离散数学a&#45;&gt;数学建模ii</title>
<path fill="none" stroke="black" d="M449.64,-143.75C449.79,-125.43 451.52,-95.88 460,-72 463.47,-62.21 469.05,-52.39 474.69,-43.91"/>
<polygon fill="black" stroke="black" points="477.64,-45.81 480.51,-35.61 471.9,-41.79 477.64,-45.81"/>
</g>
<!-- 计算机图形学 -->
<g id="node24" class="node">
<title>计算机图形学</title>
<ellipse fill="none" stroke="black" cx="1062" cy="-882" rx="77.99" ry="18"/>
<text text-anchor="middle" x="1062" y="-878.3" font-family="Times New Roman,serif" font-size="14.00">计算机图形学</text>
</g>
<!-- 计算机图形学&#45;&gt;计算机组成 -->
<g id="edge48" class="edge">
<title>计算机图形学&#45;&gt;计算机组成</title>
<path fill="none" stroke="black" d="M1062,-863.7C1062,-855.98 1062,-846.71 1062,-838.11"/>
<polygon fill="black" stroke="black" points="1065.5,-838.1 1062,-828.1 1058.5,-838.1 1065.5,-838.1"/>
</g>
<!-- 计算机图形学&#45;&gt;计算机网络原理 -->
<g id="edge49" class="edge">
<title>计算机图形学&#45;&gt;计算机网络原理</title>
<path fill="none" stroke="black" d="M1032.06,-865.24C1016.74,-856 998.7,-843.17 986,-828 970.64,-809.64 959.78,-784.58 953.11,-765.72"/>
<polygon fill="black" stroke="black" points="956.42,-764.6 949.92,-756.24 949.79,-766.83 956.42,-764.6"/>
</g>
<!-- 高等数学I&#45;1 -->
<g id="node25" class="node">
<title>高等数学I&#45;1</title>
<ellipse fill="none" stroke="black" cx="554" cy="-522" rx="65.79" ry="18"/>
<text text-anchor="middle" x="554" y="-518.3" font-family="Times New Roman,serif" font-size="14.00">高等数学I&#45;1</text>
</g>
<!-- 高等数学I&#45;1&#45;&gt;高等数学I&#45;2 -->
<g id="edge65" class="edge">
<title>高等数学I&#45;1&#45;&gt;高等数学I&#45;2</title>
<path fill="none" stroke="black" d="M548.67,-504.05C546.22,-496.26 543.26,-486.82 540.51,-478.08"/>
<polygon fill="black" stroke="black" points="543.77,-476.77 537.43,-468.28 537.09,-478.86 543.77,-476.77"/>
</g>
<!-- 高等数学I&#45;1&#45;&gt;程序设计基础 -->
<g id="edge63" class="edge">
<title>高等数学I&#45;1&#45;&gt;程序设计基础</title>
<path fill="none" stroke="black" d="M577.09,-504.92C588.4,-495.6 600.87,-482.79 607,-468 615.11,-448.42 613.67,-424.29 610.59,-406.09"/>
<polygon fill="black" stroke="black" points="614,-405.29 608.64,-396.15 607.13,-406.63 614,-405.29"/>
</g>
<!-- 高等数学I&#45;1&#45;&gt;离散数学a -->
<g id="edge62" class="edge">
<title>高等数学I&#45;1&#45;&gt;离散数学a</title>
<path fill="none" stroke="black" d="M503.22,-510.49C440.5,-494.2 342,-456.3 342,-379 342,-379 342,-379 342,-305 342,-254.11 386.49,-210.04 418.36,-185.01"/>
<polygon fill="black" stroke="black" points="420.73,-187.61 426.57,-178.76 416.49,-182.04 420.73,-187.61"/>
</g>
<!-- 高等数学I&#45;1&#45;&gt;线性代数与解析几何 -->
<g id="edge64" class="edge">
<title>高等数学I&#45;1&#45;&gt;线性代数与解析几何</title>
<path fill="none" stroke="black" d="M575.95,-504.78C589.84,-494.41 608.11,-480.6 624,-468 684.26,-420.22 753.19,-362.18 790.5,-330.48"/>
<polygon fill="black" stroke="black" points="793.06,-332.9 798.41,-323.75 788.53,-327.56 793.06,-332.9"/>
</g>
</g>
</svg>
