<?xml version="1.0" encoding="UTF-8" standalone="no"?>
<!DOCTYPE svg PUBLIC "-//W3C//DTD SVG 1.1//EN"
 "http://www.w3.org/Graphics/SVG/1.1/DTD/svg11.dtd">
<!-- Generated by graphviz version 2.46.0 (20210118.1747)
 -->
<!-- Pages: 1 -->
<svg width="1518pt" height="764pt"
 viewBox="0.00 0.00 1517.78 764.00" xmlns="http://www.w3.org/2000/svg" xmlns:xlink="http://www.w3.org/1999/xlink">
<g id="graph0" class="graph" transform="scale(1 1) rotate(0) translate(4 760)">
<polygon fill="white" stroke="transparent" points="-4,4 -4,-760 1513.78,-760 1513.78,4 -4,4"/>
<!-- 人工智能 -->
<g id="node1" class="node">
<title>人工智能</title>
<ellipse fill="none" stroke="black" cx="1140.99" cy="-738" rx="55.79" ry="18"/>
<text text-anchor="middle" x="1140.99" y="-734.3" font-family="Times New Roman,serif" font-size="14.00">人工智能</text>
</g>
<!-- 编译器设计专题实验 -->
<g id="node2" class="node">
<title>编译器设计专题实验</title>
<ellipse fill="none" stroke="black" cx="1397.99" cy="-594" rx="111.58" ry="18"/>
<text text-anchor="middle" x="1397.99" y="-590.3" font-family="Times New Roman,serif" font-size="14.00">编译器设计专题实验</text>
</g>
<!-- 人工智能&#45;&gt;编译器设计专题实验 -->
<g id="edge1" class="edge">
<title>人工智能&#45;&gt;编译器设计专题实验</title>
<path fill="none" stroke="black" d="M1168.01,-722.07C1213.72,-696.81 1306.48,-645.57 1359.15,-616.46"/>
<polygon fill="black" stroke="black" points="1361.13,-619.37 1368.19,-611.47 1357.74,-613.24 1361.13,-619.37"/>
</g>
<!-- 计算机组成 -->
<g id="node3" class="node">
<title>计算机组成</title>
<ellipse fill="none" stroke="black" cx="1044.99" cy="-666" rx="66.89" ry="18"/>
<text text-anchor="middle" x="1044.99" y="-662.3" font-family="Times New Roman,serif" font-size="14.00">计算机组成</text>
</g>
<!-- 人工智能&#45;&gt;计算机组成 -->
<g id="edge2" class="edge">
<title>人工智能&#45;&gt;计算机组成</title>
<path fill="none" stroke="black" d="M1119.21,-721.12C1106.17,-711.61 1089.4,-699.38 1075.11,-688.96"/>
<polygon fill="black" stroke="black" points="1077.17,-686.13 1067.02,-683.06 1073.04,-691.78 1077.17,-686.13"/>
</g>
<!-- 计算机网络原理 -->
<g id="node4" class="node">
<title>计算机网络原理</title>
<ellipse fill="none" stroke="black" cx="1140.99" cy="-594" rx="89.08" ry="18"/>
<text text-anchor="middle" x="1140.99" y="-590.3" font-family="Times New Roman,serif" font-size="14.00">计算机网络原理</text>
</g>
<!-- 人工智能&#45;&gt;计算机网络原理 -->
<g id="edge3" class="edge">
<title>人工智能&#45;&gt;计算机网络原理</title>
<path fill="none" stroke="black" d="M1140.99,-719.87C1140.99,-695.67 1140.99,-651.21 1140.99,-622.39"/>
<polygon fill="black" stroke="black" points="1144.49,-622.19 1140.99,-612.19 1137.49,-622.19 1144.49,-622.19"/>
</g>
<!-- 形式语言与编译 -->
<g id="node17" class="node">
<title>形式语言与编译</title>
<ellipse fill="none" stroke="black" cx="1242.99" cy="-522" rx="89.08" ry="18"/>
<text text-anchor="middle" x="1242.99" y="-518.3" font-family="Times New Roman,serif" font-size="14.00">形式语言与编译</text>
</g>
<!-- 编译器设计专题实验&#45;&gt;形式语言与编译 -->
<g id="edge40" class="edge">
<title>编译器设计专题实验&#45;&gt;形式语言与编译</title>
<path fill="none" stroke="black" d="M1362.04,-576.76C1339.62,-566.64 1310.61,-553.54 1286.84,-542.8"/>
<polygon fill="black" stroke="black" points="1288.24,-539.59 1277.68,-538.67 1285.35,-545.97 1288.24,-539.59"/>
</g>
<!-- 数据库系统 -->
<g id="node18" class="node">
<title>数据库系统</title>
<ellipse fill="none" stroke="black" cx="1183.99" cy="-450" rx="66.89" ry="18"/>
<text text-anchor="middle" x="1183.99" y="-446.3" font-family="Times New Roman,serif" font-size="14.00">数据库系统</text>
</g>
<!-- 编译器设计专题实验&#45;&gt;数据库系统 -->
<g id="edge42" class="edge">
<title>编译器设计专题实验&#45;&gt;数据库系统</title>
<path fill="none" stroke="black" d="M1391.18,-575.77C1382.44,-555.77 1365.43,-523.09 1340.99,-504 1314.62,-483.39 1279.79,-470.57 1249.64,-462.71"/>
<polygon fill="black" stroke="black" points="1250.16,-459.23 1239.61,-460.23 1248.48,-466.03 1250.16,-459.23"/>
</g>
<!-- 操作系统原理i -->
<g id="node19" class="node">
<title>操作系统原理i</title>
<ellipse fill="none" stroke="black" cx="1183.99" cy="-378" rx="79.89" ry="18"/>
<text text-anchor="middle" x="1183.99" y="-374.3" font-family="Times New Roman,serif" font-size="14.00">操作系统原理i</text>
</g>
<!-- 编译器设计专题实验&#45;&gt;操作系统原理i -->
<g id="edge41" class="edge">
<title>编译器设计专题实验&#45;&gt;操作系统原理i</title>
<path fill="none" stroke="black" d="M1396.01,-575.72C1393.09,-556.56 1386.09,-525.54 1369.99,-504 1333.39,-455.04 1271.66,-419.09 1229.42,-398.63"/>
<polygon fill="black" stroke="black" points="1230.73,-395.37 1220.2,-394.25 1227.73,-401.7 1230.73,-395.37"/>
</g>
<!-- 计算机组成&#45;&gt;编译器设计专题实验 -->
<g id="edge47" class="edge">
<title>计算机组成&#45;&gt;编译器设计专题实验</title>
<path fill="none" stroke="black" d="M1097.08,-654.67C1156,-642.99 1252.56,-623.84 1320.37,-610.39"/>
<polygon fill="black" stroke="black" points="1321.45,-613.75 1330.58,-608.37 1320.09,-606.88 1321.45,-613.75"/>
</g>
<!-- 计算机组成&#45;&gt;计算机网络原理 -->
<g id="edge48" class="edge">
<title>计算机组成&#45;&gt;计算机网络原理</title>
<path fill="none" stroke="black" d="M1067.26,-648.76C1079.92,-639.53 1095.97,-627.83 1109.86,-617.7"/>
<polygon fill="black" stroke="black" points="1112.16,-620.35 1118.18,-611.63 1108.04,-614.7 1112.16,-620.35"/>
</g>
<!-- 软件工程 -->
<g id="node11" class="node">
<title>软件工程</title>
<ellipse fill="none" stroke="black" cx="764.99" cy="-594" rx="55.79" ry="18"/>
<text text-anchor="middle" x="764.99" y="-590.3" font-family="Times New Roman,serif" font-size="14.00">软件工程</text>
</g>
<!-- 计算机组成&#45;&gt;软件工程 -->
<g id="edge49" class="edge">
<title>计算机组成&#45;&gt;软件工程</title>
<path fill="none" stroke="black" d="M997.81,-653.2C947.99,-640.75 869.61,-621.16 817.77,-608.19"/>
<polygon fill="black" stroke="black" points="818.32,-604.72 807.77,-605.69 816.62,-611.52 818.32,-604.72"/>
</g>
<!-- 计算机组成&#45;&gt;形式语言与编译 -->
<g id="edge44" class="edge">
<title>计算机组成&#45;&gt;形式语言与编译</title>
<path fill="none" stroke="black" d="M1102.89,-656.79C1153.67,-648.3 1221.99,-633.27 1238.99,-612 1252.69,-594.88 1252.44,-569.43 1249.5,-550.13"/>
<polygon fill="black" stroke="black" points="1252.91,-549.33 1247.65,-540.13 1246.02,-550.59 1252.91,-549.33"/>
</g>
<!-- 计算机组成&#45;&gt;数据库系统 -->
<g id="edge46" class="edge">
<title>计算机组成&#45;&gt;数据库系统</title>
<path fill="none" stroke="black" d="M1040.37,-647.73C1036.34,-629.14 1032.59,-599.12 1042.99,-576 1064.06,-529.17 1112.31,-492.77 1146.48,-471.62"/>
<polygon fill="black" stroke="black" points="1148.52,-474.48 1155.27,-466.32 1144.9,-468.48 1148.52,-474.48"/>
</g>
<!-- 计算机组成&#45;&gt;操作系统原理i -->
<g id="edge45" class="edge">
<title>计算机组成&#45;&gt;操作系统原理i</title>
<path fill="none" stroke="black" d="M1038.96,-647.83C1033.45,-629.84 1026.89,-600.78 1031.99,-576 1046.06,-507.75 1047.91,-484.27 1093.99,-432 1106.02,-418.36 1122.44,-407.27 1137.97,-398.83"/>
<polygon fill="black" stroke="black" points="1139.7,-401.87 1146.96,-394.16 1136.47,-395.66 1139.7,-401.87"/>
</g>
<!-- 计算机网络原理&#45;&gt;形式语言与编译 -->
<g id="edge50" class="edge">
<title>计算机网络原理&#45;&gt;形式语言与编译</title>
<path fill="none" stroke="black" d="M1164.91,-576.59C1178.49,-567.26 1195.69,-555.46 1210.49,-545.31"/>
<polygon fill="black" stroke="black" points="1212.61,-548.1 1218.88,-539.55 1208.65,-542.32 1212.61,-548.1"/>
</g>
<!-- 计算机网络原理&#45;&gt;数据库系统 -->
<g id="edge52" class="edge">
<title>计算机网络原理&#45;&gt;数据库系统</title>
<path fill="none" stroke="black" d="M1138.87,-575.71C1137.27,-557.35 1136.59,-527.77 1144.99,-504 1148.59,-493.82 1154.85,-483.93 1161.31,-475.51"/>
<polygon fill="black" stroke="black" points="1164.14,-477.58 1167.75,-467.62 1158.71,-473.16 1164.14,-477.58"/>
</g>
<!-- 计算机网络原理&#45;&gt;操作系统原理i -->
<g id="edge51" class="edge">
<title>计算机网络原理&#45;&gt;操作系统原理i</title>
<path fill="none" stroke="black" d="M1130.54,-576C1113.24,-545.47 1082.92,-480.06 1107.99,-432 1115.01,-418.56 1127.16,-407.83 1139.71,-399.64"/>
<polygon fill="black" stroke="black" points="1141.67,-402.55 1148.41,-394.37 1138.04,-396.56 1141.67,-402.55"/>
</g>
<!-- 大学物理II&#45;2 -->
<g id="node5" class="node">
<title>大学物理II&#45;2</title>
<ellipse fill="none" stroke="black" cx="212.99" cy="-450" rx="68.79" ry="18"/>
<text text-anchor="middle" x="212.99" y="-446.3" font-family="Times New Roman,serif" font-size="14.00">大学物理II&#45;2</text>
</g>
<!-- 概率统计与随机过程 -->
<g id="node6" class="node">
<title>概率统计与随机过程</title>
<ellipse fill="none" stroke="black" cx="293.99" cy="-378" rx="111.58" ry="18"/>
<text text-anchor="middle" x="293.99" y="-374.3" font-family="Times New Roman,serif" font-size="14.00">概率统计与随机过程</text>
</g>
<!-- 大学物理II&#45;2&#45;&gt;概率统计与随机过程 -->
<g id="edge4" class="edge">
<title>大学物理II&#45;2&#45;&gt;概率统计与随机过程</title>
<path fill="none" stroke="black" d="M232.19,-432.41C242.43,-423.56 255.21,-412.52 266.48,-402.77"/>
<polygon fill="black" stroke="black" points="269.09,-405.14 274.37,-395.96 264.52,-399.85 269.09,-405.14"/>
</g>
<!-- 电路 -->
<g id="node7" class="node">
<title>电路</title>
<ellipse fill="none" stroke="black" cx="138.99" cy="-306" rx="33.29" ry="18"/>
<text text-anchor="middle" x="138.99" y="-302.3" font-family="Times New Roman,serif" font-size="14.00">电路</text>
</g>
<!-- 大学物理II&#45;2&#45;&gt;电路 -->
<g id="edge5" class="edge">
<title>大学物理II&#45;2&#45;&gt;电路</title>
<path fill="none" stroke="black" d="M198.35,-432.18C190.14,-422.16 180.14,-408.91 172.99,-396 161.96,-376.07 152.95,-351.82 146.99,-333.67"/>
<polygon fill="black" stroke="black" points="150.29,-332.49 143.92,-324.03 143.62,-334.62 150.29,-332.49"/>
</g>
<!-- 概率统计与随机过程&#45;&gt;电路 -->
<g id="edge22" class="edge">
<title>概率统计与随机过程&#45;&gt;电路</title>
<path fill="none" stroke="black" d="M253.06,-361.12C227.29,-350.05 194.62,-335.32 170.79,-324.02"/>
<polygon fill="black" stroke="black" points="172.01,-320.72 161.48,-319.56 168.99,-327.04 172.01,-320.72"/>
</g>
<!-- 数字逻辑电路 -->
<g id="node20" class="node">
<title>数字逻辑电路</title>
<ellipse fill="none" stroke="black" cx="77.99" cy="-234" rx="77.99" ry="18"/>
<text text-anchor="middle" x="77.99" y="-230.3" font-family="Times New Roman,serif" font-size="14.00">数字逻辑电路</text>
</g>
<!-- 概率统计与随机过程&#45;&gt;数字逻辑电路 -->
<g id="edge21" class="edge">
<title>概率统计与随机过程&#45;&gt;数字逻辑电路</title>
<path fill="none" stroke="black" d="M268.68,-360.44C253.82,-350.4 234.9,-337.04 218.99,-324 201,-309.25 199.97,-301.46 180.99,-288 162.89,-275.16 141.25,-263.54 122.5,-254.48"/>
<polygon fill="black" stroke="black" points="123.8,-251.23 113.27,-250.11 120.81,-257.55 123.8,-251.23"/>
</g>
<!-- 程序设计基础 -->
<g id="node21" class="node">
<title>程序设计基础</title>
<ellipse fill="none" stroke="black" cx="305.99" cy="-306" rx="77.99" ry="18"/>
<text text-anchor="middle" x="305.99" y="-302.3" font-family="Times New Roman,serif" font-size="14.00">程序设计基础</text>
</g>
<!-- 概率统计与随机过程&#45;&gt;程序设计基础 -->
<g id="edge23" class="edge">
<title>概率统计与随机过程&#45;&gt;程序设计基础</title>
<path fill="none" stroke="black" d="M296.96,-359.7C298.28,-351.98 299.87,-342.71 301.35,-334.11"/>
<polygon fill="black" stroke="black" points="304.82,-334.55 303.06,-324.1 297.92,-333.37 304.82,-334.55"/>
</g>
<!-- 电路&#45;&gt;概率统计与随机过程 -->
<g id="edge29" class="edge">
<title>电路&#45;&gt;概率统计与随机过程</title>
<path fill="none" stroke="black" d="M165.62,-316.83C190.12,-327.02 226.53,-343.26 254.38,-356.3"/>
<polygon fill="black" stroke="black" points="252.94,-359.49 263.47,-360.59 255.92,-353.16 252.94,-359.49"/>
</g>
<!-- 电路&#45;&gt;数字逻辑电路 -->
<g id="edge28" class="edge">
<title>电路&#45;&gt;数字逻辑电路</title>
<path fill="none" stroke="black" d="M125.46,-289.46C117.81,-280.69 108.08,-269.53 99.43,-259.6"/>
<polygon fill="black" stroke="black" points="101.98,-257.2 92.77,-251.96 96.71,-261.8 101.98,-257.2"/>
</g>
<!-- 大学英语i -->
<g id="node8" class="node">
<title>大学英语i</title>
<ellipse fill="none" stroke="black" cx="582.99" cy="-90" rx="57.69" ry="18"/>
<text text-anchor="middle" x="582.99" y="-86.3" font-family="Times New Roman,serif" font-size="14.00">大学英语i</text>
</g>
<!-- 数学建模ii -->
<g id="node9" class="node">
<title>数学建模ii</title>
<ellipse fill="none" stroke="black" cx="539.99" cy="-18" rx="59.59" ry="18"/>
<text text-anchor="middle" x="539.99" y="-14.3" font-family="Times New Roman,serif" font-size="14.00">数学建模ii</text>
</g>
<!-- 大学英语i&#45;&gt;数学建模ii -->
<g id="edge6" class="edge">
<title>大学英语i&#45;&gt;数学建模ii</title>
<path fill="none" stroke="black" d="M572.58,-72.05C567.51,-63.8 561.31,-53.7 555.68,-44.54"/>
<polygon fill="black" stroke="black" points="558.52,-42.48 550.31,-35.79 552.56,-46.14 558.52,-42.48"/>
</g>
<!-- 模拟电子技术基础 -->
<g id="node10" class="node">
<title>模拟电子技术基础</title>
<ellipse fill="none" stroke="black" cx="699.99" cy="-522" rx="100.98" ry="18"/>
<text text-anchor="middle" x="699.99" y="-518.3" font-family="Times New Roman,serif" font-size="14.00">模拟电子技术基础</text>
</g>
<!-- 大学英语i&#45;&gt;模拟电子技术基础 -->
<g id="edge7" class="edge">
<title>大学英语i&#45;&gt;模拟电子技术基础</title>
<path fill="none" stroke="black" d="M616.4,-104.94C633.45,-113.72 653.06,-126.7 664.99,-144 687.95,-177.3 683.99,-192.55 683.99,-233 683.99,-379 683.99,-379 683.99,-379 683.99,-419.04 690.35,-465.03 695.05,-493.55"/>
<polygon fill="black" stroke="black" points="691.63,-494.31 696.76,-503.58 698.53,-493.14 691.63,-494.31"/>
</g>
<!-- 大学英语i&#45;&gt;软件工程 -->
<g id="edge8" class="edge">
<title>大学英语i&#45;&gt;软件工程</title>
<path fill="none" stroke="black" d="M549.59,-104.94C532.54,-113.72 512.92,-126.7 500.99,-144 478.03,-177.3 481.99,-192.55 481.99,-233 481.99,-451 481.99,-451 481.99,-451 481.99,-548.1 616.72,-578.81 700.26,-588.51"/>
<polygon fill="black" stroke="black" points="700.11,-592.02 710.43,-589.62 700.87,-585.06 700.11,-592.02"/>
</g>
<!-- 模拟电子技术基础&#45;&gt;大学物理II&#45;2 -->
<g id="edge24" class="edge">
<title>模拟电子技术基础&#45;&gt;大学物理II&#45;2</title>
<path fill="none" stroke="black" d="M624.17,-510.1C530.47,-496.63 372.37,-473.91 281.95,-460.91"/>
<polygon fill="black" stroke="black" points="282.2,-457.41 271.81,-459.45 281.21,-464.34 282.2,-457.41"/>
</g>
<!-- 大学英语iii1 -->
<g id="node12" class="node">
<title>大学英语iii1</title>
<ellipse fill="none" stroke="black" cx="815.99" cy="-450" rx="65.79" ry="18"/>
<text text-anchor="middle" x="815.99" y="-446.3" font-family="Times New Roman,serif" font-size="14.00">大学英语iii1</text>
</g>
<!-- 模拟电子技术基础&#45;&gt;大学英语iii1 -->
<g id="edge25" class="edge">
<title>模拟电子技术基础&#45;&gt;大学英语iii1</title>
<path fill="none" stroke="black" d="M727.19,-504.59C743.39,-494.82 764.09,-482.32 781.44,-471.85"/>
<polygon fill="black" stroke="black" points="783.41,-474.75 790.16,-466.59 779.79,-468.76 783.41,-474.75"/>
</g>
<!-- 数理逻辑 -->
<g id="node13" class="node">
<title>数理逻辑</title>
<ellipse fill="none" stroke="black" cx="815.99" cy="-378" rx="55.79" ry="18"/>
<text text-anchor="middle" x="815.99" y="-374.3" font-family="Times New Roman,serif" font-size="14.00">数理逻辑</text>
</g>
<!-- 模拟电子技术基础&#45;&gt;数理逻辑 -->
<g id="edge27" class="edge">
<title>模拟电子技术基础&#45;&gt;数理逻辑</title>
<path fill="none" stroke="black" d="M704.94,-503.79C711.06,-484.69 722.94,-453.71 740.99,-432 751.7,-419.13 766.24,-407.9 779.67,-399.13"/>
<polygon fill="black" stroke="black" points="781.67,-402.01 788.28,-393.73 777.95,-396.08 781.67,-402.01"/>
</g>
<!-- 大学计算机iii -->
<g id="node14" class="node">
<title>大学计算机iii</title>
<ellipse fill="none" stroke="black" cx="582.99" cy="-162" rx="72.59" ry="18"/>
<text text-anchor="middle" x="582.99" y="-158.3" font-family="Times New Roman,serif" font-size="14.00">大学计算机iii</text>
</g>
<!-- 模拟电子技术基础&#45;&gt;大学计算机iii -->
<g id="edge26" class="edge">
<title>模拟电子技术基础&#45;&gt;大学计算机iii</title>
<path fill="none" stroke="black" d="M682.85,-503.89C659.62,-478.8 620.99,-429.5 620.99,-379 620.99,-379 620.99,-379 620.99,-305 620.99,-263.63 605.76,-217.72 594.58,-189.61"/>
<polygon fill="black" stroke="black" points="597.71,-188.02 590.68,-180.09 591.24,-190.67 597.71,-188.02"/>
</g>
<!-- 软件工程&#45;&gt;模拟电子技术基础 -->
<g id="edge56" class="edge">
<title>软件工程&#45;&gt;模拟电子技术基础</title>
<path fill="none" stroke="black" d="M749.59,-576.41C741.53,-567.73 731.51,-556.95 722.6,-547.34"/>
<polygon fill="black" stroke="black" points="725.11,-544.9 715.74,-539.96 719.98,-549.67 725.11,-544.9"/>
</g>
<!-- 软件工程&#45;&gt;大学英语iii1 -->
<g id="edge53" class="edge">
<title>软件工程&#45;&gt;大学英语iii1</title>
<path fill="none" stroke="black" d="M783.59,-576.78C793.28,-567.15 804.27,-554.09 809.99,-540 817.94,-520.42 819.12,-496.43 818.49,-478.29"/>
<polygon fill="black" stroke="black" points="821.97,-477.9 817.93,-468.1 814.98,-478.28 821.97,-477.9"/>
</g>
<!-- 软件工程&#45;&gt;数理逻辑 -->
<g id="edge55" class="edge">
<title>软件工程&#45;&gt;数理逻辑</title>
<path fill="none" stroke="black" d="M790.16,-577.81C821.17,-557.39 872.05,-517.83 890.99,-468 896.68,-453.04 898.35,-446.21 890.99,-432 883.6,-417.71 870.38,-406.46 857.08,-398.06"/>
<polygon fill="black" stroke="black" points="858.78,-395 848.39,-392.95 855.23,-401.04 858.78,-395"/>
</g>
<!-- 软件工程&#45;&gt;大学计算机iii -->
<g id="edge54" class="edge">
<title>软件工程&#45;&gt;大学计算机iii</title>
<path fill="none" stroke="black" d="M709.94,-590.57C671.01,-585.86 620.51,-573.18 589.99,-540 562.62,-510.23 570.99,-491.45 570.99,-451 570.99,-451 570.99,-451 570.99,-305 570.99,-264.85 575.81,-218.55 579.35,-190.02"/>
<polygon fill="black" stroke="black" points="582.83,-190.37 580.62,-180.01 575.88,-189.49 582.83,-190.37"/>
</g>
<!-- 大学英语iii1&#45;&gt;数理逻辑 -->
<g id="edge9" class="edge">
<title>大学英语iii1&#45;&gt;数理逻辑</title>
<path fill="none" stroke="black" d="M810.11,-432.05C809.3,-424.35 809.05,-415.03 809.39,-406.36"/>
<polygon fill="black" stroke="black" points="812.89,-406.49 810.08,-396.28 805.9,-406.01 812.89,-406.49"/>
</g>
<!-- 数理逻辑&#45;&gt;人工智能 -->
<g id="edge18" class="edge">
<title>数理逻辑&#45;&gt;人工智能</title>
<path fill="none" stroke="black" d="M849.69,-392.51C868.51,-401.43 891.26,-414.68 906.99,-432 936.28,-464.23 947.99,-477.45 947.99,-521 947.99,-595 947.99,-595 947.99,-595 947.99,-635.64 941.24,-654.31 968.99,-684 973.32,-688.63 1041.31,-708.7 1090.49,-722.76"/>
<polygon fill="black" stroke="black" points="1089.78,-726.2 1100.36,-725.58 1091.7,-719.47 1089.78,-726.2"/>
</g>
<!-- 数理逻辑&#45;&gt;数学建模ii -->
<g id="edge20" class="edge">
<title>数理逻辑&#45;&gt;数学建模ii</title>
<path fill="none" stroke="black" d="M806.48,-360.11C792.75,-334.09 768.99,-282.26 768.99,-235 768.99,-235 768.99,-235 768.99,-161 768.99,-81.91 669.11,-45.35 601.28,-29.64"/>
<polygon fill="black" stroke="black" points="601.62,-26.13 591.1,-27.38 600.1,-32.97 601.62,-26.13"/>
</g>
<!-- 数理逻辑&#45;&gt;大学英语iii1 -->
<g id="edge19" class="edge">
<title>数理逻辑&#45;&gt;大学英语iii1</title>
<path fill="none" stroke="black" d="M821.91,-396.28C822.71,-404.03 822.93,-413.36 822.58,-422.01"/>
<polygon fill="black" stroke="black" points="819.09,-421.83 821.87,-432.05 826.07,-422.33 819.09,-421.83"/>
</g>
<!-- 大学计算机iii&#45;&gt;大学英语i -->
<g id="edge10" class="edge">
<title>大学计算机iii&#45;&gt;大学英语i</title>
<path fill="none" stroke="black" d="M582.99,-143.7C582.99,-135.98 582.99,-126.71 582.99,-118.11"/>
<polygon fill="black" stroke="black" points="586.49,-118.1 582.99,-108.1 579.49,-118.1 586.49,-118.1"/>
</g>
<!-- 工程制图 -->
<g id="node15" class="node">
<title>工程制图</title>
<ellipse fill="none" stroke="black" cx="305.99" cy="-234" rx="55.79" ry="18"/>
<text text-anchor="middle" x="305.99" y="-230.3" font-family="Times New Roman,serif" font-size="14.00">工程制图</text>
</g>
<!-- 工程制图&#45;&gt;大学计算机iii -->
<g id="edge11" class="edge">
<title>工程制图&#45;&gt;大学计算机iii</title>
<path fill="none" stroke="black" d="M348.67,-222.22C395.57,-210.36 471.24,-191.24 523.85,-177.95"/>
<polygon fill="black" stroke="black" points="524.88,-181.29 533.72,-175.45 523.17,-174.51 524.88,-181.29"/>
</g>
<!-- 高等数学I&#45;1 -->
<g id="node16" class="node">
<title>高等数学I&#45;1</title>
<ellipse fill="none" stroke="black" cx="295.99" cy="-162" rx="65.79" ry="18"/>
<text text-anchor="middle" x="295.99" y="-158.3" font-family="Times New Roman,serif" font-size="14.00">高等数学I&#45;1</text>
</g>
<!-- 工程制图&#45;&gt;高等数学I&#45;1 -->
<g id="edge12" class="edge">
<title>工程制图&#45;&gt;高等数学I&#45;1</title>
<path fill="none" stroke="black" d="M297.69,-216.05C295.77,-208.35 294.2,-199.03 293.3,-190.36"/>
<polygon fill="black" stroke="black" points="296.78,-189.99 292.55,-180.28 289.8,-190.51 296.78,-189.99"/>
</g>
<!-- 高等数学I&#45;1&#45;&gt;工程制图 -->
<g id="edge57" class="edge">
<title>高等数学I&#45;1&#45;&gt;工程制图</title>
<path fill="none" stroke="black" d="M304.33,-180.1C306.24,-187.79 307.79,-197.05 308.69,-205.67"/>
<polygon fill="black" stroke="black" points="305.21,-205.98 309.44,-215.7 312.19,-205.46 305.21,-205.98"/>
</g>
<!-- 线性代数与解析几何 -->
<g id="node23" class="node">
<title>线性代数与解析几何</title>
<ellipse fill="none" stroke="black" cx="356.99" cy="-90" rx="111.58" ry="18"/>
<text text-anchor="middle" x="356.99" y="-86.3" font-family="Times New Roman,serif" font-size="14.00">线性代数与解析几何</text>
</g>
<!-- 高等数学I&#45;1&#45;&gt;线性代数与解析几何 -->
<g id="edge58" class="edge">
<title>高等数学I&#45;1&#45;&gt;线性代数与解析几何</title>
<path fill="none" stroke="black" d="M304.88,-144.05C311.53,-135.37 320.68,-124.64 329.53,-115.11"/>
<polygon fill="black" stroke="black" points="332.14,-117.45 336.5,-107.79 327.07,-112.62 332.14,-117.45"/>
</g>
<!-- 高等数学I&#45;2 -->
<g id="node24" class="node">
<title>高等数学I&#45;2</title>
<ellipse fill="none" stroke="black" cx="161.99" cy="-90" rx="65.79" ry="18"/>
<text text-anchor="middle" x="161.99" y="-86.3" font-family="Times New Roman,serif" font-size="14.00">高等数学I&#45;2</text>
</g>
<!-- 高等数学I&#45;1&#45;&gt;高等数学I&#45;2 -->
<g id="edge59" class="edge">
<title>高等数学I&#45;1&#45;&gt;高等数学I&#45;2</title>
<path fill="none" stroke="black" d="M262.64,-146.5C242.2,-136.49 216.24,-123.05 195.75,-111.89"/>
<polygon fill="black" stroke="black" points="197.21,-108.7 186.76,-106.95 193.83,-114.83 197.21,-108.7"/>
</g>
<!-- 形式语言与编译&#45;&gt;数据库系统 -->
<g id="edge13" class="edge">
<title>形式语言与编译&#45;&gt;数据库系统</title>
<path fill="none" stroke="black" d="M1223.17,-504.41C1215.07,-495.91 1205.98,-485.37 1198.5,-475.91"/>
<polygon fill="black" stroke="black" points="1201.26,-473.77 1192.41,-467.96 1195.71,-478.02 1201.26,-473.77"/>
</g>
<!-- 数据库系统&#45;&gt;形式语言与编译 -->
<g id="edge16" class="edge">
<title>数据库系统&#45;&gt;形式语言与编译</title>
<path fill="none" stroke="black" d="M1203.55,-467.31C1211.69,-475.84 1220.89,-486.48 1228.44,-496.02"/>
<polygon fill="black" stroke="black" points="1225.73,-498.24 1234.59,-504.05 1231.29,-493.99 1225.73,-498.24"/>
</g>
<!-- 数据库系统&#45;&gt;操作系统原理i -->
<g id="edge17" class="edge">
<title>数据库系统&#45;&gt;操作系统原理i</title>
<path fill="none" stroke="black" d="M1178.11,-432.05C1177.3,-424.35 1177.05,-415.03 1177.39,-406.36"/>
<polygon fill="black" stroke="black" points="1180.89,-406.49 1178.08,-396.28 1173.9,-406.01 1180.89,-406.49"/>
</g>
<!-- 操作系统原理i&#45;&gt;数据库系统 -->
<g id="edge14" class="edge">
<title>操作系统原理i&#45;&gt;数据库系统</title>
<path fill="none" stroke="black" d="M1189.91,-396.28C1190.71,-404.03 1190.93,-413.36 1190.58,-422.01"/>
<polygon fill="black" stroke="black" points="1187.09,-421.83 1189.87,-432.05 1194.07,-422.33 1187.09,-421.83"/>
</g>
<!-- 数字逻辑电路&#45;&gt;数学建模ii -->
<g id="edge15" class="edge">
<title>数字逻辑电路&#45;&gt;数学建模ii</title>
<path fill="none" stroke="black" d="M72.7,-215.95C63.72,-183.24 49.87,-111.45 86.99,-72 112.83,-44.55 350.94,-28.61 471.18,-22.25"/>
<polygon fill="black" stroke="black" points="471.58,-25.73 481.39,-21.71 471.22,-18.74 471.58,-25.73"/>
</g>
<!-- 程序设计基础&#45;&gt;工程制图 -->
<g id="edge35" class="edge">
<title>程序设计基础&#45;&gt;工程制图</title>
<path fill="none" stroke="black" d="M305.99,-287.7C305.99,-279.98 305.99,-270.71 305.99,-262.11"/>
<polygon fill="black" stroke="black" points="309.49,-262.1 305.99,-252.1 302.49,-262.1 309.49,-262.1"/>
</g>
<!-- 程序设计基础&#45;&gt;高等数学I&#45;1 -->
<g id="edge37" class="edge">
<title>程序设计基础&#45;&gt;高等数学I&#45;1</title>
<path fill="none" stroke="black" d="M276.46,-289.16C262.99,-280.2 248.43,-267.65 240.99,-252 234.13,-237.55 234.73,-230.72 240.99,-216 245.98,-204.27 254.97,-193.88 264.26,-185.48"/>
<polygon fill="black" stroke="black" points="266.67,-188.02 272.05,-178.9 262.15,-182.68 266.67,-188.02"/>
</g>
<!-- 程序设计基础&#45;&gt;线性代数与解析几何 -->
<g id="edge36" class="edge">
<title>程序设计基础&#45;&gt;线性代数与解析几何</title>
<path fill="none" stroke="black" d="M335.53,-289.16C348.99,-280.2 363.56,-267.65 370.99,-252 391.72,-208.36 378.23,-150.59 367.18,-117.44"/>
<polygon fill="black" stroke="black" points="370.47,-116.26 363.86,-107.98 363.87,-118.58 370.47,-116.26"/>
</g>
<!-- 程序设计基础&#45;&gt;高等数学I&#45;2 -->
<g id="edge38" class="edge">
<title>程序设计基础&#45;&gt;高等数学I&#45;2</title>
<path fill="none" stroke="black" d="M277.15,-289.09C262.42,-279.81 245.09,-266.99 232.99,-252 199.78,-210.85 179.02,-151.74 169.06,-117.77"/>
<polygon fill="black" stroke="black" points="172.41,-116.75 166.31,-108.09 165.67,-118.66 172.41,-116.75"/>
</g>
<!-- 离散数学a -->
<g id="node22" class="node">
<title>离散数学a</title>
<ellipse fill="none" stroke="black" cx="212.99" cy="-522" rx="59.59" ry="18"/>
<text text-anchor="middle" x="212.99" y="-518.3" font-family="Times New Roman,serif" font-size="14.00">离散数学a</text>
</g>
<!-- 离散数学a&#45;&gt;大学物理II&#45;2 -->
<g id="edge30" class="edge">
<title>离散数学a&#45;&gt;大学物理II&#45;2</title>
<path fill="none" stroke="black" d="M212.99,-503.7C212.99,-495.98 212.99,-486.71 212.99,-478.11"/>
<polygon fill="black" stroke="black" points="216.49,-478.1 212.99,-468.1 209.49,-478.1 216.49,-478.1"/>
</g>
<!-- 离散数学a&#45;&gt;概率统计与随机过程 -->
<g id="edge33" class="edge">
<title>离散数学a&#45;&gt;概率统计与随机过程</title>
<path fill="none" stroke="black" d="M246.81,-507.02C263.18,-498.35 281.35,-485.49 290.99,-468 301.29,-449.33 301.36,-424.94 299.24,-406.42"/>
<polygon fill="black" stroke="black" points="302.67,-405.68 297.79,-396.27 295.74,-406.67 302.67,-405.68"/>
</g>
<!-- 离散数学a&#45;&gt;电路 -->
<g id="edge34" class="edge">
<title>离散数学a&#45;&gt;电路</title>
<path fill="none" stroke="black" d="M178.94,-507.15C162.49,-498.52 144.34,-485.65 134.99,-468 112.56,-425.64 121.97,-367.81 130.63,-334.22"/>
<polygon fill="black" stroke="black" points="134.1,-334.79 133.38,-324.22 127.35,-332.94 134.1,-334.79"/>
</g>
<!-- 离散数学a&#45;&gt;数学建模ii -->
<g id="edge32" class="edge">
<title>离散数学a&#45;&gt;数学建模ii</title>
<path fill="none" stroke="black" d="M264.55,-512.76C332.63,-498.61 443.99,-462.68 443.99,-379 443.99,-379 443.99,-379 443.99,-233 443.99,-159.11 492.22,-82.45 520.31,-44.07"/>
<polygon fill="black" stroke="black" points="523.46,-45.71 526.64,-35.6 517.85,-41.52 523.46,-45.71"/>
</g>
<!-- 离散数学a&#45;&gt;数字逻辑电路 -->
<g id="edge31" class="edge">
<title>离散数学a&#45;&gt;数字逻辑电路</title>
<path fill="none" stroke="black" d="M174.46,-508.06C155.18,-499.63 133.19,-486.66 119.99,-468 75.39,-404.93 73.64,-308.89 75.86,-262.28"/>
<polygon fill="black" stroke="black" points="79.37,-262.25 76.45,-252.07 72.38,-261.85 79.37,-262.25"/>
</g>
<!-- 线性代数与解析几何&#45;&gt;高等数学I&#45;1 -->
<g id="edge39" class="edge">
<title>线性代数与解析几何&#45;&gt;高等数学I&#45;1</title>
<path fill="none" stroke="black" d="M347.97,-108.12C341.21,-116.94 331.91,-127.81 322.97,-137.41"/>
<polygon fill="black" stroke="black" points="320.32,-135.12 315.94,-144.76 325.38,-139.95 320.32,-135.12"/>
</g>
<!-- 高等数学I&#45;2&#45;&gt;高等数学I&#45;1 -->
<g id="edge60" class="edge">
<title>高等数学I&#45;2&#45;&gt;高等数学I&#45;1</title>
<path fill="none" stroke="black" d="M195.6,-105.63C216.04,-115.64 241.95,-129.06 262.38,-140.19"/>
<polygon fill="black" stroke="black" points="260.9,-143.37 271.35,-145.12 264.27,-137.23 260.9,-143.37"/>
</g>
<!-- 计算机图形学 -->
<g id="node25" class="node">
<title>计算机图形学</title>
<ellipse fill="none" stroke="black" cx="988.99" cy="-738" rx="77.99" ry="18"/>
<text text-anchor="middle" x="988.99" y="-734.3" font-family="Times New Roman,serif" font-size="14.00">计算机图形学</text>
</g>
<!-- 计算机图形学&#45;&gt;计算机组成 -->
<g id="edge43" class="edge">
<title>计算机图形学&#45;&gt;计算机组成</title>
<path fill="none" stroke="black" d="M1002.55,-720.05C1009.36,-711.54 1017.74,-701.07 1025.25,-691.68"/>
<polygon fill="black" stroke="black" points="1028.05,-693.78 1031.56,-683.79 1022.58,-689.41 1028.05,-693.78"/>
</g>
</g>
</svg>
