<?xml version="1.0" encoding="UTF-8" standalone="no"?>
<!DOCTYPE svg PUBLIC "-//W3C//DTD SVG 1.1//EN"
 "http://www.w3.org/Graphics/SVG/1.1/DTD/svg11.dtd">
<!-- Generated by graphviz version 2.46.0 (20210118.1747)
 -->
<!-- Pages: 1 -->
<svg width="1716pt" height="1412pt"
 viewBox="0.00 0.00 1716.00 1412.00" xmlns="http://www.w3.org/2000/svg" xmlns:xlink="http://www.w3.org/1999/xlink">
<g id="graph0" class="graph" transform="scale(1 1) rotate(0) translate(4 1408)">
<polygon fill="white" stroke="transparent" points="-4,4 -4,-1408 1712,-1408 1712,4 -4,4"/>
<!-- 人工智能 -->
<g id="node1" class="node">
<title>人工智能</title>
<ellipse fill="none" stroke="black" cx="1455" cy="-1386" rx="55.79" ry="18"/>
<text text-anchor="middle" x="1455" y="-1382.3" font-family="Times New Roman,serif" font-size="14.00">人工智能</text>
</g>
<!-- 操作系统原理i -->
<g id="node2" class="node">
<title>操作系统原理i</title>
<ellipse fill="none" stroke="black" cx="1389" cy="-1314" rx="79.89" ry="18"/>
<text text-anchor="middle" x="1389" y="-1310.3" font-family="Times New Roman,serif" font-size="14.00">操作系统原理i</text>
</g>
<!-- 人工智能&#45;&gt;操作系统原理i -->
<g id="edge1" class="edge">
<title>人工智能&#45;&gt;操作系统原理i</title>
<path fill="none" stroke="black" d="M1434.26,-1369.12C1425.19,-1360.54 1414.78,-1349.77 1406.15,-1340.09"/>
<polygon fill="black" stroke="black" points="1408.59,-1337.55 1399.39,-1332.29 1403.3,-1342.14 1408.59,-1337.55"/>
</g>
<!-- 模拟电子技术基础 -->
<g id="node3" class="node">
<title>模拟电子技术基础</title>
<ellipse fill="none" stroke="black" cx="549" cy="-1026" rx="100.98" ry="18"/>
<text text-anchor="middle" x="549" y="-1022.3" font-family="Times New Roman,serif" font-size="14.00">模拟电子技术基础</text>
</g>
<!-- 人工智能&#45;&gt;模拟电子技术基础 -->
<g id="edge2" class="edge">
<title>人工智能&#45;&gt;模拟电子技术基础</title>
<path fill="none" stroke="black" d="M1399.99,-1382.4C1202.28,-1372.07 540,-1330.12 540,-1243 540,-1243 540,-1243 540,-1169 540,-1129 540,-1082.65 542.29,-1054.08"/>
<polygon fill="black" stroke="black" points="545.78,-1054.35 543.29,-1044.05 538.82,-1053.65 545.78,-1054.35"/>
</g>
<!-- 计算机组成 -->
<g id="node4" class="node">
<title>计算机组成</title>
<ellipse fill="none" stroke="black" cx="1375" cy="-306" rx="66.89" ry="18"/>
<text text-anchor="middle" x="1375" y="-302.3" font-family="Times New Roman,serif" font-size="14.00">计算机组成</text>
</g>
<!-- 人工智能&#45;&gt;计算机组成 -->
<g id="edge3" class="edge">
<title>人工智能&#45;&gt;计算机组成</title>
<path fill="none" stroke="black" d="M1486.41,-1371.04C1530.8,-1350.73 1606,-1308.18 1606,-1243 1606,-1243 1606,-1243 1606,-953 1606,-856.96 1576,-835.04 1576,-739 1576,-739 1576,-739 1576,-665 1576,-522.06 1572.53,-463.55 1474,-360 1459.53,-344.8 1439.78,-333.36 1421.67,-325.08"/>
<polygon fill="black" stroke="black" points="1422.95,-321.82 1412.39,-321.03 1420.16,-328.24 1422.95,-321.82"/>
</g>
<!-- 计算机网络原理 -->
<g id="node5" class="node">
<title>计算机网络原理</title>
<ellipse fill="none" stroke="black" cx="1421" cy="-666" rx="89.08" ry="18"/>
<text text-anchor="middle" x="1421" y="-662.3" font-family="Times New Roman,serif" font-size="14.00">计算机网络原理</text>
</g>
<!-- 人工智能&#45;&gt;计算机网络原理 -->
<g id="edge4" class="edge">
<title>人工智能&#45;&gt;计算机网络原理</title>
<path fill="none" stroke="black" d="M1456.67,-1367.93C1460.64,-1357.82 1466.39,-1344.57 1469,-1332 1472.25,-1316.33 1469.77,-1311.98 1469,-1296 1461.66,-1143.91 1436,-1107.26 1436,-955 1436,-955 1436,-955 1436,-809 1436,-768.65 1426.46,-722.74 1421.67,-694.32"/>
<polygon fill="black" stroke="black" points="1425.11,-693.66 1420.09,-684.33 1418.19,-694.75 1425.11,-693.66"/>
</g>
<!-- 操作系统原理i&#45;&gt;人工智能 -->
<g id="edge32" class="edge">
<title>操作系统原理i&#45;&gt;人工智能</title>
<path fill="none" stroke="black" d="M1410.44,-1331.55C1419.49,-1340.15 1429.77,-1350.82 1438.26,-1360.37"/>
<polygon fill="black" stroke="black" points="1435.71,-1362.78 1444.9,-1368.05 1441.01,-1358.2 1435.71,-1362.78"/>
</g>
<!-- 操作系统原理i&#45;&gt;计算机网络原理 -->
<g id="edge35" class="edge">
<title>操作系统原理i&#45;&gt;计算机网络原理</title>
<path fill="none" stroke="black" d="M1383.29,-1295.95C1380,-1269.29 1380,-1216.11 1380,-1171 1380,-1171 1380,-1171 1380,-809 1380,-767.86 1392.94,-721.61 1404.68,-693.4"/>
<polygon fill="black" stroke="black" points="1407.9,-694.77 1408.76,-684.21 1401.5,-691.93 1407.9,-694.77"/>
</g>
<!-- 形式语言与编译 -->
<g id="node7" class="node">
<title>形式语言与编译</title>
<ellipse fill="none" stroke="black" cx="1074" cy="-18" rx="89.08" ry="18"/>
<text text-anchor="middle" x="1074" y="-14.3" font-family="Times New Roman,serif" font-size="14.00">形式语言与编译</text>
</g>
<!-- 操作系统原理i&#45;&gt;形式语言与编译 -->
<g id="edge33" class="edge">
<title>操作系统原理i&#45;&gt;形式语言与编译</title>
<path fill="none" stroke="black" d="M1409.93,-1296.4C1480.9,-1238.08 1708,-1034.04 1708,-811 1708,-811 1708,-811 1708,-161 1708,-52.63 1350.84,-26.94 1172.66,-20.87"/>
<polygon fill="black" stroke="black" points="1172.6,-17.37 1162.49,-20.54 1172.37,-24.36 1172.6,-17.37"/>
</g>
<!-- 概率统计与随机过程 -->
<g id="node8" class="node">
<title>概率统计与随机过程</title>
<ellipse fill="none" stroke="black" cx="830" cy="-1242" rx="111.58" ry="18"/>
<text text-anchor="middle" x="830" y="-1238.3" font-family="Times New Roman,serif" font-size="14.00">概率统计与随机过程</text>
</g>
<!-- 操作系统原理i&#45;&gt;概率统计与随机过程 -->
<g id="edge34" class="edge">
<title>操作系统原理i&#45;&gt;概率统计与随机过程</title>
<path fill="none" stroke="black" d="M1321.01,-1304.49C1222.02,-1292.09 1037.77,-1269.02 925.29,-1254.93"/>
<polygon fill="black" stroke="black" points="925.66,-1251.45 915.3,-1253.68 924.79,-1258.4 925.66,-1251.45"/>
</g>
<!-- 模拟电子技术基础&#45;&gt;人工智能 -->
<g id="edge58" class="edge">
<title>模拟电子技术基础&#45;&gt;人工智能</title>
<path fill="none" stroke="black" d="M554.71,-1044.05C558,-1070.71 558,-1123.89 558,-1169 558,-1243 558,-1243 558,-1243 558,-1327.69 1183.92,-1369.7 1390.09,-1381.47"/>
<polygon fill="black" stroke="black" points="1389.98,-1384.97 1400.17,-1382.04 1390.38,-1377.98 1389.98,-1384.97"/>
</g>
<!-- 大学英语i -->
<g id="node12" class="node">
<title>大学英语i</title>
<ellipse fill="none" stroke="black" cx="463" cy="-954" rx="57.69" ry="18"/>
<text text-anchor="middle" x="463" y="-950.3" font-family="Times New Roman,serif" font-size="14.00">大学英语i</text>
</g>
<!-- 模拟电子技术基础&#45;&gt;大学英语i -->
<g id="edge59" class="edge">
<title>模拟电子技术基础&#45;&gt;大学英语i</title>
<path fill="none" stroke="black" d="M528.18,-1008.05C516.95,-998.92 502.95,-987.51 490.8,-977.63"/>
<polygon fill="black" stroke="black" points="492.71,-974.67 482.74,-971.07 488.29,-980.09 492.71,-974.67"/>
</g>
<!-- 数理逻辑 -->
<g id="node13" class="node">
<title>数理逻辑</title>
<ellipse fill="none" stroke="black" cx="537" cy="-882" rx="55.79" ry="18"/>
<text text-anchor="middle" x="537" y="-878.3" font-family="Times New Roman,serif" font-size="14.00">数理逻辑</text>
</g>
<!-- 模拟电子技术基础&#45;&gt;数理逻辑 -->
<g id="edge61" class="edge">
<title>模拟电子技术基础&#45;&gt;数理逻辑</title>
<path fill="none" stroke="black" d="M547.55,-1007.87C545.51,-983.67 541.75,-939.21 539.31,-910.39"/>
<polygon fill="black" stroke="black" points="542.78,-909.86 538.45,-900.19 535.81,-910.45 542.78,-909.86"/>
</g>
<!-- 大学英语iii1 -->
<g id="node14" class="node">
<title>大学英语iii1</title>
<ellipse fill="none" stroke="black" cx="490" cy="-522" rx="65.79" ry="18"/>
<text text-anchor="middle" x="490" y="-518.3" font-family="Times New Roman,serif" font-size="14.00">大学英语iii1</text>
</g>
<!-- 模拟电子技术基础&#45;&gt;大学英语iii1 -->
<g id="edge60" class="edge">
<title>模拟电子技术基础&#45;&gt;大学英语iii1</title>
<path fill="none" stroke="black" d="M470.12,-1014.68C440.53,-1007.19 408.86,-994.27 387,-972 357.86,-942.31 358,-924.6 358,-883 358,-883 358,-883 358,-737 358,-658.46 421.05,-582.69 460.17,-545.98"/>
<polygon fill="black" stroke="black" points="462.61,-548.49 467.65,-539.17 457.9,-543.31 462.61,-548.49"/>
</g>
<!-- 软件工程 -->
<g id="node18" class="node">
<title>软件工程</title>
<ellipse fill="none" stroke="black" cx="650" cy="-594" rx="55.79" ry="18"/>
<text text-anchor="middle" x="650" y="-590.3" font-family="Times New Roman,serif" font-size="14.00">软件工程</text>
</g>
<!-- 模拟电子技术基础&#45;&gt;软件工程 -->
<g id="edge62" class="edge">
<title>模拟电子技术基础&#45;&gt;软件工程</title>
<path fill="none" stroke="black" d="M560.87,-1008.02C581.91,-983.08 622,-933.96 622,-883 622,-883 622,-883 622,-809 622,-753.05 632.41,-739.77 637,-684 638.7,-663.32 639.72,-639.87 641.6,-622.24"/>
<polygon fill="black" stroke="black" points="645.1,-622.45 642.89,-612.09 638.15,-621.56 645.1,-622.45"/>
</g>
<!-- 高等数学I.1 -->
<g id="node25" class="node">
<title>高等数学I.1</title>
<ellipse fill="none" stroke="black" cx="854" cy="-90" rx="65.79" ry="18"/>
<text text-anchor="middle" x="854" y="-86.3" font-family="Times New Roman,serif" font-size="14.00">高等数学I.1</text>
</g>
<!-- 模拟电子技术基础&#45;&gt;高等数学I.1 -->
<g id="edge63" class="edge">
<title>模拟电子技术基础&#45;&gt;高等数学I.1</title>
<path fill="none" stroke="black" d="M590.64,-1009.58C640.2,-989.5 716,-948.96 716,-883 716,-883 716,-883 716,-737 716,-536.29 854,-507.71 854,-307 854,-307 854,-307 854,-233 854,-192.92 850.38,-146.59 850.03,-118.05"/>
<polygon fill="black" stroke="black" points="853.53,-118.04 850.07,-108.03 846.53,-118.01 853.53,-118.04"/>
</g>
<!-- 计算机组成&#45;&gt;人工智能 -->
<g id="edge93" class="edge">
<title>计算机组成&#45;&gt;人工智能</title>
<path fill="none" stroke="black" d="M1422.5,-318.78C1446.15,-327.18 1473.43,-340.48 1492,-360 1590.53,-463.55 1594,-522.06 1594,-665 1594,-739 1594,-739 1594,-739 1594,-835.04 1624,-856.96 1624,-953 1624,-1243 1624,-1243 1624,-1243 1624,-1306.15 1553.41,-1348.06 1503.37,-1369.08"/>
<polygon fill="black" stroke="black" points="1501.93,-1365.89 1493.97,-1372.89 1504.55,-1372.38 1501.93,-1365.89"/>
</g>
<!-- 计算机组成&#45;&gt;操作系统原理i -->
<g id="edge95" class="edge">
<title>计算机组成&#45;&gt;操作系统原理i</title>
<path fill="none" stroke="black" d="M1403.05,-322.42C1439.91,-344.98 1500,-390.7 1500,-449 1500,-523 1500,-523 1500,-523 1500,-579.19 1514.77,-591.97 1519,-648 1529.98,-793.29 1495.61,-828.75 1469,-972 1445.17,-1100.29 1450.86,-1135.44 1412,-1260 1409.25,-1268.81 1405.51,-1278.13 1401.84,-1286.46"/>
<polygon fill="black" stroke="black" points="1398.6,-1285.14 1397.63,-1295.69 1404.96,-1288.04 1398.6,-1285.14"/>
</g>
<!-- 计算机组成&#45;&gt;计算机网络原理 -->
<g id="edge99" class="edge">
<title>计算机组成&#45;&gt;计算机网络原理</title>
<path fill="none" stroke="black" d="M1390.07,-323.91C1406.75,-349.96 1430,-401.84 1430,-449 1430,-523 1430,-523 1430,-523 1430,-563 1430,-609.35 1427.71,-637.92"/>
<polygon fill="black" stroke="black" points="1424.22,-637.65 1426.71,-647.95 1431.18,-638.35 1424.22,-637.65"/>
</g>
<!-- 计算机组成&#45;&gt;形式语言与编译 -->
<g id="edge94" class="edge">
<title>计算机组成&#45;&gt;形式语言与编译</title>
<path fill="none" stroke="black" d="M1338,-290.96C1316.58,-281.79 1289.82,-268.46 1269,-252 1227.94,-219.55 1133.35,-97.39 1092.91,-44.11"/>
<polygon fill="black" stroke="black" points="1095.5,-41.74 1086.67,-35.88 1089.92,-45.96 1095.5,-41.74"/>
</g>
<!-- 编译器设计专题实验 -->
<g id="node21" class="node">
<title>编译器设计专题实验</title>
<ellipse fill="none" stroke="black" cx="1390" cy="-234" rx="111.58" ry="18"/>
<text text-anchor="middle" x="1390" y="-230.3" font-family="Times New Roman,serif" font-size="14.00">编译器设计专题实验</text>
</g>
<!-- 计算机组成&#45;&gt;编译器设计专题实验 -->
<g id="edge98" class="edge">
<title>计算机组成&#45;&gt;编译器设计专题实验</title>
<path fill="none" stroke="black" d="M1378.71,-287.7C1380.36,-279.98 1382.35,-270.71 1384.19,-262.11"/>
<polygon fill="black" stroke="black" points="1387.66,-262.62 1386.33,-252.1 1380.82,-261.15 1387.66,-262.62"/>
</g>
<!-- 数学建模ii -->
<g id="node22" class="node">
<title>数学建模ii</title>
<ellipse fill="none" stroke="black" cx="1162" cy="-234" rx="59.59" ry="18"/>
<text text-anchor="middle" x="1162" y="-230.3" font-family="Times New Roman,serif" font-size="14.00">数学建模ii</text>
</g>
<!-- 计算机组成&#45;&gt;数学建模ii -->
<g id="edge96" class="edge">
<title>计算机组成&#45;&gt;数学建模ii</title>
<path fill="none" stroke="black" d="M1331.09,-292.32C1295,-281.02 1244.18,-264.37 1207.63,-251.93"/>
<polygon fill="black" stroke="black" points="1208.32,-248.47 1197.73,-248.54 1206.06,-255.09 1208.32,-248.47"/>
</g>
<!-- 数据库系统 -->
<g id="node23" class="node">
<title>数据库系统</title>
<ellipse fill="none" stroke="black" cx="1201" cy="-810" rx="66.89" ry="18"/>
<text text-anchor="middle" x="1201" y="-806.3" font-family="Times New Roman,serif" font-size="14.00">数据库系统</text>
</g>
<!-- 计算机组成&#45;&gt;数据库系统 -->
<g id="edge97" class="edge">
<title>计算机组成&#45;&gt;数据库系统</title>
<path fill="none" stroke="black" d="M1377.22,-324.14C1375.05,-353.79 1362.1,-416.46 1346,-468 1308.36,-588.48 1247.56,-726.63 1217.8,-783.01"/>
<polygon fill="black" stroke="black" points="1214.64,-781.49 1212.96,-791.95 1220.8,-784.82 1214.64,-781.49"/>
</g>
<!-- 计算机网络原理&#45;&gt;人工智能 -->
<g id="edge100" class="edge">
<title>计算机网络原理&#45;&gt;人工智能</title>
<path fill="none" stroke="black" d="M1431.45,-683.89C1441.74,-710.34 1454,-763.25 1454,-809 1454,-955 1454,-955 1454,-955 1454,-1107.26 1479.66,-1143.91 1487,-1296 1487.77,-1311.98 1490.25,-1316.33 1487,-1332 1485.05,-1341.38 1481.36,-1351.13 1477.03,-1359.68"/>
<polygon fill="black" stroke="black" points="1473.97,-1357.97 1472.13,-1368.4 1480.07,-1361.4 1473.97,-1357.97"/>
</g>
<!-- 计算机网络原理&#45;&gt;操作系统原理i -->
<g id="edge101" class="edge">
<title>计算机网络原理&#45;&gt;操作系统原理i</title>
<path fill="none" stroke="black" d="M1420.29,-684.21C1414.17,-710.64 1398,-763.01 1398,-809 1398,-1171 1398,-1171 1398,-1171 1398,-1211 1398,-1257.35 1395.71,-1285.92"/>
<polygon fill="black" stroke="black" points="1392.22,-1285.65 1394.71,-1295.95 1399.18,-1286.35 1392.22,-1285.65"/>
</g>
<!-- 计算机网络原理&#45;&gt;计算机组成 -->
<g id="edge102" class="edge">
<title>计算机网络原理&#45;&gt;计算机组成</title>
<path fill="none" stroke="black" d="M1415.29,-647.95C1412,-621.29 1412,-568.11 1412,-523 1412,-523 1412,-523 1412,-449 1412,-407.23 1393.76,-361.76 1382.5,-333.81"/>
<polygon fill="black" stroke="black" points="1385.68,-332.33 1378.71,-324.34 1379.18,-334.93 1385.68,-332.33"/>
</g>
<!-- 计算机网络原理&#45;&gt;软件工程 -->
<g id="edge103" class="edge">
<title>计算机网络原理&#45;&gt;软件工程</title>
<path fill="none" stroke="black" d="M1340.74,-658.1C1186.64,-644.42 852.5,-614.07 713.05,-601.09"/>
<polygon fill="black" stroke="black" points="713.23,-597.59 702.95,-600.15 712.58,-604.56 713.23,-597.59"/>
</g>
<!-- 大学物理II.2 -->
<g id="node6" class="node">
<title>大学物理II.2</title>
<ellipse fill="none" stroke="black" cx="715" cy="-1098" rx="68.49" ry="18"/>
<text text-anchor="middle" x="715" y="-1094.3" font-family="Times New Roman,serif" font-size="14.00">大学物理II.2</text>
</g>
<!-- 大学物理II.2&#45;&gt;模拟电子技术基础 -->
<g id="edge7" class="edge">
<title>大学物理II.2&#45;&gt;模拟电子技术基础</title>
<path fill="none" stroke="black" d="M680.2,-1082.33C655.73,-1072.01 622.71,-1058.08 595.91,-1046.78"/>
<polygon fill="black" stroke="black" points="596.92,-1043.41 586.35,-1042.75 594.2,-1049.86 596.92,-1043.41"/>
</g>
<!-- 大学物理II.2&#45;&gt;形式语言与编译 -->
<g id="edge5" class="edge">
<title>大学物理II.2&#45;&gt;形式语言与编译</title>
<path fill="none" stroke="black" d="M734.34,-1080.61C771.23,-1047.41 848,-968.08 848,-883 848,-883 848,-883 848,-809 848,-705.12 942,-698.88 942,-595 942,-595 942,-595 942,-521 942,-425.85 948,-402.15 948,-307 948,-307 948,-307 948,-161 948,-107.45 998.75,-64.68 1035.84,-40.57"/>
<polygon fill="black" stroke="black" points="1037.86,-43.43 1044.46,-35.13 1034.13,-37.5 1037.86,-43.43"/>
</g>
<!-- 大学物理II.2&#45;&gt;概率统计与随机过程 -->
<g id="edge6" class="edge">
<title>大学物理II.2&#45;&gt;概率统计与随机过程</title>
<path fill="none" stroke="black" d="M728.56,-1115.75C748.61,-1140.5 786.29,-1187.03 809.66,-1215.88"/>
<polygon fill="black" stroke="black" points="807.11,-1218.3 816.13,-1223.87 812.55,-1213.9 807.11,-1218.3"/>
</g>
<!-- 电路 -->
<g id="node9" class="node">
<title>电路</title>
<ellipse fill="none" stroke="black" cx="830" cy="-1170" rx="33.29" ry="18"/>
<text text-anchor="middle" x="830" y="-1166.3" font-family="Times New Roman,serif" font-size="14.00">电路</text>
</g>
<!-- 大学物理II.2&#45;&gt;电路 -->
<g id="edge8" class="edge">
<title>大学物理II.2&#45;&gt;电路</title>
<path fill="none" stroke="black" d="M745.8,-1114.29C763.84,-1124.51 786.28,-1138.08 803.53,-1149.14"/>
<polygon fill="black" stroke="black" points="801.73,-1152.15 812.02,-1154.67 805.55,-1146.28 801.73,-1152.15"/>
</g>
<!-- 线性代数与解析几何 -->
<g id="node10" class="node">
<title>线性代数与解析几何</title>
<ellipse fill="none" stroke="black" cx="290" cy="-162" rx="111.58" ry="18"/>
<text text-anchor="middle" x="290" y="-158.3" font-family="Times New Roman,serif" font-size="14.00">线性代数与解析几何</text>
</g>
<!-- 大学物理II.2&#45;&gt;线性代数与解析几何 -->
<g id="edge9" class="edge">
<title>大学物理II.2&#45;&gt;线性代数与解析几何</title>
<path fill="none" stroke="black" d="M650.44,-1091.97C517.51,-1079.5 226,-1041.69 226,-955 226,-955 226,-955 226,-521 226,-395.83 259.25,-248.88 278.28,-189.69"/>
<polygon fill="black" stroke="black" points="281.66,-190.59 281.54,-180 275.03,-188.36 281.66,-190.59"/>
</g>
<!-- 高等数学I.2 -->
<g id="node11" class="node">
<title>高等数学I.2</title>
<ellipse fill="none" stroke="black" cx="736" cy="-234" rx="65.79" ry="18"/>
<text text-anchor="middle" x="736" y="-230.3" font-family="Times New Roman,serif" font-size="14.00">高等数学I.2</text>
</g>
<!-- 大学物理II.2&#45;&gt;高等数学I.2 -->
<g id="edge10" class="edge">
<title>大学物理II.2&#45;&gt;高等数学I.2</title>
<path fill="none" stroke="black" d="M726.81,-1079.96C743.51,-1054.16 772,-1003.08 772,-955 772,-955 772,-955 772,-737 772,-537.33 797.71,-483.47 757,-288 755.14,-279.09 751.91,-269.73 748.53,-261.41"/>
<polygon fill="black" stroke="black" points="751.73,-260 744.56,-252.2 745.3,-262.77 751.73,-260"/>
</g>
<!-- 形式语言与编译&#45;&gt;计算机网络原理 -->
<g id="edge31" class="edge">
<title>形式语言与编译&#45;&gt;计算机网络原理</title>
<path fill="none" stroke="black" d="M1157.26,-24.51C1304.16,-36.52 1594,-71.57 1594,-161 1594,-451 1594,-451 1594,-451 1594,-537.71 1507.04,-609.04 1456.43,-643.21"/>
<polygon fill="black" stroke="black" points="1454.44,-640.33 1448.03,-648.76 1458.3,-646.16 1454.44,-640.33"/>
</g>
<!-- 数字逻辑电路 -->
<g id="node20" class="node">
<title>数字逻辑电路</title>
<ellipse fill="none" stroke="black" cx="992" cy="-738" rx="77.99" ry="18"/>
<text text-anchor="middle" x="992" y="-734.3" font-family="Times New Roman,serif" font-size="14.00">数字逻辑电路</text>
</g>
<!-- 形式语言与编译&#45;&gt;数字逻辑电路 -->
<g id="edge29" class="edge">
<title>形式语言与编译&#45;&gt;数字逻辑电路</title>
<path fill="none" stroke="black" d="M1070.08,-36.32C1059.49,-62.47 1036,-114 1036,-161 1036,-595 1036,-595 1036,-595 1036,-636.34 1021.84,-682.53 1009.22,-710.68"/>
<polygon fill="black" stroke="black" points="1006,-709.32 1004.85,-719.85 1012.31,-712.33 1006,-709.32"/>
</g>
<!-- 形式语言与编译&#45;&gt;编译器设计专题实验 -->
<g id="edge30" class="edge">
<title>形式语言与编译&#45;&gt;编译器设计专题实验</title>
<path fill="none" stroke="black" d="M1150.47,-27.39C1189.8,-34.59 1236.85,-47.82 1273,-72 1325.32,-106.99 1365.61,-170.75 1382.45,-206.64"/>
<polygon fill="black" stroke="black" points="1379.33,-208.24 1386.56,-215.98 1385.73,-205.42 1379.33,-208.24"/>
</g>
<!-- 概率统计与随机过程&#45;&gt;电路 -->
<g id="edge54" class="edge">
<title>概率统计与随机过程&#45;&gt;电路</title>
<path fill="none" stroke="black" d="M830,-1223.7C830,-1215.98 830,-1206.71 830,-1198.11"/>
<polygon fill="black" stroke="black" points="833.5,-1198.1 830,-1188.1 826.5,-1198.1 833.5,-1198.1"/>
</g>
<!-- 概率统计与随机过程&#45;&gt;线性代数与解析几何 -->
<g id="edge56" class="edge">
<title>概率统计与随机过程&#45;&gt;线性代数与解析几何</title>
<path fill="none" stroke="black" d="M723.31,-1236.61C589.67,-1225.08 363.32,-1184.52 240,-1044 149.3,-940.64 188,-876.51 188,-739 188,-739 188,-739 188,-521 188,-392.4 249.63,-247.42 277.08,-189.22"/>
<polygon fill="black" stroke="black" points="280.32,-190.55 281.48,-180.01 274.01,-187.53 280.32,-190.55"/>
</g>
<!-- 概率统计与随机过程&#45;&gt;数字逻辑电路 -->
<g id="edge53" class="edge">
<title>概率统计与随机过程&#45;&gt;数字逻辑电路</title>
<path fill="none" stroke="black" d="M866.33,-1224.96C911.42,-1203.94 982,-1162.17 982,-1099 982,-1099 982,-1099 982,-881 982,-841 982.4,-794.65 984.99,-766.08"/>
<polygon fill="black" stroke="black" points="988.48,-766.37 986.09,-756.05 981.52,-765.61 988.48,-766.37"/>
</g>
<!-- 概率统计与随机过程&#45;&gt;编译器设计专题实验 -->
<g id="edge57" class="edge">
<title>概率统计与随机过程&#45;&gt;编译器设计专题实验</title>
<path fill="none" stroke="black" d="M910.94,-1229.57C1114.58,-1195.8 1632,-1076.77 1632,-739 1632,-739 1632,-739 1632,-449 1632,-348.9 1514.36,-284.35 1443.12,-254.45"/>
<polygon fill="black" stroke="black" points="1444.4,-251.19 1433.82,-250.63 1441.75,-257.66 1444.4,-251.19"/>
</g>
<!-- 离散数学a -->
<g id="node24" class="node">
<title>离散数学a</title>
<ellipse fill="none" stroke="black" cx="127" cy="-90" rx="59.59" ry="18"/>
<text text-anchor="middle" x="127" y="-86.3" font-family="Times New Roman,serif" font-size="14.00">离散数学a</text>
</g>
<!-- 概率统计与随机过程&#45;&gt;离散数学a -->
<g id="edge55" class="edge">
<title>概率统计与随机过程&#45;&gt;离散数学a</title>
<path fill="none" stroke="black" d="M730.88,-1233.64C518.3,-1216.13 38,-1168.25 38,-1099 38,-1099 38,-1099 38,-1025 38,-928.4 0,-907.6 0,-811 0,-811 0,-811 0,-233 0,-179.44 50.28,-135.3 87.7,-111.1"/>
<polygon fill="black" stroke="black" points="89.78,-113.93 96.42,-105.67 86.08,-107.99 89.78,-113.93"/>
</g>
<!-- 电路&#45;&gt;大学物理II.2 -->
<g id="edge64" class="edge">
<title>电路&#45;&gt;大学物理II.2</title>
<path fill="none" stroke="black" d="M805.84,-1157.44C787.93,-1147.52 763.6,-1132.94 744.56,-1120.83"/>
<polygon fill="black" stroke="black" points="746.26,-1117.76 735.96,-1115.29 742.47,-1123.65 746.26,-1117.76"/>
</g>
<!-- 电路&#45;&gt;数字逻辑电路 -->
<g id="edge65" class="edge">
<title>电路&#45;&gt;数字逻辑电路</title>
<path fill="none" stroke="black" d="M847.71,-1154.64C861.24,-1145.27 879.11,-1131.85 891,-1116 916.42,-1082.13 925,-1069.34 925,-1027 925,-1027 925,-1027 925,-881 925,-837.27 948.87,-791.21 968.36,-763.8"/>
<polygon fill="black" stroke="black" points="971.32,-765.69 974.5,-755.59 965.71,-761.5 971.32,-765.69"/>
</g>
<!-- 电路&#45;&gt;离散数学a -->
<g id="edge66" class="edge">
<title>电路&#45;&gt;离散数学a</title>
<path fill="none" stroke="black" d="M797.72,-1165.7C687.15,-1153.26 326.36,-1106.7 231,-1044 56.67,-929.38 94,-803.64 94,-595 94,-595 94,-595 94,-233 94,-192.25 103.73,-145.83 113.12,-117.48"/>
<polygon fill="black" stroke="black" points="116.48,-118.49 116.55,-107.89 109.88,-116.13 116.48,-118.49"/>
</g>
<!-- 电路&#45;&gt;高等数学I.1 -->
<g id="edge67" class="edge">
<title>电路&#45;&gt;高等数学I.1</title>
<path fill="none" stroke="black" d="M841.06,-1152.78C857.38,-1127.22 886,-1075.5 886,-1027 886,-1027 886,-1027 886,-809 886,-713.55 904,-690.45 904,-595 904,-595 904,-595 904,-521 904,-425.85 910,-402.15 910,-307 910,-307 910,-307 910,-233 910,-189.91 887.4,-144.26 870.92,-116.7"/>
<polygon fill="black" stroke="black" points="873.83,-114.75 865.6,-108.07 867.87,-118.42 873.83,-114.75"/>
</g>
<!-- 线性代数与解析几何&#45;&gt;人工智能 -->
<g id="edge79" class="edge">
<title>线性代数与解析几何&#45;&gt;人工智能</title>
<path fill="none" stroke="black" d="M273.74,-180.1C264.95,-190 254.42,-203.05 247,-216 176.3,-339.43 150,-378.75 150,-521 150,-595 150,-595 150,-595 150,-797.41 0,-822.59 0,-1025 0,-1243 0,-1243 0,-1243 0,-1384.49 1104,-1387.23 1388.68,-1385.58"/>
<polygon fill="black" stroke="black" points="1388.88,-1389.08 1398.85,-1385.52 1388.83,-1382.08 1388.88,-1389.08"/>
</g>
<!-- 线性代数与解析几何&#45;&gt;大学物理II.2 -->
<g id="edge80" class="edge">
<title>线性代数与解析几何&#45;&gt;大学物理II.2</title>
<path fill="none" stroke="black" d="M289.4,-180.36C281.19,-231.9 244,-388.63 244,-521 244,-955 244,-955 244,-955 244,-1037.69 509.22,-1075.91 641.67,-1090.08"/>
<polygon fill="black" stroke="black" points="641.43,-1093.57 651.74,-1091.14 642.17,-1086.61 641.43,-1093.57"/>
</g>
<!-- 程序设计基础 -->
<g id="node19" class="node">
<title>程序设计基础</title>
<ellipse fill="none" stroke="black" cx="616" cy="-378" rx="77.99" ry="18"/>
<text text-anchor="middle" x="616" y="-374.3" font-family="Times New Roman,serif" font-size="14.00">程序设计基础</text>
</g>
<!-- 线性代数与解析几何&#45;&gt;程序设计基础 -->
<g id="edge82" class="edge">
<title>线性代数与解析几何&#45;&gt;程序设计基础</title>
<path fill="none" stroke="black" d="M323.27,-179.25C365.31,-202.61 438.95,-247.34 500,-288 532.39,-309.57 568.51,-335.5 591.89,-353.79"/>
<polygon fill="black" stroke="black" points="589.89,-356.67 599.89,-360.16 594.25,-351.2 589.89,-356.67"/>
</g>
<!-- 线性代数与解析几何&#45;&gt;离散数学a -->
<g id="edge81" class="edge">
<title>线性代数与解析几何&#45;&gt;离散数学a</title>
<path fill="none" stroke="black" d="M247.68,-145.29C222.18,-134.86 190.05,-121.12 165.31,-110.06"/>
<polygon fill="black" stroke="black" points="166.43,-106.73 155.87,-105.82 163.56,-113.11 166.43,-106.73"/>
</g>
<!-- 线性代数与解析几何&#45;&gt;高等数学I.1 -->
<g id="edge83" class="edge">
<title>线性代数与解析几何&#45;&gt;高等数学I.1</title>
<path fill="none" stroke="black" d="M375.66,-150.37C487.94,-136.43 682.67,-112.26 785.63,-99.49"/>
<polygon fill="black" stroke="black" points="786.11,-102.95 795.6,-98.25 785.25,-96.01 786.11,-102.95"/>
</g>
<!-- 高等数学I.2&#45;&gt;电路 -->
<g id="edge111" class="edge">
<title>高等数学I.2&#45;&gt;电路</title>
<path fill="none" stroke="black" d="M749.91,-251.83C783.45,-294.19 866,-409.74 866,-521 866,-595 866,-595 866,-595 866,-693.31 810,-710.69 810,-809 810,-883 810,-883 810,-883 810,-978.29 821.19,-1091.01 826.83,-1141.8"/>
<polygon fill="black" stroke="black" points="823.37,-1142.4 827.97,-1151.94 830.33,-1141.61 823.37,-1142.4"/>
</g>
<!-- 高等数学I.2&#45;&gt;线性代数与解析几何 -->
<g id="edge112" class="edge">
<title>高等数学I.2&#45;&gt;线性代数与解析几何</title>
<path fill="none" stroke="black" d="M680.42,-224.28C604.34,-212.34 467.01,-190.78 377.17,-176.68"/>
<polygon fill="black" stroke="black" points="377.7,-173.22 367.28,-175.13 376.61,-180.14 377.7,-173.22"/>
</g>
<!-- 工程制图 -->
<g id="node16" class="node">
<title>工程制图</title>
<ellipse fill="none" stroke="black" cx="616" cy="-450" rx="55.79" ry="18"/>
<text text-anchor="middle" x="616" y="-446.3" font-family="Times New Roman,serif" font-size="14.00">工程制图</text>
</g>
<!-- 高等数学I.2&#45;&gt;工程制图 -->
<g id="edge110" class="edge">
<title>高等数学I.2&#45;&gt;工程制图</title>
<path fill="none" stroke="black" d="M742.02,-252.25C746.29,-283.74 743.35,-351.42 712,-396 700.67,-412.11 682.73,-424.24 665.34,-432.79"/>
<polygon fill="black" stroke="black" points="663.4,-429.83 655.78,-437.18 666.32,-436.19 663.4,-429.83"/>
</g>
<!-- 高等数学I.2&#45;&gt;高等数学I.1 -->
<g id="edge113" class="edge">
<title>高等数学I.2&#45;&gt;高等数学I.1</title>
<path fill="none" stroke="black" d="M750,-216.15C770.67,-191.28 809.48,-144.57 833.4,-115.79"/>
<polygon fill="black" stroke="black" points="836.32,-117.75 840.02,-107.82 830.94,-113.28 836.32,-117.75"/>
</g>
<!-- 大学英语i&#45;&gt;数理逻辑 -->
<g id="edge11" class="edge">
<title>大学英语i&#45;&gt;数理逻辑</title>
<path fill="none" stroke="black" d="M475.04,-936.05C483.85,-926.78 495.96,-915.19 507.2,-905.2"/>
<polygon fill="black" stroke="black" points="509.55,-907.8 514.79,-898.59 504.95,-902.52 509.55,-907.8"/>
</g>
<!-- 数理逻辑&#45;&gt;大学英语i -->
<g id="edge50" class="edge">
<title>数理逻辑&#45;&gt;大学英语i</title>
<path fill="none" stroke="black" d="M525.11,-899.8C516.36,-909 504.33,-920.54 493.13,-930.51"/>
<polygon fill="black" stroke="black" points="490.79,-927.91 485.55,-937.12 495.39,-933.18 490.79,-927.91"/>
</g>
<!-- 数理逻辑&#45;&gt;软件工程 -->
<g id="edge52" class="edge">
<title>数理逻辑&#45;&gt;软件工程</title>
<path fill="none" stroke="black" d="M540.32,-863.97C555.11,-815.88 609.02,-678.85 635.58,-621.13"/>
<polygon fill="black" stroke="black" points="638.81,-622.48 639.9,-611.94 632.48,-619.5 638.81,-622.48"/>
</g>
<!-- 数理逻辑&#45;&gt;数据库系统 -->
<g id="edge51" class="edge">
<title>数理逻辑&#45;&gt;数据库系统</title>
<path fill="none" stroke="black" d="M589.38,-875.48C707.57,-863.02 995.11,-832.71 1129.53,-818.53"/>
<polygon fill="black" stroke="black" points="1130.14,-821.99 1139.72,-817.46 1129.4,-815.03 1130.14,-821.99"/>
</g>
<!-- 大学英语iii1&#45;&gt;模拟电子技术基础 -->
<g id="edge16" class="edge">
<title>大学英语iii1&#45;&gt;模拟电子技术基础</title>
<path fill="none" stroke="black" d="M477.17,-539.69C447,-573.42 376,-653.65 376,-737 376,-883 376,-883 376,-883 376,-924.6 375.86,-942.31 405,-972 422.65,-989.98 446.71,-1001.87 470.12,-1009.73"/>
<polygon fill="black" stroke="black" points="469.16,-1013.09 479.75,-1012.75 471.26,-1006.41 469.16,-1013.09"/>
</g>
<!-- 大学英语iii1&#45;&gt;大学英语i -->
<g id="edge12" class="edge">
<title>大学英语iii1&#45;&gt;大学英语i</title>
<path fill="none" stroke="black" d="M485.5,-540.14C474.64,-582.5 447.23,-695.64 438,-792 436.47,-807.93 436.42,-812.08 438,-828 441.38,-862.11 449.82,-900.7 455.96,-925.86"/>
<polygon fill="black" stroke="black" points="452.62,-926.92 458.43,-935.77 459.41,-925.22 452.62,-926.92"/>
</g>
<!-- 大学英语iii1&#45;&gt;数理逻辑 -->
<g id="edge15" class="edge">
<title>大学英语iii1&#45;&gt;数理逻辑</title>
<path fill="none" stroke="black" d="M495.2,-540.04C498.17,-550.36 501.75,-563.83 504,-576 522.77,-677.42 532.03,-799.94 535.42,-853.59"/>
<polygon fill="black" stroke="black" points="531.93,-853.9 536.04,-863.67 538.92,-853.47 531.93,-853.9"/>
</g>
<!-- 大学计算机iii -->
<g id="node15" class="node">
<title>大学计算机iii</title>
<ellipse fill="none" stroke="black" cx="409" cy="-306" rx="72.59" ry="18"/>
<text text-anchor="middle" x="409" y="-302.3" font-family="Times New Roman,serif" font-size="14.00">大学计算机iii</text>
</g>
<!-- 大学英语iii1&#45;&gt;大学计算机iii -->
<g id="edge13" class="edge">
<title>大学英语iii1&#45;&gt;大学计算机iii</title>
<path fill="none" stroke="black" d="M483.51,-503.85C469.4,-466.58 435.87,-378 419.03,-333.49"/>
<polygon fill="black" stroke="black" points="422.22,-332.05 415.41,-323.94 415.68,-334.53 422.22,-332.05"/>
</g>
<!-- 大学英语iii1&#45;&gt;工程制图 -->
<g id="edge14" class="edge">
<title>大学英语iii1&#45;&gt;工程制图</title>
<path fill="none" stroke="black" d="M512.83,-505.12C530.47,-494.64 555.14,-480.88 576,-469.85"/>
<polygon fill="black" stroke="black" points="577.73,-472.9 584.97,-465.16 574.48,-466.7 577.73,-472.9"/>
</g>
<!-- 计算机图形学 -->
<g id="node17" class="node">
<title>计算机图形学</title>
<ellipse fill="none" stroke="black" cx="1250" cy="-450" rx="77.99" ry="18"/>
<text text-anchor="middle" x="1250" y="-446.3" font-family="Times New Roman,serif" font-size="14.00">计算机图形学</text>
</g>
<!-- 大学英语iii1&#45;&gt;计算机图形学 -->
<g id="edge17" class="edge">
<title>大学英语iii1&#45;&gt;计算机图形学</title>
<path fill="none" stroke="black" d="M551.23,-515.36C687.46,-502.81 1015.64,-472.59 1168.77,-458.48"/>
<polygon fill="black" stroke="black" points="1169.4,-461.94 1179.04,-457.54 1168.76,-454.97 1169.4,-461.94"/>
</g>
<!-- 大学英语iii1&#45;&gt;软件工程 -->
<g id="edge18" class="edge">
<title>大学英语iii1&#45;&gt;软件工程</title>
<path fill="none" stroke="black" d="M527.38,-536.94C553.09,-547.56 586.97,-562.3 612.66,-574.01"/>
<polygon fill="black" stroke="black" points="611.52,-577.33 622.07,-578.33 614.45,-570.97 611.52,-577.33"/>
</g>
<!-- 大学计算机iii&#45;&gt;模拟电子技术基础 -->
<g id="edge21" class="edge">
<title>大学计算机iii&#45;&gt;模拟电子技术基础</title>
<path fill="none" stroke="black" d="M391.87,-323.94C382.65,-333.8 371.63,-346.84 364,-360 308.95,-454.98 282,-483.22 282,-593 282,-883 282,-883 282,-883 282,-963.9 378.72,-998.85 455.74,-1013.87"/>
<polygon fill="black" stroke="black" points="455.51,-1017.38 465.98,-1015.77 456.79,-1010.5 455.51,-1017.38"/>
</g>
<!-- 大学计算机iii&#45;&gt;高等数学I.2 -->
<g id="edge23" class="edge">
<title>大学计算机iii&#45;&gt;高等数学I.2</title>
<path fill="none" stroke="black" d="M462.27,-293.6C520.9,-281.05 614.92,-260.92 676.08,-247.83"/>
<polygon fill="black" stroke="black" points="676.93,-251.22 685.98,-245.71 675.47,-244.38 676.93,-251.22"/>
</g>
<!-- 大学计算机iii&#45;&gt;大学英语i -->
<g id="edge19" class="edge">
<title>大学计算机iii&#45;&gt;大学英语i</title>
<path fill="none" stroke="black" d="M399.64,-324.16C376.79,-367.71 320,-486.66 320,-593 320,-739 320,-739 320,-739 320,-820.48 392.55,-894.46 434.3,-930.28"/>
<polygon fill="black" stroke="black" points="432.3,-933.17 442.21,-936.93 436.8,-927.82 432.3,-933.17"/>
</g>
<!-- 大学计算机iii&#45;&gt;数理逻辑 -->
<g id="edge20" class="edge">
<title>大学计算机iii&#45;&gt;数理逻辑</title>
<path fill="none" stroke="black" d="M406.43,-324C402.64,-350.6 396,-403.7 396,-449 396,-523 396,-523 396,-523 396,-656.16 481.49,-799 519.33,-855.72"/>
<polygon fill="black" stroke="black" points="516.48,-857.74 524.98,-864.06 522.28,-853.82 516.48,-857.74"/>
</g>
<!-- 大学计算机iii&#45;&gt;软件工程 -->
<g id="edge22" class="edge">
<title>大学计算机iii&#45;&gt;软件工程</title>
<path fill="none" stroke="black" d="M423.34,-324.02C464.27,-372.59 581.76,-512.02 629.48,-568.65"/>
<polygon fill="black" stroke="black" points="626.88,-571 636,-576.39 632.23,-566.48 626.88,-571"/>
</g>
<!-- 工程制图&#45;&gt;大学物理II.2 -->
<g id="edge24" class="edge">
<title>工程制图&#45;&gt;大学物理II.2</title>
<path fill="none" stroke="black" d="M608.12,-467.99C595.5,-497.43 573.29,-559.78 585,-612 606.18,-706.48 678,-712.18 678,-809 678,-955 678,-955 678,-955 678,-996.29 692.83,-1042.23 703.72,-1070.37"/>
<polygon fill="black" stroke="black" points="700.56,-1071.89 707.51,-1079.89 707.06,-1069.3 700.56,-1071.89"/>
</g>
<!-- 工程制图&#45;&gt;形式语言与编译 -->
<g id="edge26" class="edge">
<title>工程制图&#45;&gt;形式语言与编译</title>
<path fill="none" stroke="black" d="M578.58,-436.31C560.15,-427.94 539.65,-414.97 529,-396 521.16,-382.05 523.4,-374.99 529,-360 588.3,-201.21 631.64,-155.75 779,-72 813.67,-52.29 912.59,-37.18 986.39,-28.23"/>
<polygon fill="black" stroke="black" points="987.11,-31.67 996.63,-27.01 986.28,-24.72 987.11,-31.67"/>
</g>
<!-- 工程制图&#45;&gt;高等数学I.2 -->
<g id="edge28" class="edge">
<title>工程制图&#45;&gt;高等数学I.2</title>
<path fill="none" stroke="black" d="M645.58,-434.5C662.24,-425.88 681.89,-413.22 694,-396 722.29,-355.78 727.44,-296.74 730.54,-262.45"/>
<polygon fill="black" stroke="black" points="734.05,-262.53 731.5,-252.25 727.08,-261.87 734.05,-262.53"/>
</g>
<!-- 工程制图&#45;&gt;大学英语iii1 -->
<g id="edge25" class="edge">
<title>工程制图&#45;&gt;大学英语iii1</title>
<path fill="none" stroke="black" d="M593.73,-466.55C576.42,-476.84 552.11,-490.42 531.32,-501.45"/>
<polygon fill="black" stroke="black" points="529.58,-498.41 522.36,-506.15 532.84,-504.6 529.58,-498.41"/>
</g>
<!-- 工程制图&#45;&gt;程序设计基础 -->
<g id="edge27" class="edge">
<title>工程制图&#45;&gt;程序设计基础</title>
<path fill="none" stroke="black" d="M616,-431.7C616,-423.98 616,-414.71 616,-406.11"/>
<polygon fill="black" stroke="black" points="619.5,-406.1 616,-396.1 612.5,-406.1 619.5,-406.1"/>
</g>
<!-- 计算机图形学&#45;&gt;操作系统原理i -->
<g id="edge88" class="edge">
<title>计算机图形学&#45;&gt;操作系统原理i</title>
<path fill="none" stroke="black" d="M1249.6,-468.05C1249.02,-494.71 1248,-547.88 1248,-593 1248,-667 1248,-667 1248,-667 1248,-724.03 1266.17,-736.01 1277,-792 1290.75,-863.1 1302,-880.59 1302,-953 1302,-1171 1302,-1171 1302,-1171 1302,-1218.1 1337.24,-1262.76 1362.86,-1289.01"/>
<polygon fill="black" stroke="black" points="1360.56,-1291.67 1370.12,-1296.23 1365.5,-1286.7 1360.56,-1291.67"/>
</g>
<!-- 计算机图形学&#45;&gt;计算机组成 -->
<g id="edge91" class="edge">
<title>计算机图形学&#45;&gt;计算机组成</title>
<path fill="none" stroke="black" d="M1264.83,-432.15C1286.82,-407.17 1328.19,-360.17 1353.51,-331.42"/>
<polygon fill="black" stroke="black" points="1356.21,-333.64 1360.19,-323.82 1350.95,-329.02 1356.21,-333.64"/>
</g>
<!-- 计算机图形学&#45;&gt;软件工程 -->
<g id="edge92" class="edge">
<title>计算机图形学&#45;&gt;软件工程</title>
<path fill="none" stroke="black" d="M1213.75,-465.96C1164.71,-485.64 1074.14,-520.07 994,-540 897.37,-564.03 782.6,-579.08 713.09,-586.76"/>
<polygon fill="black" stroke="black" points="712.31,-583.33 702.75,-587.89 713.07,-590.28 712.31,-583.33"/>
</g>
<!-- 计算机图形学&#45;&gt;编译器设计专题实验 -->
<g id="edge90" class="edge">
<title>计算机图形学&#45;&gt;编译器设计专题实验</title>
<path fill="none" stroke="black" d="M1245.92,-431.84C1245.09,-400.2 1255.28,-331.88 1290,-288 1301,-274.1 1316.72,-263.12 1332.5,-254.85"/>
<polygon fill="black" stroke="black" points="1334.34,-257.85 1341.77,-250.29 1331.25,-251.57 1334.34,-257.85"/>
</g>
<!-- 计算机图形学&#45;&gt;数据库系统 -->
<g id="edge89" class="edge">
<title>计算机图形学&#45;&gt;数据库系统</title>
<path fill="none" stroke="black" d="M1245.67,-468.27C1234.49,-494.36 1210,-545.8 1210,-593 1210,-667 1210,-667 1210,-667 1210,-707 1210,-753.35 1207.71,-781.92"/>
<polygon fill="black" stroke="black" points="1204.22,-781.65 1206.71,-791.95 1211.18,-782.35 1204.22,-781.65"/>
</g>
<!-- 软件工程&#45;&gt;模拟电子技术基础 -->
<g id="edge107" class="edge">
<title>软件工程&#45;&gt;模拟电子技术基础</title>
<path fill="none" stroke="black" d="M656.33,-612.09C658.11,-630.02 657.06,-659.03 655,-684 650.41,-739.77 640,-753.05 640,-809 640,-883 640,-883 640,-883 640,-929.84 606.13,-975.13 579.54,-1001.51"/>
<polygon fill="black" stroke="black" points="577.09,-999 572.26,-1008.43 581.92,-1004.07 577.09,-999"/>
</g>
<!-- 软件工程&#45;&gt;计算机网络原理 -->
<g id="edge108" class="edge">
<title>软件工程&#45;&gt;计算机网络原理</title>
<path fill="none" stroke="black" d="M703.22,-599.51C833.76,-611.01 1170.6,-641.56 1332.12,-656.51"/>
<polygon fill="black" stroke="black" points="1332.22,-660.04 1342.5,-657.48 1332.87,-653.07 1332.22,-660.04"/>
</g>
<!-- 软件工程&#45;&gt;数理逻辑 -->
<g id="edge106" class="edge">
<title>软件工程&#45;&gt;数理逻辑</title>
<path fill="none" stroke="black" d="M646.6,-612.31C631.7,-660.61 577.98,-797.13 551.46,-854.78"/>
<polygon fill="black" stroke="black" points="548.23,-853.43 547.14,-863.97 554.57,-856.41 548.23,-853.43"/>
</g>
<!-- 软件工程&#45;&gt;大学英语iii1 -->
<g id="edge104" class="edge">
<title>软件工程&#45;&gt;大学英语iii1</title>
<path fill="none" stroke="black" d="M614.49,-579.83C588.88,-569.29 554.47,-554.34 528.27,-542.42"/>
<polygon fill="black" stroke="black" points="529.56,-539.16 519.01,-538.18 526.64,-545.52 529.56,-539.16"/>
</g>
<!-- 软件工程&#45;&gt;数据库系统 -->
<g id="edge105" class="edge">
<title>软件工程&#45;&gt;数据库系统</title>
<path fill="none" stroke="black" d="M699.46,-602.62C783.03,-617.52 955.55,-654.89 1088,-720 1123.62,-737.51 1159.78,-765.44 1181.52,-785.34"/>
<polygon fill="black" stroke="black" points="1179.18,-787.94 1188.85,-792.27 1183.99,-782.86 1179.18,-787.94"/>
</g>
<!-- 程序设计基础&#45;&gt;计算机组成 -->
<g id="edge77" class="edge">
<title>程序设计基础&#45;&gt;计算机组成</title>
<path fill="none" stroke="black" d="M687.06,-370.45C831.38,-357.14 1157.37,-327.07 1302.71,-313.67"/>
<polygon fill="black" stroke="black" points="1303.22,-317.14 1312.86,-312.73 1302.58,-310.16 1303.22,-317.14"/>
</g>
<!-- 程序设计基础&#45;&gt;线性代数与解析几何 -->
<g id="edge76" class="edge">
<title>程序设计基础&#45;&gt;线性代数与解析几何</title>
<path fill="none" stroke="black" d="M588.11,-361.15C560.94,-343.02 519.03,-312.66 482,-288 425.96,-250.67 359.3,-209.92 320.95,-185.42"/>
<polygon fill="black" stroke="black" points="322.59,-182.31 312.29,-179.85 318.81,-188.2 322.59,-182.31"/>
</g>
<!-- 程序设计基础&#45;&gt;高等数学I.2 -->
<g id="edge78" class="edge">
<title>程序设计基础&#45;&gt;高等数学I.2</title>
<path fill="none" stroke="black" d="M630.24,-360.15C651.26,-335.28 690.73,-288.57 715.05,-259.79"/>
<polygon fill="black" stroke="black" points="718,-261.72 721.78,-251.82 712.65,-257.2 718,-261.72"/>
</g>
<!-- 程序设计基础&#45;&gt;大学计算机iii -->
<g id="edge75" class="edge">
<title>程序设计基础&#45;&gt;大学计算机iii</title>
<path fill="none" stroke="black" d="M573.86,-362.75C540.8,-351.57 494.66,-335.97 459.6,-324.11"/>
<polygon fill="black" stroke="black" points="460.62,-320.76 450.02,-320.87 458.37,-327.39 460.62,-320.76"/>
</g>
<!-- 数字逻辑电路&#45;&gt;计算机网络原理 -->
<g id="edge40" class="edge">
<title>数字逻辑电路&#45;&gt;计算机网络原理</title>
<path fill="none" stroke="black" d="M1053.92,-726.9C1130.63,-714.38 1261.3,-693.06 1344.28,-679.52"/>
<polygon fill="black" stroke="black" points="1344.85,-682.97 1354.15,-677.91 1343.72,-676.06 1344.85,-682.97"/>
</g>
<!-- 数字逻辑电路&#45;&gt;形式语言与编译 -->
<g id="edge36" class="edge">
<title>数字逻辑电路&#45;&gt;形式语言与编译</title>
<path fill="none" stroke="black" d="M993.32,-719.85C1000.31,-693.49 1018,-641.21 1018,-595 1018,-595 1018,-595 1018,-161 1018,-118.54 1037.18,-72.39 1053.37,-44.58"/>
<polygon fill="black" stroke="black" points="1056.46,-46.24 1058.72,-35.89 1050.5,-42.57 1056.46,-46.24"/>
</g>
<!-- 数字逻辑电路&#45;&gt;概率统计与随机过程 -->
<g id="edge38" class="edge">
<title>数字逻辑电路&#45;&gt;概率统计与随机过程</title>
<path fill="none" stroke="black" d="M997.51,-756.05C1000.51,-782.71 1000,-835.88 1000,-881 1000,-1099 1000,-1099 1000,-1099 1000,-1159.05 936.23,-1199.76 886.71,-1221.69"/>
<polygon fill="black" stroke="black" points="885.16,-1218.54 877.34,-1225.69 887.91,-1224.98 885.16,-1218.54"/>
</g>
<!-- 数字逻辑电路&#45;&gt;电路 -->
<g id="edge39" class="edge">
<title>数字逻辑电路&#45;&gt;电路</title>
<path fill="none" stroke="black" d="M985.8,-756.01C971.99,-781.77 943,-832.8 943,-881 943,-1027 943,-1027 943,-1027 943,-1069.34 934.42,-1082.13 909,-1116 897.53,-1131.29 880.5,-1144.31 865.05,-1153.63"/>
<polygon fill="black" stroke="black" points="863.15,-1150.68 856.2,-1158.67 866.62,-1156.76 863.15,-1150.68"/>
</g>
<!-- 数字逻辑电路&#45;&gt;数学建模ii -->
<g id="edge37" class="edge">
<title>数字逻辑电路&#45;&gt;数学建模ii</title>
<path fill="none" stroke="black" d="M1015.74,-720.62C1027.69,-711.21 1041.41,-698.41 1050,-684 1135.09,-541.22 1155.8,-335.98 1160.61,-262.48"/>
<polygon fill="black" stroke="black" points="1164.12,-262.42 1161.23,-252.23 1157.13,-262 1164.12,-262.42"/>
</g>
<!-- 编译器设计专题实验&#45;&gt;人工智能 -->
<g id="edge84" class="edge">
<title>编译器设计专题实验&#45;&gt;人工智能</title>
<path fill="none" stroke="black" d="M1483.63,-243.96C1565.02,-257.52 1670,-291.56 1670,-377 1670,-811 1670,-811 1670,-811 1670,-907.04 1700,-928.96 1700,-1025 1700,-1243 1700,-1243 1700,-1243 1700,-1327.87 1588.59,-1362.85 1516.03,-1376.63"/>
<polygon fill="black" stroke="black" points="1515.28,-1373.21 1506.06,-1378.44 1516.53,-1380.1 1515.28,-1373.21"/>
</g>
<!-- 编译器设计专题实验&#45;&gt;形式语言与编译 -->
<g id="edge85" class="edge">
<title>编译器设计专题实验&#45;&gt;形式语言与编译</title>
<path fill="none" stroke="black" d="M1376.4,-215.98C1355.08,-183 1312.24,-110.27 1255,-72 1224.94,-51.9 1187.36,-39.37 1154.21,-31.58"/>
<polygon fill="black" stroke="black" points="1154.6,-28.08 1144.07,-29.31 1153.07,-34.91 1154.6,-28.08"/>
</g>
<!-- 编译器设计专题实验&#45;&gt;计算机图形学 -->
<g id="edge86" class="edge">
<title>编译器设计专题实验&#45;&gt;计算机图形学</title>
<path fill="none" stroke="black" d="M1356.32,-251.2C1339.71,-259.79 1320.71,-271.94 1308,-288 1276.54,-327.76 1265.21,-387.6 1258.38,-422.03"/>
<polygon fill="black" stroke="black" points="1254.95,-421.35 1256.38,-431.84 1261.81,-422.74 1254.95,-421.35"/>
</g>
<!-- 编译器设计专题实验&#45;&gt;软件工程 -->
<g id="edge87" class="edge">
<title>编译器设计专题实验&#45;&gt;软件工程</title>
<path fill="none" stroke="black" d="M1354.42,-251.15C1331.65,-261.55 1301.52,-275.42 1275,-288 1051.72,-393.92 785.94,-525.44 688.36,-573.91"/>
<polygon fill="black" stroke="black" points="686.57,-570.89 679.18,-578.48 689.69,-577.16 686.57,-570.89"/>
</g>
<!-- 数学建模ii&#45;&gt;计算机组成 -->
<g id="edge42" class="edge">
<title>数学建模ii&#45;&gt;计算机组成</title>
<path fill="none" stroke="black" d="M1203.72,-246.99C1239.59,-258.2 1291.11,-275.06 1328.32,-287.72"/>
<polygon fill="black" stroke="black" points="1327.34,-291.08 1337.93,-291 1329.6,-284.46 1327.34,-291.08"/>
</g>
<!-- 数学建模ii&#45;&gt;计算机图形学 -->
<g id="edge41" class="edge">
<title>数学建模ii&#45;&gt;计算机图形学</title>
<path fill="none" stroke="black" d="M1168.96,-251.94C1184.24,-289.08 1220.78,-377.94 1239.12,-422.53"/>
<polygon fill="black" stroke="black" points="1235.91,-423.93 1242.95,-431.85 1242.38,-421.27 1235.91,-423.93"/>
</g>
<!-- 数据库系统&#45;&gt;操作系统原理i -->
<g id="edge44" class="edge">
<title>数据库系统&#45;&gt;操作系统原理i</title>
<path fill="none" stroke="black" d="M1214.05,-827.85C1232.51,-853.41 1264,-904.18 1264,-953 1264,-1171 1264,-1171 1264,-1171 1264,-1211.97 1262.38,-1228.03 1288,-1260 1300.17,-1275.19 1317.89,-1286.53 1335.09,-1294.74"/>
<polygon fill="black" stroke="black" points="1334.01,-1298.08 1344.56,-1298.98 1336.87,-1291.69 1334.01,-1298.08"/>
</g>
<!-- 数据库系统&#45;&gt;计算机组成 -->
<g id="edge47" class="edge">
<title>数据库系统&#45;&gt;计算机组成</title>
<path fill="none" stroke="black" d="M1204.82,-791.95C1222.45,-742.67 1288.18,-595.45 1328,-468 1342.53,-421.5 1354.49,-365.93 1363.52,-333.73"/>
<polygon fill="black" stroke="black" points="1366.88,-334.72 1366.35,-324.14 1360.17,-332.74 1366.88,-334.72"/>
</g>
<!-- 数据库系统&#45;&gt;计算机网络原理 -->
<g id="edge48" class="edge">
<title>数据库系统&#45;&gt;计算机网络原理</title>
<path fill="none" stroke="black" d="M1238.77,-795.12C1262.41,-785.66 1293.01,-771.98 1318,-756 1347.53,-737.12 1377.41,-710.24 1397.33,-690.97"/>
<polygon fill="black" stroke="black" points="1400.02,-693.24 1404.71,-683.74 1395.12,-688.24 1400.02,-693.24"/>
</g>
<!-- 数据库系统&#45;&gt;形式语言与编译 -->
<g id="edge43" class="edge">
<title>数据库系统&#45;&gt;形式语言与编译</title>
<path fill="none" stroke="black" d="M1190.17,-791.89C1159.46,-741.67 1074,-589.49 1074,-451 1074,-451 1074,-451 1074,-161 1074,-121 1074,-74.65 1074,-46.08"/>
<polygon fill="black" stroke="black" points="1077.5,-46.05 1074,-36.05 1070.5,-46.05 1077.5,-46.05"/>
</g>
<!-- 数据库系统&#45;&gt;计算机图形学 -->
<g id="edge46" class="edge">
<title>数据库系统&#45;&gt;计算机图形学</title>
<path fill="none" stroke="black" d="M1195.29,-791.95C1192,-765.29 1192,-712.11 1192,-667 1192,-667 1192,-667 1192,-593 1192,-550.36 1211.99,-504.26 1228.78,-476.51"/>
<polygon fill="black" stroke="black" points="1231.89,-478.15 1234.32,-467.84 1225.99,-474.38 1231.89,-478.15"/>
</g>
<!-- 数据库系统&#45;&gt;软件工程 -->
<g id="edge49" class="edge">
<title>数据库系统&#45;&gt;软件工程</title>
<path fill="none" stroke="black" d="M1177.02,-792.97C1151.63,-773.23 1110.47,-739.89 1070,-720 946.86,-659.47 789.09,-622.91 706.3,-606.09"/>
<polygon fill="black" stroke="black" points="706.83,-602.63 696.33,-604.09 705.45,-609.49 706.83,-602.63"/>
</g>
<!-- 数据库系统&#45;&gt;数字逻辑电路 -->
<g id="edge45" class="edge">
<title>数据库系统&#45;&gt;数字逻辑电路</title>
<path fill="none" stroke="black" d="M1160.7,-795.5C1127.52,-784.39 1080.25,-768.56 1044.18,-756.48"/>
<polygon fill="black" stroke="black" points="1044.92,-753.03 1034.33,-753.18 1042.7,-759.67 1044.92,-753.03"/>
</g>
<!-- 离散数学a&#45;&gt;大学物理II.2 -->
<g id="edge68" class="edge">
<title>离散数学a&#45;&gt;大学物理II.2</title>
<path fill="none" stroke="black" d="M108.64,-107.57C98.85,-117.31 87.35,-130.36 80,-144 60.56,-180.06 56,-192.03 56,-233 56,-595 56,-595 56,-595 56,-742.65 221.32,-1008.01 281,-1044 339.25,-1079.13 528.64,-1091.05 637.02,-1095.04"/>
<polygon fill="black" stroke="black" points="637.13,-1098.54 647.24,-1095.4 637.37,-1091.55 637.13,-1098.54"/>
</g>
<!-- 离散数学a&#45;&gt;形式语言与编译 -->
<g id="edge69" class="edge">
<title>离散数学a&#45;&gt;形式语言与编译</title>
<path fill="none" stroke="black" d="M184.46,-84.75C343.02,-73.03 787.75,-40.16 981.66,-25.83"/>
<polygon fill="black" stroke="black" points="982.11,-29.3 991.83,-25.07 981.59,-22.32 982.11,-29.3"/>
</g>
<!-- 离散数学a&#45;&gt;概率统计与随机过程 -->
<g id="edge71" class="edge">
<title>离散数学a&#45;&gt;概率统计与随机过程</title>
<path fill="none" stroke="black" d="M106.25,-107.01C74.41,-130.1 18,-176.26 18,-233 18,-811 18,-811 18,-811 18,-907.6 56,-928.4 56,-1025 56,-1099 56,-1099 56,-1099 56,-1166.33 509.99,-1213.45 722.62,-1232.11"/>
<polygon fill="black" stroke="black" points="722.6,-1235.62 732.87,-1233 723.21,-1228.65 722.6,-1235.62"/>
</g>
<!-- 离散数学a&#45;&gt;电路 -->
<g id="edge72" class="edge">
<title>离散数学a&#45;&gt;电路</title>
<path fill="none" stroke="black" d="M127.91,-108.33C124.13,-134.92 112,-187.5 112,-233 112,-595 112,-595 112,-595 112,-803.64 74.67,-929.38 249,-1044 339.66,-1103.61 670.2,-1148.63 788.04,-1163.61"/>
<polygon fill="black" stroke="black" points="787.76,-1167.1 798.12,-1164.89 788.64,-1160.16 787.76,-1167.1"/>
</g>
<!-- 离散数学a&#45;&gt;线性代数与解析几何 -->
<g id="edge74" class="edge">
<title>离散数学a&#45;&gt;线性代数与解析几何</title>
<path fill="none" stroke="black" d="M163.59,-104.38C188.76,-114.57 222.13,-128.79 248.31,-140.43"/>
<polygon fill="black" stroke="black" points="247.05,-143.7 257.6,-144.59 249.91,-137.31 247.05,-143.7"/>
</g>
<!-- 离散数学a&#45;&gt;程序设计基础 -->
<g id="edge73" class="edge">
<title>离散数学a&#45;&gt;程序设计基础</title>
<path fill="none" stroke="black" d="M186.76,-91.2C246.96,-93.82 340.76,-104.67 411,-144 501.98,-194.95 572.56,-302.02 601.59,-351.25"/>
<polygon fill="black" stroke="black" points="598.63,-353.12 606.68,-360.01 604.68,-349.61 598.63,-353.12"/>
</g>
<!-- 离散数学a&#45;&gt;数字逻辑电路 -->
<g id="edge70" class="edge">
<title>离散数学a&#45;&gt;数字逻辑电路</title>
<path fill="none" stroke="black" d="M131.65,-108.34C138.38,-134.95 150,-187.55 150,-233 150,-307 150,-307 150,-307 150,-643.92 691.32,-716.99 905.89,-732.73"/>
<polygon fill="black" stroke="black" points="905.94,-736.24 916.17,-733.45 906.44,-729.26 905.94,-736.24"/>
</g>
<!-- 高等数学I.1&#45;&gt;模拟电子技术基础 -->
<g id="edge109" class="edge">
<title>高等数学I.1&#45;&gt;模拟电子技术基础</title>
<path fill="none" stroke="black" d="M861.49,-108.03C867.4,-134.66 872,-187.79 872,-233 872,-307 872,-307 872,-307 872,-507.71 734,-536.29 734,-737 734,-883 734,-883 734,-883 734,-946.15 664.52,-986 610.64,-1006.9"/>
<polygon fill="black" stroke="black" points="609.26,-1003.68 601.12,-1010.46 611.72,-1010.24 609.26,-1003.68"/>
</g>
</g>
</svg>
