<?xml version="1.0" encoding="UTF-8" standalone="no"?>
<!DOCTYPE svg PUBLIC "-//W3C//DTD SVG 1.1//EN"
 "http://www.w3.org/Graphics/SVG/1.1/DTD/svg11.dtd">
<!-- Generated by graphviz version 2.46.0 (20210118.1747)
 -->
<!-- Pages: 1 -->
<svg width="1560pt" height="1268pt"
 viewBox="0.00 0.00 1559.79 1268.00" xmlns="http://www.w3.org/2000/svg" xmlns:xlink="http://www.w3.org/1999/xlink">
<g id="graph0" class="graph" transform="scale(1 1) rotate(0) translate(4 1264)">
<polygon fill="white" stroke="transparent" points="-4,4 -4,-1264 1555.79,-1264 1555.79,4 -4,4"/>
<!-- 人工智能 -->
<g id="node1" class="node">
<title>人工智能</title>
<ellipse fill="none" stroke="black" cx="1072.79" cy="-1242" rx="55.79" ry="18"/>
<text text-anchor="middle" x="1072.79" y="-1238.3" font-family="Times New Roman,serif" font-size="14.00">人工智能</text>
</g>
<!-- 操作系统原理i -->
<g id="node2" class="node">
<title>操作系统原理i</title>
<ellipse fill="none" stroke="black" cx="809.79" cy="-1170" rx="79.89" ry="18"/>
<text text-anchor="middle" x="809.79" y="-1166.3" font-family="Times New Roman,serif" font-size="14.00">操作系统原理i</text>
</g>
<!-- 人工智能&#45;&gt;操作系统原理i -->
<g id="edge1" class="edge">
<title>人工智能&#45;&gt;操作系统原理i</title>
<path fill="none" stroke="black" d="M1031.12,-1229.91C987.48,-1218.29 918.58,-1199.95 869.24,-1186.82"/>
<polygon fill="black" stroke="black" points="869.9,-1183.38 859.34,-1184.19 868.1,-1190.14 869.9,-1183.38"/>
</g>
<!-- 线性代数与解析几何 -->
<g id="node3" class="node">
<title>线性代数与解析几何</title>
<ellipse fill="none" stroke="black" cx="111.79" cy="-1026" rx="111.58" ry="18"/>
<text text-anchor="middle" x="111.79" y="-1022.3" font-family="Times New Roman,serif" font-size="14.00">线性代数与解析几何</text>
</g>
<!-- 人工智能&#45;&gt;线性代数与解析几何 -->
<g id="edge2" class="edge">
<title>人工智能&#45;&gt;线性代数与解析几何</title>
<path fill="none" stroke="black" d="M1017.73,-1238.11C885.78,-1230.89 554.4,-1211.01 445.79,-1188 350.09,-1167.72 324.83,-1160.66 237.79,-1116 201.83,-1097.54 164.47,-1069.91 139.86,-1050.34"/>
<polygon fill="black" stroke="black" points="142.02,-1047.58 132.03,-1044.04 137.63,-1053.03 142.02,-1047.58"/>
</g>
<!-- 编译器设计专题实验 -->
<g id="node4" class="node">
<title>编译器设计专题实验</title>
<ellipse fill="none" stroke="black" cx="1036.79" cy="-162" rx="111.58" ry="18"/>
<text text-anchor="middle" x="1036.79" y="-158.3" font-family="Times New Roman,serif" font-size="14.00">编译器设计专题实验</text>
</g>
<!-- 人工智能&#45;&gt;编译器设计专题实验 -->
<g id="edge3" class="edge">
<title>人工智能&#45;&gt;编译器设计专题实验</title>
<path fill="none" stroke="black" d="M1120.88,-1232.73C1220,-1214.33 1437.79,-1166.23 1437.79,-1099 1437.79,-1099 1437.79,-1099 1437.79,-305 1437.79,-239.43 1244.85,-196.5 1126.63,-176.35"/>
<polygon fill="black" stroke="black" points="1126.94,-172.85 1116.49,-174.65 1125.78,-179.76 1126.94,-172.85"/>
</g>
<!-- 计算机网络原理 -->
<g id="node5" class="node">
<title>计算机网络原理</title>
<ellipse fill="none" stroke="black" cx="1038.79" cy="-90" rx="89.08" ry="18"/>
<text text-anchor="middle" x="1038.79" y="-86.3" font-family="Times New Roman,serif" font-size="14.00">计算机网络原理</text>
</g>
<!-- 人工智能&#45;&gt;计算机网络原理 -->
<g id="edge4" class="edge">
<title>人工智能&#45;&gt;计算机网络原理</title>
<path fill="none" stroke="black" d="M1125.11,-1235.35C1241.93,-1221.27 1513.79,-1179.84 1513.79,-1099 1513.79,-1099 1513.79,-1099 1513.79,-449 1513.79,-289.29 1462.86,-222.52 1323.79,-144 1267.05,-111.96 1194.8,-98.77 1137.24,-93.56"/>
<polygon fill="black" stroke="black" points="1137.3,-90.06 1127.04,-92.71 1136.72,-97.03 1137.3,-90.06"/>
</g>
<!-- 操作系统原理i&#45;&gt;计算机网络原理 -->
<g id="edge30" class="edge">
<title>操作系统原理i&#45;&gt;计算机网络原理</title>
<path fill="none" stroke="black" d="M831.83,-1152.67C925.18,-1083.04 1286.01,-808.84 1349.79,-684 1383.88,-617.28 1399.79,-597.93 1399.79,-523 1399.79,-523 1399.79,-523 1399.79,-233 1399.79,-171.92 1218.53,-126.1 1112.89,-104.59"/>
<polygon fill="black" stroke="black" points="1113.41,-101.12 1102.91,-102.58 1112.03,-107.98 1113.41,-101.12"/>
</g>
<!-- 概率统计与随机过程 -->
<g id="node22" class="node">
<title>概率统计与随机过程</title>
<ellipse fill="none" stroke="black" cx="429.79" cy="-1098" rx="111.58" ry="18"/>
<text text-anchor="middle" x="429.79" y="-1094.3" font-family="Times New Roman,serif" font-size="14.00">概率统计与随机过程</text>
</g>
<!-- 操作系统原理i&#45;&gt;概率统计与随机过程 -->
<g id="edge29" class="edge">
<title>操作系统原理i&#45;&gt;概率统计与随机过程</title>
<path fill="none" stroke="black" d="M750,-1157.99C685.42,-1146.09 582.18,-1127.07 510.45,-1113.86"/>
<polygon fill="black" stroke="black" points="511.01,-1110.4 500.54,-1112.03 509.74,-1117.29 511.01,-1110.4"/>
</g>
<!-- 大学物理II.2 -->
<g id="node6" class="node">
<title>大学物理II.2</title>
<ellipse fill="none" stroke="black" cx="449.79" cy="-954" rx="68.49" ry="18"/>
<text text-anchor="middle" x="449.79" y="-950.3" font-family="Times New Roman,serif" font-size="14.00">大学物理II.2</text>
</g>
<!-- 线性代数与解析几何&#45;&gt;大学物理II.2 -->
<g id="edge60" class="edge">
<title>线性代数与解析几何&#45;&gt;大学物理II.2</title>
<path fill="none" stroke="black" d="M177.36,-1011.42C238.25,-998.81 328.23,-980.17 387.91,-967.82"/>
<polygon fill="black" stroke="black" points="388.87,-971.19 397.95,-965.74 387.45,-964.34 388.87,-971.19"/>
</g>
<!-- 高等数学I.1 -->
<g id="node25" class="node">
<title>高等数学I.1</title>
<ellipse fill="none" stroke="black" cx="601.79" cy="-954" rx="65.79" ry="18"/>
<text text-anchor="middle" x="601.79" y="-950.3" font-family="Times New Roman,serif" font-size="14.00">高等数学I.1</text>
</g>
<!-- 线性代数与解析几何&#45;&gt;高等数学I.1 -->
<g id="edge61" class="edge">
<title>线性代数与解析几何&#45;&gt;高等数学I.1</title>
<path fill="none" stroke="black" d="M204.07,-1015.78C288.42,-1006.74 416.46,-991.5 526.79,-972 532.52,-970.99 538.47,-969.83 544.4,-968.6"/>
<polygon fill="black" stroke="black" points="545.27,-971.99 554.32,-966.48 543.81,-965.15 545.27,-971.99"/>
</g>
<!-- 软件工程 -->
<g id="node15" class="node">
<title>软件工程</title>
<ellipse fill="none" stroke="black" cx="1199.79" cy="-522" rx="55.79" ry="18"/>
<text text-anchor="middle" x="1199.79" y="-518.3" font-family="Times New Roman,serif" font-size="14.00">软件工程</text>
</g>
<!-- 编译器设计专题实验&#45;&gt;软件工程 -->
<g id="edge62" class="edge">
<title>编译器设计专题实验&#45;&gt;软件工程</title>
<path fill="none" stroke="black" d="M1076.3,-178.89C1093.2,-187.53 1111.77,-199.81 1123.79,-216 1187.97,-302.44 1198.37,-436.79 1199.76,-493.87"/>
<polygon fill="black" stroke="black" points="1196.26,-493.97 1199.93,-503.91 1203.26,-493.85 1196.26,-493.97"/>
</g>
<!-- 工程制图 -->
<g id="node7" class="node">
<title>工程制图</title>
<ellipse fill="none" stroke="black" cx="893.79" cy="-882" rx="55.79" ry="18"/>
<text text-anchor="middle" x="893.79" y="-878.3" font-family="Times New Roman,serif" font-size="14.00">工程制图</text>
</g>
<!-- 大学物理II.2&#45;&gt;工程制图 -->
<g id="edge5" class="edge">
<title>大学物理II.2&#45;&gt;工程制图</title>
<path fill="none" stroke="black" d="M499.38,-941.45C508.47,-939.5 517.9,-937.6 526.79,-936 641.18,-915.46 670.83,-917.04 785.79,-900 801.65,-897.65 818.81,-895 834.68,-892.5"/>
<polygon fill="black" stroke="black" points="835.56,-895.91 844.89,-890.89 834.47,-888.99 835.56,-895.91"/>
</g>
<!-- 形式语言与编译 -->
<g id="node8" class="node">
<title>形式语言与编译</title>
<ellipse fill="none" stroke="black" cx="622.79" cy="-378" rx="89.08" ry="18"/>
<text text-anchor="middle" x="622.79" y="-374.3" font-family="Times New Roman,serif" font-size="14.00">形式语言与编译</text>
</g>
<!-- 大学物理II.2&#45;&gt;形式语言与编译 -->
<g id="edge6" class="edge">
<title>大学物理II.2&#45;&gt;形式语言与编译</title>
<path fill="none" stroke="black" d="M470.19,-936.55C497.83,-912.26 543.79,-863.92 543.79,-811 543.79,-811 543.79,-811 543.79,-521 543.79,-474.98 575.87,-429.95 599.14,-403.34"/>
<polygon fill="black" stroke="black" points="601.94,-405.46 606.04,-395.69 596.74,-400.77 601.94,-405.46"/>
</g>
<!-- 离散数学a -->
<g id="node9" class="node">
<title>离散数学a</title>
<ellipse fill="none" stroke="black" cx="391.79" cy="-90" rx="59.59" ry="18"/>
<text text-anchor="middle" x="391.79" y="-86.3" font-family="Times New Roman,serif" font-size="14.00">离散数学a</text>
</g>
<!-- 大学物理II.2&#45;&gt;离散数学a -->
<g id="edge7" class="edge">
<title>大学物理II.2&#45;&gt;离散数学a</title>
<path fill="none" stroke="black" d="M444.76,-935.8C425.01,-866.63 353.79,-601.79 353.79,-379 353.79,-379 353.79,-379 353.79,-233 353.79,-191.63 369.02,-145.72 380.2,-117.61"/>
<polygon fill="black" stroke="black" points="383.55,-118.67 384.1,-108.09 377.07,-116.02 383.55,-118.67"/>
</g>
<!-- 大学英语iii1 -->
<g id="node11" class="node">
<title>大学英语iii1</title>
<ellipse fill="none" stroke="black" cx="1083.79" cy="-810" rx="65.79" ry="18"/>
<text text-anchor="middle" x="1083.79" y="-806.3" font-family="Times New Roman,serif" font-size="14.00">大学英语iii1</text>
</g>
<!-- 工程制图&#45;&gt;大学英语iii1 -->
<g id="edge20" class="edge">
<title>工程制图&#45;&gt;大学英语iii1</title>
<path fill="none" stroke="black" d="M929.08,-868C959.36,-856.84 1003.25,-840.67 1036.55,-828.4"/>
<polygon fill="black" stroke="black" points="1037.91,-831.63 1046.08,-824.89 1035.49,-825.06 1037.91,-831.63"/>
</g>
<!-- 形式语言与编译&#45;&gt;操作系统原理i -->
<g id="edge22" class="edge">
<title>形式语言与编译&#45;&gt;操作系统原理i</title>
<path fill="none" stroke="black" d="M622.2,-396.05C621.32,-422.7 619.79,-475.88 619.79,-521 619.79,-739 619.79,-739 619.79,-739 619.79,-779.97 628.8,-789.87 643.79,-828 657.03,-861.68 662.16,-869.6 681.79,-900 692.79,-917.03 699.49,-918.54 709.79,-936 751.52,-1006.69 785.51,-1098.02 800.9,-1142.42"/>
<polygon fill="black" stroke="black" points="797.6,-1143.58 804.15,-1151.91 804.22,-1141.31 797.6,-1143.58"/>
</g>
<!-- 形式语言与编译&#45;&gt;编译器设计专题实验 -->
<g id="edge26" class="edge">
<title>形式语言与编译&#45;&gt;编译器设计专题实验</title>
<path fill="none" stroke="black" d="M642.36,-360.24C665.07,-341.27 704.1,-310.14 740.79,-288 818.99,-240.8 918.25,-202.84 979.64,-181.61"/>
<polygon fill="black" stroke="black" points="980.83,-184.9 989.15,-178.35 978.56,-178.28 980.83,-184.9"/>
</g>
<!-- 形式语言与编译&#45;&gt;计算机网络原理 -->
<g id="edge28" class="edge">
<title>形式语言与编译&#45;&gt;计算机网络原理</title>
<path fill="none" stroke="black" d="M694.64,-367.22C817.26,-349.23 1059.87,-307.6 1123.79,-252 1161.76,-218.97 1185.2,-186.21 1157.79,-144 1146.46,-126.56 1127.92,-114.81 1108.81,-106.91"/>
<polygon fill="black" stroke="black" points="1110,-103.62 1099.41,-103.34 1107.51,-110.16 1110,-103.62"/>
</g>
<!-- 形式语言与编译&#45;&gt;工程制图 -->
<g id="edge21" class="edge">
<title>形式语言与编译&#45;&gt;工程制图</title>
<path fill="none" stroke="black" d="M628.05,-396.24C647.68,-458.81 721.42,-678.11 833.79,-828 842.36,-839.43 853.72,-850.23 864.25,-859.06"/>
<polygon fill="black" stroke="black" points="862.11,-861.83 872.08,-865.4 866.52,-856.39 862.11,-861.83"/>
</g>
<!-- 形式语言与编译&#45;&gt;离散数学a -->
<g id="edge25" class="edge">
<title>形式语言与编译&#45;&gt;离散数学a</title>
<path fill="none" stroke="black" d="M564.56,-364.36C539.27,-356.37 510.89,-343.71 490.79,-324 459.9,-293.72 417.99,-172.28 400.27,-117.75"/>
<polygon fill="black" stroke="black" points="403.55,-116.52 397.15,-108.08 396.89,-118.67 403.55,-116.52"/>
</g>
<!-- 数字逻辑电路 -->
<g id="node19" class="node">
<title>数字逻辑电路</title>
<ellipse fill="none" stroke="black" cx="577.79" cy="-306" rx="77.99" ry="18"/>
<text text-anchor="middle" x="577.79" y="-302.3" font-family="Times New Roman,serif" font-size="14.00">数字逻辑电路</text>
</g>
<!-- 形式语言与编译&#45;&gt;数字逻辑电路 -->
<g id="edge23" class="edge">
<title>形式语言与编译&#45;&gt;数字逻辑电路</title>
<path fill="none" stroke="black" d="M611.9,-360.05C606.67,-351.92 600.29,-342 594.47,-332.94"/>
<polygon fill="black" stroke="black" points="597.25,-330.79 588.9,-324.28 591.36,-334.58 597.25,-330.79"/>
</g>
<!-- 数据库系统 -->
<g id="node20" class="node">
<title>数据库系统</title>
<ellipse fill="none" stroke="black" cx="683.79" cy="-162" rx="66.89" ry="18"/>
<text text-anchor="middle" x="683.79" y="-158.3" font-family="Times New Roman,serif" font-size="14.00">数据库系统</text>
</g>
<!-- 形式语言与编译&#45;&gt;数据库系统 -->
<g id="edge24" class="edge">
<title>形式语言与编译&#45;&gt;数据库系统</title>
<path fill="none" stroke="black" d="M640.32,-359.98C649.18,-350.3 659.2,-337.44 664.79,-324 683.13,-279.87 685.5,-223.45 685.02,-190.46"/>
<polygon fill="black" stroke="black" points="688.51,-190.13 684.76,-180.22 681.51,-190.3 688.51,-190.13"/>
</g>
<!-- 计算机组成 -->
<g id="node21" class="node">
<title>计算机组成</title>
<ellipse fill="none" stroke="black" cx="816.79" cy="-306" rx="66.89" ry="18"/>
<text text-anchor="middle" x="816.79" y="-302.3" font-family="Times New Roman,serif" font-size="14.00">计算机组成</text>
</g>
<!-- 形式语言与编译&#45;&gt;计算机组成 -->
<g id="edge27" class="edge">
<title>形式语言与编译&#45;&gt;计算机组成</title>
<path fill="none" stroke="black" d="M664.41,-361.98C695.08,-350.92 736.86,-335.84 768.92,-324.27"/>
<polygon fill="black" stroke="black" points="770.32,-327.49 778.53,-320.8 767.94,-320.91 770.32,-327.49"/>
</g>
<!-- 离散数学a&#45;&gt;线性代数与解析几何 -->
<g id="edge57" class="edge">
<title>离散数学a&#45;&gt;线性代数与解析几何</title>
<path fill="none" stroke="black" d="M337.12,-97.33C301.88,-103.89 256.98,-117.17 225.79,-144 192.34,-172.77 181.79,-188.87 181.79,-233 181.79,-883 181.79,-883 181.79,-883 181.79,-927.64 153.61,-972.8 133.01,-999.84"/>
<polygon fill="black" stroke="black" points="130.06,-997.94 126.64,-1007.97 135.56,-1002.26 130.06,-997.94"/>
</g>
<!-- 离散数学a&#45;&gt;工程制图 -->
<g id="edge55" class="edge">
<title>离散数学a&#45;&gt;工程制图</title>
<path fill="none" stroke="black" d="M391.79,-108.05C391.79,-134.71 391.79,-187.89 391.79,-233 391.79,-379 391.79,-379 391.79,-379 391.79,-514.72 700.6,-742.24 805.79,-828 821.16,-840.53 839.78,-852.17 855.92,-861.34"/>
<polygon fill="black" stroke="black" points="854.66,-864.64 865.1,-866.43 858.06,-858.52 854.66,-864.64"/>
</g>
<!-- 程序设计基础 -->
<g id="node18" class="node">
<title>程序设计基础</title>
<ellipse fill="none" stroke="black" cx="1127.79" cy="-18" rx="77.99" ry="18"/>
<text text-anchor="middle" x="1127.79" y="-14.3" font-family="Times New Roman,serif" font-size="14.00">程序设计基础</text>
</g>
<!-- 离散数学a&#45;&gt;程序设计基础 -->
<g id="edge56" class="edge">
<title>离散数学a&#45;&gt;程序设计基础</title>
<path fill="none" stroke="black" d="M448.02,-83.65C577.44,-71.34 896.81,-40.97 1047.12,-26.67"/>
<polygon fill="black" stroke="black" points="1047.59,-30.14 1057.21,-25.71 1046.92,-23.18 1047.59,-30.14"/>
</g>
<!-- 大学英语i -->
<g id="node10" class="node">
<title>大学英语i</title>
<ellipse fill="none" stroke="black" cx="1199.79" cy="-594" rx="57.69" ry="18"/>
<text text-anchor="middle" x="1199.79" y="-590.3" font-family="Times New Roman,serif" font-size="14.00">大学英语i</text>
</g>
<!-- 大学英语i&#45;&gt;大学英语iii1 -->
<g id="edge8" class="edge">
<title>大学英语i&#45;&gt;大学英语iii1</title>
<path fill="none" stroke="black" d="M1188.75,-612.04C1182.65,-622.14 1175.4,-635.39 1170.79,-648 1153.96,-694 1174.14,-714.08 1148.79,-756 1141.41,-768.21 1130.15,-778.84 1119.06,-787.31"/>
<polygon fill="black" stroke="black" points="1116.75,-784.67 1110.69,-793.36 1120.85,-790.34 1116.75,-784.67"/>
</g>
<!-- 数学建模ii -->
<g id="node12" class="node">
<title>数学建模ii</title>
<ellipse fill="none" stroke="black" cx="905.79" cy="-378" rx="59.59" ry="18"/>
<text text-anchor="middle" x="905.79" y="-374.3" font-family="Times New Roman,serif" font-size="14.00">数学建模ii</text>
</g>
<!-- 大学英语i&#45;&gt;数学建模ii -->
<g id="edge9" class="edge">
<title>大学英语i&#45;&gt;数学建模ii</title>
<path fill="none" stroke="black" d="M1175.78,-577.61C1162.36,-568.06 1146.11,-554.81 1134.79,-540 1102.9,-498.26 1126.32,-466.58 1086.79,-432 1077.05,-423.48 1010.3,-405.27 960.68,-392.58"/>
<polygon fill="black" stroke="black" points="961.24,-389.12 950.69,-390.05 959.52,-395.9 961.24,-389.12"/>
</g>
<!-- 数理逻辑 -->
<g id="node13" class="node">
<title>数理逻辑</title>
<ellipse fill="none" stroke="black" cx="1083.79" cy="-738" rx="55.79" ry="18"/>
<text text-anchor="middle" x="1083.79" y="-734.3" font-family="Times New Roman,serif" font-size="14.00">数理逻辑</text>
</g>
<!-- 大学英语i&#45;&gt;数理逻辑 -->
<g id="edge10" class="edge">
<title>大学英语i&#45;&gt;数理逻辑</title>
<path fill="none" stroke="black" d="M1177.89,-610.91C1165.27,-620.73 1149.62,-634.08 1137.79,-648 1121.34,-667.35 1106.68,-692.27 1096.8,-710.82"/>
<polygon fill="black" stroke="black" points="1093.6,-709.39 1092.09,-719.87 1099.81,-712.62 1093.6,-709.39"/>
</g>
<!-- 模拟电子技术基础 -->
<g id="node14" class="node">
<title>模拟电子技术基础</title>
<ellipse fill="none" stroke="black" cx="976.79" cy="-450" rx="100.98" ry="18"/>
<text text-anchor="middle" x="976.79" y="-446.3" font-family="Times New Roman,serif" font-size="14.00">模拟电子技术基础</text>
</g>
<!-- 大学英语i&#45;&gt;模拟电子技术基础 -->
<g id="edge11" class="edge">
<title>大学英语i&#45;&gt;模拟电子技术基础</title>
<path fill="none" stroke="black" d="M1169.98,-578.33C1150.22,-568.26 1123.94,-554.19 1101.79,-540 1079.33,-525.62 1075.44,-519.56 1053.79,-504 1039.63,-493.82 1023.79,-482.85 1010.17,-473.54"/>
<polygon fill="black" stroke="black" points="1011.82,-470.43 1001.59,-467.69 1007.88,-476.22 1011.82,-470.43"/>
</g>
<!-- 大学英语i&#45;&gt;软件工程 -->
<g id="edge12" class="edge">
<title>大学英语i&#45;&gt;软件工程</title>
<path fill="none" stroke="black" d="M1199.79,-575.7C1199.79,-567.98 1199.79,-558.71 1199.79,-550.11"/>
<polygon fill="black" stroke="black" points="1203.29,-550.1 1199.79,-540.1 1196.29,-550.1 1203.29,-550.1"/>
</g>
<!-- 大学英语iii1&#45;&gt;数理逻辑 -->
<g id="edge14" class="edge">
<title>大学英语iii1&#45;&gt;数理逻辑</title>
<path fill="none" stroke="black" d="M1083.79,-791.7C1083.79,-783.98 1083.79,-774.71 1083.79,-766.11"/>
<polygon fill="black" stroke="black" points="1087.29,-766.1 1083.79,-756.1 1080.29,-766.1 1087.29,-766.1"/>
</g>
<!-- 大学英语iii1&#45;&gt;模拟电子技术基础 -->
<g id="edge15" class="edge">
<title>大学英语iii1&#45;&gt;模拟电子技术基础</title>
<path fill="none" stroke="black" d="M1056.71,-793.6C1020.77,-770.91 961.79,-724.85 961.79,-667 961.79,-667 961.79,-667 961.79,-593 961.79,-552.99 967.75,-507 972.16,-478.46"/>
<polygon fill="black" stroke="black" points="975.64,-478.85 973.75,-468.43 968.73,-477.75 975.64,-478.85"/>
</g>
<!-- 大学英语iii1&#45;&gt;软件工程 -->
<g id="edge17" class="edge">
<title>大学英语iii1&#45;&gt;软件工程</title>
<path fill="none" stroke="black" d="M1054.93,-793.61C1041.28,-784.63 1026.35,-771.91 1018.79,-756 1011.93,-741.55 1014.34,-735.37 1018.79,-720 1039.84,-647.28 1055.42,-628.69 1109.79,-576 1124.07,-562.16 1142.64,-550.45 1159.2,-541.58"/>
<polygon fill="black" stroke="black" points="1160.87,-544.66 1168.15,-536.96 1157.66,-538.44 1160.87,-544.66"/>
</g>
<!-- 大学计算机iii -->
<g id="node16" class="node">
<title>大学计算机iii</title>
<ellipse fill="none" stroke="black" cx="1252.79" cy="-666" rx="72.59" ry="18"/>
<text text-anchor="middle" x="1252.79" y="-662.3" font-family="Times New Roman,serif" font-size="14.00">大学计算机iii</text>
</g>
<!-- 大学英语iii1&#45;&gt;大学计算机iii -->
<g id="edge13" class="edge">
<title>大学英语iii1&#45;&gt;大学计算机iii</title>
<path fill="none" stroke="black" d="M1118.09,-794.63C1137.92,-785.34 1162.65,-772.01 1181.79,-756 1203.65,-737.72 1223.4,-711.8 1236.49,-692.65"/>
<polygon fill="black" stroke="black" points="1239.55,-694.37 1242.19,-684.11 1233.73,-690.48 1239.55,-694.37"/>
</g>
<!-- 计算机图形学 -->
<g id="node17" class="node">
<title>计算机图形学</title>
<ellipse fill="none" stroke="black" cx="1036.79" cy="-234" rx="77.99" ry="18"/>
<text text-anchor="middle" x="1036.79" y="-230.3" font-family="Times New Roman,serif" font-size="14.00">计算机图形学</text>
</g>
<!-- 大学英语iii1&#45;&gt;计算机图形学 -->
<g id="edge16" class="edge">
<title>大学英语iii1&#45;&gt;计算机图形学</title>
<path fill="none" stroke="black" d="M1138.55,-799.9C1199.38,-786.47 1294.36,-754.81 1334.79,-684 1342.72,-670.11 1335.49,-663.98 1334.79,-648 1332.34,-592.28 1323.79,-578.77 1323.79,-523 1323.79,-523 1323.79,-523 1323.79,-377 1323.79,-285.52 1205.2,-252.97 1120.48,-241.39"/>
<polygon fill="black" stroke="black" points="1120.69,-237.89 1110.33,-240.08 1119.8,-244.83 1120.69,-237.89"/>
</g>
<!-- 数学建模ii&#45;&gt;计算机图形学 -->
<g id="edge36" class="edge">
<title>数学建模ii&#45;&gt;计算机图形学</title>
<path fill="none" stroke="black" d="M921.07,-360.43C944.02,-335.56 987.53,-288.4 1014.16,-259.53"/>
<polygon fill="black" stroke="black" points="1016.99,-261.63 1021.2,-251.9 1011.84,-256.88 1016.99,-261.63"/>
</g>
<!-- 数学建模ii&#45;&gt;数字逻辑电路 -->
<g id="edge35" class="edge">
<title>数学建模ii&#45;&gt;数字逻辑电路</title>
<path fill="none" stroke="black" d="M858.45,-366.9C801.78,-354.8 706.59,-334.49 642.99,-320.92"/>
<polygon fill="black" stroke="black" points="643.58,-317.46 633.07,-318.8 642.12,-324.31 643.58,-317.46"/>
</g>
<!-- 数学建模ii&#45;&gt;计算机组成 -->
<g id="edge37" class="edge">
<title>数学建模ii&#45;&gt;计算机组成</title>
<path fill="none" stroke="black" d="M885.15,-360.76C873.35,-351.49 858.38,-339.71 845.46,-329.55"/>
<polygon fill="black" stroke="black" points="847.34,-326.58 837.32,-323.15 843.02,-332.08 847.34,-326.58"/>
</g>
<!-- 数理逻辑&#45;&gt;大学计算机iii -->
<g id="edge41" class="edge">
<title>数理逻辑&#45;&gt;大学计算机iii</title>
<path fill="none" stroke="black" d="M1116.78,-723.34C1142.75,-712.58 1179.23,-697.47 1207.88,-685.6"/>
<polygon fill="black" stroke="black" points="1209.36,-688.78 1217.26,-681.72 1206.68,-682.31 1209.36,-688.78"/>
</g>
<!-- 模拟电子技术基础&#45;&gt;人工智能 -->
<g id="edge45" class="edge">
<title>模拟电子技术基础&#45;&gt;人工智能</title>
<path fill="none" stroke="black" d="M965.81,-468.16C950.28,-494.11 923.79,-545.37 923.79,-593 923.79,-667 923.79,-667 923.79,-667 923.79,-779.25 1031.89,-1116.73 1063.94,-1214.3"/>
<polygon fill="black" stroke="black" points="1060.68,-1215.59 1067.13,-1223.99 1067.33,-1213.4 1060.68,-1215.59"/>
</g>
<!-- 模拟电子技术基础&#45;&gt;大学物理II.2 -->
<g id="edge46" class="edge">
<title>模拟电子技术基础&#45;&gt;大学物理II.2</title>
<path fill="none" stroke="black" d="M948.44,-467.4C934.91,-476.56 919.58,-489.14 909.79,-504 887.25,-538.21 885.79,-552.03 885.79,-593 885.79,-739 885.79,-739 885.79,-739 885.79,-822.57 624.39,-905.03 506.39,-937.99"/>
<polygon fill="black" stroke="black" points="505.15,-934.7 496.45,-940.74 507.02,-941.45 505.15,-934.7"/>
</g>
<!-- 模拟电子技术基础&#45;&gt;形式语言与编译 -->
<g id="edge48" class="edge">
<title>模拟电子技术基础&#45;&gt;形式语言与编译</title>
<path fill="none" stroke="black" d="M911.86,-436.16C850.19,-423.97 757.68,-405.67 694.01,-393.08"/>
<polygon fill="black" stroke="black" points="694.54,-389.62 684.05,-391.11 693.18,-396.49 694.54,-389.62"/>
</g>
<!-- 模拟电子技术基础&#45;&gt;数理逻辑 -->
<g id="edge49" class="edge">
<title>模拟电子技术基础&#45;&gt;数理逻辑</title>
<path fill="none" stroke="black" d="M983.26,-468.31C1001.3,-516.51 1052.2,-652.56 1073.85,-710.43"/>
<polygon fill="black" stroke="black" points="1070.63,-711.83 1077.42,-719.97 1077.19,-709.37 1070.63,-711.83"/>
</g>
<!-- 模拟电子技术基础&#45;&gt;大学计算机iii -->
<g id="edge47" class="edge">
<title>模拟电子技术基础&#45;&gt;大学计算机iii</title>
<path fill="none" stroke="black" d="M989.05,-468C1013.15,-500.31 1069.86,-570.99 1132.79,-612 1154.58,-626.2 1180.8,-638.27 1203.17,-647.3"/>
<polygon fill="black" stroke="black" points="1201.91,-650.56 1212.5,-650.97 1204.48,-644.05 1201.91,-650.56"/>
</g>
<!-- 软件工程&#45;&gt;数理逻辑 -->
<g id="edge76" class="edge">
<title>软件工程&#45;&gt;数理逻辑</title>
<path fill="none" stroke="black" d="M1174.14,-538.06C1160.18,-547.41 1143.61,-560.58 1132.79,-576 1103.88,-617.23 1091.68,-675.91 1086.8,-709.87"/>
<polygon fill="black" stroke="black" points="1083.31,-709.6 1085.47,-719.97 1090.25,-710.52 1083.31,-709.6"/>
</g>
<!-- 软件工程&#45;&gt;模拟电子技术基础 -->
<g id="edge77" class="edge">
<title>软件工程&#45;&gt;模拟电子技术基础</title>
<path fill="none" stroke="black" d="M1161.2,-508.89C1126.08,-497.86 1073.76,-481.44 1033.81,-468.9"/>
<polygon fill="black" stroke="black" points="1034.79,-465.54 1024.2,-465.88 1032.69,-472.22 1034.79,-465.54"/>
</g>
<!-- 软件工程&#45;&gt;大学计算机iii -->
<g id="edge74" class="edge">
<title>软件工程&#45;&gt;大学计算机iii</title>
<path fill="none" stroke="black" d="M1228.47,-537.54C1242.81,-546.49 1258.78,-559.45 1266.79,-576 1276.28,-595.6 1271.3,-620.2 1264.79,-638.57"/>
<polygon fill="black" stroke="black" points="1261.47,-637.47 1261.1,-648.06 1267.99,-640.01 1261.47,-637.47"/>
</g>
<!-- 软件工程&#45;&gt;计算机图形学 -->
<g id="edge78" class="edge">
<title>软件工程&#45;&gt;计算机图形学</title>
<path fill="none" stroke="black" d="M1192.43,-504C1184.44,-485.88 1171.04,-456.5 1157.79,-432 1123.64,-368.86 1078.15,-297.8 1053.83,-260.69"/>
<polygon fill="black" stroke="black" points="1056.54,-258.45 1048.12,-252.02 1050.7,-262.29 1056.54,-258.45"/>
</g>
<!-- 软件工程&#45;&gt;数据库系统 -->
<g id="edge75" class="edge">
<title>软件工程&#45;&gt;数据库系统</title>
<path fill="none" stroke="black" d="M1185.46,-504.55C1168.76,-485.86 1139.86,-455 1111.79,-432 979.36,-323.51 800.24,-224.17 722.48,-183.02"/>
<polygon fill="black" stroke="black" points="723.99,-179.86 713.51,-178.3 720.72,-186.06 723.99,-179.86"/>
</g>
<!-- 大学计算机iii&#45;&gt;大学英语i -->
<g id="edge18" class="edge">
<title>大学计算机iii&#45;&gt;大学英语i</title>
<path fill="none" stroke="black" d="M1239.96,-648.05C1233.58,-639.63 1225.74,-629.28 1218.69,-619.97"/>
<polygon fill="black" stroke="black" points="1221.33,-617.65 1212.5,-611.79 1215.75,-621.87 1221.33,-617.65"/>
</g>
<!-- 大学计算机iii&#45;&gt;程序设计基础 -->
<g id="edge19" class="edge">
<title>大学计算机iii&#45;&gt;程序设计基础</title>
<path fill="none" stroke="black" d="M1276.98,-648.89C1309.09,-625.36 1361.79,-578.32 1361.79,-523 1361.79,-523 1361.79,-523 1361.79,-305 1361.79,-181.84 1230.21,-82.57 1164.38,-40.61"/>
<polygon fill="black" stroke="black" points="1165.88,-37.42 1155.55,-35.07 1162.17,-43.35 1165.88,-37.42"/>
</g>
<!-- 计算机图形学&#45;&gt;操作系统原理i -->
<g id="edge63" class="edge">
<title>计算机图形学&#45;&gt;操作系统原理i</title>
<path fill="none" stroke="black" d="M1034.97,-252.2C1030.6,-284.84 1016.59,-356.07 974.79,-396 938.2,-430.95 900.22,-394.02 866.79,-432 748.63,-566.21 792.12,-649.23 795.79,-828 798.19,-944.87 805.2,-1084.13 808.3,-1141.86"/>
<polygon fill="black" stroke="black" points="804.81,-1142.18 808.84,-1151.98 811.8,-1141.8 804.81,-1142.18"/>
</g>
<!-- 计算机图形学&#45;&gt;编译器设计专题实验 -->
<g id="edge65" class="edge">
<title>计算机图形学&#45;&gt;编译器设计专题实验</title>
<path fill="none" stroke="black" d="M1036.79,-215.7C1036.79,-207.98 1036.79,-198.71 1036.79,-190.11"/>
<polygon fill="black" stroke="black" points="1040.29,-190.1 1036.79,-180.1 1033.29,-190.1 1040.29,-190.1"/>
</g>
<!-- 计算机图形学&#45;&gt;数据库系统 -->
<g id="edge64" class="edge">
<title>计算机图形学&#45;&gt;数据库系统</title>
<path fill="none" stroke="black" d="M979.68,-221.68C915.56,-208.96 811.85,-188.39 745.79,-175.29"/>
<polygon fill="black" stroke="black" points="746.41,-171.85 735.92,-173.34 745.05,-178.72 746.41,-171.85"/>
</g>
<!-- 程序设计基础&#45;&gt;线性代数与解析几何 -->
<g id="edge59" class="edge">
<title>程序设计基础&#45;&gt;线性代数与解析几何</title>
<path fill="none" stroke="black" d="M1050.54,-20.54C876.66,-24.57 459.11,-37.63 322.79,-72 230.41,-95.29 127.79,-65.73 127.79,-161 127.79,-883 127.79,-883 127.79,-883 127.79,-923.04 121.43,-969.03 116.73,-997.55"/>
<polygon fill="black" stroke="black" points="113.25,-997.14 115.03,-1007.58 120.15,-998.31 113.25,-997.14"/>
</g>
<!-- 程序设计基础&#45;&gt;工程制图 -->
<g id="edge58" class="edge">
<title>程序设计基础&#45;&gt;工程制图</title>
<path fill="none" stroke="black" d="M1190.67,-28.77C1300.04,-47.56 1513.79,-92.99 1513.79,-161 1513.79,-235 1513.79,-235 1513.79,-235 1513.79,-331.6 1475.79,-352.4 1475.79,-449 1475.79,-667 1475.79,-667 1475.79,-667 1475.79,-777.39 1102.3,-848.25 953.71,-872.07"/>
<polygon fill="black" stroke="black" points="952.74,-868.68 943.41,-873.7 953.84,-875.59 952.74,-868.68"/>
</g>
<!-- 数字逻辑电路&#45;&gt;计算机网络原理 -->
<g id="edge34" class="edge">
<title>数字逻辑电路&#45;&gt;计算机网络原理</title>
<path fill="none" stroke="black" d="M575.14,-287.89C571.09,-254.76 567.6,-181.78 607.79,-144 631.84,-121.39 824.72,-104.91 944.16,-96.76"/>
<polygon fill="black" stroke="black" points="944.67,-100.23 954.41,-96.06 944.2,-93.24 944.67,-100.23"/>
</g>
<!-- 数字逻辑电路&#45;&gt;离散数学a -->
<g id="edge33" class="edge">
<title>数字逻辑电路&#45;&gt;离散数学a</title>
<path fill="none" stroke="black" d="M564.53,-288.17C540.95,-258.44 489.88,-194.99 443.79,-144 434.88,-134.14 424.71,-123.62 415.74,-114.58"/>
<polygon fill="black" stroke="black" points="418.08,-111.97 408.54,-107.37 413.13,-116.92 418.08,-111.97"/>
</g>
<!-- 数字逻辑电路&#45;&gt;数据库系统 -->
<g id="edge31" class="edge">
<title>数字逻辑电路&#45;&gt;数据库系统</title>
<path fill="none" stroke="black" d="M590.37,-288.15C608.85,-263.39 643.5,-216.97 665.01,-188.16"/>
<polygon fill="black" stroke="black" points="668.05,-189.93 671.23,-179.82 662.44,-185.74 668.05,-189.93"/>
</g>
<!-- 数字逻辑电路&#45;&gt;概率统计与随机过程 -->
<g id="edge32" class="edge">
<title>数字逻辑电路&#45;&gt;概率统计与随机过程</title>
<path fill="none" stroke="black" d="M541.29,-322.15C524.11,-330.94 504.63,-343.55 491.79,-360 346.06,-546.77 353.79,-700.59 353.79,-809 353.79,-883 353.79,-883 353.79,-883 353.79,-954.24 391.65,-1031.52 413.93,-1070.83"/>
<polygon fill="black" stroke="black" points="411.18,-1073.08 419.22,-1079.98 417.24,-1069.57 411.18,-1073.08"/>
</g>
<!-- 数据库系统&#45;&gt;操作系统原理i -->
<g id="edge38" class="edge">
<title>数据库系统&#45;&gt;操作系统原理i</title>
<path fill="none" stroke="black" d="M644.23,-176.54C598.76,-194.36 525.89,-230.39 490.79,-288 436.65,-376.86 467.79,-416.94 467.79,-521 467.79,-595 467.79,-595 467.79,-595 467.79,-772.76 588.15,-781.92 676.79,-936 722.11,-1014.77 726.64,-1038.31 773.79,-1116 779.42,-1125.27 785.98,-1135.17 791.95,-1143.87"/>
<polygon fill="black" stroke="black" points="789.09,-1145.89 797.66,-1152.11 794.84,-1141.89 789.09,-1145.89"/>
</g>
<!-- 数据库系统&#45;&gt;计算机网络原理 -->
<g id="edge40" class="edge">
<title>数据库系统&#45;&gt;计算机网络原理</title>
<path fill="none" stroke="black" d="M736.17,-150.67C797.48,-138.58 899.3,-118.5 967.7,-105.02"/>
<polygon fill="black" stroke="black" points="968.41,-108.44 977.55,-103.08 967.06,-101.58 968.41,-108.44"/>
</g>
<!-- 数据库系统&#45;&gt;离散数学a -->
<g id="edge39" class="edge">
<title>数据库系统&#45;&gt;离散数学a</title>
<path fill="none" stroke="black" d="M635.57,-149.44C583.72,-137.01 501.43,-117.28 447.02,-104.24"/>
<polygon fill="black" stroke="black" points="447.74,-100.81 437.19,-101.88 446.1,-107.62 447.74,-100.81"/>
</g>
<!-- 计算机组成&#45;&gt;人工智能 -->
<g id="edge66" class="edge">
<title>计算机组成&#45;&gt;人工智能</title>
<path fill="none" stroke="black" d="M816.6,-324.22C816.54,-378.91 820.67,-552.71 871.79,-684 937.23,-852.07 1091.79,-844.64 1091.79,-1025 1091.79,-1099 1091.79,-1099 1091.79,-1099 1091.79,-1139.14 1084.24,-1185.1 1078.66,-1213.6"/>
<polygon fill="black" stroke="black" points="1075.18,-1213.12 1076.64,-1223.61 1082.05,-1214.5 1075.18,-1213.12"/>
</g>
<!-- 计算机组成&#45;&gt;操作系统原理i -->
<g id="edge67" class="edge">
<title>计算机组成&#45;&gt;操作系统原理i</title>
<path fill="none" stroke="black" d="M807.41,-324.16C802.28,-334.3 796.28,-347.55 792.79,-360 758.02,-484.16 765.58,-519.29 757.79,-648 752.96,-727.86 745.64,-749.26 759.79,-828 774.8,-911.57 809.36,-924.33 823.79,-1008 831.95,-1055.3 829.97,-1068.4 823.79,-1116 822.66,-1124.72 820.52,-1134.05 818.25,-1142.42"/>
<polygon fill="black" stroke="black" points="814.88,-1141.46 815.47,-1152.04 821.61,-1143.4 814.88,-1141.46"/>
</g>
<!-- 计算机组成&#45;&gt;编译器设计专题实验 -->
<g id="edge71" class="edge">
<title>计算机组成&#45;&gt;编译器设计专题实验</title>
<path fill="none" stroke="black" d="M840.14,-288.94C866.54,-270.88 910.92,-240.83 949.79,-216 966.11,-205.57 984.39,-194.37 999.96,-184.96"/>
<polygon fill="black" stroke="black" points="1002.02,-187.81 1008.78,-179.65 998.41,-181.81 1002.02,-187.81"/>
</g>
<!-- 计算机组成&#45;&gt;计算机网络原理 -->
<g id="edge73" class="edge">
<title>计算机组成&#45;&gt;计算机网络原理</title>
<path fill="none" stroke="black" d="M823.12,-288.08C835.95,-255.9 867.89,-185.43 915.79,-144 933.87,-128.36 957.26,-116.74 978.78,-108.43"/>
<polygon fill="black" stroke="black" points="980.02,-111.7 988.19,-104.95 977.59,-105.13 980.02,-111.7"/>
</g>
<!-- 计算机组成&#45;&gt;计算机图形学 -->
<g id="edge72" class="edge">
<title>计算机组成&#45;&gt;计算机图形学</title>
<path fill="none" stroke="black" d="M858.17,-291.83C893.48,-280.6 944.49,-264.37 982.96,-252.13"/>
<polygon fill="black" stroke="black" points="984.49,-255.31 992.96,-248.95 982.37,-248.64 984.49,-255.31"/>
</g>
<!-- 计算机组成&#45;&gt;程序设计基础 -->
<g id="edge70" class="edge">
<title>计算机组成&#45;&gt;程序设计基础</title>
<path fill="none" stroke="black" d="M818.47,-287.77C820.67,-269.46 825.4,-239.92 834.79,-216 863.83,-142.03 873.8,-114.75 940.79,-72 974.33,-50.59 1016.65,-37.66 1052.54,-29.94"/>
<polygon fill="black" stroke="black" points="1053.39,-33.34 1062.48,-27.9 1051.98,-26.48 1053.39,-33.34"/>
</g>
<!-- 计算机组成&#45;&gt;数据库系统 -->
<g id="edge68" class="edge">
<title>计算机组成&#45;&gt;数据库系统</title>
<path fill="none" stroke="black" d="M800.23,-288.45C789.94,-278.07 776.48,-264.37 764.79,-252 744.38,-230.4 721.65,-205.34 705.48,-187.32"/>
<polygon fill="black" stroke="black" points="707.82,-184.69 698.54,-179.57 702.6,-189.36 707.82,-184.69"/>
</g>
<!-- 计算机组成&#45;&gt;概率统计与随机过程 -->
<g id="edge69" class="edge">
<title>计算机组成&#45;&gt;概率统计与随机过程</title>
<path fill="none" stroke="black" d="M811.08,-323.99C807.84,-334.29 804.01,-347.77 801.79,-360 796.06,-391.6 797.12,-399.92 795.79,-432 792.47,-511.93 791.33,-532.12 795.79,-612 798.91,-667.82 809.79,-681.1 809.79,-737 809.79,-883 809.79,-883 809.79,-883 809.79,-1012.72 639.59,-1064.66 527,-1084.83"/>
<polygon fill="black" stroke="black" points="526.22,-1081.41 516.97,-1086.57 527.42,-1088.31 526.22,-1081.41"/>
</g>
<!-- 概率统计与随机过程&#45;&gt;线性代数与解析几何 -->
<g id="edge44" class="edge">
<title>概率统计与随机过程&#45;&gt;线性代数与解析几何</title>
<path fill="none" stroke="black" d="M366.58,-1083.09C314.23,-1071.56 239.8,-1055.18 184.89,-1043.09"/>
<polygon fill="black" stroke="black" points="185.4,-1039.62 174.88,-1040.89 183.89,-1046.46 185.4,-1039.62"/>
</g>
<!-- 概率统计与随机过程&#45;&gt;大学物理II.2 -->
<g id="edge42" class="edge">
<title>概率统计与随机过程&#45;&gt;大学物理II.2</title>
<path fill="none" stroke="black" d="M432.2,-1079.87C435.61,-1055.67 441.87,-1011.21 445.93,-982.39"/>
<polygon fill="black" stroke="black" points="449.44,-982.58 447.37,-972.19 442.51,-981.6 449.44,-982.58"/>
</g>
<!-- 概率统计与随机过程&#45;&gt;离散数学a -->
<g id="edge43" class="edge">
<title>概率统计与随机过程&#45;&gt;离散数学a</title>
<path fill="none" stroke="black" d="M406.37,-1080.22C363.74,-1047.52 277.79,-970.72 277.79,-883 277.79,-883 277.79,-883 277.79,-233 277.79,-180.83 325.16,-136.92 358.83,-112.29"/>
<polygon fill="black" stroke="black" points="360.92,-115.09 367.05,-106.45 356.87,-109.39 360.92,-115.09"/>
</g>
<!-- 电路 -->
<g id="node23" class="node">
<title>电路</title>
<ellipse fill="none" stroke="black" cx="487.79" cy="-1170" rx="33.29" ry="18"/>
<text text-anchor="middle" x="487.79" y="-1166.3" font-family="Times New Roman,serif" font-size="14.00">电路</text>
</g>
<!-- 电路&#45;&gt;大学物理II.2 -->
<g id="edge50" class="edge">
<title>电路&#45;&gt;大学物理II.2</title>
<path fill="none" stroke="black" d="M510.62,-1156.8C525.06,-1147.68 542.53,-1133.75 550.79,-1116 557.54,-1101.49 556.12,-1095.09 550.79,-1080 536.27,-1038.94 501.91,-1001.47 477.29,-978.49"/>
<polygon fill="black" stroke="black" points="479.43,-975.7 469.68,-971.55 474.71,-980.87 479.43,-975.7"/>
</g>
<!-- 电路&#45;&gt;离散数学a -->
<g id="edge53" class="edge">
<title>电路&#45;&gt;离散数学a</title>
<path fill="none" stroke="black" d="M457.8,-1162.27C407.61,-1150.76 310.96,-1127.43 299.79,-1116 225.04,-1039.53 239.79,-989.93 239.79,-883 239.79,-883 239.79,-883 239.79,-233 239.79,-187.41 257.96,-175.63 290.79,-144 306.4,-128.95 327.14,-117.08 345.76,-108.42"/>
<polygon fill="black" stroke="black" points="347.27,-111.58 354.98,-104.31 344.42,-105.19 347.27,-111.58"/>
</g>
<!-- 电路&#45;&gt;数字逻辑电路 -->
<g id="edge51" class="edge">
<title>电路&#45;&gt;数字逻辑电路</title>
<path fill="none" stroke="black" d="M457.76,-1162.17C409.19,-1150.82 317.86,-1128.14 308.79,-1116 299.22,-1103.18 305.72,-1095.7 308.79,-1080 353.4,-851.66 505.79,-827.66 505.79,-595 505.79,-595 505.79,-595 505.79,-449 505.79,-408.55 505.47,-395.54 524.79,-360 530.75,-349.03 539.68,-338.85 548.52,-330.39"/>
<polygon fill="black" stroke="black" points="551.14,-332.75 556.19,-323.43 546.44,-327.56 551.14,-332.75"/>
</g>
<!-- 电路&#45;&gt;概率统计与随机过程 -->
<g id="edge52" class="edge">
<title>电路&#45;&gt;概率统计与随机过程</title>
<path fill="none" stroke="black" d="M474.63,-1153.12C467.53,-1144.54 458.6,-1133.77 450.58,-1124.09"/>
<polygon fill="black" stroke="black" points="453.19,-1121.76 444.12,-1116.29 447.8,-1126.23 453.19,-1121.76"/>
</g>
<!-- 高等数学I.2 -->
<g id="node24" class="node">
<title>高等数学I.2</title>
<ellipse fill="none" stroke="black" cx="626.79" cy="-1242" rx="65.79" ry="18"/>
<text text-anchor="middle" x="626.79" y="-1238.3" font-family="Times New Roman,serif" font-size="14.00">高等数学I.2</text>
</g>
<!-- 电路&#45;&gt;高等数学I.2 -->
<g id="edge54" class="edge">
<title>电路&#45;&gt;高等数学I.2</title>
<path fill="none" stroke="black" d="M513.52,-1181.45C535.79,-1191.74 567.95,-1207.73 592.39,-1220.55"/>
<polygon fill="black" stroke="black" points="590.86,-1223.7 601.34,-1225.29 594.14,-1217.52 590.86,-1223.7"/>
</g>
<!-- 高等数学I.2&#45;&gt;线性代数与解析几何 -->
<g id="edge84" class="edge">
<title>高等数学I.2&#45;&gt;线性代数与解析几何</title>
<path fill="none" stroke="black" d="M561.17,-1240.89C452.73,-1239.47 242.27,-1231.06 183.79,-1188 140.03,-1155.78 122.34,-1090.85 115.6,-1054.05"/>
<polygon fill="black" stroke="black" points="119.03,-1053.32 113.92,-1044.04 112.13,-1054.48 119.03,-1053.32"/>
</g>
<!-- 高等数学I.2&#45;&gt;大学物理II.2 -->
<g id="edge79" class="edge">
<title>高等数学I.2&#45;&gt;大学物理II.2</title>
<path fill="none" stroke="black" d="M624.15,-1224.01C616.9,-1182.49 593.25,-1074.45 534.79,-1008 522.99,-994.59 506.99,-983.41 492.04,-974.83"/>
<polygon fill="black" stroke="black" points="493.37,-971.57 482.92,-969.83 490,-977.71 493.37,-971.57"/>
</g>
<!-- 高等数学I.2&#45;&gt;工程制图 -->
<g id="edge81" class="edge">
<title>高等数学I.2&#45;&gt;工程制图</title>
<path fill="none" stroke="black" d="M688.29,-1235.53C758.2,-1228.21 866.77,-1213.15 898.79,-1188 933.04,-1161.1 939.79,-1142.55 939.79,-1099 939.79,-1099 939.79,-1099 939.79,-1025 939.79,-982.81 921.19,-936.85 907.64,-908.98"/>
<polygon fill="black" stroke="black" points="910.71,-907.29 903.1,-899.91 904.45,-910.42 910.71,-907.29"/>
</g>
<!-- 高等数学I.2&#45;&gt;大学计算机iii -->
<g id="edge80" class="edge">
<title>高等数学I.2&#45;&gt;大学计算机iii</title>
<path fill="none" stroke="black" d="M688.03,-1235.26C763.9,-1227.29 888.03,-1211.19 927.79,-1188 1126,-1072.42 1220.65,-782.92 1245.77,-693.64"/>
<polygon fill="black" stroke="black" points="1249.14,-694.57 1248.43,-684 1242.39,-692.71 1249.14,-694.57"/>
</g>
<!-- 高等数学I.2&#45;&gt;程序设计基础 -->
<g id="edge83" class="edge">
<title>高等数学I.2&#45;&gt;程序设计基础</title>
<path fill="none" stroke="black" d="M688.2,-1235.46C894.79,-1215.16 1551.79,-1136.33 1551.79,-955 1551.79,-955 1551.79,-955 1551.79,-161 1551.79,-97.77 1498.48,-97.89 1440.79,-72 1368.84,-39.71 1279.53,-26.96 1214.75,-21.99"/>
<polygon fill="black" stroke="black" points="1214.79,-18.49 1204.57,-21.26 1214.29,-25.47 1214.79,-18.49"/>
</g>
<!-- 高等数学I.2&#45;&gt;电路 -->
<g id="edge82" class="edge">
<title>高等数学I.2&#45;&gt;电路</title>
<path fill="none" stroke="black" d="M592.4,-1226.5C569.43,-1215.63 539.65,-1200.7 517.67,-1189.07"/>
<polygon fill="black" stroke="black" points="519.24,-1185.94 508.77,-1184.3 515.94,-1192.11 519.24,-1185.94"/>
</g>
<!-- 高等数学I.2&#45;&gt;高等数学I.1 -->
<g id="edge85" class="edge">
<title>高等数学I.2&#45;&gt;高等数学I.1</title>
<path fill="none" stroke="black" d="M628.38,-1223.83C631.57,-1184.97 637.16,-1087.45 621.79,-1008 620.09,-999.21 617.07,-989.98 613.89,-981.72"/>
<polygon fill="black" stroke="black" points="617.03,-980.16 610,-972.23 610.55,-982.81 617.03,-980.16"/>
</g>
</g>
</svg>
