<?xml version="1.0" encoding="UTF-8" standalone="no"?>
<!DOCTYPE svg PUBLIC "-//W3C//DTD SVG 1.1//EN"
 "http://www.w3.org/Graphics/SVG/1.1/DTD/svg11.dtd">
<!-- Generated by graphviz version 2.46.0 (20210118.1747)
 -->
<!-- Pages: 1 -->
<svg width="1760pt" height="1124pt"
 viewBox="0.00 0.00 1760.13 1124.00" xmlns="http://www.w3.org/2000/svg" xmlns:xlink="http://www.w3.org/1999/xlink">
<g id="graph0" class="graph" transform="scale(1 1) rotate(0) translate(4 1120)">
<polygon fill="white" stroke="transparent" points="-4,4 -4,-1120 1756.13,-1120 1756.13,4 -4,4"/>
<!-- 高等数学i1 -->
<g id="node1" class="node">
<title>高等数学i1</title>
<ellipse fill="none" stroke="black" cx="641.54" cy="-738" rx="61.99" ry="18"/>
<text text-anchor="middle" x="641.54" y="-734.3" font-family="Times New Roman,serif" font-size="14.00">高等数学i1</text>
</g>
<!-- 高等数学i2 -->
<g id="node2" class="node">
<title>高等数学i2</title>
<ellipse fill="none" stroke="black" cx="641.54" cy="-666" rx="61.99" ry="18"/>
<text text-anchor="middle" x="641.54" y="-662.3" font-family="Times New Roman,serif" font-size="14.00">高等数学i2</text>
</g>
<!-- 高等数学i1&#45;&gt;高等数学i2 -->
<g id="edge1" class="edge">
<title>高等数学i1&#45;&gt;高等数学i2</title>
<path fill="none" stroke="black" d="M641.54,-719.7C641.54,-711.98 641.54,-702.71 641.54,-694.11"/>
<polygon fill="black" stroke="black" points="645.04,-694.1 641.54,-684.1 638.04,-694.1 645.04,-694.1"/>
</g>
<!-- 工程制图iii -->
<g id="node7" class="node">
<title>工程制图iii</title>
<ellipse fill="none" stroke="black" cx="641.54" cy="-594" rx="61.99" ry="18"/>
<text text-anchor="middle" x="641.54" y="-590.3" font-family="Times New Roman,serif" font-size="14.00">工程制图iii</text>
</g>
<!-- 高等数学i2&#45;&gt;工程制图iii -->
<g id="edge5" class="edge">
<title>高等数学i2&#45;&gt;工程制图iii</title>
<path fill="none" stroke="black" d="M641.54,-647.7C641.54,-639.98 641.54,-630.71 641.54,-622.11"/>
<polygon fill="black" stroke="black" points="645.04,-622.1 641.54,-612.1 638.04,-622.1 645.04,-622.1"/>
</g>
<!-- 线性代数与解析几何ii -->
<g id="node3" class="node">
<title>线性代数与解析几何ii</title>
<ellipse fill="none" stroke="black" cx="602.54" cy="-1098" rx="115.88" ry="18"/>
<text text-anchor="middle" x="602.54" y="-1094.3" font-family="Times New Roman,serif" font-size="14.00">线性代数与解析几何ii</text>
</g>
<!-- 大学物理实验i1 -->
<g id="node4" class="node">
<title>大学物理实验i1</title>
<ellipse fill="none" stroke="black" cx="641.54" cy="-810" rx="84.49" ry="18"/>
<text text-anchor="middle" x="641.54" y="-806.3" font-family="Times New Roman,serif" font-size="14.00">大学物理实验i1</text>
</g>
<!-- 大学物理实验i1&#45;&gt;高等数学i1 -->
<g id="edge2" class="edge">
<title>大学物理实验i1&#45;&gt;高等数学i1</title>
<path fill="none" stroke="black" d="M641.54,-791.7C641.54,-783.98 641.54,-774.71 641.54,-766.11"/>
<polygon fill="black" stroke="black" points="645.04,-766.1 641.54,-756.1 638.04,-766.1 645.04,-766.1"/>
</g>
<!-- 大学物理ii1 -->
<g id="node5" class="node">
<title>大学物理ii1</title>
<ellipse fill="none" stroke="black" cx="498.54" cy="-738" rx="63.89" ry="18"/>
<text text-anchor="middle" x="498.54" y="-734.3" font-family="Times New Roman,serif" font-size="14.00">大学物理ii1</text>
</g>
<!-- 大学物理实验i1&#45;&gt;大学物理ii1 -->
<g id="edge3" class="edge">
<title>大学物理实验i1&#45;&gt;大学物理ii1</title>
<path fill="none" stroke="black" d="M609.45,-793.29C588.41,-782.99 560.75,-769.45 538.32,-758.47"/>
<polygon fill="black" stroke="black" points="539.58,-755.19 529.06,-753.94 536.5,-761.48 539.58,-755.19"/>
</g>
<!-- 大学物理ii2 -->
<g id="node6" class="node">
<title>大学物理ii2</title>
<ellipse fill="none" stroke="black" cx="498.54" cy="-666" rx="63.89" ry="18"/>
<text text-anchor="middle" x="498.54" y="-662.3" font-family="Times New Roman,serif" font-size="14.00">大学物理ii2</text>
</g>
<!-- 大学物理ii1&#45;&gt;大学物理ii2 -->
<g id="edge4" class="edge">
<title>大学物理ii1&#45;&gt;大学物理ii2</title>
<path fill="none" stroke="black" d="M498.54,-719.7C498.54,-711.98 498.54,-702.71 498.54,-694.11"/>
<polygon fill="black" stroke="black" points="502.04,-694.1 498.54,-684.1 495.04,-694.1 502.04,-694.1"/>
</g>
<!-- 程序设计基础 -->
<g id="node8" class="node">
<title>程序设计基础</title>
<ellipse fill="none" stroke="black" cx="906.54" cy="-882" rx="77.99" ry="18"/>
<text text-anchor="middle" x="906.54" y="-878.3" font-family="Times New Roman,serif" font-size="14.00">程序设计基础</text>
</g>
<!-- 程序设计基础&#45;&gt;大学物理实验i1 -->
<g id="edge6" class="edge">
<title>程序设计基础&#45;&gt;大学物理实验i1</title>
<path fill="none" stroke="black" d="M857.32,-868C813.44,-856.41 749.07,-839.4 702.06,-826.99"/>
<polygon fill="black" stroke="black" points="702.87,-823.58 692.31,-824.41 701.08,-830.35 702.87,-823.58"/>
</g>
<!-- 数据结构与算法i -->
<g id="node9" class="node">
<title>数据结构与算法i</title>
<ellipse fill="none" stroke="black" cx="906.54" cy="-810" rx="90.98" ry="18"/>
<text text-anchor="middle" x="906.54" y="-806.3" font-family="Times New Roman,serif" font-size="14.00">数据结构与算法i</text>
</g>
<!-- 程序设计基础&#45;&gt;数据结构与算法i -->
<g id="edge7" class="edge">
<title>程序设计基础&#45;&gt;数据结构与算法i</title>
<path fill="none" stroke="black" d="M906.54,-863.7C906.54,-855.98 906.54,-846.71 906.54,-838.11"/>
<polygon fill="black" stroke="black" points="910.04,-838.1 906.54,-828.1 903.04,-838.1 910.04,-838.1"/>
</g>
<!-- 大学物理实验i2 -->
<g id="node10" class="node">
<title>大学物理实验i2</title>
<ellipse fill="none" stroke="black" cx="1294.54" cy="-954" rx="84.49" ry="18"/>
<text text-anchor="middle" x="1294.54" y="-950.3" font-family="Times New Roman,serif" font-size="14.00">大学物理实验i2</text>
</g>
<!-- 程序设计基础&#45;&gt;大学物理实验i2 -->
<g id="edge8" class="edge">
<title>程序设计基础&#45;&gt;大学物理实验i2</title>
<path fill="none" stroke="black" d="M967.96,-893.19C1037.7,-905.37 1151.13,-925.8 1224.32,-939.34"/>
<polygon fill="black" stroke="black" points="1223.9,-942.82 1234.37,-941.2 1225.17,-935.94 1223.9,-942.82"/>
</g>
<!-- 数据结构与程序设计专题实验 -->
<g id="node18" class="node">
<title>数据结构与程序设计专题实验</title>
<ellipse fill="none" stroke="black" cx="202.54" cy="-18" rx="156.77" ry="18"/>
<text text-anchor="middle" x="202.54" y="-14.3" font-family="Times New Roman,serif" font-size="14.00">数据结构与程序设计专题实验</text>
</g>
<!-- 数据结构与算法i&#45;&gt;数据结构与程序设计专题实验 -->
<g id="edge14" class="edge">
<title>数据结构与算法i&#45;&gt;数据结构与程序设计专题实验</title>
<path fill="none" stroke="black" d="M860,-794.5C839.41,-785.66 816.25,-772.8 799.54,-756 735.62,-691.7 779.44,-625.6 703.54,-576 616.23,-518.94 321.44,-599.18 235.54,-540 199.53,-515.18 193.54,-494.74 193.54,-451 193.54,-451 193.54,-451 193.54,-161 193.54,-121 193.54,-74.65 195.83,-46.08"/>
<polygon fill="black" stroke="black" points="199.33,-46.35 196.83,-36.05 192.36,-45.65 199.33,-46.35"/>
</g>
<!-- 计算机网络原理 -->
<g id="node19" class="node">
<title>计算机网络原理</title>
<ellipse fill="none" stroke="black" cx="906.54" cy="-738" rx="89.08" ry="18"/>
<text text-anchor="middle" x="906.54" y="-734.3" font-family="Times New Roman,serif" font-size="14.00">计算机网络原理</text>
</g>
<!-- 数据结构与算法i&#45;&gt;计算机网络原理 -->
<g id="edge15" class="edge">
<title>数据结构与算法i&#45;&gt;计算机网络原理</title>
<path fill="none" stroke="black" d="M900.63,-791.7C899.83,-783.98 899.6,-774.71 899.95,-766.11"/>
<polygon fill="black" stroke="black" points="903.44,-766.32 900.65,-756.1 896.46,-765.84 903.44,-766.32"/>
</g>
<!-- 大学物理实验i2&#45;&gt;程序设计基础 -->
<g id="edge19" class="edge">
<title>大学物理实验i2&#45;&gt;程序设计基础</title>
<path fill="none" stroke="black" d="M1230.17,-942.29C1159.27,-929.89 1045.91,-909.46 973.87,-896.12"/>
<polygon fill="black" stroke="black" points="974.45,-892.67 963.98,-894.29 973.17,-899.55 974.45,-892.67"/>
</g>
<!-- 离散数学a -->
<g id="node12" class="node">
<title>离散数学a</title>
<ellipse fill="none" stroke="black" cx="1392.54" cy="-234" rx="59.59" ry="18"/>
<text text-anchor="middle" x="1392.54" y="-230.3" font-family="Times New Roman,serif" font-size="14.00">离散数学a</text>
</g>
<!-- 大学物理实验i2&#45;&gt;离散数学a -->
<g id="edge20" class="edge">
<title>大学物理实验i2&#45;&gt;离散数学a</title>
<path fill="none" stroke="black" d="M1363.33,-943.46C1436.48,-929.19 1541.54,-894.35 1541.54,-811 1541.54,-811 1541.54,-811 1541.54,-593 1541.54,-457.9 1446.2,-316.67 1407.86,-260.35"/>
<polygon fill="black" stroke="black" points="1410.74,-258.36 1402.22,-252.06 1404.95,-262.29 1410.74,-258.36"/>
</g>
<!-- 数字逻辑电路 -->
<g id="node16" class="node">
<title>数字逻辑电路</title>
<ellipse fill="none" stroke="black" cx="1042.54" cy="-378" rx="77.99" ry="18"/>
<text text-anchor="middle" x="1042.54" y="-374.3" font-family="Times New Roman,serif" font-size="14.00">数字逻辑电路</text>
</g>
<!-- 大学物理实验i2&#45;&gt;数字逻辑电路 -->
<g id="edge21" class="edge">
<title>大学物理实验i2&#45;&gt;数字逻辑电路</title>
<path fill="none" stroke="black" d="M1292.37,-935.98C1289.16,-909.37 1283.54,-856.25 1283.54,-811 1283.54,-811 1283.54,-811 1283.54,-737 1283.54,-661.17 1182.05,-487.65 1130.54,-432 1118.19,-418.65 1101.71,-407.53 1086.36,-398.97"/>
<polygon fill="black" stroke="black" points="1087.95,-395.86 1077.48,-394.24 1084.66,-402.04 1087.95,-395.86"/>
</g>
<!-- 计算机组成与结构专题实验 -->
<g id="node22" class="node">
<title>计算机组成与结构专题实验</title>
<ellipse fill="none" stroke="black" cx="1606.54" cy="-18" rx="145.67" ry="18"/>
<text text-anchor="middle" x="1606.54" y="-14.3" font-family="Times New Roman,serif" font-size="14.00">计算机组成与结构专题实验</text>
</g>
<!-- 大学物理实验i2&#45;&gt;计算机组成与结构专题实验 -->
<g id="edge22" class="edge">
<title>大学物理实验i2&#45;&gt;计算机组成与结构专题实验</title>
<path fill="none" stroke="black" d="M1376.57,-949.32C1466.36,-940.17 1597.54,-909.79 1597.54,-811 1597.54,-811 1597.54,-811 1597.54,-161 1597.54,-121 1597.54,-74.65 1599.83,-46.08"/>
<polygon fill="black" stroke="black" points="1603.33,-46.35 1600.83,-36.05 1596.36,-45.65 1603.33,-46.35"/>
</g>
<!-- 计算机系统综合设计实验 -->
<g id="node23" class="node">
<title>计算机系统综合设计实验</title>
<ellipse fill="none" stroke="black" cx="1294.54" cy="-1026" rx="133.78" ry="18"/>
<text text-anchor="middle" x="1294.54" y="-1022.3" font-family="Times New Roman,serif" font-size="14.00">计算机系统综合设计实验</text>
</g>
<!-- 大学物理实验i2&#45;&gt;计算机系统综合设计实验 -->
<g id="edge23" class="edge">
<title>大学物理实验i2&#45;&gt;计算机系统综合设计实验</title>
<path fill="none" stroke="black" d="M1300.44,-972.1C1301.24,-979.79 1301.48,-989.05 1301.15,-997.67"/>
<polygon fill="black" stroke="black" points="1297.65,-997.48 1300.46,-1007.7 1304.63,-997.96 1297.65,-997.48"/>
</g>
<!-- 电路 -->
<g id="node11" class="node">
<title>电路</title>
<ellipse fill="none" stroke="black" cx="1103.54" cy="-306" rx="33.29" ry="18"/>
<text text-anchor="middle" x="1103.54" y="-302.3" font-family="Times New Roman,serif" font-size="14.00">电路</text>
</g>
<!-- 电路&#45;&gt;离散数学a -->
<g id="edge9" class="edge">
<title>电路&#45;&gt;离散数学a</title>
<path fill="none" stroke="black" d="M1133.11,-297.84C1181.15,-286.2 1276.87,-263.02 1337.65,-248.3"/>
<polygon fill="black" stroke="black" points="1338.57,-251.67 1347.46,-245.92 1336.92,-244.87 1338.57,-251.67"/>
</g>
<!-- 模拟电子技术基础 -->
<g id="node13" class="node">
<title>模拟电子技术基础</title>
<ellipse fill="none" stroke="black" cx="1103.54" cy="-234" rx="100.98" ry="18"/>
<text text-anchor="middle" x="1103.54" y="-230.3" font-family="Times New Roman,serif" font-size="14.00">模拟电子技术基础</text>
</g>
<!-- 电路&#45;&gt;模拟电子技术基础 -->
<g id="edge10" class="edge">
<title>电路&#45;&gt;模拟电子技术基础</title>
<path fill="none" stroke="black" d="M1097.66,-288.05C1096.85,-280.35 1096.6,-271.03 1096.94,-262.36"/>
<polygon fill="black" stroke="black" points="1100.44,-262.49 1097.63,-252.28 1093.45,-262.01 1100.44,-262.49"/>
</g>
<!-- 离散数学a&#45;&gt;大学物理实验i2 -->
<g id="edge16" class="edge">
<title>离散数学a&#45;&gt;大学物理实验i2</title>
<path fill="none" stroke="black" d="M1409.74,-251.35C1452.72,-300.11 1559.54,-449.99 1559.54,-593 1559.54,-811 1559.54,-811 1559.54,-811 1559.54,-893.81 1455.84,-928.73 1378.12,-943.18"/>
<polygon fill="black" stroke="black" points="1377.06,-939.81 1367.82,-945 1378.28,-946.7 1377.06,-939.81"/>
</g>
<!-- 形式语言与编译 -->
<g id="node20" class="node">
<title>形式语言与编译</title>
<ellipse fill="none" stroke="black" cx="1250.54" cy="-162" rx="89.08" ry="18"/>
<text text-anchor="middle" x="1250.54" y="-158.3" font-family="Times New Roman,serif" font-size="14.00">形式语言与编译</text>
</g>
<!-- 离散数学a&#45;&gt;形式语言与编译 -->
<g id="edge17" class="edge">
<title>离散数学a&#45;&gt;形式语言与编译</title>
<path fill="none" stroke="black" d="M1358.62,-219C1336.88,-208.95 1308.81,-195.22 1286.66,-183.88"/>
<polygon fill="black" stroke="black" points="1288.06,-180.66 1277.57,-179.18 1284.85,-186.88 1288.06,-180.66"/>
</g>
<!-- 数理逻辑 -->
<g id="node21" class="node">
<title>数理逻辑</title>
<ellipse fill="none" stroke="black" cx="1413.54" cy="-162" rx="55.79" ry="18"/>
<text text-anchor="middle" x="1413.54" y="-158.3" font-family="Times New Roman,serif" font-size="14.00">数理逻辑</text>
</g>
<!-- 离散数学a&#45;&gt;数理逻辑 -->
<g id="edge18" class="edge">
<title>离散数学a&#45;&gt;数理逻辑</title>
<path fill="none" stroke="black" d="M1397.63,-216.05C1399.96,-208.26 1402.8,-198.82 1405.42,-190.08"/>
<polygon fill="black" stroke="black" points="1408.84,-190.86 1408.36,-180.28 1402.13,-188.85 1408.84,-190.86"/>
</g>
<!-- 模拟电子技术基础&#45;&gt;电路 -->
<g id="edge26" class="edge">
<title>模拟电子技术基础&#45;&gt;电路</title>
<path fill="none" stroke="black" d="M1109.46,-252.28C1110.26,-260.03 1110.48,-269.36 1110.13,-278.01"/>
<polygon fill="black" stroke="black" points="1106.64,-277.83 1109.42,-288.05 1113.62,-278.33 1106.64,-277.83"/>
</g>
<!-- 模拟电子技术基础&#45;&gt;形式语言与编译 -->
<g id="edge27" class="edge">
<title>模拟电子技术基础&#45;&gt;形式语言与编译</title>
<path fill="none" stroke="black" d="M1137.27,-216.94C1158.33,-206.91 1185.63,-193.91 1208.15,-183.19"/>
<polygon fill="black" stroke="black" points="1209.96,-186.2 1217.48,-178.74 1206.95,-179.88 1209.96,-186.2"/>
</g>
<!-- 电子技术实验1 -->
<g id="node25" class="node">
<title>电子技术实验1</title>
<ellipse fill="none" stroke="black" cx="556.54" cy="-162" rx="82.59" ry="18"/>
<text text-anchor="middle" x="556.54" y="-158.3" font-family="Times New Roman,serif" font-size="14.00">电子技术实验1</text>
</g>
<!-- 模拟电子技术基础&#45;&gt;电子技术实验1 -->
<g id="edge28" class="edge">
<title>模拟电子技术基础&#45;&gt;电子技术实验1</title>
<path fill="none" stroke="black" d="M1024.3,-222.86C920.57,-209.58 739.79,-186.45 635.97,-173.16"/>
<polygon fill="black" stroke="black" points="636.23,-169.67 625.86,-171.87 635.34,-176.61 636.23,-169.67"/>
</g>
<!-- 概率统计与随机过程 -->
<g id="node14" class="node">
<title>概率统计与随机过程</title>
<ellipse fill="none" stroke="black" cx="1105.54" cy="-666" rx="111.58" ry="18"/>
<text text-anchor="middle" x="1105.54" y="-662.3" font-family="Times New Roman,serif" font-size="14.00">概率统计与随机过程</text>
</g>
<!-- 面向对象程序设计 -->
<g id="node15" class="node">
<title>面向对象程序设计</title>
<ellipse fill="none" stroke="black" cx="1374.54" cy="-594" rx="100.98" ry="18"/>
<text text-anchor="middle" x="1374.54" y="-590.3" font-family="Times New Roman,serif" font-size="14.00">面向对象程序设计</text>
</g>
<!-- 概率统计与随机过程&#45;&gt;面向对象程序设计 -->
<g id="edge11" class="edge">
<title>概率统计与随机过程&#45;&gt;面向对象程序设计</title>
<path fill="none" stroke="black" d="M1161.61,-650.41C1204.93,-639.14 1264.94,-623.52 1310.21,-611.74"/>
<polygon fill="black" stroke="black" points="1311.13,-615.12 1319.93,-609.21 1309.37,-608.34 1311.13,-615.12"/>
</g>
<!-- 概率统计与随机过程&#45;&gt;数字逻辑电路 -->
<g id="edge12" class="edge">
<title>概率统计与随机过程&#45;&gt;数字逻辑电路</title>
<path fill="none" stroke="black" d="M1117.41,-647.78C1136.38,-617.99 1169.57,-555.14 1150.54,-504 1134.95,-462.1 1098.31,-424.88 1072.03,-402.18"/>
<polygon fill="black" stroke="black" points="1074.14,-399.38 1064.24,-395.61 1069.63,-404.73 1074.14,-399.38"/>
</g>
<!-- 操作系统设计专题实验 -->
<g id="node17" class="node">
<title>操作系统设计专题实验</title>
<ellipse fill="none" stroke="black" cx="938.54" cy="-594" rx="122.68" ry="18"/>
<text text-anchor="middle" x="938.54" y="-590.3" font-family="Times New Roman,serif" font-size="14.00">操作系统设计专题实验</text>
</g>
<!-- 概率统计与随机过程&#45;&gt;操作系统设计专题实验 -->
<g id="edge13" class="edge">
<title>概率统计与随机过程&#45;&gt;操作系统设计专题实验</title>
<path fill="none" stroke="black" d="M1067.23,-648.94C1043.24,-638.88 1012.12,-625.84 986.49,-615.1"/>
<polygon fill="black" stroke="black" points="987.54,-611.74 976.97,-611.11 984.84,-618.2 987.54,-611.74"/>
</g>
<!-- 计算机图形学 -->
<g id="node24" class="node">
<title>计算机图形学</title>
<ellipse fill="none" stroke="black" cx="1374.54" cy="-522" rx="77.99" ry="18"/>
<text text-anchor="middle" x="1374.54" y="-518.3" font-family="Times New Roman,serif" font-size="14.00">计算机图形学</text>
</g>
<!-- 面向对象程序设计&#45;&gt;计算机图形学 -->
<g id="edge25" class="edge">
<title>面向对象程序设计&#45;&gt;计算机图形学</title>
<path fill="none" stroke="black" d="M1374.54,-575.7C1374.54,-567.98 1374.54,-558.71 1374.54,-550.11"/>
<polygon fill="black" stroke="black" points="1378.04,-550.1 1374.54,-540.1 1371.04,-550.1 1378.04,-550.1"/>
</g>
<!-- 数字逻辑电路&#45;&gt;电路 -->
<g id="edge36" class="edge">
<title>数字逻辑电路&#45;&gt;电路</title>
<path fill="none" stroke="black" d="M1057.31,-360.05C1065.02,-351.2 1074.58,-340.23 1083.01,-330.57"/>
<polygon fill="black" stroke="black" points="1085.82,-332.67 1089.75,-322.83 1080.54,-328.07 1085.82,-332.67"/>
</g>
<!-- 数字逻辑电路&#45;&gt;模拟电子技术基础 -->
<g id="edge37" class="edge">
<title>数字逻辑电路&#45;&gt;模拟电子技术基础</title>
<path fill="none" stroke="black" d="M1043.86,-359.86C1045.81,-341.37 1050.5,-311.44 1061.54,-288 1066.32,-277.86 1073.38,-267.91 1080.35,-259.42"/>
<polygon fill="black" stroke="black" points="1083.06,-261.63 1086.93,-251.77 1077.75,-257.07 1083.06,-261.63"/>
</g>
<!-- 数据库系统 -->
<g id="node30" class="node">
<title>数据库系统</title>
<ellipse fill="none" stroke="black" cx="922.54" cy="-522" rx="66.89" ry="18"/>
<text text-anchor="middle" x="922.54" y="-518.3" font-family="Times New Roman,serif" font-size="14.00">数据库系统</text>
</g>
<!-- 数字逻辑电路&#45;&gt;数据库系统 -->
<g id="edge38" class="edge">
<title>数字逻辑电路&#45;&gt;数据库系统</title>
<path fill="none" stroke="black" d="M1028.32,-395.82C1007.32,-420.69 967.85,-467.39 943.51,-496.19"/>
<polygon fill="black" stroke="black" points="940.56,-494.26 936.78,-504.15 945.91,-498.77 940.56,-494.26"/>
</g>
<!-- 软件工程 -->
<g id="node31" class="node">
<title>软件工程</title>
<ellipse fill="none" stroke="black" cx="875.54" cy="-450" rx="55.79" ry="18"/>
<text text-anchor="middle" x="875.54" y="-446.3" font-family="Times New Roman,serif" font-size="14.00">软件工程</text>
</g>
<!-- 数字逻辑电路&#45;&gt;软件工程 -->
<g id="edge39" class="edge">
<title>数字逻辑电路&#45;&gt;软件工程</title>
<path fill="none" stroke="black" d="M1011.12,-394.57C985.63,-405.81 949.52,-420.96 920.92,-432.43"/>
<polygon fill="black" stroke="black" points="919.53,-429.21 911.54,-436.16 922.12,-435.72 919.53,-429.21"/>
</g>
<!-- 编译器设计专题实验 -->
<g id="node29" class="node">
<title>编译器设计专题实验</title>
<ellipse fill="none" stroke="black" cx="557.54" cy="-522" rx="111.58" ry="18"/>
<text text-anchor="middle" x="557.54" y="-518.3" font-family="Times New Roman,serif" font-size="14.00">编译器设计专题实验</text>
</g>
<!-- 操作系统设计专题实验&#45;&gt;编译器设计专题实验 -->
<g id="edge47" class="edge">
<title>操作系统设计专题实验&#45;&gt;编译器设计专题实验</title>
<path fill="none" stroke="black" d="M865.08,-579.5C800.09,-567.56 705.42,-550.17 638.31,-537.84"/>
<polygon fill="black" stroke="black" points="638.67,-534.35 628.2,-535.98 637.4,-541.23 638.67,-534.35"/>
</g>
<!-- 操作系统设计专题实验&#45;&gt;数据库系统 -->
<g id="edge50" class="edge">
<title>操作系统设计专题实验&#45;&gt;数据库系统</title>
<path fill="none" stroke="black" d="M934.59,-575.7C932.82,-567.98 930.71,-558.71 928.74,-550.11"/>
<polygon fill="black" stroke="black" points="932.09,-549.07 926.45,-540.1 925.27,-550.63 932.09,-549.07"/>
</g>
<!-- 计算机组成 -->
<g id="node34" class="node">
<title>计算机组成</title>
<ellipse fill="none" stroke="black" cx="1074.54" cy="-522" rx="66.89" ry="18"/>
<text text-anchor="middle" x="1074.54" y="-518.3" font-family="Times New Roman,serif" font-size="14.00">计算机组成</text>
</g>
<!-- 操作系统设计专题实验&#45;&gt;计算机组成 -->
<g id="edge48" class="edge">
<title>操作系统设计专题实验&#45;&gt;计算机组成</title>
<path fill="none" stroke="black" d="M970.43,-576.59C989.9,-566.57 1014.94,-553.68 1035.58,-543.05"/>
<polygon fill="black" stroke="black" points="1037.43,-546.04 1044.72,-538.35 1034.23,-539.81 1037.43,-546.04"/>
</g>
<!-- 操作系统原理i -->
<g id="node35" class="node">
<title>操作系统原理i</title>
<ellipse fill="none" stroke="black" cx="895.54" cy="-666" rx="79.89" ry="18"/>
<text text-anchor="middle" x="895.54" y="-662.3" font-family="Times New Roman,serif" font-size="14.00">操作系统原理i</text>
</g>
<!-- 操作系统设计专题实验&#45;&gt;操作系统原理i -->
<g id="edge49" class="edge">
<title>操作系统设计专题实验&#45;&gt;操作系统原理i</title>
<path fill="none" stroke="black" d="M933.84,-612.28C929.62,-620.54 923.64,-630.6 917.59,-639.71"/>
<polygon fill="black" stroke="black" points="914.63,-637.84 911.83,-648.05 920.39,-641.81 914.63,-637.84"/>
</g>
<!-- 数据结构与程序设计专题实验&#45;&gt;数据结构与算法i -->
<g id="edge24" class="edge">
<title>数据结构与程序设计专题实验&#45;&gt;数据结构与算法i</title>
<path fill="none" stroke="black" d="M208.26,-36.05C211.54,-62.71 211.54,-115.89 211.54,-161 211.54,-451 211.54,-451 211.54,-451 211.54,-494.74 217.53,-515.18 253.54,-540 339.44,-599.18 634.23,-518.94 721.54,-576 797.44,-625.6 753.62,-691.7 817.54,-756 830.77,-769.3 848.03,-780.13 863.89,-788.45"/>
<polygon fill="black" stroke="black" points="862.52,-791.68 873.03,-793.06 865.68,-785.43 862.52,-791.68"/>
</g>
<!-- 计算机网络原理&#45;&gt;数据结构与算法i -->
<g id="edge45" class="edge">
<title>计算机网络原理&#45;&gt;数据结构与算法i</title>
<path fill="none" stroke="black" d="M912.44,-756.1C913.24,-763.79 913.48,-773.05 913.15,-781.67"/>
<polygon fill="black" stroke="black" points="909.65,-781.48 912.46,-791.7 916.63,-781.96 909.65,-781.48"/>
</g>
<!-- 计算机网络原理&#45;&gt;操作系统原理i -->
<g id="edge46" class="edge">
<title>计算机网络原理&#45;&gt;操作系统原理i</title>
<path fill="none" stroke="black" d="M903.82,-719.7C902.61,-711.98 901.15,-702.71 899.8,-694.11"/>
<polygon fill="black" stroke="black" points="903.24,-693.44 898.23,-684.1 896.33,-694.53 903.24,-693.44"/>
</g>
<!-- 形式语言与编译&#45;&gt;离散数学a -->
<g id="edge29" class="edge">
<title>形式语言与编译&#45;&gt;离散数学a</title>
<path fill="none" stroke="black" d="M1287.59,-178.45C1309.39,-188.6 1336.68,-201.98 1358.03,-212.95"/>
<polygon fill="black" stroke="black" points="1356.59,-216.14 1367.08,-217.64 1359.81,-209.93 1356.59,-216.14"/>
</g>
<!-- 毕业设计（论文） -->
<g id="node26" class="node">
<title>毕业设计（论文）</title>
<ellipse fill="none" stroke="black" cx="368.54" cy="-1098" rx="100.98" ry="18"/>
<text text-anchor="middle" x="368.54" y="-1094.3" font-family="Times New Roman,serif" font-size="14.00">毕业设计（论文）</text>
</g>
<!-- 形式语言与编译&#45;&gt;毕业设计（论文） -->
<g id="edge30" class="edge">
<title>形式语言与编译&#45;&gt;毕业设计（论文）</title>
<path fill="none" stroke="black" d="M1257.22,-180.19C1266.86,-206.6 1283.54,-258.94 1283.54,-305 1283.54,-379 1283.54,-379 1283.54,-379 1283.54,-447.95 1259.84,-623.62 1226.54,-684 1158.35,-807.65 1115.63,-829.05 993.54,-900 814.39,-1004.12 573.81,-1059.8 449.88,-1083.26"/>
<polygon fill="black" stroke="black" points="448.89,-1079.89 439.71,-1085.17 450.18,-1086.77 448.89,-1079.89"/>
</g>
<!-- 计算机组成与结构专题实验&#45;&gt;大学物理实验i2 -->
<g id="edge51" class="edge">
<title>计算机组成与结构专题实验&#45;&gt;大学物理实验i2</title>
<path fill="none" stroke="black" d="M1612.26,-36.05C1615.54,-62.71 1615.54,-115.89 1615.54,-161 1615.54,-811 1615.54,-811 1615.54,-811 1615.54,-910.48 1482.52,-940.59 1387.68,-949.51"/>
<polygon fill="black" stroke="black" points="1387.13,-946.04 1377.48,-950.4 1387.74,-953.02 1387.13,-946.04"/>
</g>
<!-- 计算机组成与结构专题实验&#45;&gt;操作系统设计专题实验 -->
<g id="edge52" class="edge">
<title>计算机组成与结构专题实验&#45;&gt;操作系统设计专题实验</title>
<path fill="none" stroke="black" d="M1461,-19.25C1110.72,-21.76 249.54,-40.23 249.54,-161 249.54,-451 249.54,-451 249.54,-451 249.54,-491.45 238.04,-513.44 268.54,-540 310.13,-576.22 708.6,-571.33 763.54,-576 785.17,-577.84 808.29,-579.96 830.39,-582.08"/>
<polygon fill="black" stroke="black" points="830.18,-585.58 840.47,-583.05 830.85,-578.61 830.18,-585.58"/>
</g>
<!-- 计算机组成与结构专题实验&#45;&gt;计算机系统综合设计实验 -->
<g id="edge54" class="edge">
<title>计算机组成与结构专题实验&#45;&gt;计算机系统综合设计实验</title>
<path fill="none" stroke="black" d="M1623.96,-36.07C1643.55,-61.91 1671.54,-113.03 1671.54,-161 1671.54,-883 1671.54,-883 1671.54,-883 1671.54,-943.24 1497.72,-987.75 1386.08,-1009.7"/>
<polygon fill="black" stroke="black" points="1385.3,-1006.28 1376.15,-1011.62 1386.64,-1013.16 1385.3,-1006.28"/>
</g>
<!-- 计算机网络专题实验 -->
<g id="node28" class="node">
<title>计算机网络专题实验</title>
<ellipse fill="none" stroke="black" cx="1457.54" cy="-90" rx="111.58" ry="18"/>
<text text-anchor="middle" x="1457.54" y="-86.3" font-family="Times New Roman,serif" font-size="14.00">计算机网络专题实验</text>
</g>
<!-- 计算机组成与结构专题实验&#45;&gt;计算机网络专题实验 -->
<g id="edge53" class="edge">
<title>计算机组成与结构专题实验&#45;&gt;计算机网络专题实验</title>
<path fill="none" stroke="black" d="M1576.65,-35.8C1556.52,-45.76 1529.63,-58.44 1506.46,-68.92"/>
<polygon fill="black" stroke="black" points="1504.8,-65.83 1497.11,-73.12 1507.67,-72.21 1504.8,-65.83"/>
</g>
<!-- 计算机系统综合设计实验&#45;&gt;大学物理实验i2 -->
<g id="edge62" class="edge">
<title>计算机系统综合设计实验&#45;&gt;大学物理实验i2</title>
<path fill="none" stroke="black" d="M1288.63,-1007.7C1287.83,-999.98 1287.6,-990.71 1287.95,-982.11"/>
<polygon fill="black" stroke="black" points="1291.44,-982.32 1288.65,-972.1 1284.46,-981.84 1291.44,-982.32"/>
</g>
<!-- 计算机系统综合设计实验&#45;&gt;计算机组成与结构专题实验 -->
<g id="edge63" class="edge">
<title>计算机系统综合设计实验&#45;&gt;计算机组成与结构专题实验</title>
<path fill="none" stroke="black" d="M1368.03,-1010.91C1473.12,-989.42 1653.54,-944.38 1653.54,-883 1653.54,-883 1653.54,-883 1653.54,-161 1653.54,-118.09 1631.14,-72.66 1616.95,-45.06"/>
<polygon fill="black" stroke="black" points="1620.02,-43.36 1612.33,-36.07 1613.79,-46.56 1620.02,-43.36"/>
</g>
<!-- 计算机系统综合设计实验&#45;&gt;软件工程 -->
<g id="edge64" class="edge">
<title>计算机系统综合设计实验&#45;&gt;软件工程</title>
<path fill="none" stroke="black" d="M1205.07,-1012.56C999.46,-981.75 504.83,-894.29 425.54,-756 410.08,-729.03 434.19,-506.46 436.54,-504 461.92,-477.49 694.34,-461.01 810.33,-454.37"/>
<polygon fill="black" stroke="black" points="810.72,-457.85 820.5,-453.8 810.32,-450.86 810.72,-457.85"/>
</g>
<!-- 电子技术实验2 -->
<g id="node27" class="node">
<title>电子技术实验2</title>
<ellipse fill="none" stroke="black" cx="82.54" cy="-90" rx="82.59" ry="18"/>
<text text-anchor="middle" x="82.54" y="-86.3" font-family="Times New Roman,serif" font-size="14.00">电子技术实验2</text>
</g>
<!-- 电子技术实验1&#45;&gt;电子技术实验2 -->
<g id="edge31" class="edge">
<title>电子技术实验1&#45;&gt;电子技术实验2</title>
<path fill="none" stroke="black" d="M490.39,-151.23C403.4,-138.38 250.87,-115.86 159.03,-102.29"/>
<polygon fill="black" stroke="black" points="159.36,-98.81 148.96,-100.81 158.34,-105.73 159.36,-98.81"/>
</g>
<!-- 电子技术实验1&#45;&gt;计算机网络专题实验 -->
<g id="edge32" class="edge">
<title>电子技术实验1&#45;&gt;计算机网络专题实验</title>
<path fill="none" stroke="black" d="M632.97,-155.06C793.19,-142.61 1164.64,-113.76 1349.3,-99.41"/>
<polygon fill="black" stroke="black" points="1349.6,-102.9 1359.3,-98.63 1349.06,-95.92 1349.6,-102.9"/>
</g>
<!-- 毕业设计（论文）&#45;&gt;大学物理ii2 -->
<g id="edge66" class="edge">
<title>毕业设计（论文）&#45;&gt;大学物理ii2</title>
<path fill="none" stroke="black" d="M368.54,-1079.95C368.54,-1053.29 368.54,-1000.11 368.54,-955 368.54,-955 368.54,-955 368.54,-809 368.54,-754.08 422.11,-711.15 460.47,-687.46"/>
<polygon fill="black" stroke="black" points="462.58,-690.27 469.37,-682.13 458.99,-684.26 462.58,-690.27"/>
</g>
<!-- 毕业设计（论文）&#45;&gt;计算机系统综合设计实验 -->
<g id="edge68" class="edge">
<title>毕业设计（论文）&#45;&gt;计算机系统综合设计实验</title>
<path fill="none" stroke="black" d="M438.77,-1085.02C451.64,-1083.12 464.97,-1081.34 477.54,-1080 752.45,-1050.66 822.8,-1063.95 1098.54,-1044 1124.03,-1042.16 1151.36,-1039.94 1177.28,-1037.72"/>
<polygon fill="black" stroke="black" points="1177.86,-1041.19 1187.52,-1036.84 1177.26,-1034.21 1177.86,-1041.19"/>
</g>
<!-- 毕业设计（论文）&#45;&gt;电子技术实验2 -->
<g id="edge67" class="edge">
<title>毕业设计（论文）&#45;&gt;电子技术实验2</title>
<path fill="none" stroke="black" d="M285.21,-1087.87C206.54,-1074.08 100.54,-1039.78 100.54,-955 100.54,-955 100.54,-955 100.54,-233 100.54,-192.9 93.39,-146.92 88.1,-118.42"/>
<polygon fill="black" stroke="black" points="91.5,-117.56 86.19,-108.4 84.63,-118.88 91.5,-117.56"/>
</g>
<!-- 电子技术实验2&#45;&gt;数据结构与程序设计专题实验 -->
<g id="edge34" class="edge">
<title>电子技术实验2&#45;&gt;数据结构与程序设计专题实验</title>
<path fill="none" stroke="black" d="M110.07,-72.94C126.34,-63.45 147.15,-51.31 164.92,-40.95"/>
<polygon fill="black" stroke="black" points="167.01,-43.78 173.89,-35.72 163.49,-37.73 167.01,-43.78"/>
</g>
<!-- 电子技术实验2&#45;&gt;计算机系统综合设计实验 -->
<g id="edge35" class="edge">
<title>电子技术实验2&#45;&gt;计算机系统综合设计实验</title>
<path fill="none" stroke="black" d="M98.02,-107.92C119.45,-133.17 155.54,-183.1 155.54,-233 155.54,-451 155.54,-451 155.54,-451 155.54,-600.02 330.54,-587.98 330.54,-737 330.54,-811 330.54,-811 330.54,-811 330.54,-977.3 884.18,-1014.45 1152.32,-1022.69"/>
<polygon fill="black" stroke="black" points="1152.42,-1026.19 1162.52,-1022.99 1152.63,-1019.19 1152.42,-1026.19"/>
</g>
<!-- 计算机网络专题实验&#45;&gt;计算机网络原理 -->
<g id="edge57" class="edge">
<title>计算机网络专题实验&#45;&gt;计算机网络原理</title>
<path fill="none" stroke="black" d="M1467.07,-108.34C1480.55,-134.53 1503.54,-186.1 1503.54,-233 1503.54,-595 1503.54,-595 1503.54,-595 1503.54,-636.34 1508.57,-657.86 1476.54,-684 1440.81,-713.16 1157.26,-727.9 1004.02,-733.8"/>
<polygon fill="black" stroke="black" points="1003.53,-730.31 993.67,-734.19 1003.8,-737.31 1003.53,-730.31"/>
</g>
<!-- 计算机网络专题实验&#45;&gt;计算机组成与结构专题实验 -->
<g id="edge58" class="edge">
<title>计算机网络专题实验&#45;&gt;计算机组成与结构专题实验</title>
<path fill="none" stroke="black" d="M1486.66,-72.59C1506.58,-62.71 1533.39,-50.06 1556.64,-39.53"/>
<polygon fill="black" stroke="black" points="1558.33,-42.6 1566.02,-35.31 1555.46,-36.22 1558.33,-42.6"/>
</g>
<!-- 编译器设计专题实验&#45;&gt;毕业设计（论文） -->
<g id="edge33" class="edge">
<title>编译器设计专题实验&#45;&gt;毕业设计（论文）</title>
<path fill="none" stroke="black" d="M507.39,-538.11C430.56,-564.73 292.54,-627.75 292.54,-737 292.54,-955 292.54,-955 292.54,-955 292.54,-1000.61 323.4,-1045.75 345.79,-1072.5"/>
<polygon fill="black" stroke="black" points="343.24,-1074.91 352.43,-1080.19 348.54,-1070.33 343.24,-1074.91"/>
</g>
<!-- 数据库系统&#45;&gt;软件工程 -->
<g id="edge56" class="edge">
<title>数据库系统&#45;&gt;软件工程</title>
<path fill="none" stroke="black" d="M911.17,-504.05C905.57,-495.71 898.7,-485.49 892.5,-476.25"/>
<polygon fill="black" stroke="black" points="895.3,-474.14 886.82,-467.79 889.48,-478.04 895.3,-474.14"/>
</g>
<!-- 软件工程&#45;&gt;程序设计基础 -->
<g id="edge59" class="edge">
<title>软件工程&#45;&gt;程序设计基础</title>
<path fill="none" stroke="black" d="M863.31,-467.78C839.13,-502.65 787.54,-586.26 787.54,-665 787.54,-739 787.54,-739 787.54,-739 787.54,-779.45 782.17,-795.72 806.54,-828 818.13,-843.35 835.48,-854.7 852.48,-862.88"/>
<polygon fill="black" stroke="black" points="851.3,-866.19 861.86,-867.1 854.18,-859.81 851.3,-866.19"/>
</g>
<!-- 软件工程&#45;&gt;数字逻辑电路 -->
<g id="edge60" class="edge">
<title>软件工程&#45;&gt;数字逻辑电路</title>
<path fill="none" stroke="black" d="M904.55,-434.5C928.92,-423.7 964.11,-408.89 992.9,-397.29"/>
<polygon fill="black" stroke="black" points="994.41,-400.45 1002.39,-393.49 991.81,-393.95 994.41,-400.45"/>
</g>
<!-- 软件工程&#45;&gt;计算机网络专题实验 -->
<g id="edge61" class="edge">
<title>软件工程&#45;&gt;计算机网络专题实验</title>
<path fill="none" stroke="black" d="M881.82,-431.78C890.87,-405.32 906.54,-352.92 906.54,-307 906.54,-307 906.54,-307 906.54,-233 906.54,-143.56 1182.24,-109.6 1343.6,-97.39"/>
<polygon fill="black" stroke="black" points="1343.87,-100.88 1353.58,-96.65 1343.35,-93.89 1343.87,-100.88"/>
</g>
<!-- 汇编语言 -->
<g id="node32" class="node">
<title>汇编语言</title>
<ellipse fill="none" stroke="black" cx="333.54" cy="-522" rx="55.79" ry="18"/>
<text text-anchor="middle" x="333.54" y="-518.3" font-family="Times New Roman,serif" font-size="14.00">汇编语言</text>
</g>
<!-- 汇编语言&#45;&gt;电子技术实验1 -->
<g id="edge40" class="edge">
<title>汇编语言&#45;&gt;电子技术实验1</title>
<path fill="none" stroke="black" d="M357.35,-505.58C389.97,-482.38 444.54,-435.17 444.54,-379 444.54,-379 444.54,-379 444.54,-305 444.54,-253.62 490.3,-209.91 523.32,-185.05"/>
<polygon fill="black" stroke="black" points="525.4,-187.87 531.41,-179.15 521.27,-182.22 525.4,-187.87"/>
</g>
<!-- 汇编语言&#45;&gt;软件工程 -->
<g id="edge41" class="edge">
<title>汇编语言&#45;&gt;软件工程</title>
<path fill="none" stroke="black" d="M375.19,-509.97C384.47,-507.77 394.31,-505.63 403.54,-504 548.19,-478.42 720.07,-462.78 811.25,-455.63"/>
<polygon fill="black" stroke="black" points="811.73,-459.1 821.43,-454.84 811.19,-452.12 811.73,-459.1"/>
</g>
<!-- 数学建模ii -->
<g id="node33" class="node">
<title>数学建模ii</title>
<ellipse fill="none" stroke="black" cx="795.54" cy="-1098" rx="59.59" ry="18"/>
<text text-anchor="middle" x="795.54" y="-1094.3" font-family="Times New Roman,serif" font-size="14.00">数学建模ii</text>
</g>
<!-- 计算机组成&#45;&gt;形式语言与编译 -->
<g id="edge42" class="edge">
<title>计算机组成&#45;&gt;形式语言与编译</title>
<path fill="none" stroke="black" d="M1115.07,-507.63C1165.63,-488.09 1245.54,-446.53 1245.54,-379 1245.54,-379 1245.54,-379 1245.54,-305 1245.54,-264.97 1247.55,-218.63 1249.02,-190.07"/>
<polygon fill="black" stroke="black" points="1252.52,-190.21 1249.55,-180.04 1245.53,-189.84 1252.52,-190.21"/>
</g>
<!-- 计算机组成&#45;&gt;操作系统原理i -->
<g id="edge43" class="edge">
<title>计算机组成&#45;&gt;操作系统原理i</title>
<path fill="none" stroke="black" d="M1079.1,-540.05C1083.23,-559.57 1086.49,-591.49 1070.54,-612 1057.3,-629.03 1008.79,-642.92 966.2,-652.2"/>
<polygon fill="black" stroke="black" points="965.43,-648.78 956.37,-654.28 966.88,-655.63 965.43,-648.78"/>
</g>
<!-- 操作系统原理i&#45;&gt;操作系统设计专题实验 -->
<g id="edge44" class="edge">
<title>操作系统原理i&#45;&gt;操作系统设计专题实验</title>
<path fill="none" stroke="black" d="M900.26,-647.7C904.46,-639.47 910.39,-629.48 916.41,-620.42"/>
<polygon fill="black" stroke="black" points="919.35,-622.32 922.14,-612.1 913.58,-618.35 919.35,-622.32"/>
</g>
<!-- 人工智能 -->
<g id="node36" class="node">
<title>人工智能</title>
<ellipse fill="none" stroke="black" cx="743.54" cy="-522" rx="55.79" ry="18"/>
<text text-anchor="middle" x="743.54" y="-518.3" font-family="Times New Roman,serif" font-size="14.00">人工智能</text>
</g>
<!-- 人工智能&#45;&gt;软件工程 -->
<g id="edge55" class="edge">
<title>人工智能&#45;&gt;软件工程</title>
<path fill="none" stroke="black" d="M771.21,-506.33C790.93,-495.87 817.62,-481.72 839.07,-470.34"/>
<polygon fill="black" stroke="black" points="840.71,-473.43 847.91,-465.65 837.43,-467.25 840.71,-473.43"/>
</g>
<!-- 软件定义网络 -->
<g id="node37" class="node">
<title>软件定义网络</title>
<ellipse fill="none" stroke="black" cx="1389.54" cy="-666" rx="77.99" ry="18"/>
<text text-anchor="middle" x="1389.54" y="-662.3" font-family="Times New Roman,serif" font-size="14.00">软件定义网络</text>
</g>
<!-- 软件定义网络&#45;&gt;面向对象程序设计 -->
<g id="edge65" class="edge">
<title>软件定义网络&#45;&gt;面向对象程序设计</title>
<path fill="none" stroke="black" d="M1385.83,-647.7C1384.18,-639.98 1382.2,-630.71 1380.35,-622.11"/>
<polygon fill="black" stroke="black" points="1383.73,-621.15 1378.21,-612.1 1376.88,-622.62 1383.73,-621.15"/>
</g>
</g>
</svg>
