<?xml version="1.0" encoding="UTF-8" standalone="no"?>
<!DOCTYPE svg PUBLIC "-//W3C//DTD SVG 1.1//EN"
 "http://www.w3.org/Graphics/SVG/1.1/DTD/svg11.dtd">
<!-- Generated by graphviz version 2.46.0 (20210118.1747)
 -->
<!-- Pages: 1 -->
<svg width="1804pt" height="1700pt"
 viewBox="0.00 0.00 1803.79 1700.00" xmlns="http://www.w3.org/2000/svg" xmlns:xlink="http://www.w3.org/1999/xlink">
<g id="graph0" class="graph" transform="scale(1 1) rotate(0) translate(4 1696)">
<polygon fill="white" stroke="transparent" points="-4,4 -4,-1696 1799.79,-1696 1799.79,4 -4,4"/>
<!-- 高等数学i1 -->
<g id="node1" class="node">
<title>高等数学i1</title>
<ellipse fill="none" stroke="black" cx="1145.79" cy="-234" rx="61.99" ry="18"/>
<text text-anchor="middle" x="1145.79" y="-230.3" font-family="Times New Roman,serif" font-size="14.00">高等数学i1</text>
</g>
<!-- 高等数学i2 -->
<g id="node2" class="node">
<title>高等数学i2</title>
<ellipse fill="none" stroke="black" cx="1145.79" cy="-162" rx="61.99" ry="18"/>
<text text-anchor="middle" x="1145.79" y="-158.3" font-family="Times New Roman,serif" font-size="14.00">高等数学i2</text>
</g>
<!-- 高等数学i1&#45;&gt;高等数学i2 -->
<g id="edge1" class="edge">
<title>高等数学i1&#45;&gt;高等数学i2</title>
<path fill="none" stroke="black" d="M1145.79,-215.7C1145.79,-207.98 1145.79,-198.71 1145.79,-190.11"/>
<polygon fill="black" stroke="black" points="1149.29,-190.1 1145.79,-180.1 1142.29,-190.1 1149.29,-190.1"/>
</g>
<!-- 工程制图iii -->
<g id="node8" class="node">
<title>工程制图iii</title>
<ellipse fill="none" stroke="black" cx="1145.79" cy="-90" rx="61.99" ry="18"/>
<text text-anchor="middle" x="1145.79" y="-86.3" font-family="Times New Roman,serif" font-size="14.00">工程制图iii</text>
</g>
<!-- 高等数学i2&#45;&gt;工程制图iii -->
<g id="edge7" class="edge">
<title>高等数学i2&#45;&gt;工程制图iii</title>
<path fill="none" stroke="black" d="M1145.79,-143.7C1145.79,-135.98 1145.79,-126.71 1145.79,-118.11"/>
<polygon fill="black" stroke="black" points="1149.29,-118.1 1145.79,-108.1 1142.29,-118.1 1149.29,-118.1"/>
</g>
<!-- 数理逻辑 -->
<g id="node9" class="node">
<title>数理逻辑</title>
<ellipse fill="none" stroke="black" cx="1009.79" cy="-90" rx="55.79" ry="18"/>
<text text-anchor="middle" x="1009.79" y="-86.3" font-family="Times New Roman,serif" font-size="14.00">数理逻辑</text>
</g>
<!-- 高等数学i2&#45;&gt;数理逻辑 -->
<g id="edge8" class="edge">
<title>高等数学i2&#45;&gt;数理逻辑</title>
<path fill="none" stroke="black" d="M1116.61,-145.98C1096.4,-135.58 1069.3,-121.63 1047.46,-110.39"/>
<polygon fill="black" stroke="black" points="1048.94,-107.22 1038.45,-105.75 1045.74,-113.44 1048.94,-107.22"/>
</g>
<!-- 大学物理实验i1 -->
<g id="node3" class="node">
<title>大学物理实验i1</title>
<ellipse fill="none" stroke="black" cx="876.79" cy="-306" rx="84.49" ry="18"/>
<text text-anchor="middle" x="876.79" y="-302.3" font-family="Times New Roman,serif" font-size="14.00">大学物理实验i1</text>
</g>
<!-- 大学物理实验i1&#45;&gt;高等数学i1 -->
<g id="edge2" class="edge">
<title>大学物理实验i1&#45;&gt;高等数学i1</title>
<path fill="none" stroke="black" d="M928.02,-291.67C974.84,-279.48 1043.86,-261.52 1091.59,-249.1"/>
<polygon fill="black" stroke="black" points="1092.64,-252.45 1101.44,-246.54 1090.88,-245.67 1092.64,-252.45"/>
</g>
<!-- 线性代数与解析几何ii -->
<g id="node4" class="node">
<title>线性代数与解析几何ii</title>
<ellipse fill="none" stroke="black" cx="911.79" cy="-234" rx="115.88" ry="18"/>
<text text-anchor="middle" x="911.79" y="-230.3" font-family="Times New Roman,serif" font-size="14.00">线性代数与解析几何ii</text>
</g>
<!-- 大学物理实验i1&#45;&gt;线性代数与解析几何ii -->
<g id="edge3" class="edge">
<title>大学物理实验i1&#45;&gt;线性代数与解析几何ii</title>
<path fill="none" stroke="black" d="M885.26,-288.05C889.29,-280.01 894.19,-270.2 898.68,-261.23"/>
<polygon fill="black" stroke="black" points="901.81,-262.78 903.15,-252.28 895.55,-259.65 901.81,-262.78"/>
</g>
<!-- 大学物理ii1 -->
<g id="node5" class="node">
<title>大学物理ii1</title>
<ellipse fill="none" stroke="black" cx="1122.79" cy="-18" rx="63.89" ry="18"/>
<text text-anchor="middle" x="1122.79" y="-14.3" font-family="Times New Roman,serif" font-size="14.00">大学物理ii1</text>
</g>
<!-- 大学物理实验i1&#45;&gt;大学物理ii1 -->
<g id="edge4" class="edge">
<title>大学物理实验i1&#45;&gt;大学物理ii1</title>
<path fill="none" stroke="black" d="M833.43,-290.52C815.69,-282.2 796.96,-269.79 786.79,-252 778.85,-238.11 780.33,-230.64 786.79,-216 825.17,-129.09 862.07,-118.73 944.79,-72 980.43,-51.86 1024.51,-38.66 1059.88,-30.47"/>
<polygon fill="black" stroke="black" points="1061.09,-33.79 1070.08,-28.19 1059.56,-26.96 1061.09,-33.79"/>
</g>
<!-- 数据结构与程序设计专题实验 -->
<g id="node6" class="node">
<title>数据结构与程序设计专题实验</title>
<ellipse fill="none" stroke="black" cx="1572.79" cy="-234" rx="156.77" ry="18"/>
<text text-anchor="middle" x="1572.79" y="-230.3" font-family="Times New Roman,serif" font-size="14.00">数据结构与程序设计专题实验</text>
</g>
<!-- 大学物理实验i1&#45;&gt;数据结构与程序设计专题实验 -->
<g id="edge5" class="edge">
<title>大学物理实验i1&#45;&gt;数据结构与程序设计专题实验</title>
<path fill="none" stroke="black" d="M951.6,-297.48C1070.66,-285.5 1304.51,-261.98 1448.86,-247.46"/>
<polygon fill="black" stroke="black" points="1449.5,-250.92 1459.1,-246.43 1448.8,-243.95 1449.5,-250.92"/>
</g>
<!-- 数据库系统 -->
<g id="node7" class="node">
<title>数据库系统</title>
<ellipse fill="none" stroke="black" cx="450.79" cy="-234" rx="66.89" ry="18"/>
<text text-anchor="middle" x="450.79" y="-230.3" font-family="Times New Roman,serif" font-size="14.00">数据库系统</text>
</g>
<!-- 大学物理实验i1&#45;&gt;数据库系统 -->
<g id="edge6" class="edge">
<title>大学物理实验i1&#45;&gt;数据库系统</title>
<path fill="none" stroke="black" d="M812.09,-294.37C732.07,-281.22 596.61,-258.96 516.24,-245.76"/>
<polygon fill="black" stroke="black" points="516.68,-242.28 506.24,-244.11 515.54,-249.19 516.68,-242.28"/>
</g>
<!-- 数据结构与程序设计专题实验&#45;&gt;大学物理ii1 -->
<g id="edge33" class="edge">
<title>数据结构与程序设计专题实验&#45;&gt;大学物理ii1</title>
<path fill="none" stroke="black" d="M1562.48,-215.79C1549.68,-195.82 1526.05,-163.17 1497.79,-144 1400.78,-78.18 1266.25,-44.54 1187.48,-29.44"/>
<polygon fill="black" stroke="black" points="1187.69,-25.92 1177.22,-27.52 1186.4,-32.8 1187.69,-25.92"/>
</g>
<!-- 面向对象程序设计 -->
<g id="node11" class="node">
<title>面向对象程序设计</title>
<ellipse fill="none" stroke="black" cx="1387.79" cy="-162" rx="100.98" ry="18"/>
<text text-anchor="middle" x="1387.79" y="-158.3" font-family="Times New Roman,serif" font-size="14.00">面向对象程序设计</text>
</g>
<!-- 数据结构与程序设计专题实验&#45;&gt;面向对象程序设计 -->
<g id="edge34" class="edge">
<title>数据结构与程序设计专题实验&#45;&gt;面向对象程序设计</title>
<path fill="none" stroke="black" d="M1529.42,-216.59C1502.07,-206.24 1466.65,-192.84 1438.08,-182.03"/>
<polygon fill="black" stroke="black" points="1439.26,-178.73 1428.67,-178.47 1436.79,-185.28 1439.26,-178.73"/>
</g>
<!-- 人工智能 -->
<g id="node30" class="node">
<title>人工智能</title>
<ellipse fill="none" stroke="black" cx="403.79" cy="-162" rx="55.79" ry="18"/>
<text text-anchor="middle" x="403.79" y="-158.3" font-family="Times New Roman,serif" font-size="14.00">人工智能</text>
</g>
<!-- 数据库系统&#45;&gt;人工智能 -->
<g id="edge98" class="edge">
<title>数据库系统&#45;&gt;人工智能</title>
<path fill="none" stroke="black" d="M439.41,-216.05C433.81,-207.71 426.95,-197.49 420.74,-188.25"/>
<polygon fill="black" stroke="black" points="423.54,-186.14 415.06,-179.79 417.73,-190.04 423.54,-186.14"/>
</g>
<!-- 数理逻辑&#45;&gt;大学物理ii1 -->
<g id="edge69" class="edge">
<title>数理逻辑&#45;&gt;大学物理ii1</title>
<path fill="none" stroke="black" d="M1034.31,-73.81C1050.23,-63.95 1071.2,-50.96 1088.73,-40.1"/>
<polygon fill="black" stroke="black" points="1090.88,-42.89 1097.54,-34.64 1087.19,-36.93 1090.88,-42.89"/>
</g>
<!-- 程序设计基础 -->
<g id="node10" class="node">
<title>程序设计基础</title>
<ellipse fill="none" stroke="black" cx="755.79" cy="-378" rx="77.99" ry="18"/>
<text text-anchor="middle" x="755.79" y="-374.3" font-family="Times New Roman,serif" font-size="14.00">程序设计基础</text>
</g>
<!-- 程序设计基础&#45;&gt;大学物理实验i1 -->
<g id="edge9" class="edge">
<title>程序设计基础&#45;&gt;大学物理实验i1</title>
<path fill="none" stroke="black" d="M783.25,-361.12C800.14,-351.34 822,-338.69 840.34,-328.09"/>
<polygon fill="black" stroke="black" points="842.12,-331.1 849.02,-323.06 838.61,-325.04 842.12,-331.1"/>
</g>
<!-- 程序设计基础&#45;&gt;大学物理ii1 -->
<g id="edge10" class="edge">
<title>程序设计基础&#45;&gt;大学物理ii1</title>
<path fill="none" stroke="black" d="M750.53,-359.7C742.93,-333.14 729.79,-280.61 729.79,-235 729.79,-235 729.79,-235 729.79,-161 729.79,-92.14 945.87,-47.33 1057.58,-28.76"/>
<polygon fill="black" stroke="black" points="1058.43,-32.17 1067.73,-27.1 1057.3,-25.26 1058.43,-32.17"/>
</g>
<!-- 程序设计基础&#45;&gt;面向对象程序设计 -->
<g id="edge11" class="edge">
<title>程序设计基础&#45;&gt;面向对象程序设计</title>
<path fill="none" stroke="black" d="M813.61,-365.87C902.34,-347.79 1076.54,-308.3 1216.79,-252 1264.91,-232.68 1317.42,-204.15 1351.38,-184.63"/>
<polygon fill="black" stroke="black" points="1353.55,-187.42 1360.45,-179.38 1350.04,-181.36 1353.55,-187.42"/>
</g>
<!-- 电路 -->
<g id="node12" class="node">
<title>电路</title>
<ellipse fill="none" stroke="black" cx="1240.79" cy="-666" rx="33.29" ry="18"/>
<text text-anchor="middle" x="1240.79" y="-662.3" font-family="Times New Roman,serif" font-size="14.00">电路</text>
</g>
<!-- 数字逻辑电路 -->
<g id="node13" class="node">
<title>数字逻辑电路</title>
<ellipse fill="none" stroke="black" cx="976.79" cy="-594" rx="77.99" ry="18"/>
<text text-anchor="middle" x="976.79" y="-590.3" font-family="Times New Roman,serif" font-size="14.00">数字逻辑电路</text>
</g>
<!-- 电路&#45;&gt;数字逻辑电路 -->
<g id="edge12" class="edge">
<title>电路&#45;&gt;数字逻辑电路</title>
<path fill="none" stroke="black" d="M1214.11,-654.79C1207.52,-652.42 1200.44,-650.01 1193.79,-648 1143.33,-632.76 1085.29,-618.76 1041.93,-608.99"/>
<polygon fill="black" stroke="black" points="1042.6,-605.55 1032.08,-606.78 1041.07,-612.38 1042.6,-605.55"/>
</g>
<!-- 汇编语言 -->
<g id="node14" class="node">
<title>汇编语言</title>
<ellipse fill="none" stroke="black" cx="1423.79" cy="-522" rx="55.79" ry="18"/>
<text text-anchor="middle" x="1423.79" y="-518.3" font-family="Times New Roman,serif" font-size="14.00">汇编语言</text>
</g>
<!-- 电路&#45;&gt;汇编语言 -->
<g id="edge13" class="edge">
<title>电路&#45;&gt;汇编语言</title>
<path fill="none" stroke="black" d="M1259.01,-650.87C1290.94,-626.08 1357.26,-574.62 1395.31,-545.1"/>
<polygon fill="black" stroke="black" points="1397.67,-547.69 1403.43,-538.8 1393.38,-542.16 1397.67,-547.69"/>
</g>
<!-- 软件工程 -->
<g id="node15" class="node">
<title>软件工程</title>
<ellipse fill="none" stroke="black" cx="897.79" cy="-450" rx="55.79" ry="18"/>
<text text-anchor="middle" x="897.79" y="-446.3" font-family="Times New Roman,serif" font-size="14.00">软件工程</text>
</g>
<!-- 电路&#45;&gt;软件工程 -->
<g id="edge14" class="edge">
<title>电路&#45;&gt;软件工程</title>
<path fill="none" stroke="black" d="M1219.85,-651.94C1162.36,-616.07 1001.7,-515.83 931.42,-471.98"/>
<polygon fill="black" stroke="black" points="932.86,-468.75 922.52,-466.43 929.15,-474.69 932.86,-468.75"/>
</g>
<!-- 数字逻辑电路&#45;&gt;数据库系统 -->
<g id="edge64" class="edge">
<title>数字逻辑电路&#45;&gt;数据库系统</title>
<path fill="none" stroke="black" d="M946.96,-577.36C887.62,-545.81 751.33,-471.12 644.79,-396 581.27,-351.22 512.53,-291.1 476.37,-258.46"/>
<polygon fill="black" stroke="black" points="478.51,-255.67 468.75,-251.55 473.8,-260.86 478.51,-255.67"/>
</g>
<!-- 数字逻辑电路&#45;&gt;汇编语言 -->
<g id="edge63" class="edge">
<title>数字逻辑电路&#45;&gt;汇编语言</title>
<path fill="none" stroke="black" d="M1039.41,-583.19C1125.77,-569.67 1280.28,-545.47 1364.72,-532.25"/>
<polygon fill="black" stroke="black" points="1365.32,-535.7 1374.66,-530.69 1364.24,-528.78 1365.32,-535.7"/>
</g>
<!-- 数字逻辑电路&#45;&gt;软件工程 -->
<g id="edge65" class="edge">
<title>数字逻辑电路&#45;&gt;软件工程</title>
<path fill="none" stroke="black" d="M967.26,-575.87C953.55,-551.22 928.13,-505.54 912.14,-476.79"/>
<polygon fill="black" stroke="black" points="915.03,-474.79 907.11,-467.75 908.91,-478.19 915.03,-474.79"/>
</g>
<!-- 汇编语言&#45;&gt;数据结构与程序设计专题实验 -->
<g id="edge66" class="edge">
<title>汇编语言&#45;&gt;数据结构与程序设计专题实验</title>
<path fill="none" stroke="black" d="M1425.03,-503.74C1428.76,-462.55 1443,-356.81 1493.79,-288 1502.95,-275.58 1515.95,-265.17 1528.77,-256.95"/>
<polygon fill="black" stroke="black" points="1530.83,-259.8 1537.56,-251.62 1527.19,-253.81 1530.83,-259.8"/>
</g>
<!-- 汇编语言&#45;&gt;软件工程 -->
<g id="edge67" class="edge">
<title>汇编语言&#45;&gt;软件工程</title>
<path fill="none" stroke="black" d="M1372.88,-514.22C1275.44,-501.26 1063.01,-472.99 958.43,-459.07"/>
<polygon fill="black" stroke="black" points="958.72,-455.58 948.34,-457.73 957.8,-462.52 958.72,-455.58"/>
</g>
<!-- 软件工程&#45;&gt;大学物理ii1 -->
<g id="edge100" class="edge">
<title>软件工程&#45;&gt;大学物理ii1</title>
<path fill="none" stroke="black" d="M953.98,-449.66C1050.1,-447.52 1235.79,-427.77 1235.79,-307 1235.79,-307 1235.79,-307 1235.79,-161 1235.79,-120.55 1240.75,-104.59 1216.79,-72 1205.37,-56.46 1187.93,-44.85 1171.17,-36.52"/>
<polygon fill="black" stroke="black" points="1172.51,-33.28 1161.97,-32.22 1169.55,-39.62 1172.51,-33.28"/>
</g>
<!-- 软件工程&#45;&gt;数据库系统 -->
<g id="edge102" class="edge">
<title>软件工程&#45;&gt;数据库系统</title>
<path fill="none" stroke="black" d="M846.56,-442.69C787.51,-434.49 695.19,-418.5 668.79,-396 629.34,-362.39 663.07,-322.94 624.79,-288 597.09,-262.71 557.63,-249.48 523.3,-242.56"/>
<polygon fill="black" stroke="black" points="523.77,-239.09 513.3,-240.69 522.48,-245.97 523.77,-239.09"/>
</g>
<!-- 软件工程&#45;&gt;程序设计基础 -->
<g id="edge101" class="edge">
<title>软件工程&#45;&gt;程序设计基础</title>
<path fill="none" stroke="black" d="M868.37,-434.5C847.66,-424.29 819.67,-410.49 796.78,-399.21"/>
<polygon fill="black" stroke="black" points="798.16,-395.98 787.64,-394.7 795.07,-402.26 798.16,-395.98"/>
</g>
<!-- 软件定义网络 -->
<g id="node24" class="node">
<title>软件定义网络</title>
<ellipse fill="none" stroke="black" cx="1647.79" cy="-378" rx="77.99" ry="18"/>
<text text-anchor="middle" x="1647.79" y="-374.3" font-family="Times New Roman,serif" font-size="14.00">软件定义网络</text>
</g>
<!-- 软件工程&#45;&gt;软件定义网络 -->
<g id="edge104" class="edge">
<title>软件工程&#45;&gt;软件定义网络</title>
<path fill="none" stroke="black" d="M950.83,-444.05C1080.14,-431.98 1412.32,-400.98 1566.69,-386.57"/>
<polygon fill="black" stroke="black" points="1567.41,-390.02 1577.04,-385.6 1566.76,-383.05 1567.41,-390.02"/>
</g>
<!-- 计算机网络专题实验 -->
<g id="node34" class="node">
<title>计算机网络专题实验</title>
<ellipse fill="none" stroke="black" cx="111.79" cy="-378" rx="111.58" ry="18"/>
<text text-anchor="middle" x="111.79" y="-374.3" font-family="Times New Roman,serif" font-size="14.00">计算机网络专题实验</text>
</g>
<!-- 软件工程&#45;&gt;计算机网络专题实验 -->
<g id="edge103" class="edge">
<title>软件工程&#45;&gt;计算机网络专题实验</title>
<path fill="none" stroke="black" d="M844.69,-444.27C716.29,-432.84 387.05,-403.51 216.98,-388.37"/>
<polygon fill="black" stroke="black" points="217.28,-384.88 207.01,-387.48 216.66,-391.85 217.28,-384.88"/>
</g>
<!-- 概率统计与随机过程 -->
<g id="node16" class="node">
<title>概率统计与随机过程</title>
<ellipse fill="none" stroke="black" cx="881.79" cy="-1170" rx="111.58" ry="18"/>
<text text-anchor="middle" x="881.79" y="-1166.3" font-family="Times New Roman,serif" font-size="14.00">概率统计与随机过程</text>
</g>
<!-- 概率统计与随机过程&#45;&gt;高等数学i1 -->
<g id="edge15" class="edge">
<title>概率统计与随机过程&#45;&gt;高等数学i1</title>
<path fill="none" stroke="black" d="M938.33,-1154.46C963.28,-1146.09 991.86,-1133.65 1013.79,-1116 1043.95,-1091.74 1041.87,-1076.57 1062.79,-1044 1113.34,-965.31 1123.02,-943.8 1171.79,-864 1220.8,-783.8 1257.15,-774.42 1282.79,-684 1328.85,-521.54 1210.61,-327.93 1163.85,-260.02"/>
<polygon fill="black" stroke="black" points="1166.6,-257.84 1158.01,-251.65 1160.86,-261.85 1166.6,-257.84"/>
</g>
<!-- 概率统计与随机过程&#45;&gt;面向对象程序设计 -->
<g id="edge18" class="edge">
<title>概率统计与随机过程&#45;&gt;面向对象程序设计</title>
<path fill="none" stroke="black" d="M992.75,-1167.61C1139.62,-1164.31 1389.7,-1153.22 1472.79,-1116 1525.59,-1092.35 1567.79,-1084.86 1567.79,-1027 1567.79,-1027 1567.79,-1027 1567.79,-953 1567.79,-856.4 1605.79,-835.6 1605.79,-739 1605.79,-739 1605.79,-739 1605.79,-593 1605.79,-417.52 1470.13,-415.65 1406.79,-252 1399.06,-232.02 1394.18,-208.23 1391.31,-190.27"/>
<polygon fill="black" stroke="black" points="1394.75,-189.57 1389.81,-180.19 1387.82,-190.6 1394.75,-189.57"/>
</g>
<!-- 概率统计与随机过程&#45;&gt;数字逻辑电路 -->
<g id="edge19" class="edge">
<title>概率统计与随机过程&#45;&gt;数字逻辑电路</title>
<path fill="none" stroke="black" d="M858.41,-1152.34C821.21,-1125.26 751.47,-1071.92 738.79,-1044 727.19,-1018.45 697.27,-1001.87 740.79,-864 775.74,-753.26 803.24,-727.59 887.79,-648 901.47,-635.12 918.81,-623.92 934.55,-615.18"/>
<polygon fill="black" stroke="black" points="936.43,-618.14 943.58,-610.33 933.12,-611.98 936.43,-618.14"/>
</g>
<!-- 数据结构与算法i -->
<g id="node17" class="node">
<title>数据结构与算法i</title>
<ellipse fill="none" stroke="black" cx="598.79" cy="-954" rx="90.98" ry="18"/>
<text text-anchor="middle" x="598.79" y="-950.3" font-family="Times New Roman,serif" font-size="14.00">数据结构与算法i</text>
</g>
<!-- 概率统计与随机过程&#45;&gt;数据结构与算法i -->
<g id="edge16" class="edge">
<title>概率统计与随机过程&#45;&gt;数据结构与算法i</title>
<path fill="none" stroke="black" d="M843.57,-1153.02C822.75,-1143.55 796.98,-1130.57 775.79,-1116 717.21,-1075.72 710.46,-1055.76 657.79,-1008 647.06,-998.27 635.19,-987.59 624.92,-978.38"/>
<polygon fill="black" stroke="black" points="627.21,-975.73 617.43,-971.67 622.54,-980.95 627.21,-975.73"/>
</g>
<!-- 大学物理实验i2 -->
<g id="node18" class="node">
<title>大学物理实验i2</title>
<ellipse fill="none" stroke="black" cx="905.79" cy="-882" rx="84.49" ry="18"/>
<text text-anchor="middle" x="905.79" y="-878.3" font-family="Times New Roman,serif" font-size="14.00">大学物理实验i2</text>
</g>
<!-- 概率统计与随机过程&#45;&gt;大学物理实验i2 -->
<g id="edge17" class="edge">
<title>概率统计与随机过程&#45;&gt;大学物理实验i2</title>
<path fill="none" stroke="black" d="M918.27,-1152.9C957.29,-1133.43 1017.04,-1096.6 1042.79,-1044 1064.19,-1000.3 1056.08,-973.27 1024.79,-936 1010.6,-919.1 989.95,-907.39 969.82,-899.36"/>
<polygon fill="black" stroke="black" points="970.91,-896.03 960.32,-895.81 968.47,-902.59 970.91,-896.03"/>
</g>
<!-- 计算机组成与结构专题实验 -->
<g id="node19" class="node">
<title>计算机组成与结构专题实验</title>
<ellipse fill="none" stroke="black" cx="501.79" cy="-1098" rx="145.67" ry="18"/>
<text text-anchor="middle" x="501.79" y="-1094.3" font-family="Times New Roman,serif" font-size="14.00">计算机组成与结构专题实验</text>
</g>
<!-- 概率统计与随机过程&#45;&gt;计算机组成与结构专题实验 -->
<g id="edge20" class="edge">
<title>概率统计与随机过程&#45;&gt;计算机组成与结构专题实验</title>
<path fill="none" stroke="black" d="M811.21,-1156C748.53,-1144.45 656.7,-1127.54 589.36,-1115.13"/>
<polygon fill="black" stroke="black" points="589.66,-1111.63 579.19,-1113.26 588.39,-1118.51 589.66,-1111.63"/>
</g>
<!-- 计算机系统综合设计实验 -->
<g id="node20" class="node">
<title>计算机系统综合设计实验</title>
<ellipse fill="none" stroke="black" cx="881.79" cy="-1026" rx="133.78" ry="18"/>
<text text-anchor="middle" x="881.79" y="-1022.3" font-family="Times New Roman,serif" font-size="14.00">计算机系统综合设计实验</text>
</g>
<!-- 概率统计与随机过程&#45;&gt;计算机系统综合设计实验 -->
<g id="edge21" class="edge">
<title>概率统计与随机过程&#45;&gt;计算机系统综合设计实验</title>
<path fill="none" stroke="black" d="M881.79,-1151.87C881.79,-1127.67 881.79,-1083.21 881.79,-1054.39"/>
<polygon fill="black" stroke="black" points="885.29,-1054.19 881.79,-1044.19 878.29,-1054.19 885.29,-1054.19"/>
</g>
<!-- 数据结构与算法i&#45;&gt;数据结构与程序设计专题实验 -->
<g id="edge24" class="edge">
<title>数据结构与算法i&#45;&gt;数据结构与程序设计专题实验</title>
<path fill="none" stroke="black" d="M684.67,-947.94C766.51,-941.64 892.63,-928.07 998.79,-900 1290.42,-822.87 1507.79,-752.66 1507.79,-451 1507.79,-451 1507.79,-451 1507.79,-377 1507.79,-332.96 1533.96,-287.64 1553.08,-260.4"/>
<polygon fill="black" stroke="black" points="1555.98,-262.36 1559.01,-252.21 1550.31,-258.26 1555.98,-262.36"/>
</g>
<!-- 数据结构与算法i&#45;&gt;程序设计基础 -->
<g id="edge22" class="edge">
<title>数据结构与算法i&#45;&gt;程序设计基础</title>
<path fill="none" stroke="black" d="M603.49,-935.82C625.79,-854.29 721,-506.18 748.39,-406.05"/>
<polygon fill="black" stroke="black" points="751.85,-406.68 751.11,-396.11 745.1,-404.83 751.85,-406.68"/>
</g>
<!-- 数据结构与算法i&#45;&gt;大学物理实验i2 -->
<g id="edge23" class="edge">
<title>数据结构与算法i&#45;&gt;大学物理实验i2</title>
<path fill="none" stroke="black" d="M656.17,-939.92C708.46,-927.99 785.63,-910.4 840.3,-897.93"/>
<polygon fill="black" stroke="black" points="841.27,-901.3 850.24,-895.67 839.71,-894.48 841.27,-901.3"/>
</g>
<!-- 大学物理实验i2&#45;&gt;程序设计基础 -->
<g id="edge29" class="edge">
<title>大学物理实验i2&#45;&gt;程序设计基础</title>
<path fill="none" stroke="black" d="M869.1,-865.65C824.69,-844.32 755.79,-801.22 755.79,-739 755.79,-739 755.79,-739 755.79,-521 755.79,-481 755.79,-434.65 755.79,-406.08"/>
<polygon fill="black" stroke="black" points="759.29,-406.05 755.79,-396.05 752.29,-406.05 759.29,-406.05"/>
</g>
<!-- 大学物理实验i2&#45;&gt;数字逻辑电路 -->
<g id="edge31" class="edge">
<title>大学物理实验i2&#45;&gt;数字逻辑电路</title>
<path fill="none" stroke="black" d="M903.3,-863.71C899.58,-833.82 894.36,-770.81 907.79,-720 917.66,-682.65 941.09,-644.44 957.91,-620.27"/>
<polygon fill="black" stroke="black" points="960.83,-622.21 963.77,-612.03 955.12,-618.15 960.83,-622.21"/>
</g>
<!-- 离散数学a -->
<g id="node21" class="node">
<title>离散数学a</title>
<ellipse fill="none" stroke="black" cx="976.79" cy="-738" rx="59.59" ry="18"/>
<text text-anchor="middle" x="976.79" y="-734.3" font-family="Times New Roman,serif" font-size="14.00">离散数学a</text>
</g>
<!-- 大学物理实验i2&#45;&gt;离散数学a -->
<g id="edge30" class="edge">
<title>大学物理实验i2&#45;&gt;离散数学a</title>
<path fill="none" stroke="black" d="M907.16,-864C909.24,-845.37 914.37,-815.06 926.79,-792 932.68,-781.06 941.41,-770.71 949.94,-762.11"/>
<polygon fill="black" stroke="black" points="952.52,-764.49 957.3,-755.04 947.67,-759.44 952.52,-764.49"/>
</g>
<!-- 数学建模ii -->
<g id="node22" class="node">
<title>数学建模ii</title>
<ellipse fill="none" stroke="black" cx="995.79" cy="-810" rx="59.59" ry="18"/>
<text text-anchor="middle" x="995.79" y="-806.3" font-family="Times New Roman,serif" font-size="14.00">数学建模ii</text>
</g>
<!-- 大学物理实验i2&#45;&gt;数学建模ii -->
<g id="edge32" class="edge">
<title>大学物理实验i2&#45;&gt;数学建模ii</title>
<path fill="none" stroke="black" d="M927.12,-864.41C939.06,-855.12 954.11,-843.42 967.07,-833.34"/>
<polygon fill="black" stroke="black" points="969.49,-835.89 975.23,-826.99 965.19,-830.36 969.49,-835.89"/>
</g>
<!-- 计算机组成与结构专题实验&#45;&gt;数据库系统 -->
<g id="edge94" class="edge">
<title>计算机组成与结构专题实验&#45;&gt;数据库系统</title>
<path fill="none" stroke="black" d="M495.71,-1079.93C480.45,-1036.54 441.79,-922.65 441.79,-883 441.79,-883 441.79,-883 441.79,-377 441.79,-336.92 445.41,-290.59 448.05,-262.05"/>
<polygon fill="black" stroke="black" points="451.54,-262.31 449.01,-252.03 444.58,-261.65 451.54,-262.31"/>
</g>
<!-- 计算机组成与结构专题实验&#45;&gt;大学物理实验i2 -->
<g id="edge92" class="edge">
<title>计算机组成与结构专题实验&#45;&gt;大学物理实验i2</title>
<path fill="none" stroke="black" d="M501.43,-1079.94C501.05,-1062.02 500.42,-1033.03 499.79,-1008 499.39,-992 499.01,-988 498.79,-972 498.57,-956 488.23,-948.02 498.79,-936 509.31,-924.02 704.17,-902.87 820.39,-891.24"/>
<polygon fill="black" stroke="black" points="820.75,-894.72 830.35,-890.25 820.05,-887.76 820.75,-894.72"/>
</g>
<!-- 计算机组成与结构专题实验&#45;&gt;计算机系统综合设计实验 -->
<g id="edge96" class="edge">
<title>计算机组成与结构专题实验&#45;&gt;计算机系统综合设计实验</title>
<path fill="none" stroke="black" d="M579.15,-1082.75C642.2,-1071.13 731.17,-1054.75 796.32,-1042.74"/>
<polygon fill="black" stroke="black" points="796.96,-1046.19 806.16,-1040.93 795.69,-1039.3 796.96,-1046.19"/>
</g>
<!-- 计算机组成与结构专题实验&#45;&gt;计算机网络专题实验 -->
<g id="edge95" class="edge">
<title>计算机组成与结构专题实验&#45;&gt;计算机网络专题实验</title>
<path fill="none" stroke="black" d="M407.94,-1084.2C353.61,-1075.15 291.89,-1061.5 270.79,-1044 156.98,-949.57 137.79,-886.88 137.79,-739 137.79,-739 137.79,-739 137.79,-521 137.79,-480.55 127.46,-434.67 119.82,-406.28"/>
<polygon fill="black" stroke="black" points="123.1,-405 117.05,-396.3 116.35,-406.87 123.1,-405"/>
</g>
<!-- 计算机图形学 -->
<g id="node37" class="node">
<title>计算机图形学</title>
<ellipse fill="none" stroke="black" cx="937.79" cy="-954" rx="77.99" ry="18"/>
<text text-anchor="middle" x="937.79" y="-950.3" font-family="Times New Roman,serif" font-size="14.00">计算机图形学</text>
</g>
<!-- 计算机组成与结构专题实验&#45;&gt;计算机图形学 -->
<g id="edge93" class="edge">
<title>计算机组成与结构专题实验&#45;&gt;计算机图形学</title>
<path fill="none" stroke="black" d="M640.19,-1092.4C786.39,-1086.08 999.36,-1072.14 1024.79,-1044 1035.52,-1032.13 1032.63,-1021.95 1024.79,-1008 1016.54,-993.32 1002.39,-982.22 987.87,-974.08"/>
<polygon fill="black" stroke="black" points="989.32,-970.89 978.83,-969.39 986.09,-977.1 989.32,-970.89"/>
</g>
<!-- 计算机系统综合设计实验&#45;&gt;数字逻辑电路 -->
<g id="edge107" class="edge">
<title>计算机系统综合设计实验&#45;&gt;数字逻辑电路</title>
<path fill="none" stroke="black" d="M866.29,-1007.83C842.28,-979.14 800.1,-919.12 812.79,-864 836.73,-759.98 853.56,-733.25 917.79,-648 926.03,-637.07 936.77,-626.63 946.82,-617.96"/>
<polygon fill="black" stroke="black" points="949.24,-620.5 954.68,-611.4 944.75,-615.12 949.24,-620.5"/>
</g>
<!-- 计算机系统综合设计实验&#45;&gt;汇编语言 -->
<g id="edge108" class="edge">
<title>计算机系统综合设计实验&#45;&gt;汇编语言</title>
<path fill="none" stroke="black" d="M1006.9,-1019.53C1101.92,-1008.81 1229.52,-979.28 1309.79,-900 1409.54,-801.48 1422.63,-618.95 1423.89,-550.17"/>
<polygon fill="black" stroke="black" points="1427.39,-550.17 1424.01,-540.13 1420.39,-550.09 1427.39,-550.17"/>
</g>
<!-- 计算机系统综合设计实验&#45;&gt;软件工程 -->
<g id="edge109" class="edge">
<title>计算机系统综合设计实验&#45;&gt;软件工程</title>
<path fill="none" stroke="black" d="M856.64,-1008.13C844,-998.68 829.21,-985.98 818.79,-972 751.37,-881.48 717.79,-851.87 717.79,-739 717.79,-739 717.79,-739 717.79,-593 717.79,-526.3 794.91,-486.08 848.19,-466.25"/>
<polygon fill="black" stroke="black" points="849.62,-469.46 857.84,-462.78 847.25,-462.87 849.62,-469.46"/>
</g>
<!-- 计算机系统综合设计实验&#45;&gt;数据结构与算法i -->
<g id="edge105" class="edge">
<title>计算机系统综合设计实验&#45;&gt;数据结构与算法i</title>
<path fill="none" stroke="black" d="M820.73,-1009.9C774.31,-998.42 710.6,-982.66 663.34,-970.97"/>
<polygon fill="black" stroke="black" points="664.06,-967.54 653.52,-968.54 662.38,-974.34 664.06,-967.54"/>
</g>
<!-- 计算机系统综合设计实验&#45;&gt;大学物理实验i2 -->
<g id="edge106" class="edge">
<title>计算机系统综合设计实验&#45;&gt;大学物理实验i2</title>
<path fill="none" stroke="black" d="M868.36,-1008.01C855.78,-989.91 840.36,-960.54 850.79,-936 855.69,-924.46 864.48,-914.22 873.6,-905.89"/>
<polygon fill="black" stroke="black" points="875.93,-908.5 881.27,-899.35 871.39,-903.17 875.93,-908.5"/>
</g>
<!-- 离散数学a&#45;&gt;数理逻辑 -->
<g id="edge27" class="edge">
<title>离散数学a&#45;&gt;数理逻辑</title>
<path fill="none" stroke="black" d="M997.73,-720.96C1037.67,-688.38 1120.79,-610.1 1120.79,-523 1120.79,-523 1120.79,-523 1120.79,-377 1120.79,-370.1 1048,-186.83 1020.31,-117.36"/>
<polygon fill="black" stroke="black" points="1023.52,-115.96 1016.57,-107.97 1017.02,-118.55 1023.52,-115.96"/>
</g>
<!-- 离散数学a&#45;&gt;电路 -->
<g id="edge25" class="edge">
<title>离散数学a&#45;&gt;电路</title>
<path fill="none" stroke="black" d="M1020.09,-725.52C1070.48,-712.16 1152.98,-690.28 1201.56,-677.4"/>
<polygon fill="black" stroke="black" points="1202.62,-680.74 1211.39,-674.8 1200.83,-673.98 1202.62,-680.74"/>
</g>
<!-- 离散数学a&#45;&gt;数字逻辑电路 -->
<g id="edge26" class="edge">
<title>离散数学a&#45;&gt;数字逻辑电路</title>
<path fill="none" stroke="black" d="M976.79,-719.87C976.79,-695.67 976.79,-651.21 976.79,-622.39"/>
<polygon fill="black" stroke="black" points="980.29,-622.19 976.79,-612.19 973.29,-622.19 980.29,-622.19"/>
</g>
<!-- 离散数学a&#45;&gt;软件工程 -->
<g id="edge28" class="edge">
<title>离散数学a&#45;&gt;软件工程</title>
<path fill="none" stroke="black" d="M960.33,-720.64C939.21,-698.35 903.64,-656.15 889.79,-612 875.56,-566.66 883.73,-510.63 890.84,-478.04"/>
<polygon fill="black" stroke="black" points="894.34,-478.47 893.18,-467.94 887.52,-476.89 894.34,-478.47"/>
</g>
<!-- 数学建模ii&#45;&gt;离散数学a -->
<g id="edge68" class="edge">
<title>数学建模ii&#45;&gt;离散数学a</title>
<path fill="none" stroke="black" d="M991.09,-791.7C988.98,-783.9 986.43,-774.51 984.07,-765.83"/>
<polygon fill="black" stroke="black" points="987.43,-764.84 981.43,-756.1 980.67,-766.67 987.43,-764.84"/>
</g>
<!-- 大学物理ii2 -->
<g id="node23" class="node">
<title>大学物理ii2</title>
<ellipse fill="none" stroke="black" cx="1559.79" cy="-1386" rx="63.89" ry="18"/>
<text text-anchor="middle" x="1559.79" y="-1382.3" font-family="Times New Roman,serif" font-size="14.00">大学物理ii2</text>
</g>
<!-- 大学物理ii2&#45;&gt;大学物理ii1 -->
<g id="edge35" class="edge">
<title>大学物理ii2&#45;&gt;大学物理ii1</title>
<path fill="none" stroke="black" d="M1586.87,-1369.6C1622.81,-1346.91 1681.79,-1300.85 1681.79,-1243 1681.79,-1243 1681.79,-1243 1681.79,-1169 1681.79,-1072.4 1719.79,-1051.6 1719.79,-955 1719.79,-955 1719.79,-955 1719.79,-881 1719.79,-780.07 1795.79,-767.93 1795.79,-667 1795.79,-667 1795.79,-667 1795.79,-161 1795.79,-39.6 1371.25,-21.47 1196.55,-19.14"/>
<polygon fill="black" stroke="black" points="1196.45,-15.64 1186.41,-19.02 1196.36,-22.64 1196.45,-15.64"/>
</g>
<!-- 大学物理ii2&#45;&gt;软件定义网络 -->
<g id="edge36" class="edge">
<title>大学物理ii2&#45;&gt;软件定义网络</title>
<path fill="none" stroke="black" d="M1577.6,-1368.52C1602.26,-1343.82 1643.79,-1294.56 1643.79,-1243 1643.79,-1243 1643.79,-1243 1643.79,-1097 1643.79,-1000.4 1681.79,-979.6 1681.79,-883 1681.79,-883 1681.79,-883 1681.79,-521 1681.79,-479.91 1668.16,-433.92 1658.16,-405.72"/>
<polygon fill="black" stroke="black" points="1661.39,-404.36 1654.67,-396.17 1654.82,-406.76 1661.39,-404.36"/>
</g>
<!-- 毕业设计（论文） -->
<g id="node25" class="node">
<title>毕业设计（论文）</title>
<ellipse fill="none" stroke="black" cx="984.79" cy="-1530" rx="100.98" ry="18"/>
<text text-anchor="middle" x="984.79" y="-1526.3" font-family="Times New Roman,serif" font-size="14.00">毕业设计（论文）</text>
</g>
<!-- 大学物理ii2&#45;&gt;毕业设计（论文） -->
<g id="edge37" class="edge">
<title>大学物理ii2&#45;&gt;毕业设计（论文）</title>
<path fill="none" stroke="black" d="M1515.35,-1398.95C1415.56,-1424.47 1173.48,-1484.3 1053.89,-1513.04"/>
<polygon fill="black" stroke="black" points="1053.01,-1509.65 1044.1,-1515.38 1054.64,-1516.45 1053.01,-1509.65"/>
</g>
<!-- 软件定义网络&#45;&gt;面向对象程序设计 -->
<g id="edge110" class="edge">
<title>软件定义网络&#45;&gt;面向对象程序设计</title>
<path fill="none" stroke="black" d="M1669.55,-360.61C1707.7,-329.93 1778.99,-262.73 1738.79,-216 1708.09,-180.31 1589.03,-168.35 1498,-164.5"/>
<polygon fill="black" stroke="black" points="1498.02,-160.99 1487.89,-164.1 1497.74,-167.99 1498.02,-160.99"/>
</g>
<!-- 毕业设计（论文）&#45;&gt;大学物理实验i2 -->
<g id="edge111" class="edge">
<title>毕业设计（论文）&#45;&gt;大学物理实验i2</title>
<path fill="none" stroke="black" d="M1001.63,-1511.9C1010.11,-1502.19 1019.66,-1489.34 1024.79,-1476 1099.69,-1281.22 1080,-1215.97 1062.79,-1008 1060.11,-975.67 1071.51,-960.96 1050.79,-936 1034.02,-915.79 1008.84,-903.29 984.15,-895.55"/>
<polygon fill="black" stroke="black" points="984.94,-892.14 974.36,-892.72 982.99,-898.86 984.94,-892.14"/>
</g>
<!-- 毕业设计（论文）&#45;&gt;大学物理ii2 -->
<g id="edge112" class="edge">
<title>毕业设计（论文）&#45;&gt;大学物理ii2</title>
<path fill="none" stroke="black" d="M1038.3,-1514.73C1146.48,-1487.19 1390.1,-1427.03 1501.87,-1400.28"/>
<polygon fill="black" stroke="black" points="1502.7,-1403.68 1511.62,-1397.95 1501.08,-1396.87 1502.7,-1403.68"/>
</g>
<!-- 形式语言与编译 -->
<g id="node27" class="node">
<title>形式语言与编译</title>
<ellipse fill="none" stroke="black" cx="1160.79" cy="-1386" rx="89.08" ry="18"/>
<text text-anchor="middle" x="1160.79" y="-1382.3" font-family="Times New Roman,serif" font-size="14.00">形式语言与编译</text>
</g>
<!-- 毕业设计（论文）&#45;&gt;形式语言与编译 -->
<g id="edge113" class="edge">
<title>毕业设计（论文）&#45;&gt;形式语言与编译</title>
<path fill="none" stroke="black" d="M1008.84,-1512.31C1023.26,-1502.12 1041.84,-1488.65 1057.79,-1476 1084.6,-1454.74 1114.03,-1429.06 1134.54,-1410.76"/>
<polygon fill="black" stroke="black" points="1137.1,-1413.17 1142.21,-1403.89 1132.43,-1407.96 1137.1,-1413.17"/>
</g>
<!-- 编译器设计专题实验 -->
<g id="node28" class="node">
<title>编译器设计专题实验</title>
<ellipse fill="none" stroke="black" cx="903.79" cy="-1314" rx="111.58" ry="18"/>
<text text-anchor="middle" x="903.79" y="-1310.3" font-family="Times New Roman,serif" font-size="14.00">编译器设计专题实验</text>
</g>
<!-- 毕业设计（论文）&#45;&gt;编译器设计专题实验 -->
<g id="edge114" class="edge">
<title>毕业设计（论文）&#45;&gt;编译器设计专题实验</title>
<path fill="none" stroke="black" d="M926.18,-1515.24C905.68,-1507.31 884.81,-1494.99 872.79,-1476 846.21,-1434.01 870.3,-1374.41 888.31,-1340.75"/>
<polygon fill="black" stroke="black" points="891.39,-1342.42 893.18,-1331.98 885.27,-1339.03 891.39,-1342.42"/>
</g>
<!-- 电子技术实验2 -->
<g id="node32" class="node">
<title>电子技术实验2</title>
<ellipse fill="none" stroke="black" cx="984.79" cy="-1602" rx="82.59" ry="18"/>
<text text-anchor="middle" x="984.79" y="-1598.3" font-family="Times New Roman,serif" font-size="14.00">电子技术实验2</text>
</g>
<!-- 毕业设计（论文）&#45;&gt;电子技术实验2 -->
<g id="edge115" class="edge">
<title>毕业设计（论文）&#45;&gt;电子技术实验2</title>
<path fill="none" stroke="black" d="M990.69,-1548.1C991.49,-1555.79 991.73,-1565.05 991.39,-1573.67"/>
<polygon fill="black" stroke="black" points="987.9,-1573.48 990.71,-1583.7 994.88,-1573.96 987.9,-1573.48"/>
</g>
<!-- 计算机组成 -->
<g id="node36" class="node">
<title>计算机组成</title>
<ellipse fill="none" stroke="black" cx="948.79" cy="-1458" rx="66.89" ry="18"/>
<text text-anchor="middle" x="948.79" y="-1454.3" font-family="Times New Roman,serif" font-size="14.00">计算机组成</text>
</g>
<!-- 毕业设计（论文）&#45;&gt;计算机组成 -->
<g id="edge116" class="edge">
<title>毕业设计（论文）&#45;&gt;计算机组成</title>
<path fill="none" stroke="black" d="M970.2,-1512.05C965.26,-1504.09 960.05,-1494.41 955.85,-1485.51"/>
<polygon fill="black" stroke="black" points="959.01,-1484 951.76,-1476.28 952.61,-1486.84 959.01,-1484"/>
</g>
<!-- 模拟电子技术基础 -->
<g id="node26" class="node">
<title>模拟电子技术基础</title>
<ellipse fill="none" stroke="black" cx="1362.79" cy="-1098" rx="100.98" ry="18"/>
<text text-anchor="middle" x="1362.79" y="-1094.3" font-family="Times New Roman,serif" font-size="14.00">模拟电子技术基础</text>
</g>
<!-- 模拟电子技术基础&#45;&gt;高等数学i2 -->
<g id="edge38" class="edge">
<title>模拟电子技术基础&#45;&gt;高等数学i2</title>
<path fill="none" stroke="black" d="M1382.99,-1080C1409.8,-1055.41 1453.79,-1007.12 1453.79,-955 1453.79,-955 1453.79,-955 1453.79,-881 1453.79,-739.67 1589.08,-709.88 1543.79,-576 1530.89,-537.85 1514.87,-534.68 1488.79,-504 1474.54,-487.23 1233.22,-230.64 1216.79,-216 1204.47,-205.03 1190.01,-193.95 1177.37,-184.77"/>
<polygon fill="black" stroke="black" points="1179.12,-181.73 1168.95,-178.75 1175.05,-187.42 1179.12,-181.73"/>
</g>
<!-- 模拟电子技术基础&#45;&gt;电路 -->
<g id="edge39" class="edge">
<title>模拟电子技术基础&#45;&gt;电路</title>
<path fill="none" stroke="black" d="M1373.77,-1079.84C1389.3,-1053.89 1415.79,-1002.63 1415.79,-955 1415.79,-955 1415.79,-955 1415.79,-881 1415.79,-790.68 1321.21,-717.5 1271.11,-685.07"/>
<polygon fill="black" stroke="black" points="1272.92,-682.08 1262.6,-679.68 1269.17,-687.99 1272.92,-682.08"/>
</g>
<!-- 模拟电子技术基础&#45;&gt;数字逻辑电路 -->
<g id="edge40" class="edge">
<title>模拟电子技术基础&#45;&gt;数字逻辑电路</title>
<path fill="none" stroke="black" d="M1360.55,-1079.78C1352.59,-1023.65 1321.61,-842.53 1239.79,-720 1238.08,-717.44 1158.49,-649.47 1155.79,-648 1121.59,-629.39 1080.06,-616.58 1045.62,-608.22"/>
<polygon fill="black" stroke="black" points="1046.18,-604.75 1035.65,-605.87 1044.58,-611.57 1046.18,-604.75"/>
</g>
<!-- 模拟电子技术基础&#45;&gt;计算机系统综合设计实验 -->
<g id="edge41" class="edge">
<title>模拟电子技术基础&#45;&gt;计算机系统综合设计实验</title>
<path fill="none" stroke="black" d="M1287.37,-1086.02C1204.16,-1073.92 1070.02,-1054.39 978.98,-1041.14"/>
<polygon fill="black" stroke="black" points="979.33,-1037.66 968.93,-1039.68 978.33,-1044.59 979.33,-1037.66"/>
</g>
<!-- 形式语言与编译&#45;&gt;概率统计与随机过程 -->
<g id="edge42" class="edge">
<title>形式语言与编译&#45;&gt;概率统计与随机过程</title>
<path fill="none" stroke="black" d="M1159.53,-1367.72C1157.29,-1348.27 1151.06,-1316.71 1133.79,-1296 1086.55,-1239.36 1007.35,-1206.05 950.34,-1188.25"/>
<polygon fill="black" stroke="black" points="951.27,-1184.87 940.68,-1185.32 949.23,-1191.57 951.27,-1184.87"/>
</g>
<!-- 形式语言与编译&#45;&gt;离散数学a -->
<g id="edge43" class="edge">
<title>形式语言与编译&#45;&gt;离散数学a</title>
<path fill="none" stroke="black" d="M1167.87,-1367.85C1178.1,-1341.49 1195.79,-1289.21 1195.79,-1243 1195.79,-1243 1195.79,-1243 1195.79,-1025 1195.79,-906.2 1147.53,-877.25 1064.79,-792 1051.5,-778.31 1033.95,-766.8 1018.01,-758.05"/>
<polygon fill="black" stroke="black" points="1019.34,-754.79 1008.87,-753.21 1016.07,-760.98 1019.34,-754.79"/>
</g>
<!-- 形式语言与编译&#45;&gt;模拟电子技术基础 -->
<g id="edge44" class="edge">
<title>形式语言与编译&#45;&gt;模拟电子技术基础</title>
<path fill="none" stroke="black" d="M1179.12,-1368.07C1189.07,-1358.21 1201.08,-1345.17 1209.79,-1332 1258.2,-1258.84 1235.66,-1220.24 1290.79,-1152 1300.46,-1140.03 1313.44,-1129.39 1325.71,-1120.83"/>
<polygon fill="black" stroke="black" points="1327.68,-1123.73 1334.04,-1115.25 1323.78,-1117.91 1327.68,-1123.73"/>
</g>
<!-- 形式语言与编译&#45;&gt;编译器设计专题实验 -->
<g id="edge45" class="edge">
<title>形式语言与编译&#45;&gt;编译器设计专题实验</title>
<path fill="none" stroke="black" d="M1110.02,-1371.17C1069.22,-1360.06 1011.67,-1344.38 967.73,-1332.42"/>
<polygon fill="black" stroke="black" points="968.58,-1329.02 958.01,-1329.77 966.74,-1335.77 968.58,-1329.02"/>
</g>
<!-- 操作系统原理i -->
<g id="node29" class="node">
<title>操作系统原理i</title>
<ellipse fill="none" stroke="black" cx="1379.79" cy="-1170" rx="79.89" ry="18"/>
<text text-anchor="middle" x="1379.79" y="-1166.3" font-family="Times New Roman,serif" font-size="14.00">操作系统原理i</text>
</g>
<!-- 形式语言与编译&#45;&gt;操作系统原理i -->
<g id="edge46" class="edge">
<title>形式语言与编译&#45;&gt;操作系统原理i</title>
<path fill="none" stroke="black" d="M1192.71,-1368.96C1209.97,-1359.48 1231.11,-1346.5 1247.79,-1332 1295.62,-1290.42 1339.85,-1230.28 1362.98,-1196.5"/>
<polygon fill="black" stroke="black" points="1365.95,-1198.35 1368.66,-1188.11 1360.15,-1194.43 1365.95,-1198.35"/>
</g>
<!-- 形式语言与编译&#45;&gt;人工智能 -->
<g id="edge47" class="edge">
<title>形式语言与编译&#45;&gt;人工智能</title>
<path fill="none" stroke="black" d="M1139.95,-1368.31C1097.07,-1334.93 994.67,-1260.05 895.79,-1224 836.15,-1202.26 389.97,-1147.38 334.79,-1116 161.1,-1017.21 357.79,-866.82 357.79,-667 357.79,-667 357.79,-667 357.79,-449 357.79,-345.17 345.42,-315.59 374.79,-216 377.58,-206.54 382.23,-196.89 387,-188.45"/>
<polygon fill="black" stroke="black" points="390.02,-190.22 392.14,-179.84 384.01,-186.63 390.02,-190.22"/>
</g>
<!-- 操作系统设计专题实验 -->
<g id="node35" class="node">
<title>操作系统设计专题实验</title>
<ellipse fill="none" stroke="black" cx="763.79" cy="-1242" rx="122.68" ry="18"/>
<text text-anchor="middle" x="763.79" y="-1238.3" font-family="Times New Roman,serif" font-size="14.00">操作系统设计专题实验</text>
</g>
<!-- 编译器设计专题实验&#45;&gt;操作系统设计专题实验 -->
<g id="edge53" class="edge">
<title>编译器设计专题实验&#45;&gt;操作系统设计专题实验</title>
<path fill="none" stroke="black" d="M871.32,-1296.76C851.76,-1286.98 826.65,-1274.43 805.61,-1263.91"/>
<polygon fill="black" stroke="black" points="807.08,-1260.73 796.57,-1259.39 803.95,-1266.99 807.08,-1260.73"/>
</g>
<!-- 操作系统原理i&#45;&gt;电路 -->
<g id="edge77" class="edge">
<title>操作系统原理i&#45;&gt;电路</title>
<path fill="none" stroke="black" d="M1421.39,-1154.39C1439.77,-1145.91 1460.06,-1133.4 1472.79,-1116 1496.67,-1083.36 1491.79,-1067.45 1491.79,-1027 1491.79,-1027 1491.79,-1027 1491.79,-881 1491.79,-770.47 1349.12,-704.97 1278.9,-679.42"/>
<polygon fill="black" stroke="black" points="1279.69,-675.98 1269.1,-675.94 1277.35,-682.58 1279.69,-675.98"/>
</g>
<!-- 操作系统原理i&#45;&gt;汇编语言 -->
<g id="edge79" class="edge">
<title>操作系统原理i&#45;&gt;汇编语言</title>
<path fill="none" stroke="black" d="M1428.78,-1155.74C1451.37,-1147.49 1477.05,-1134.78 1494.79,-1116 1523.97,-1085.1 1529.79,-1069.5 1529.79,-1027 1529.79,-1027 1529.79,-1027 1529.79,-881 1529.79,-752.02 1465.75,-607.25 1437.22,-549.17"/>
<polygon fill="black" stroke="black" points="1440.23,-547.37 1432.65,-539.98 1433.97,-550.49 1440.23,-547.37"/>
</g>
<!-- 操作系统原理i&#45;&gt;软件定义网络 -->
<g id="edge81" class="edge">
<title>操作系统原理i&#45;&gt;软件定义网络</title>
<path fill="none" stroke="black" d="M1444.88,-1159.52C1496.53,-1150.66 1563.05,-1135.82 1581.79,-1116 1629.31,-1065.74 1643.79,-880.16 1643.79,-811 1643.79,-811 1643.79,-811 1643.79,-521 1643.79,-480.98 1645.4,-434.64 1646.57,-406.07"/>
<polygon fill="black" stroke="black" points="1650.07,-406.18 1647,-396.04 1643.08,-405.89 1650.07,-406.18"/>
</g>
<!-- 操作系统原理i&#45;&gt;模拟电子技术基础 -->
<g id="edge78" class="edge">
<title>操作系统原理i&#45;&gt;模拟电子技术基础</title>
<path fill="none" stroke="black" d="M1375.59,-1151.7C1373.69,-1143.9 1371.41,-1134.51 1369.31,-1125.83"/>
<polygon fill="black" stroke="black" points="1372.71,-1125 1366.94,-1116.1 1365.9,-1126.65 1372.71,-1125"/>
</g>
<!-- 计算机网络原理 -->
<g id="node33" class="node">
<title>计算机网络原理</title>
<ellipse fill="none" stroke="black" cx="368.79" cy="-1026" rx="89.08" ry="18"/>
<text text-anchor="middle" x="368.79" y="-1022.3" font-family="Times New Roman,serif" font-size="14.00">计算机网络原理</text>
</g>
<!-- 操作系统原理i&#45;&gt;计算机网络原理 -->
<g id="edge80" class="edge">
<title>操作系统原理i&#45;&gt;计算机网络原理</title>
<path fill="none" stroke="black" d="M1302.5,-1165.38C1063.29,-1154.15 350.91,-1120.33 346.79,-1116 330.8,-1099.16 340.18,-1072.61 351.21,-1052.89"/>
<polygon fill="black" stroke="black" points="354.34,-1054.47 356.48,-1044.09 348.33,-1050.87 354.34,-1054.47"/>
</g>
<!-- 电子技术实验1 -->
<g id="node31" class="node">
<title>电子技术实验1</title>
<ellipse fill="none" stroke="black" cx="984.79" cy="-1674" rx="82.59" ry="18"/>
<text text-anchor="middle" x="984.79" y="-1670.3" font-family="Times New Roman,serif" font-size="14.00">电子技术实验1</text>
</g>
<!-- 电子技术实验1&#45;&gt;汇编语言 -->
<g id="edge50" class="edge">
<title>电子技术实验1&#45;&gt;汇编语言</title>
<path fill="none" stroke="black" d="M1067.59,-1672.79C1183.42,-1670.89 1399.75,-1661.43 1578.79,-1620 1680.35,-1596.5 1795.79,-1635.24 1795.79,-1531 1795.79,-1531 1795.79,-1531 1795.79,-1241 1795.79,-936.39 1528.56,-632.35 1447.09,-546.73"/>
<polygon fill="black" stroke="black" points="1449.46,-544.15 1440.01,-539.36 1444.41,-549 1449.46,-544.15"/>
</g>
<!-- 电子技术实验1&#45;&gt;模拟电子技术基础 -->
<g id="edge48" class="edge">
<title>电子技术实验1&#45;&gt;模拟电子技术基础</title>
<path fill="none" stroke="black" d="M1061.02,-1666.97C1256.04,-1650.52 1757.79,-1601.36 1757.79,-1531 1757.79,-1531 1757.79,-1531 1757.79,-1313 1757.79,-1177.34 1575.46,-1127.24 1458.55,-1109.05"/>
<polygon fill="black" stroke="black" points="1458.91,-1105.57 1448.5,-1107.54 1457.87,-1112.49 1458.91,-1105.57"/>
</g>
<!-- 电子技术实验1&#45;&gt;电子技术实验2 -->
<g id="edge49" class="edge">
<title>电子技术实验1&#45;&gt;电子技术实验2</title>
<path fill="none" stroke="black" d="M978.87,-1655.7C978.08,-1647.98 977.85,-1638.71 978.19,-1630.11"/>
<polygon fill="black" stroke="black" points="981.69,-1630.32 978.9,-1620.1 974.71,-1629.84 981.69,-1630.32"/>
</g>
<!-- 电子技术实验1&#45;&gt;计算机网络原理 -->
<g id="edge51" class="edge">
<title>电子技术实验1&#45;&gt;计算机网络原理</title>
<path fill="none" stroke="black" d="M908.75,-1666.95C714.24,-1650.45 213.79,-1601.18 213.79,-1531 213.79,-1531 213.79,-1531 213.79,-1313 213.79,-1204.62 300.89,-1098.02 344.5,-1051.43"/>
<polygon fill="black" stroke="black" points="347.25,-1053.62 351.61,-1043.96 342.18,-1048.79 347.25,-1053.62"/>
</g>
<!-- 电子技术实验1&#45;&gt;计算机网络专题实验 -->
<g id="edge52" class="edge">
<title>电子技术实验1&#45;&gt;计算机网络专题实验</title>
<path fill="none" stroke="black" d="M904.51,-1669.55C673.54,-1658.56 23.79,-1619.75 23.79,-1531 23.79,-1531 23.79,-1531 23.79,-521 23.79,-474.01 59.03,-429.63 84.91,-403.37"/>
<polygon fill="black" stroke="black" points="87.59,-405.65 92.26,-396.14 82.68,-400.66 87.59,-405.65"/>
</g>
<!-- 电子技术实验2&#45;&gt;数据结构与程序设计专题实验 -->
<g id="edge56" class="edge">
<title>电子技术实验2&#45;&gt;数据结构与程序设计专题实验</title>
<path fill="none" stroke="black" d="M1059.65,-1594.37C1246.74,-1576.78 1719.79,-1525.73 1719.79,-1459 1719.79,-1459 1719.79,-1459 1719.79,-1313 1719.79,-1216.4 1757.79,-1195.6 1757.79,-1099 1757.79,-1099 1757.79,-1099 1757.79,-377 1757.79,-314.17 1689.81,-275.33 1636.27,-254.49"/>
<polygon fill="black" stroke="black" points="1637.39,-251.17 1626.8,-250.93 1634.93,-257.72 1637.39,-251.17"/>
</g>
<!-- 电子技术实验2&#45;&gt;数字逻辑电路 -->
<g id="edge59" class="edge">
<title>电子技术实验2&#45;&gt;数字逻辑电路</title>
<path fill="none" stroke="black" d="M1066.8,-1599.38C1163.08,-1592.6 1309.79,-1564.91 1309.79,-1459 1309.79,-1459 1309.79,-1459 1309.79,-1313 1309.79,-1221.85 1276.35,-1204.05 1252.79,-1116 1222.98,-1004.58 1225.54,-973.98 1190.79,-864 1169.23,-795.77 1159.73,-778.69 1118.79,-720 1095.44,-686.53 1092.22,-675.2 1061.79,-648 1048.15,-635.81 1031.37,-624.69 1016.34,-615.82"/>
<polygon fill="black" stroke="black" points="1017.66,-612.54 1007.24,-610.6 1014.17,-618.61 1017.66,-612.54"/>
</g>
<!-- 电子技术实验2&#45;&gt;数据结构与算法i -->
<g id="edge54" class="edge">
<title>电子技术实验2&#45;&gt;数据结构与算法i</title>
<path fill="none" stroke="black" d="M904.2,-1597.84C835.74,-1592.88 735.95,-1580.23 654.79,-1548 589.37,-1522.02 523.79,-1529.39 523.79,-1459 523.79,-1459 523.79,-1459 523.79,-1241 523.79,-1159.88 624.59,-1190.46 656.79,-1116 663.14,-1101.31 661.98,-1095.13 656.79,-1080 650.21,-1060.83 638.38,-1061.86 628.79,-1044 618.16,-1024.22 610.28,-999.96 605.28,-981.77"/>
<polygon fill="black" stroke="black" points="608.66,-980.87 602.72,-972.09 601.89,-982.66 608.66,-980.87"/>
</g>
<!-- 电子技术实验2&#45;&gt;计算机组成与结构专题实验 -->
<g id="edge60" class="edge">
<title>电子技术实验2&#45;&gt;计算机组成与结构专题实验</title>
<path fill="none" stroke="black" d="M905.26,-1596.97C777.83,-1589.81 539.15,-1573.2 509.79,-1548 478.7,-1521.32 485.79,-1499.97 485.79,-1459 485.79,-1459 485.79,-1459 485.79,-1241 485.79,-1200.96 492.15,-1154.97 496.85,-1126.45"/>
<polygon fill="black" stroke="black" points="500.33,-1126.86 498.55,-1116.42 493.43,-1125.69 500.33,-1126.86"/>
</g>
<!-- 电子技术实验2&#45;&gt;计算机系统综合设计实验 -->
<g id="edge61" class="edge">
<title>电子技术实验2&#45;&gt;计算机系统综合设计实验</title>
<path fill="none" stroke="black" d="M921.52,-1590.37C815.1,-1570.67 611.79,-1524.48 611.79,-1459 611.79,-1459 611.79,-1459 611.79,-1385 611.79,-1312.89 596.37,-1286.81 631.79,-1224 679.46,-1139.48 779.36,-1078.22 837.41,-1048.08"/>
<polygon fill="black" stroke="black" points="839.04,-1051.17 846.36,-1043.51 835.86,-1044.94 839.04,-1051.17"/>
</g>
<!-- 电子技术实验2&#45;&gt;离散数学a -->
<g id="edge55" class="edge">
<title>电子技术实验2&#45;&gt;离散数学a</title>
<path fill="none" stroke="black" d="M904.29,-1597.78C782.42,-1592.02 557.4,-1577.68 482.79,-1548 335.76,-1489.52 269.95,-1473.82 199.79,-1332 135.93,-1202.93 123.58,-1130.18 199.79,-1008 278.91,-881.14 748.77,-781.78 916.96,-749.86"/>
<polygon fill="black" stroke="black" points="917.7,-753.28 926.88,-747.98 916.41,-746.4 917.7,-753.28"/>
</g>
<!-- 电子技术实验2&#45;&gt;毕业设计（论文） -->
<g id="edge62" class="edge">
<title>电子技术实验2&#45;&gt;毕业设计（论文）</title>
<path fill="none" stroke="black" d="M978.87,-1583.7C978.08,-1575.98 977.85,-1566.71 978.19,-1558.11"/>
<polygon fill="black" stroke="black" points="981.69,-1558.32 978.9,-1548.1 974.71,-1557.84 981.69,-1558.32"/>
</g>
<!-- 电子技术实验2&#45;&gt;形式语言与编译 -->
<g id="edge57" class="edge">
<title>电子技术实验2&#45;&gt;形式语言与编译</title>
<path fill="none" stroke="black" d="M1031.82,-1587.06C1053.35,-1578.68 1077.79,-1566.06 1094.79,-1548 1130.83,-1509.73 1148.37,-1449.11 1155.91,-1414.2"/>
<polygon fill="black" stroke="black" points="1159.37,-1414.74 1157.93,-1404.24 1152.51,-1413.34 1159.37,-1414.74"/>
</g>
<!-- 电子技术实验2&#45;&gt;电子技术实验1 -->
<g id="edge58" class="edge">
<title>电子技术实验2&#45;&gt;电子技术实验1</title>
<path fill="none" stroke="black" d="M990.69,-1620.1C991.49,-1627.79 991.73,-1637.05 991.39,-1645.67"/>
<polygon fill="black" stroke="black" points="987.9,-1645.48 990.71,-1655.7 994.88,-1645.96 987.9,-1645.48"/>
</g>
<!-- 计算机网络原理&#45;&gt;数据库系统 -->
<g id="edge85" class="edge">
<title>计算机网络原理&#45;&gt;数据库系统</title>
<path fill="none" stroke="black" d="M364.78,-1007.97C353.08,-956.74 319.79,-799.37 319.79,-667 319.79,-667 319.79,-667 319.79,-449 319.79,-369.9 385.7,-295.34 424.02,-258.68"/>
<polygon fill="black" stroke="black" points="426.84,-260.84 431.74,-251.45 422.05,-255.73 426.84,-260.84"/>
</g>
<!-- 计算机网络原理&#45;&gt;程序设计基础 -->
<g id="edge82" class="edge">
<title>计算机网络原理&#45;&gt;程序设计基础</title>
<path fill="none" stroke="black" d="M374.45,-1007.86C397.07,-938.76 479.79,-680.2 479.79,-595 479.79,-595 479.79,-595 479.79,-521 479.79,-432.89 592.38,-399.41 673.74,-386.71"/>
<polygon fill="black" stroke="black" points="674.61,-390.12 683.99,-385.19 673.59,-383.19 674.61,-390.12"/>
</g>
<!-- 计算机网络原理&#45;&gt;数据结构与算法i -->
<g id="edge83" class="edge">
<title>计算机网络原理&#45;&gt;数据结构与算法i</title>
<path fill="none" stroke="black" d="M415.89,-1010.67C452.36,-999.57 503.02,-984.15 541.78,-972.35"/>
<polygon fill="black" stroke="black" points="542.81,-975.7 551.36,-969.44 540.77,-969 542.81,-975.7"/>
</g>
<!-- 计算机网络原理&#45;&gt;离散数学a -->
<g id="edge84" class="edge">
<title>计算机网络原理&#45;&gt;离散数学a</title>
<path fill="none" stroke="black" d="M388.48,-1008.27C411.79,-989.05 452.3,-957.41 490.79,-936 642.24,-851.74 837.19,-783.86 927.2,-754.59"/>
<polygon fill="black" stroke="black" points="928.43,-757.87 936.87,-751.47 926.28,-751.21 928.43,-757.87"/>
</g>
<!-- 计算机网络原理&#45;&gt;计算机网络专题实验 -->
<g id="edge86" class="edge">
<title>计算机网络原理&#45;&gt;计算机网络专题实验</title>
<path fill="none" stroke="black" d="M347.73,-1008.28C336.55,-998.59 323.21,-985.64 313.79,-972 249.73,-879.29 213.79,-851.69 213.79,-739 213.79,-739 213.79,-739 213.79,-521 213.79,-471.54 172.47,-427.52 142.43,-402.04"/>
<polygon fill="black" stroke="black" points="144.63,-399.32 134.68,-395.67 140.18,-404.73 144.63,-399.32"/>
</g>
<!-- 计算机网络专题实验&#45;&gt;数据库系统 -->
<g id="edge99" class="edge">
<title>计算机网络专题实验&#45;&gt;数据库系统</title>
<path fill="none" stroke="black" d="M130.88,-360.03C154.41,-339.98 196.39,-306.96 237.79,-288 284.14,-266.78 340.21,-253.26 383.19,-245.19"/>
<polygon fill="black" stroke="black" points="384.05,-248.59 393.26,-243.36 382.8,-241.71 384.05,-248.59"/>
</g>
<!-- 操作系统设计专题实验&#45;&gt;数据库系统 -->
<g id="edge90" class="edge">
<title>操作系统设计专题实验&#45;&gt;数据库系统</title>
<path fill="none" stroke="black" d="M697.59,-1226.79C560.38,-1197.14 256.14,-1130.22 237.79,-1116 101.38,-1010.29 251.79,-708.69 251.79,-667 251.79,-667 251.79,-667 251.79,-377 251.79,-307.04 334.28,-268.31 393.04,-249.59"/>
<polygon fill="black" stroke="black" points="394.09,-252.93 402.62,-246.64 392.03,-246.24 394.09,-252.93"/>
</g>
<!-- 操作系统设计专题实验&#45;&gt;概率统计与随机过程 -->
<g id="edge87" class="edge">
<title>操作系统设计专题实验&#45;&gt;概率统计与随机过程</title>
<path fill="none" stroke="black" d="M791.75,-1224.41C807.77,-1214.91 828.06,-1202.88 845.32,-1192.64"/>
<polygon fill="black" stroke="black" points="847.21,-1195.58 854.03,-1187.47 843.64,-1189.56 847.21,-1195.58"/>
</g>
<!-- 操作系统设计专题实验&#45;&gt;数据结构与算法i -->
<g id="edge88" class="edge">
<title>操作系统设计专题实验&#45;&gt;数据结构与算法i</title>
<path fill="none" stroke="black" d="M757.77,-1223.69C746.77,-1193.23 721.59,-1128.67 689.79,-1080 678.08,-1062.08 670.85,-1060.96 657.79,-1044 642,-1023.48 625.88,-998.87 614.49,-980.73"/>
<polygon fill="black" stroke="black" points="617.24,-978.53 608.99,-971.89 611.3,-982.23 617.24,-978.53"/>
</g>
<!-- 操作系统设计专题实验&#45;&gt;操作系统原理i -->
<g id="edge89" class="edge">
<title>操作系统设计专题实验&#45;&gt;操作系统原理i</title>
<path fill="none" stroke="black" d="M857.68,-1230.33C978.48,-1216.6 1186.26,-1192.99 1299.87,-1180.08"/>
<polygon fill="black" stroke="black" points="1300.35,-1183.55 1309.89,-1178.94 1299.56,-1176.59 1300.35,-1183.55"/>
</g>
<!-- 操作系统设计专题实验&#45;&gt;计算机网络专题实验 -->
<g id="edge91" class="edge">
<title>操作系统设计专题实验&#45;&gt;计算机网络专题实验</title>
<path fill="none" stroke="black" d="M669.01,-1230.5C485.55,-1207.52 99.79,-1145.16 99.79,-1027 99.79,-1027 99.79,-1027 99.79,-521 99.79,-480.85 104.61,-434.55 108.14,-406.02"/>
<polygon fill="black" stroke="black" points="111.63,-406.37 109.42,-396.01 104.68,-405.49 111.63,-406.37"/>
</g>
<!-- 计算机组成&#45;&gt;数字逻辑电路 -->
<g id="edge71" class="edge">
<title>计算机组成&#45;&gt;数字逻辑电路</title>
<path fill="none" stroke="black" d="M962.12,-1440.24C1003.78,-1386.6 1131.21,-1212.76 1171.79,-1044 1190.49,-966.22 1196.47,-940.1 1171.79,-864 1137.98,-759.75 1046.93,-662.06 1002.24,-618.63"/>
<polygon fill="black" stroke="black" points="1004.61,-616.05 994.97,-611.64 999.76,-621.09 1004.61,-616.05"/>
</g>
<!-- 计算机组成&#45;&gt;毕业设计（论文） -->
<g id="edge76" class="edge">
<title>计算机组成&#45;&gt;毕业设计（论文）</title>
<path fill="none" stroke="black" d="M963.18,-1475.62C968.16,-1483.61 973.43,-1493.38 977.67,-1502.37"/>
<polygon fill="black" stroke="black" points="974.55,-1503.97 981.81,-1511.7 980.95,-1501.14 974.55,-1503.97"/>
</g>
<!-- 计算机组成&#45;&gt;形式语言与编译 -->
<g id="edge70" class="edge">
<title>计算机组成&#45;&gt;形式语言与编译</title>
<path fill="none" stroke="black" d="M989.67,-1443.5C1022.88,-1432.54 1070.02,-1416.97 1106.42,-1404.95"/>
<polygon fill="black" stroke="black" points="1107.98,-1408.12 1116.38,-1401.66 1105.79,-1401.48 1107.98,-1408.12"/>
</g>
<!-- 计算机组成&#45;&gt;操作系统原理i -->
<g id="edge72" class="edge">
<title>计算机组成&#45;&gt;操作系统原理i</title>
<path fill="none" stroke="black" d="M1013.05,-1452.71C1092.11,-1446.3 1220.59,-1431.89 1258.79,-1404 1329.27,-1352.55 1362.01,-1247.74 1374.03,-1198.16"/>
<polygon fill="black" stroke="black" points="1377.5,-1198.71 1376.35,-1188.18 1370.68,-1197.12 1377.5,-1198.71"/>
</g>
<!-- 计算机组成&#45;&gt;计算机网络原理 -->
<g id="edge73" class="edge">
<title>计算机组成&#45;&gt;计算机网络原理</title>
<path fill="none" stroke="black" d="M908.13,-1443.68C879.97,-1433.93 841.93,-1419.71 809.79,-1404 698.89,-1349.79 395.36,-1223.56 334.79,-1116 323.35,-1095.69 334.81,-1070.77 347.43,-1052.47"/>
<polygon fill="black" stroke="black" points="350.5,-1054.19 353.62,-1044.06 344.87,-1050.04 350.5,-1054.19"/>
</g>
<!-- 计算机组成&#45;&gt;计算机网络专题实验 -->
<g id="edge75" class="edge">
<title>计算机组成&#45;&gt;计算机网络专题实验</title>
<path fill="none" stroke="black" d="M882.12,-1455.53C675.84,-1447.13 61.79,-1391.52 61.79,-1027 61.79,-1027 61.79,-1027 61.79,-521 61.79,-478.68 81.79,-433.09 96.49,-405.3"/>
<polygon fill="black" stroke="black" points="99.72,-406.7 101.43,-396.24 93.57,-403.35 99.72,-406.7"/>
</g>
<!-- 计算机组成&#45;&gt;操作系统设计专题实验 -->
<g id="edge74" class="edge">
<title>计算机组成&#45;&gt;操作系统设计专题实验</title>
<path fill="none" stroke="black" d="M917.01,-1442.01C878.89,-1422.31 815.97,-1384.01 782.79,-1332 771,-1313.52 766.41,-1288.92 764.68,-1270.27"/>
<polygon fill="black" stroke="black" points="768.15,-1269.8 763.95,-1260.07 761.17,-1270.29 768.15,-1269.8"/>
</g>
<!-- 计算机图形学&#45;&gt;面向对象程序设计 -->
<g id="edge97" class="edge">
<title>计算机图形学&#45;&gt;面向对象程序设计</title>
<path fill="none" stroke="black" d="M992.84,-941.11C1102.94,-913.74 1339.79,-835.31 1339.79,-667 1339.79,-667 1339.79,-667 1339.79,-521 1339.79,-384.6 1348.75,-350.08 1373.79,-216 1375.39,-207.45 1377.63,-198.25 1379.85,-189.95"/>
<polygon fill="black" stroke="black" points="1383.3,-190.61 1382.6,-180.04 1376.55,-188.74 1383.3,-190.61"/>
</g>
</g>
</svg>
