<?xml version="1.0" encoding="UTF-8" standalone="no"?>
<!DOCTYPE svg PUBLIC "-//W3C//DTD SVG 1.1//EN"
 "http://www.w3.org/Graphics/SVG/1.1/DTD/svg11.dtd">
<!-- Generated by graphviz version 2.46.0 (20210118.1747)
 -->
<!-- Pages: 1 -->
<svg width="4589pt" height="260pt"
 viewBox="0.00 0.00 4589.49 260.00" xmlns="http://www.w3.org/2000/svg" xmlns:xlink="http://www.w3.org/1999/xlink">
<g id="graph0" class="graph" transform="scale(1 1) rotate(0) translate(4 256)">
<polygon fill="white" stroke="transparent" points="-4,4 -4,-256 4585.49,-256 4585.49,4 -4,4"/>
<!-- 高等数学i1 -->
<g id="node1" class="node">
<title>高等数学i1</title>
<ellipse fill="none" stroke="black" cx="61.74" cy="-162" rx="61.99" ry="18"/>
<text text-anchor="middle" x="61.74" y="-158.3" font-family="Times New Roman,serif" font-size="14.00">高等数学i1</text>
</g>
<!-- 工程制图iii -->
<g id="node2" class="node">
<title>工程制图iii</title>
<ellipse fill="none" stroke="black" cx="63.74" cy="-90" rx="61.99" ry="18"/>
<text text-anchor="middle" x="63.74" y="-86.3" font-family="Times New Roman,serif" font-size="14.00">工程制图iii</text>
</g>
<!-- 高等数学i1&#45;&gt;工程制图iii -->
<g id="edge1" class="edge">
<title>高等数学i1&#45;&gt;工程制图iii</title>
<path fill="none" stroke="black" d="M62.24,-143.7C62.46,-135.98 62.72,-126.71 62.97,-118.11"/>
<polygon fill="black" stroke="black" points="66.47,-118.2 63.26,-108.1 59.47,-118 66.47,-118.2"/>
</g>
<!-- 大学物理实验i1 -->
<g id="node6" class="node">
<title>大学物理实验i1</title>
<ellipse fill="none" stroke="black" cx="108.74" cy="-18" rx="84.49" ry="18"/>
<text text-anchor="middle" x="108.74" y="-14.3" font-family="Times New Roman,serif" font-size="14.00">大学物理实验i1</text>
</g>
<!-- 工程制图iii&#45;&gt;大学物理实验i1 -->
<g id="edge7" class="edge">
<title>工程制图iii&#45;&gt;大学物理实验i1</title>
<path fill="none" stroke="black" d="M74.64,-72.05C79.87,-63.92 86.25,-54 92.07,-44.94"/>
<polygon fill="black" stroke="black" points="95.18,-46.58 97.64,-36.28 89.29,-42.79 95.18,-46.58"/>
</g>
<!-- 大学物理ii1 -->
<g id="node3" class="node">
<title>大学物理ii1</title>
<ellipse fill="none" stroke="black" cx="778.74" cy="-234" rx="63.89" ry="18"/>
<text text-anchor="middle" x="778.74" y="-230.3" font-family="Times New Roman,serif" font-size="14.00">大学物理ii1</text>
</g>
<!-- 大学物理ii2 -->
<g id="node4" class="node">
<title>大学物理ii2</title>
<ellipse fill="none" stroke="black" cx="1636.74" cy="-162" rx="63.89" ry="18"/>
<text text-anchor="middle" x="1636.74" y="-158.3" font-family="Times New Roman,serif" font-size="14.00">大学物理ii2</text>
</g>
<!-- 大学物理ii1&#45;&gt;大学物理ii2 -->
<g id="edge2" class="edge">
<title>大学物理ii1&#45;&gt;大学物理ii2</title>
<path fill="none" stroke="black" d="M826.39,-222.02C837.91,-219.7 850.22,-217.51 861.74,-216 1134.55,-180.3 1205.56,-202.82 1479.74,-180 1509.19,-177.55 1541.66,-174.15 1569.4,-171.03"/>
<polygon fill="black" stroke="black" points="1569.85,-174.51 1579.39,-169.9 1569.06,-167.55 1569.85,-174.51"/>
</g>
<!-- 高等数学i2 -->
<g id="node5" class="node">
<title>高等数学i2</title>
<ellipse fill="none" stroke="black" cx="82.74" cy="-234" rx="61.99" ry="18"/>
<text text-anchor="middle" x="82.74" y="-230.3" font-family="Times New Roman,serif" font-size="14.00">高等数学i2</text>
</g>
<!-- 高等数学i2&#45;&gt;高等数学i1 -->
<g id="edge3" class="edge">
<title>高等数学i2&#45;&gt;高等数学i1</title>
<path fill="none" stroke="black" d="M77.66,-216.05C75.32,-208.26 72.49,-198.82 69.87,-190.08"/>
<polygon fill="black" stroke="black" points="73.15,-188.85 66.93,-180.28 66.45,-190.86 73.15,-188.85"/>
</g>
<!-- 高等数学i2&#45;&gt;大学物理实验i1 -->
<g id="edge4" class="edge">
<title>高等数学i2&#45;&gt;大学物理实验i1</title>
<path fill="none" stroke="black" d="M103.88,-217.05C114.64,-207.59 126.7,-194.61 132.74,-180 151.09,-135.63 145.6,-118.77 134.74,-72 132.59,-62.72 128.57,-53.18 124.32,-44.81"/>
<polygon fill="black" stroke="black" points="127.35,-43.05 119.52,-35.92 121.19,-46.38 127.35,-43.05"/>
</g>
<!-- 程序设计基础 -->
<g id="node7" class="node">
<title>程序设计基础</title>
<ellipse fill="none" stroke="black" cx="258.74" cy="-234" rx="77.99" ry="18"/>
<text text-anchor="middle" x="258.74" y="-230.3" font-family="Times New Roman,serif" font-size="14.00">程序设计基础</text>
</g>
<!-- 数据结构与算法i -->
<g id="node8" class="node">
<title>数据结构与算法i</title>
<ellipse fill="none" stroke="black" cx="359.74" cy="-90" rx="90.98" ry="18"/>
<text text-anchor="middle" x="359.74" y="-86.3" font-family="Times New Roman,serif" font-size="14.00">数据结构与算法i</text>
</g>
<!-- 程序设计基础&#45;&gt;数据结构与算法i -->
<g id="edge5" class="edge">
<title>程序设计基础&#45;&gt;数据结构与算法i</title>
<path fill="none" stroke="black" d="M270.27,-216.18C282.63,-198.21 302.87,-168.96 320.74,-144 327.23,-134.94 334.43,-125.1 340.86,-116.38"/>
<polygon fill="black" stroke="black" points="343.85,-118.22 346.99,-108.1 338.22,-114.06 343.85,-118.22"/>
</g>
<!-- 离散数学a -->
<g id="node9" class="node">
<title>离散数学a</title>
<ellipse fill="none" stroke="black" cx="389.74" cy="-162" rx="59.59" ry="18"/>
<text text-anchor="middle" x="389.74" y="-158.3" font-family="Times New Roman,serif" font-size="14.00">离散数学a</text>
</g>
<!-- 程序设计基础&#45;&gt;离散数学a -->
<g id="edge6" class="edge">
<title>程序设计基础&#45;&gt;离散数学a</title>
<path fill="none" stroke="black" d="M288.14,-217.29C307.25,-207.08 332.3,-193.69 352.76,-182.77"/>
<polygon fill="black" stroke="black" points="354.62,-185.74 361.79,-177.94 351.32,-179.56 354.62,-185.74"/>
</g>
<!-- 数据结构与算法i&#45;&gt;大学物理实验i1 -->
<g id="edge9" class="edge">
<title>数据结构与算法i&#45;&gt;大学物理实验i1</title>
<path fill="none" stroke="black" d="M309.25,-74.92C268.35,-63.51 210.65,-47.42 167.64,-35.43"/>
<polygon fill="black" stroke="black" points="168.45,-32.02 157.87,-32.7 166.57,-38.76 168.45,-32.02"/>
</g>
<!-- 离散数学a&#45;&gt;数据结构与算法i -->
<g id="edge10" class="edge">
<title>离散数学a&#45;&gt;数据结构与算法i</title>
<path fill="none" stroke="black" d="M382.48,-144.05C379.07,-136.09 374.92,-126.41 371.11,-117.51"/>
<polygon fill="black" stroke="black" points="374.3,-116.09 367.15,-108.28 367.87,-118.85 374.3,-116.09"/>
</g>
<!-- 电路 -->
<g id="node10" class="node">
<title>电路</title>
<ellipse fill="none" stroke="black" cx="466.74" cy="-234" rx="33.29" ry="18"/>
<text text-anchor="middle" x="466.74" y="-230.3" font-family="Times New Roman,serif" font-size="14.00">电路</text>
</g>
<!-- 电路&#45;&gt;离散数学a -->
<g id="edge8" class="edge">
<title>电路&#45;&gt;离散数学a</title>
<path fill="none" stroke="black" d="M450.41,-218.15C440.23,-208.89 426.9,-196.78 415.33,-186.26"/>
<polygon fill="black" stroke="black" points="417.42,-183.43 407.66,-179.29 412.71,-188.61 417.42,-183.43"/>
</g>
<!-- 概率统计与随机过程 -->
<g id="node11" class="node">
<title>概率统计与随机过程</title>
<ellipse fill="none" stroke="black" cx="1112.74" cy="-234" rx="111.58" ry="18"/>
<text text-anchor="middle" x="1112.74" y="-230.3" font-family="Times New Roman,serif" font-size="14.00">概率统计与随机过程</text>
</g>
<!-- 大学物理实验i2 -->
<g id="node12" class="node">
<title>大学物理实验i2</title>
<ellipse fill="none" stroke="black" cx="1386.74" cy="-162" rx="84.49" ry="18"/>
<text text-anchor="middle" x="1386.74" y="-158.3" font-family="Times New Roman,serif" font-size="14.00">大学物理实验i2</text>
</g>
<!-- 大学物理实验i2&#45;&gt;大学物理实验i1 -->
<g id="edge11" class="edge">
<title>大学物理实验i2&#45;&gt;大学物理实验i1</title>
<path fill="none" stroke="black" d="M1313.44,-152.86C1091.33,-128.18 426.63,-54.32 191.93,-28.24"/>
<polygon fill="black" stroke="black" points="192.07,-24.74 181.75,-27.11 191.3,-31.69 192.07,-24.74"/>
</g>
<!-- 数据结构与程序设计专题实验 -->
<g id="node13" class="node">
<title>数据结构与程序设计专题实验</title>
<ellipse fill="none" stroke="black" cx="959.74" cy="-162" rx="156.77" ry="18"/>
<text text-anchor="middle" x="959.74" y="-158.3" font-family="Times New Roman,serif" font-size="14.00">数据结构与程序设计专题实验</text>
</g>
<!-- 数据结构与程序设计专题实验&#45;&gt;数据结构与算法i -->
<g id="edge12" class="edge">
<title>数据结构与程序设计专题实验&#45;&gt;数据结构与算法i</title>
<path fill="none" stroke="black" d="M854.2,-148.69C738.24,-135.16 554.15,-113.68 446.33,-101.1"/>
<polygon fill="black" stroke="black" points="446.48,-97.6 436.14,-99.91 445.67,-104.55 446.48,-97.6"/>
</g>
<!-- 面向对象程序设计 -->
<g id="node14" class="node">
<title>面向对象程序设计</title>
<ellipse fill="none" stroke="black" cx="1343.74" cy="-234" rx="100.98" ry="18"/>
<text text-anchor="middle" x="1343.74" y="-230.3" font-family="Times New Roman,serif" font-size="14.00">面向对象程序设计</text>
</g>
<!-- 模拟电子技术基础 -->
<g id="node15" class="node">
<title>模拟电子技术基础</title>
<ellipse fill="none" stroke="black" cx="1562.74" cy="-234" rx="100.98" ry="18"/>
<text text-anchor="middle" x="1562.74" y="-230.3" font-family="Times New Roman,serif" font-size="14.00">模拟电子技术基础</text>
</g>
<!-- 电子技术实验1 -->
<g id="node16" class="node">
<title>电子技术实验1</title>
<ellipse fill="none" stroke="black" cx="1763.74" cy="-234" rx="82.59" ry="18"/>
<text text-anchor="middle" x="1763.74" y="-230.3" font-family="Times New Roman,serif" font-size="14.00">电子技术实验1</text>
</g>
<!-- 编译器设计专题实验 -->
<g id="node17" class="node">
<title>编译器设计专题实验</title>
<ellipse fill="none" stroke="black" cx="1975.74" cy="-234" rx="111.58" ry="18"/>
<text text-anchor="middle" x="1975.74" y="-230.3" font-family="Times New Roman,serif" font-size="14.00">编译器设计专题实验</text>
</g>
<!-- 数字逻辑电路 -->
<g id="node18" class="node">
<title>数字逻辑电路</title>
<ellipse fill="none" stroke="black" cx="2183.74" cy="-234" rx="77.99" ry="18"/>
<text text-anchor="middle" x="2183.74" y="-230.3" font-family="Times New Roman,serif" font-size="14.00">数字逻辑电路</text>
</g>
<!-- 数学建模ii -->
<g id="node19" class="node">
<title>数学建模ii</title>
<ellipse fill="none" stroke="black" cx="617.74" cy="-234" rx="59.59" ry="18"/>
<text text-anchor="middle" x="617.74" y="-230.3" font-family="Times New Roman,serif" font-size="14.00">数学建模ii</text>
</g>
<!-- 数学建模ii&#45;&gt;离散数学a -->
<g id="edge13" class="edge">
<title>数学建模ii&#45;&gt;离散数学a</title>
<path fill="none" stroke="black" d="M577.51,-220.65C539.04,-208.84 480.94,-191 439.57,-178.3"/>
<polygon fill="black" stroke="black" points="440.55,-174.94 429.96,-175.35 438.49,-181.63 440.55,-174.94"/>
</g>
<!-- 数理逻辑 -->
<g id="node20" class="node">
<title>数理逻辑</title>
<ellipse fill="none" stroke="black" cx="2335.74" cy="-234" rx="55.79" ry="18"/>
<text text-anchor="middle" x="2335.74" y="-230.3" font-family="Times New Roman,serif" font-size="14.00">数理逻辑</text>
</g>
<!-- 线性代数与解析几何ii -->
<g id="node21" class="node">
<title>线性代数与解析几何ii</title>
<ellipse fill="none" stroke="black" cx="2324.74" cy="-162" rx="115.88" ry="18"/>
<text text-anchor="middle" x="2324.74" y="-158.3" font-family="Times New Roman,serif" font-size="14.00">线性代数与解析几何ii</text>
</g>
<!-- 数理逻辑&#45;&gt;线性代数与解析几何ii -->
<g id="edge14" class="edge">
<title>数理逻辑&#45;&gt;线性代数与解析几何ii</title>
<path fill="none" stroke="black" d="M2333.03,-215.7C2331.81,-207.98 2330.36,-198.71 2329.01,-190.11"/>
<polygon fill="black" stroke="black" points="2332.44,-189.44 2327.43,-180.1 2325.53,-190.53 2332.44,-189.44"/>
</g>
<!-- 计算机组成 -->
<g id="node22" class="node">
<title>计算机组成</title>
<ellipse fill="none" stroke="black" cx="2476.74" cy="-234" rx="66.89" ry="18"/>
<text text-anchor="middle" x="2476.74" y="-230.3" font-family="Times New Roman,serif" font-size="14.00">计算机组成</text>
</g>
<!-- 操作系统原理i -->
<g id="node23" class="node">
<title>操作系统原理i</title>
<ellipse fill="none" stroke="black" cx="2641.74" cy="-234" rx="79.89" ry="18"/>
<text text-anchor="middle" x="2641.74" y="-230.3" font-family="Times New Roman,serif" font-size="14.00">操作系统原理i</text>
</g>
<!-- 计算机网络原理 -->
<g id="node24" class="node">
<title>计算机网络原理</title>
<ellipse fill="none" stroke="black" cx="2828.74" cy="-234" rx="89.08" ry="18"/>
<text text-anchor="middle" x="2828.74" y="-230.3" font-family="Times New Roman,serif" font-size="14.00">计算机网络原理</text>
</g>
<!-- 形式语言与编译 -->
<g id="node25" class="node">
<title>形式语言与编译</title>
<ellipse fill="none" stroke="black" cx="2687.74" cy="-162" rx="89.08" ry="18"/>
<text text-anchor="middle" x="2687.74" y="-158.3" font-family="Times New Roman,serif" font-size="14.00">形式语言与编译</text>
</g>
<!-- 计算机网络原理&#45;&gt;形式语言与编译 -->
<g id="edge15" class="edge">
<title>计算机网络原理&#45;&gt;形式语言与编译</title>
<path fill="none" stroke="black" d="M2796.75,-217.12C2776.56,-207.09 2750.29,-194.05 2728.6,-183.28"/>
<polygon fill="black" stroke="black" points="2730.13,-180.13 2719.61,-178.82 2727.01,-186.4 2730.13,-180.13"/>
</g>
<!-- 操作系统设计专题实验 -->
<g id="node26" class="node">
<title>操作系统设计专题实验</title>
<ellipse fill="none" stroke="black" cx="3058.74" cy="-234" rx="122.68" ry="18"/>
<text text-anchor="middle" x="3058.74" y="-230.3" font-family="Times New Roman,serif" font-size="14.00">操作系统设计专题实验</text>
</g>
<!-- 计算机组成与结构专题实验 -->
<g id="node27" class="node">
<title>计算机组成与结构专题实验</title>
<ellipse fill="none" stroke="black" cx="3344.74" cy="-234" rx="145.67" ry="18"/>
<text text-anchor="middle" x="3344.74" y="-230.3" font-family="Times New Roman,serif" font-size="14.00">计算机组成与结构专题实验</text>
</g>
<!-- 人工智能 -->
<g id="node28" class="node">
<title>人工智能</title>
<ellipse fill="none" stroke="black" cx="3563.74" cy="-234" rx="55.79" ry="18"/>
<text text-anchor="middle" x="3563.74" y="-230.3" font-family="Times New Roman,serif" font-size="14.00">人工智能</text>
</g>
<!-- 电子技术实验2 -->
<g id="node29" class="node">
<title>电子技术实验2</title>
<ellipse fill="none" stroke="black" cx="3220.74" cy="-162" rx="82.59" ry="18"/>
<text text-anchor="middle" x="3220.74" y="-158.3" font-family="Times New Roman,serif" font-size="14.00">电子技术实验2</text>
</g>
<!-- 人工智能&#45;&gt;电子技术实验2 -->
<g id="edge16" class="edge">
<title>人工智能&#45;&gt;电子技术实验2</title>
<path fill="none" stroke="black" d="M3522.88,-221.68C3515.22,-219.69 3507.26,-217.71 3499.74,-216 3430.24,-200.19 3350.26,-185.33 3293.8,-175.4"/>
<polygon fill="black" stroke="black" points="3294.35,-171.94 3283.9,-173.66 3293.14,-178.83 3294.35,-171.94"/>
</g>
<!-- 计算机图形学 -->
<g id="node30" class="node">
<title>计算机图形学</title>
<ellipse fill="none" stroke="black" cx="3715.74" cy="-234" rx="77.99" ry="18"/>
<text text-anchor="middle" x="3715.74" y="-230.3" font-family="Times New Roman,serif" font-size="14.00">计算机图形学</text>
</g>
<!-- 数据库系统 -->
<g id="node31" class="node">
<title>数据库系统</title>
<ellipse fill="none" stroke="black" cx="3878.74" cy="-234" rx="66.89" ry="18"/>
<text text-anchor="middle" x="3878.74" y="-230.3" font-family="Times New Roman,serif" font-size="14.00">数据库系统</text>
</g>
<!-- 计算机网络专题实验 -->
<g id="node32" class="node">
<title>计算机网络专题实验</title>
<ellipse fill="none" stroke="black" cx="4075.74" cy="-234" rx="111.58" ry="18"/>
<text text-anchor="middle" x="4075.74" y="-230.3" font-family="Times New Roman,serif" font-size="14.00">计算机网络专题实验</text>
</g>
<!-- 软件工程 -->
<g id="node33" class="node">
<title>软件工程</title>
<ellipse fill="none" stroke="black" cx="926.74" cy="-234" rx="55.79" ry="18"/>
<text text-anchor="middle" x="926.74" y="-230.3" font-family="Times New Roman,serif" font-size="14.00">软件工程</text>
</g>
<!-- 软件工程&#45;&gt;大学物理ii2 -->
<g id="edge17" class="edge">
<title>软件工程&#45;&gt;大学物理ii2</title>
<path fill="none" stroke="black" d="M966.72,-221.33C974.94,-219.27 983.57,-217.36 991.74,-216 1206.28,-180.34 1263.16,-199.71 1479.74,-180 1509.05,-177.33 1541.37,-173.92 1569.04,-170.84"/>
<polygon fill="black" stroke="black" points="1569.46,-174.32 1579,-169.73 1568.68,-167.36 1569.46,-174.32"/>
</g>
<!-- 汇编语言 -->
<g id="node34" class="node">
<title>汇编语言</title>
<ellipse fill="none" stroke="black" cx="1816.74" cy="-162" rx="55.79" ry="18"/>
<text text-anchor="middle" x="1816.74" y="-158.3" font-family="Times New Roman,serif" font-size="14.00">汇编语言</text>
</g>
<!-- 软件工程&#45;&gt;汇编语言 -->
<g id="edge18" class="edge">
<title>软件工程&#45;&gt;汇编语言</title>
<path fill="none" stroke="black" d="M966.35,-221.26C974.67,-219.18 983.44,-217.28 991.74,-216 1307.53,-167.32 1391.95,-213.12 1709.74,-180 1725.86,-178.32 1743.24,-175.85 1759.22,-173.3"/>
<polygon fill="black" stroke="black" points="1760.18,-176.69 1769.48,-171.63 1759.05,-169.78 1760.18,-176.69"/>
</g>
<!-- 计算机系统综合设计实验 -->
<g id="node35" class="node">
<title>计算机系统综合设计实验</title>
<ellipse fill="none" stroke="black" cx="2045.74" cy="-162" rx="133.78" ry="18"/>
<text text-anchor="middle" x="2045.74" y="-158.3" font-family="Times New Roman,serif" font-size="14.00">计算机系统综合设计实验</text>
</g>
<!-- 软件工程&#45;&gt;计算机系统综合设计实验 -->
<g id="edge19" class="edge">
<title>软件工程&#45;&gt;计算机系统综合设计实验</title>
<path fill="none" stroke="black" d="M966.34,-221.2C974.66,-219.13 983.44,-217.24 991.74,-216 1383.29,-157.58 1486.89,-208.42 1881.74,-180 1899.57,-178.72 1918.46,-177.05 1936.83,-175.26"/>
<polygon fill="black" stroke="black" points="1937.36,-178.72 1946.97,-174.25 1936.67,-171.76 1937.36,-178.72"/>
</g>
<!-- 软件定义网络 -->
<g id="node36" class="node">
<title>软件定义网络</title>
<ellipse fill="none" stroke="black" cx="4283.74" cy="-234" rx="77.99" ry="18"/>
<text text-anchor="middle" x="4283.74" y="-230.3" font-family="Times New Roman,serif" font-size="14.00">软件定义网络</text>
</g>
<!-- 毕业设计（论文） -->
<g id="node37" class="node">
<title>毕业设计（论文）</title>
<ellipse fill="none" stroke="black" cx="4480.74" cy="-234" rx="100.98" ry="18"/>
<text text-anchor="middle" x="4480.74" y="-230.3" font-family="Times New Roman,serif" font-size="14.00">毕业设计（论文）</text>
</g>
</g>
</svg>
