<?xml version="1.0" encoding="UTF-8" standalone="no"?>
<!DOCTYPE svg PUBLIC "-//W3C//DTD SVG 1.1//EN"
 "http://www.w3.org/Graphics/SVG/1.1/DTD/svg11.dtd">
<!-- Generated by graphviz version 2.46.0 (20210118.1747)
 -->
<!-- Pages: 1 -->
<svg width="2425pt" height="764pt"
 viewBox="0.00 0.00 2424.64 764.00" xmlns="http://www.w3.org/2000/svg" xmlns:xlink="http://www.w3.org/1999/xlink">
<g id="graph0" class="graph" transform="scale(1 1) rotate(0) translate(4 760)">
<polygon fill="white" stroke="transparent" points="-4,4 -4,-760 2420.64,-760 2420.64,4 -4,4"/>
<!-- 高等数学i1 -->
<g id="node1" class="node">
<title>高等数学i1</title>
<ellipse fill="none" stroke="black" cx="61.74" cy="-162" rx="61.99" ry="18"/>
<text text-anchor="middle" x="61.74" y="-158.3" font-family="Times New Roman,serif" font-size="14.00">高等数学i1</text>
</g>
<!-- 高等数学i2 -->
<g id="node2" class="node">
<title>高等数学i2</title>
<ellipse fill="none" stroke="black" cx="61.74" cy="-90" rx="61.99" ry="18"/>
<text text-anchor="middle" x="61.74" y="-86.3" font-family="Times New Roman,serif" font-size="14.00">高等数学i2</text>
</g>
<!-- 高等数学i1&#45;&gt;高等数学i2 -->
<g id="edge1" class="edge">
<title>高等数学i1&#45;&gt;高等数学i2</title>
<path fill="none" stroke="black" d="M61.74,-143.7C61.74,-135.98 61.74,-126.71 61.74,-118.11"/>
<polygon fill="black" stroke="black" points="65.24,-118.1 61.74,-108.1 58.24,-118.1 65.24,-118.1"/>
</g>
<!-- 工程制图iii -->
<g id="node7" class="node">
<title>工程制图iii</title>
<ellipse fill="none" stroke="black" cx="61.74" cy="-18" rx="61.99" ry="18"/>
<text text-anchor="middle" x="61.74" y="-14.3" font-family="Times New Roman,serif" font-size="14.00">工程制图iii</text>
</g>
<!-- 高等数学i2&#45;&gt;工程制图iii -->
<g id="edge5" class="edge">
<title>高等数学i2&#45;&gt;工程制图iii</title>
<path fill="none" stroke="black" d="M61.74,-71.7C61.74,-63.98 61.74,-54.71 61.74,-46.11"/>
<polygon fill="black" stroke="black" points="65.24,-46.1 61.74,-36.1 58.24,-46.1 65.24,-46.1"/>
</g>
<!-- 线性代数与解析几何ii -->
<g id="node3" class="node">
<title>线性代数与解析几何ii</title>
<ellipse fill="none" stroke="black" cx="1790.74" cy="-738" rx="115.88" ry="18"/>
<text text-anchor="middle" x="1790.74" y="-734.3" font-family="Times New Roman,serif" font-size="14.00">线性代数与解析几何ii</text>
</g>
<!-- 大学物理实验i1 -->
<g id="node4" class="node">
<title>大学物理实验i1</title>
<ellipse fill="none" stroke="black" cx="204.74" cy="-234" rx="84.49" ry="18"/>
<text text-anchor="middle" x="204.74" y="-230.3" font-family="Times New Roman,serif" font-size="14.00">大学物理实验i1</text>
</g>
<!-- 大学物理实验i1&#45;&gt;高等数学i1 -->
<g id="edge2" class="edge">
<title>大学物理实验i1&#45;&gt;高等数学i1</title>
<path fill="none" stroke="black" d="M172.65,-217.29C151.61,-206.99 123.95,-193.45 101.52,-182.47"/>
<polygon fill="black" stroke="black" points="102.78,-179.19 92.26,-177.94 99.7,-185.48 102.78,-179.19"/>
</g>
<!-- 大学物理ii1 -->
<g id="node5" class="node">
<title>大学物理ii1</title>
<ellipse fill="none" stroke="black" cx="204.74" cy="-162" rx="63.89" ry="18"/>
<text text-anchor="middle" x="204.74" y="-158.3" font-family="Times New Roman,serif" font-size="14.00">大学物理ii1</text>
</g>
<!-- 大学物理实验i1&#45;&gt;大学物理ii1 -->
<g id="edge3" class="edge">
<title>大学物理实验i1&#45;&gt;大学物理ii1</title>
<path fill="none" stroke="black" d="M204.74,-215.7C204.74,-207.98 204.74,-198.71 204.74,-190.11"/>
<polygon fill="black" stroke="black" points="208.24,-190.1 204.74,-180.1 201.24,-190.1 208.24,-190.1"/>
</g>
<!-- 大学物理ii2 -->
<g id="node6" class="node">
<title>大学物理ii2</title>
<ellipse fill="none" stroke="black" cx="204.74" cy="-90" rx="63.89" ry="18"/>
<text text-anchor="middle" x="204.74" y="-86.3" font-family="Times New Roman,serif" font-size="14.00">大学物理ii2</text>
</g>
<!-- 大学物理ii1&#45;&gt;大学物理ii2 -->
<g id="edge4" class="edge">
<title>大学物理ii1&#45;&gt;大学物理ii2</title>
<path fill="none" stroke="black" d="M204.74,-143.7C204.74,-135.98 204.74,-126.71 204.74,-118.11"/>
<polygon fill="black" stroke="black" points="208.24,-118.1 204.74,-108.1 201.24,-118.1 208.24,-118.1"/>
</g>
<!-- 程序设计基础 -->
<g id="node8" class="node">
<title>程序设计基础</title>
<ellipse fill="none" stroke="black" cx="472.74" cy="-306" rx="77.99" ry="18"/>
<text text-anchor="middle" x="472.74" y="-302.3" font-family="Times New Roman,serif" font-size="14.00">程序设计基础</text>
</g>
<!-- 程序设计基础&#45;&gt;大学物理实验i1 -->
<g id="edge6" class="edge">
<title>程序设计基础&#45;&gt;大学物理实验i1</title>
<path fill="none" stroke="black" d="M423.28,-292.08C378.94,-280.5 313.73,-263.47 266.09,-251.02"/>
<polygon fill="black" stroke="black" points="266.77,-247.58 256.21,-248.44 265,-254.35 266.77,-247.58"/>
</g>
<!-- 数据结构与算法i -->
<g id="node9" class="node">
<title>数据结构与算法i</title>
<ellipse fill="none" stroke="black" cx="442.74" cy="-234" rx="90.98" ry="18"/>
<text text-anchor="middle" x="442.74" y="-230.3" font-family="Times New Roman,serif" font-size="14.00">数据结构与算法i</text>
</g>
<!-- 程序设计基础&#45;&gt;数据结构与算法i -->
<g id="edge7" class="edge">
<title>程序设计基础&#45;&gt;数据结构与算法i</title>
<path fill="none" stroke="black" d="M465.48,-288.05C462.07,-280.09 457.92,-270.41 454.11,-261.51"/>
<polygon fill="black" stroke="black" points="457.3,-260.09 450.15,-252.28 450.87,-262.85 457.3,-260.09"/>
</g>
<!-- 数据结构与程序设计专题实验 -->
<g id="node15" class="node">
<title>数据结构与程序设计专题实验</title>
<ellipse fill="none" stroke="black" cx="442.74" cy="-162" rx="156.77" ry="18"/>
<text text-anchor="middle" x="442.74" y="-158.3" font-family="Times New Roman,serif" font-size="14.00">数据结构与程序设计专题实验</text>
</g>
<!-- 数据结构与算法i&#45;&gt;数据结构与程序设计专题实验 -->
<g id="edge11" class="edge">
<title>数据结构与算法i&#45;&gt;数据结构与程序设计专题实验</title>
<path fill="none" stroke="black" d="M436.83,-215.7C436.03,-207.98 435.81,-198.71 436.15,-190.11"/>
<polygon fill="black" stroke="black" points="439.64,-190.32 436.85,-180.1 432.66,-189.84 439.64,-190.32"/>
</g>
<!-- 计算机网络原理 -->
<g id="node16" class="node">
<title>计算机网络原理</title>
<ellipse fill="none" stroke="black" cx="706.74" cy="-162" rx="89.08" ry="18"/>
<text text-anchor="middle" x="706.74" y="-158.3" font-family="Times New Roman,serif" font-size="14.00">计算机网络原理</text>
</g>
<!-- 数据结构与算法i&#45;&gt;计算机网络原理 -->
<g id="edge12" class="edge">
<title>数据结构与算法i&#45;&gt;计算机网络原理</title>
<path fill="none" stroke="black" d="M491.24,-218.67C533.52,-207.05 595.1,-190.71 641.66,-178.74"/>
<polygon fill="black" stroke="black" points="642.53,-182.12 651.35,-176.25 640.79,-175.34 642.53,-182.12"/>
</g>
<!-- 电路 -->
<g id="node10" class="node">
<title>电路</title>
<ellipse fill="none" stroke="black" cx="694.74" cy="-378" rx="33.29" ry="18"/>
<text text-anchor="middle" x="694.74" y="-374.3" font-family="Times New Roman,serif" font-size="14.00">电路</text>
</g>
<!-- 离散数学a -->
<g id="node11" class="node">
<title>离散数学a</title>
<ellipse fill="none" stroke="black" cx="670.74" cy="-306" rx="59.59" ry="18"/>
<text text-anchor="middle" x="670.74" y="-302.3" font-family="Times New Roman,serif" font-size="14.00">离散数学a</text>
</g>
<!-- 电路&#45;&gt;离散数学a -->
<g id="edge8" class="edge">
<title>电路&#45;&gt;离散数学a</title>
<path fill="none" stroke="black" d="M683.38,-360.76C679.75,-352.78 676.11,-342.95 673.38,-333.89"/>
<polygon fill="black" stroke="black" points="676.72,-332.85 670.72,-324.12 669.97,-334.69 676.72,-332.85"/>
</g>
<!-- 离散数学a&#45;&gt;电路 -->
<g id="edge13" class="edge">
<title>离散数学a&#45;&gt;电路</title>
<path fill="none" stroke="black" d="M682.5,-324.1C685.98,-331.88 689.43,-341.26 692.06,-349.95"/>
<polygon fill="black" stroke="black" points="688.71,-350.97 694.73,-359.7 695.47,-349.13 688.71,-350.97"/>
</g>
<!-- 大学物理实验i2 -->
<g id="node17" class="node">
<title>大学物理实验i2</title>
<ellipse fill="none" stroke="black" cx="1252.74" cy="-594" rx="84.49" ry="18"/>
<text text-anchor="middle" x="1252.74" y="-590.3" font-family="Times New Roman,serif" font-size="14.00">大学物理实验i2</text>
</g>
<!-- 离散数学a&#45;&gt;大学物理实验i2 -->
<g id="edge14" class="edge">
<title>离散数学a&#45;&gt;大学物理实验i2</title>
<path fill="none" stroke="black" d="M661.73,-324.15C646.34,-356.09 619.69,-425.3 652.74,-468 714.02,-547.17 1009.4,-577.49 1161.62,-588"/>
<polygon fill="black" stroke="black" points="1161.67,-591.51 1171.88,-588.69 1162.14,-584.53 1161.67,-591.51"/>
</g>
<!-- 形式语言与编译 -->
<g id="node18" class="node">
<title>形式语言与编译</title>
<ellipse fill="none" stroke="black" cx="770.74" cy="-234" rx="89.08" ry="18"/>
<text text-anchor="middle" x="770.74" y="-230.3" font-family="Times New Roman,serif" font-size="14.00">形式语言与编译</text>
</g>
<!-- 离散数学a&#45;&gt;形式语言与编译 -->
<g id="edge15" class="edge">
<title>离散数学a&#45;&gt;形式语言与编译</title>
<path fill="none" stroke="black" d="M688.14,-288.76C700.7,-279.22 717.94,-267.04 733.47,-256.68"/>
<polygon fill="black" stroke="black" points="735.46,-259.57 741.89,-251.15 731.61,-253.72 735.46,-259.57"/>
</g>
<!-- 数理逻辑 -->
<g id="node19" class="node">
<title>数理逻辑</title>
<ellipse fill="none" stroke="black" cx="607.74" cy="-234" rx="55.79" ry="18"/>
<text text-anchor="middle" x="607.74" y="-230.3" font-family="Times New Roman,serif" font-size="14.00">数理逻辑</text>
</g>
<!-- 离散数学a&#45;&gt;数理逻辑 -->
<g id="edge16" class="edge">
<title>离散数学a&#45;&gt;数理逻辑</title>
<path fill="none" stroke="black" d="M650.33,-288.76C641.64,-280.18 631.77,-269.46 623.63,-259.86"/>
<polygon fill="black" stroke="black" points="626.32,-257.62 617.26,-252.12 620.91,-262.07 626.32,-257.62"/>
</g>
<!-- 概率统计与随机过程 -->
<g id="node12" class="node">
<title>概率统计与随机过程</title>
<ellipse fill="none" stroke="black" cx="1420.74" cy="-306" rx="111.58" ry="18"/>
<text text-anchor="middle" x="1420.74" y="-302.3" font-family="Times New Roman,serif" font-size="14.00">概率统计与随机过程</text>
</g>
<!-- 数字逻辑电路 -->
<g id="node13" class="node">
<title>数字逻辑电路</title>
<ellipse fill="none" stroke="black" cx="1017.74" cy="-522" rx="77.99" ry="18"/>
<text text-anchor="middle" x="1017.74" y="-518.3" font-family="Times New Roman,serif" font-size="14.00">数字逻辑电路</text>
</g>
<!-- 概率统计与随机过程&#45;&gt;数字逻辑电路 -->
<g id="edge9" class="edge">
<title>概率统计与随机过程&#45;&gt;数字逻辑电路</title>
<path fill="none" stroke="black" d="M1421.69,-324.19C1421.83,-343.84 1419.05,-375.88 1401.74,-396 1327.57,-482.24 1193.17,-509.38 1104.68,-517.68"/>
<polygon fill="black" stroke="black" points="1104.32,-514.2 1094.66,-518.56 1104.93,-521.18 1104.32,-514.2"/>
</g>
<!-- 操作系统设计专题实验 -->
<g id="node14" class="node">
<title>操作系统设计专题实验</title>
<ellipse fill="none" stroke="black" cx="1269.74" cy="-378" rx="122.68" ry="18"/>
<text text-anchor="middle" x="1269.74" y="-374.3" font-family="Times New Roman,serif" font-size="14.00">操作系统设计专题实验</text>
</g>
<!-- 概率统计与随机过程&#45;&gt;操作系统设计专题实验 -->
<g id="edge10" class="edge">
<title>概率统计与随机过程&#45;&gt;操作系统设计专题实验</title>
<path fill="none" stroke="black" d="M1391.04,-323.47C1370.6,-333.46 1343.08,-346.27 1319.38,-356.85"/>
<polygon fill="black" stroke="black" points="1317.89,-353.69 1310.17,-360.94 1320.73,-360.08 1317.89,-353.69"/>
</g>
<!-- 模拟电子技术基础 -->
<g id="node24" class="node">
<title>模拟电子技术基础</title>
<ellipse fill="none" stroke="black" cx="762.74" cy="-450" rx="100.98" ry="18"/>
<text text-anchor="middle" x="762.74" y="-446.3" font-family="Times New Roman,serif" font-size="14.00">模拟电子技术基础</text>
</g>
<!-- 数字逻辑电路&#45;&gt;模拟电子技术基础 -->
<g id="edge34" class="edge">
<title>数字逻辑电路&#45;&gt;模拟电子技术基础</title>
<path fill="none" stroke="black" d="M969.48,-507.75C928.54,-496.51 869.54,-480.32 825.04,-468.1"/>
<polygon fill="black" stroke="black" points="825.77,-464.67 815.2,-465.4 823.92,-471.42 825.77,-464.67"/>
</g>
<!-- 数据库系统 -->
<g id="node31" class="node">
<title>数据库系统</title>
<ellipse fill="none" stroke="black" cx="1134.74" cy="-450" rx="66.89" ry="18"/>
<text text-anchor="middle" x="1134.74" y="-446.3" font-family="Times New Roman,serif" font-size="14.00">数据库系统</text>
</g>
<!-- 数字逻辑电路&#45;&gt;数据库系统 -->
<g id="edge35" class="edge">
<title>数字逻辑电路&#45;&gt;数据库系统</title>
<path fill="none" stroke="black" d="M1044.59,-504.94C1060.9,-495.18 1081.92,-482.6 1099.56,-472.05"/>
<polygon fill="black" stroke="black" points="1101.65,-474.88 1108.43,-466.74 1098.05,-468.87 1101.65,-474.88"/>
</g>
<!-- 软件工程 -->
<g id="node32" class="node">
<title>软件工程</title>
<ellipse fill="none" stroke="black" cx="890.74" cy="-378" rx="55.79" ry="18"/>
<text text-anchor="middle" x="890.74" y="-374.3" font-family="Times New Roman,serif" font-size="14.00">软件工程</text>
</g>
<!-- 数字逻辑电路&#45;&gt;软件工程 -->
<g id="edge36" class="edge">
<title>数字逻辑电路&#45;&gt;软件工程</title>
<path fill="none" stroke="black" d="M975.35,-506.86C956.11,-497.95 934.54,-484.92 919.74,-468 904.16,-450.18 894.22,-425.01 889.93,-405.99"/>
<polygon fill="black" stroke="black" points="893.37,-405.34 888.13,-396.13 886.48,-406.6 893.37,-405.34"/>
</g>
<!-- 操作系统设计专题实验&#45;&gt;概率统计与随机过程 -->
<g id="edge43" class="edge">
<title>操作系统设计专题实验&#45;&gt;概率统计与随机过程</title>
<path fill="none" stroke="black" d="M1299.69,-360.41C1320.23,-350.38 1347.84,-337.53 1371.55,-326.95"/>
<polygon fill="black" stroke="black" points="1373.03,-330.12 1380.76,-322.87 1370.19,-323.72 1373.03,-330.12"/>
</g>
<!-- 编译器设计专题实验 -->
<g id="node30" class="node">
<title>编译器设计专题实验</title>
<ellipse fill="none" stroke="black" cx="1178.74" cy="-306" rx="111.58" ry="18"/>
<text text-anchor="middle" x="1178.74" y="-302.3" font-family="Times New Roman,serif" font-size="14.00">编译器设计专题实验</text>
</g>
<!-- 操作系统设计专题实验&#45;&gt;编译器设计专题实验 -->
<g id="edge44" class="edge">
<title>操作系统设计专题实验&#45;&gt;编译器设计专题实验</title>
<path fill="none" stroke="black" d="M1247.72,-360.05C1235.98,-351.03 1221.37,-339.79 1208.63,-329.99"/>
<polygon fill="black" stroke="black" points="1210.63,-327.11 1200.57,-323.79 1206.36,-332.66 1210.63,-327.11"/>
</g>
<!-- 操作系统原理i -->
<g id="node35" class="node">
<title>操作系统原理i</title>
<ellipse fill="none" stroke="black" cx="880.74" cy="-90" rx="79.89" ry="18"/>
<text text-anchor="middle" x="880.74" y="-86.3" font-family="Times New Roman,serif" font-size="14.00">操作系统原理i</text>
</g>
<!-- 操作系统设计专题实验&#45;&gt;操作系统原理i -->
<g id="edge45" class="edge">
<title>操作系统设计专题实验&#45;&gt;操作系统原理i</title>
<path fill="none" stroke="black" d="M1179.84,-365.68C1129.25,-357.26 1073.18,-343.77 1057.74,-324 1047.9,-311.39 1047.76,-300.5 1057.74,-288 1102.97,-231.39 1171.52,-308.61 1216.74,-252 1226.73,-239.5 1225.88,-229.14 1216.74,-216 1160.88,-135.62 1046.84,-106.82 967.19,-96.57"/>
<polygon fill="black" stroke="black" points="967.52,-93.08 957.17,-95.35 966.67,-100.03 967.52,-93.08"/>
</g>
<!-- 数据结构与程序设计专题实验&#45;&gt;数据结构与算法i -->
<g id="edge20" class="edge">
<title>数据结构与程序设计专题实验&#45;&gt;数据结构与算法i</title>
<path fill="none" stroke="black" d="M448.64,-180.1C449.45,-187.79 449.68,-197.05 449.35,-205.67"/>
<polygon fill="black" stroke="black" points="445.85,-205.48 448.66,-215.7 452.84,-205.96 445.85,-205.48"/>
</g>
<!-- 计算机网络原理&#45;&gt;数据结构与算法i -->
<g id="edge41" class="edge">
<title>计算机网络原理&#45;&gt;数据结构与算法i</title>
<path fill="none" stroke="black" d="M658.58,-177.24C616.39,-188.84 554.81,-205.18 508.17,-217.18"/>
<polygon fill="black" stroke="black" points="507.27,-213.79 498.46,-219.67 509.01,-220.57 507.27,-213.79"/>
</g>
<!-- 计算机网络原理&#45;&gt;操作系统原理i -->
<g id="edge42" class="edge">
<title>计算机网络原理&#45;&gt;操作系统原理i</title>
<path fill="none" stroke="black" d="M744.93,-145.64C771.15,-135.09 806.12,-121.02 834,-109.8"/>
<polygon fill="black" stroke="black" points="835.57,-112.94 843.54,-105.97 832.96,-106.45 835.57,-112.94"/>
</g>
<!-- 大学物理实验i2&#45;&gt;程序设计基础 -->
<g id="edge17" class="edge">
<title>大学物理实验i2&#45;&gt;程序设计基础</title>
<path fill="none" stroke="black" d="M1168.76,-591.81C1035.86,-588.78 783.93,-578.04 703.74,-540 603.7,-492.54 522.39,-382.8 489.05,-332.74"/>
<polygon fill="black" stroke="black" points="491.81,-330.55 483.39,-324.11 485.95,-334.39 491.81,-330.55"/>
</g>
<!-- 大学物理实验i2&#45;&gt;数字逻辑电路 -->
<g id="edge18" class="edge">
<title>大学物理实验i2&#45;&gt;数字逻辑电路</title>
<path fill="none" stroke="black" d="M1205.75,-579C1167.52,-567.61 1113.47,-551.52 1073.14,-539.5"/>
<polygon fill="black" stroke="black" points="1074.04,-536.12 1063.45,-536.62 1072.04,-542.82 1074.04,-536.12"/>
</g>
<!-- 计算机系统综合设计实验 -->
<g id="node20" class="node">
<title>计算机系统综合设计实验</title>
<ellipse fill="none" stroke="black" cx="1512.74" cy="-666" rx="133.78" ry="18"/>
<text text-anchor="middle" x="1512.74" y="-662.3" font-family="Times New Roman,serif" font-size="14.00">计算机系统综合设计实验</text>
</g>
<!-- 大学物理实验i2&#45;&gt;计算机系统综合设计实验 -->
<g id="edge19" class="edge">
<title>大学物理实验i2&#45;&gt;计算机系统综合设计实验</title>
<path fill="none" stroke="black" d="M1306.4,-607.99C1348.39,-618.88 1406.75,-634.53 1450.73,-646.68"/>
<polygon fill="black" stroke="black" points="1449.88,-650.08 1460.45,-649.38 1451.75,-643.33 1449.88,-650.08"/>
</g>
<!-- 形式语言与编译&#45;&gt;离散数学a -->
<g id="edge26" class="edge">
<title>形式语言与编译&#45;&gt;离散数学a</title>
<path fill="none" stroke="black" d="M752.51,-251.88C739.62,-261.63 722.1,-273.97 706.53,-284.31"/>
<polygon fill="black" stroke="black" points="704.57,-281.4 698.12,-289.81 708.4,-287.26 704.57,-281.4"/>
</g>
<!-- 计算机组成 -->
<g id="node26" class="node">
<title>计算机组成</title>
<ellipse fill="none" stroke="black" cx="880.74" cy="-162" rx="66.89" ry="18"/>
<text text-anchor="middle" x="880.74" y="-158.3" font-family="Times New Roman,serif" font-size="14.00">计算机组成</text>
</g>
<!-- 形式语言与编译&#45;&gt;计算机组成 -->
<g id="edge27" class="edge">
<title>形式语言与编译&#45;&gt;计算机组成</title>
<path fill="none" stroke="black" d="M796.53,-216.59C811.64,-206.97 830.9,-194.72 847.18,-184.36"/>
<polygon fill="black" stroke="black" points="849.32,-187.15 855.87,-178.83 845.56,-181.24 849.32,-187.15"/>
</g>
<!-- 毕业设计（论文） -->
<g id="node27" class="node">
<title>毕业设计（论文）</title>
<ellipse fill="none" stroke="black" cx="1494.74" cy="-162" rx="100.98" ry="18"/>
<text text-anchor="middle" x="1494.74" y="-158.3" font-family="Times New Roman,serif" font-size="14.00">毕业设计（论文）</text>
</g>
<!-- 形式语言与编译&#45;&gt;毕业设计（论文） -->
<g id="edge28" class="edge">
<title>形式语言与编译&#45;&gt;毕业设计（论文）</title>
<path fill="none" stroke="black" d="M843.39,-223.45C863.86,-220.89 886.16,-218.21 906.74,-216 1077.93,-197.59 1277.63,-180.52 1394.72,-170.96"/>
<polygon fill="black" stroke="black" points="1395.06,-174.44 1404.74,-170.14 1394.49,-167.47 1395.06,-174.44"/>
</g>
<!-- 数理逻辑&#45;&gt;离散数学a -->
<g id="edge39" class="edge">
<title>数理逻辑&#45;&gt;离散数学a</title>
<path fill="none" stroke="black" d="M627.75,-250.83C636.55,-259.49 646.63,-270.43 654.91,-280.2"/>
<polygon fill="black" stroke="black" points="652.32,-282.55 661.37,-288.05 657.72,-278.11 652.32,-282.55"/>
</g>
<!-- 计算机系统综合设计实验&#45;&gt;大学物理实验i2 -->
<g id="edge57" class="edge">
<title>计算机系统综合设计实验&#45;&gt;大学物理实验i2</title>
<path fill="none" stroke="black" d="M1451.31,-649.98C1408.21,-638.75 1351.09,-623.39 1309.14,-611.76"/>
<polygon fill="black" stroke="black" points="1309.93,-608.35 1299.36,-609.04 1308.05,-615.09 1309.93,-608.35"/>
</g>
<!-- 面向对象程序设计 -->
<g id="node21" class="node">
<title>面向对象程序设计</title>
<ellipse fill="none" stroke="black" cx="2047.74" cy="-738" rx="100.98" ry="18"/>
<text text-anchor="middle" x="2047.74" y="-734.3" font-family="Times New Roman,serif" font-size="14.00">面向对象程序设计</text>
</g>
<!-- 计算机图形学 -->
<g id="node22" class="node">
<title>计算机图形学</title>
<ellipse fill="none" stroke="black" cx="1897.74" cy="-666" rx="77.99" ry="18"/>
<text text-anchor="middle" x="1897.74" y="-662.3" font-family="Times New Roman,serif" font-size="14.00">计算机图形学</text>
</g>
<!-- 面向对象程序设计&#45;&gt;计算机图形学 -->
<g id="edge21" class="edge">
<title>面向对象程序设计&#45;&gt;计算机图形学</title>
<path fill="none" stroke="black" d="M2008.34,-721.29C1985.71,-711.27 1957.52,-698.19 1935.22,-687.38"/>
<polygon fill="black" stroke="black" points="1936.57,-684.15 1926.05,-682.9 1933.5,-690.43 1936.57,-684.15"/>
</g>
<!-- 软件定义网络 -->
<g id="node23" class="node">
<title>软件定义网络</title>
<ellipse fill="none" stroke="black" cx="2071.74" cy="-666" rx="77.99" ry="18"/>
<text text-anchor="middle" x="2071.74" y="-662.3" font-family="Times New Roman,serif" font-size="14.00">软件定义网络</text>
</g>
<!-- 面向对象程序设计&#45;&gt;软件定义网络 -->
<g id="edge22" class="edge">
<title>面向对象程序设计&#45;&gt;软件定义网络</title>
<path fill="none" stroke="black" d="M2047.76,-719.7C2049.65,-711.81 2052.69,-702.3 2056.07,-693.55"/>
<polygon fill="black" stroke="black" points="2059.39,-694.68 2059.99,-684.1 2052.92,-692 2059.39,-694.68"/>
</g>
<!-- 计算机图形学&#45;&gt;面向对象程序设计 -->
<g id="edge49" class="edge">
<title>计算机图形学&#45;&gt;面向对象程序设计</title>
<path fill="none" stroke="black" d="M1935.27,-681.88C1957.9,-691.86 1986.57,-705.15 2009.35,-716.17"/>
<polygon fill="black" stroke="black" points="2007.87,-719.35 2018.4,-720.59 2010.94,-713.06 2007.87,-719.35"/>
</g>
<!-- 软件定义网络&#45;&gt;面向对象程序设计 -->
<g id="edge58" class="edge">
<title>软件定义网络&#45;&gt;面向对象程序设计</title>
<path fill="none" stroke="black" d="M2071.73,-684.28C2069.84,-692.2 2066.77,-701.77 2063.37,-710.57"/>
<polygon fill="black" stroke="black" points="2060.04,-709.48 2059.43,-720.05 2066.5,-712.16 2060.04,-709.48"/>
</g>
<!-- 模拟电子技术基础&#45;&gt;电路 -->
<g id="edge23" class="edge">
<title>模拟电子技术基础&#45;&gt;电路</title>
<path fill="none" stroke="black" d="M746.28,-432.05C737.39,-422.9 726.29,-411.47 716.67,-401.57"/>
<polygon fill="black" stroke="black" points="719.14,-399.09 709.66,-394.36 714.12,-403.97 719.14,-399.09"/>
</g>
<!-- 模拟电子技术基础&#45;&gt;形式语言与编译 -->
<g id="edge24" class="edge">
<title>模拟电子技术基础&#45;&gt;形式语言与编译</title>
<path fill="none" stroke="black" d="M763.39,-431.85C764.77,-394.83 768.05,-307.18 769.72,-262.39"/>
<polygon fill="black" stroke="black" points="773.22,-262.36 770.1,-252.23 766.23,-262.09 773.22,-262.36"/>
</g>
<!-- 电子技术实验1 -->
<g id="node25" class="node">
<title>电子技术实验1</title>
<ellipse fill="none" stroke="black" cx="1046.74" cy="-378" rx="82.59" ry="18"/>
<text text-anchor="middle" x="1046.74" y="-374.3" font-family="Times New Roman,serif" font-size="14.00">电子技术实验1</text>
</g>
<!-- 模拟电子技术基础&#45;&gt;电子技术实验1 -->
<g id="edge25" class="edge">
<title>模拟电子技术基础&#45;&gt;电子技术实验1</title>
<path fill="none" stroke="black" d="M819.19,-435.09C866.86,-423.34 935.04,-406.53 984.33,-394.38"/>
<polygon fill="black" stroke="black" points="985.36,-397.73 994.24,-391.94 983.69,-390.94 985.36,-397.73"/>
</g>
<!-- 电子技术实验2 -->
<g id="node28" class="node">
<title>电子技术实验2</title>
<ellipse fill="none" stroke="black" cx="1527.74" cy="-738" rx="82.59" ry="18"/>
<text text-anchor="middle" x="1527.74" y="-734.3" font-family="Times New Roman,serif" font-size="14.00">电子技术实验2</text>
</g>
<!-- 电子技术实验1&#45;&gt;电子技术实验2 -->
<g id="edge29" class="edge">
<title>电子技术实验1&#45;&gt;电子技术实验2</title>
<path fill="none" stroke="black" d="M1098.53,-392.09C1222.31,-424.14 1531.07,-508.84 1612.74,-576 1652.65,-608.81 1684.45,-641.04 1655.74,-684 1643,-703.07 1621.98,-715.29 1600.62,-723.12"/>
<polygon fill="black" stroke="black" points="1599.51,-719.8 1591.15,-726.31 1601.74,-726.43 1599.51,-719.8"/>
</g>
<!-- 计算机网络专题实验 -->
<g id="node29" class="node">
<title>计算机网络专题实验</title>
<ellipse fill="none" stroke="black" cx="898.74" cy="-306" rx="111.58" ry="18"/>
<text text-anchor="middle" x="898.74" y="-302.3" font-family="Times New Roman,serif" font-size="14.00">计算机网络专题实验</text>
</g>
<!-- 电子技术实验1&#45;&gt;计算机网络专题实验 -->
<g id="edge30" class="edge">
<title>电子技术实验1&#45;&gt;计算机网络专题实验</title>
<path fill="none" stroke="black" d="M1013.9,-361.46C992.79,-351.48 965.13,-338.4 942.22,-327.56"/>
<polygon fill="black" stroke="black" points="943.58,-324.33 933.04,-323.22 940.58,-330.66 943.58,-324.33"/>
</g>
<!-- 计算机组成&#45;&gt;操作系统原理i -->
<g id="edge40" class="edge">
<title>计算机组成&#45;&gt;操作系统原理i</title>
<path fill="none" stroke="black" d="M880.74,-143.7C880.74,-135.98 880.74,-126.71 880.74,-118.11"/>
<polygon fill="black" stroke="black" points="884.24,-118.1 880.74,-108.1 877.24,-118.1 884.24,-118.1"/>
</g>
<!-- 毕业设计（论文）&#45;&gt;计算机系统综合设计实验 -->
<g id="edge60" class="edge">
<title>毕业设计（论文）&#45;&gt;计算机系统综合设计实验</title>
<path fill="none" stroke="black" d="M1543.46,-177.92C1596.76,-197.63 1674.74,-237.93 1674.74,-305 1674.74,-379 1674.74,-379 1674.74,-379 1674.74,-489.38 1656.22,-524.64 1588.74,-612 1579.32,-624.21 1566.29,-634.7 1553.68,-643.06"/>
<polygon fill="black" stroke="black" points="1551.66,-640.2 1545.07,-648.5 1555.4,-646.12 1551.66,-640.2"/>
</g>
<!-- 毕业设计（论文）&#45;&gt;电子技术实验2 -->
<g id="edge59" class="edge">
<title>毕业设计（论文）&#45;&gt;电子技术实验2</title>
<path fill="none" stroke="black" d="M1558.39,-175.98C1622.73,-193.25 1712.74,-230.7 1712.74,-305 1712.74,-595 1712.74,-595 1712.74,-595 1712.74,-637.84 1706.78,-654.48 1675.74,-684 1655.32,-703.43 1627.27,-715.81 1601.09,-723.66"/>
<polygon fill="black" stroke="black" points="1599.84,-720.38 1591.17,-726.46 1601.74,-727.12 1599.84,-720.38"/>
</g>
<!-- 电子技术实验2&#45;&gt;数据结构与程序设计专题实验 -->
<g id="edge32" class="edge">
<title>电子技术实验2&#45;&gt;数据结构与程序设计专题实验</title>
<path fill="none" stroke="black" d="M1445.46,-735.95C1173.96,-731.42 323.74,-708.2 323.74,-595 323.74,-595 323.74,-595 323.74,-305 323.74,-264.55 318.37,-248.28 342.74,-216 353.24,-202.11 368.45,-191.48 383.85,-183.53"/>
<polygon fill="black" stroke="black" points="385.43,-186.65 392.91,-179.15 382.38,-180.35 385.43,-186.65"/>
</g>
<!-- 电子技术实验2&#45;&gt;计算机系统综合设计实验 -->
<g id="edge33" class="edge">
<title>电子技术实验2&#45;&gt;计算机系统综合设计实验</title>
<path fill="none" stroke="black" d="M1524.04,-719.7C1522.38,-711.98 1520.4,-702.71 1518.55,-694.11"/>
<polygon fill="black" stroke="black" points="1521.93,-693.15 1516.41,-684.1 1515.08,-694.62 1521.93,-693.15"/>
</g>
<!-- 计算机网络专题实验&#45;&gt;计算机网络原理 -->
<g id="edge52" class="edge">
<title>计算机网络专题实验&#45;&gt;计算机网络原理</title>
<path fill="none" stroke="black" d="M897.49,-287.87C895.12,-267.97 888.32,-235.4 868.74,-216 854.85,-202.23 812.11,-188.55 774.02,-178.54"/>
<polygon fill="black" stroke="black" points="774.5,-175.05 763.95,-175.94 772.76,-181.83 774.5,-175.05"/>
</g>
<!-- 计算机组成与结构专题实验 -->
<g id="node36" class="node">
<title>计算机组成与结构专题实验</title>
<ellipse fill="none" stroke="black" cx="1061.74" cy="-234" rx="145.67" ry="18"/>
<text text-anchor="middle" x="1061.74" y="-230.3" font-family="Times New Roman,serif" font-size="14.00">计算机组成与结构专题实验</text>
</g>
<!-- 计算机网络专题实验&#45;&gt;计算机组成与结构专题实验 -->
<g id="edge53" class="edge">
<title>计算机网络专题实验&#45;&gt;计算机组成与结构专题实验</title>
<path fill="none" stroke="black" d="M931.14,-288.59C953.31,-278.59 983.11,-265.74 1008.68,-255.13"/>
<polygon fill="black" stroke="black" points="1010.34,-258.24 1018.25,-251.19 1007.67,-251.76 1010.34,-258.24"/>
</g>
<!-- 编译器设计专题实验&#45;&gt;毕业设计（论文） -->
<g id="edge31" class="edge">
<title>编译器设计专题实验&#45;&gt;毕业设计（论文）</title>
<path fill="none" stroke="black" d="M1214.69,-288.85C1272.69,-262.78 1386.82,-211.5 1450.01,-183.1"/>
<polygon fill="black" stroke="black" points="1451.63,-186.21 1459.32,-178.92 1448.76,-179.82 1451.63,-186.21"/>
</g>
<!-- 数据库系统&#45;&gt;操作系统设计专题实验 -->
<g id="edge50" class="edge">
<title>数据库系统&#45;&gt;操作系统设计专题实验</title>
<path fill="none" stroke="black" d="M1164.04,-433.81C1182.95,-424 1207.83,-411.1 1228.71,-400.28"/>
<polygon fill="black" stroke="black" points="1230.41,-403.34 1237.68,-395.63 1227.19,-397.12 1230.41,-403.34"/>
</g>
<!-- 数据库系统&#45;&gt;软件工程 -->
<g id="edge51" class="edge">
<title>数据库系统&#45;&gt;软件工程</title>
<path fill="none" stroke="black" d="M1090.84,-436.4C1048.62,-424.29 984.87,-406 940.72,-393.34"/>
<polygon fill="black" stroke="black" points="941.63,-389.96 931.06,-390.57 939.7,-396.69 941.63,-389.96"/>
</g>
<!-- 软件工程&#45;&gt;程序设计基础 -->
<g id="edge54" class="edge">
<title>软件工程&#45;&gt;程序设计基础</title>
<path fill="none" stroke="black" d="M842.39,-368.9C768.97,-356.61 628.97,-333.16 543.92,-318.92"/>
<polygon fill="black" stroke="black" points="544.27,-315.43 533.83,-317.23 543.11,-322.33 544.27,-315.43"/>
</g>
<!-- 软件工程&#45;&gt;数字逻辑电路 -->
<g id="edge55" class="edge">
<title>软件工程&#45;&gt;数字逻辑电路</title>
<path fill="none" stroke="black" d="M901,-395.79C908.6,-415.06 919.16,-446.75 937.74,-468 949.31,-481.23 965.02,-492.08 979.52,-500.44"/>
<polygon fill="black" stroke="black" points="977.89,-503.54 988.34,-505.33 981.28,-497.42 977.89,-503.54"/>
</g>
<!-- 软件工程&#45;&gt;计算机网络专题实验 -->
<g id="edge56" class="edge">
<title>软件工程&#45;&gt;计算机网络专题实验</title>
<path fill="none" stroke="black" d="M892.72,-359.7C893.6,-351.98 894.66,-342.71 895.65,-334.11"/>
<polygon fill="black" stroke="black" points="899.13,-334.44 896.79,-324.1 892.18,-333.64 899.13,-334.44"/>
</g>
<!-- 汇编语言 -->
<g id="node33" class="node">
<title>汇编语言</title>
<ellipse fill="none" stroke="black" cx="993.74" cy="-450" rx="55.79" ry="18"/>
<text text-anchor="middle" x="993.74" y="-446.3" font-family="Times New Roman,serif" font-size="14.00">汇编语言</text>
</g>
<!-- 汇编语言&#45;&gt;电子技术实验1 -->
<g id="edge37" class="edge">
<title>汇编语言&#45;&gt;电子技术实验1</title>
<path fill="none" stroke="black" d="M1006.3,-432.41C1012.68,-423.99 1020.56,-413.58 1027.66,-404.2"/>
<polygon fill="black" stroke="black" points="1030.66,-406.04 1033.91,-395.96 1025.08,-401.82 1030.66,-406.04"/>
</g>
<!-- 汇编语言&#45;&gt;软件工程 -->
<g id="edge38" class="edge">
<title>汇编语言&#45;&gt;软件工程</title>
<path fill="none" stroke="black" d="M970.89,-433.46C956.48,-423.68 937.7,-410.91 921.94,-400.2"/>
<polygon fill="black" stroke="black" points="923.78,-397.22 913.54,-394.49 919.84,-403.01 923.78,-397.22"/>
</g>
<!-- 数学建模ii -->
<g id="node34" class="node">
<title>数学建模ii</title>
<ellipse fill="none" stroke="black" cx="2226.74" cy="-738" rx="59.59" ry="18"/>
<text text-anchor="middle" x="2226.74" y="-734.3" font-family="Times New Roman,serif" font-size="14.00">数学建模ii</text>
</g>
<!-- 计算机组成与结构专题实验&#45;&gt;大学物理实验i2 -->
<g id="edge46" class="edge">
<title>计算机组成与结构专题实验&#45;&gt;大学物理实验i2</title>
<path fill="none" stroke="black" d="M1193.59,-241.7C1326.72,-249.7 1516.27,-264.96 1541.74,-288 1571.74,-315.13 1560.74,-336.55 1560.74,-377 1560.74,-451 1560.74,-451 1560.74,-451 1560.74,-547.06 1435.67,-578.35 1344.93,-588.42"/>
<polygon fill="black" stroke="black" points="1344.46,-584.95 1334.88,-589.46 1345.19,-591.91 1344.46,-584.95"/>
</g>
<!-- 计算机组成与结构专题实验&#45;&gt;计算机系统综合设计实验 -->
<g id="edge48" class="edge">
<title>计算机组成与结构专题实验&#45;&gt;计算机系统综合设计实验</title>
<path fill="none" stroke="black" d="M1193.8,-241.64C1333.55,-249.79 1537.91,-265.39 1566.74,-288 1599.82,-313.94 1598.74,-334.97 1598.74,-377 1598.74,-523 1598.74,-523 1598.74,-523 1598.74,-569.69 1564.3,-614.16 1539.01,-640.51"/>
<polygon fill="black" stroke="black" points="1536.37,-638.2 1531.83,-647.77 1541.35,-643.12 1536.37,-638.2"/>
</g>
<!-- 计算机组成与结构专题实验&#45;&gt;计算机网络专题实验 -->
<g id="edge47" class="edge">
<title>计算机组成与结构专题实验&#45;&gt;计算机网络专题实验</title>
<path fill="none" stroke="black" d="M1028.86,-251.63C1006.4,-261.75 976.29,-274.72 950.65,-285.35"/>
<polygon fill="black" stroke="black" points="948.98,-282.25 941.07,-289.29 951.64,-288.72 948.98,-282.25"/>
</g>
<!-- 人工智能 -->
<g id="node37" class="node">
<title>人工智能</title>
<ellipse fill="none" stroke="black" cx="2360.74" cy="-738" rx="55.79" ry="18"/>
<text text-anchor="middle" x="2360.74" y="-734.3" font-family="Times New Roman,serif" font-size="14.00">人工智能</text>
</g>
</g>
</svg>
