<?xml version="1.0" encoding="UTF-8" standalone="no"?>
<!DOCTYPE svg PUBLIC "-//W3C//DTD SVG 1.1//EN"
 "http://www.w3.org/Graphics/SVG/1.1/DTD/svg11.dtd">
<!-- Generated by graphviz version 2.46.0 (20210118.1747)
 -->
<!-- Pages: 1 -->
<svg width="1838pt" height="764pt"
 viewBox="0.00 0.00 1837.90 764.00" xmlns="http://www.w3.org/2000/svg" xmlns:xlink="http://www.w3.org/1999/xlink">
<g id="graph0" class="graph" transform="scale(1 1) rotate(0) translate(4 760)">
<polygon fill="white" stroke="transparent" points="-4,4 -4,-760 1833.9,-760 1833.9,4 -4,4"/>
<!-- 高等数学i1 -->
<g id="node1" class="node">
<title>高等数学i1</title>
<ellipse fill="none" stroke="black" cx="958" cy="-162" rx="61.99" ry="18"/>
<text text-anchor="middle" x="958" y="-158.3" font-family="Times New Roman,serif" font-size="14.00">高等数学i1</text>
</g>
<!-- 高等数学i2 -->
<g id="node2" class="node">
<title>高等数学i2</title>
<ellipse fill="none" stroke="black" cx="958" cy="-90" rx="61.99" ry="18"/>
<text text-anchor="middle" x="958" y="-86.3" font-family="Times New Roman,serif" font-size="14.00">高等数学i2</text>
</g>
<!-- 高等数学i1&#45;&gt;高等数学i2 -->
<g id="edge1" class="edge">
<title>高等数学i1&#45;&gt;高等数学i2</title>
<path fill="none" stroke="black" d="M958,-143.7C958,-135.98 958,-126.71 958,-118.11"/>
<polygon fill="black" stroke="black" points="961.5,-118.1 958,-108.1 954.5,-118.1 961.5,-118.1"/>
</g>
<!-- 工程制图iii -->
<g id="node7" class="node">
<title>工程制图iii</title>
<ellipse fill="none" stroke="black" cx="958" cy="-18" rx="61.99" ry="18"/>
<text text-anchor="middle" x="958" y="-14.3" font-family="Times New Roman,serif" font-size="14.00">工程制图iii</text>
</g>
<!-- 高等数学i2&#45;&gt;工程制图iii -->
<g id="edge5" class="edge">
<title>高等数学i2&#45;&gt;工程制图iii</title>
<path fill="none" stroke="black" d="M958,-71.7C958,-63.98 958,-54.71 958,-46.11"/>
<polygon fill="black" stroke="black" points="961.5,-46.1 958,-36.1 954.5,-46.1 961.5,-46.1"/>
</g>
<!-- 线性代数与解析几何ii -->
<g id="node3" class="node">
<title>线性代数与解析几何ii</title>
<ellipse fill="none" stroke="black" cx="1447" cy="-738" rx="115.88" ry="18"/>
<text text-anchor="middle" x="1447" y="-734.3" font-family="Times New Roman,serif" font-size="14.00">线性代数与解析几何ii</text>
</g>
<!-- 大学物理实验i1 -->
<g id="node4" class="node">
<title>大学物理实验i1</title>
<ellipse fill="none" stroke="black" cx="896" cy="-234" rx="84.49" ry="18"/>
<text text-anchor="middle" x="896" y="-230.3" font-family="Times New Roman,serif" font-size="14.00">大学物理实验i1</text>
</g>
<!-- 大学物理实验i1&#45;&gt;高等数学i1 -->
<g id="edge2" class="edge">
<title>大学物理实验i1&#45;&gt;高等数学i1</title>
<path fill="none" stroke="black" d="M911.01,-216.05C918.62,-207.46 928.01,-196.86 936.39,-187.4"/>
<polygon fill="black" stroke="black" points="939.12,-189.6 943.13,-179.79 933.88,-184.95 939.12,-189.6"/>
</g>
<!-- 大学物理ii1 -->
<g id="node5" class="node">
<title>大学物理ii1</title>
<ellipse fill="none" stroke="black" cx="815" cy="-162" rx="63.89" ry="18"/>
<text text-anchor="middle" x="815" y="-158.3" font-family="Times New Roman,serif" font-size="14.00">大学物理ii1</text>
</g>
<!-- 大学物理实验i1&#45;&gt;大学物理ii1 -->
<g id="edge3" class="edge">
<title>大学物理实验i1&#45;&gt;大学物理ii1</title>
<path fill="none" stroke="black" d="M876.8,-216.41C866.24,-207.28 852.97,-195.81 841.43,-185.84"/>
<polygon fill="black" stroke="black" points="843.63,-183.12 833.78,-179.23 839.06,-188.42 843.63,-183.12"/>
</g>
<!-- 大学物理ii2 -->
<g id="node6" class="node">
<title>大学物理ii2</title>
<ellipse fill="none" stroke="black" cx="815" cy="-90" rx="63.89" ry="18"/>
<text text-anchor="middle" x="815" y="-86.3" font-family="Times New Roman,serif" font-size="14.00">大学物理ii2</text>
</g>
<!-- 大学物理ii1&#45;&gt;大学物理ii2 -->
<g id="edge4" class="edge">
<title>大学物理ii1&#45;&gt;大学物理ii2</title>
<path fill="none" stroke="black" d="M815,-143.7C815,-135.98 815,-126.71 815,-118.11"/>
<polygon fill="black" stroke="black" points="818.5,-118.1 815,-108.1 811.5,-118.1 818.5,-118.1"/>
</g>
<!-- 程序设计基础 -->
<g id="node8" class="node">
<title>程序设计基础</title>
<ellipse fill="none" stroke="black" cx="899" cy="-306" rx="77.99" ry="18"/>
<text text-anchor="middle" x="899" y="-302.3" font-family="Times New Roman,serif" font-size="14.00">程序设计基础</text>
</g>
<!-- 程序设计基础&#45;&gt;大学物理实验i1 -->
<g id="edge6" class="edge">
<title>程序设计基础&#45;&gt;大学物理实验i1</title>
<path fill="none" stroke="black" d="M898.26,-287.7C897.93,-279.98 897.53,-270.71 897.16,-262.11"/>
<polygon fill="black" stroke="black" points="900.66,-261.95 896.73,-252.1 893.66,-262.25 900.66,-261.95"/>
</g>
<!-- 数据结构与算法i -->
<g id="node9" class="node">
<title>数据结构与算法i</title>
<ellipse fill="none" stroke="black" cx="1127" cy="-234" rx="90.98" ry="18"/>
<text text-anchor="middle" x="1127" y="-230.3" font-family="Times New Roman,serif" font-size="14.00">数据结构与算法i</text>
</g>
<!-- 程序设计基础&#45;&gt;数据结构与算法i -->
<g id="edge7" class="edge">
<title>程序设计基础&#45;&gt;数据结构与算法i</title>
<path fill="none" stroke="black" d="M943.77,-291.25C980,-280.13 1031.23,-264.4 1070.32,-252.4"/>
<polygon fill="black" stroke="black" points="1071.44,-255.72 1079.98,-249.44 1069.39,-249.03 1071.44,-255.72"/>
</g>
<!-- 数据结构与程序设计专题实验 -->
<g id="node15" class="node">
<title>数据结构与程序设计专题实验</title>
<ellipse fill="none" stroke="black" cx="1391" cy="-162" rx="156.77" ry="18"/>
<text text-anchor="middle" x="1391" y="-158.3" font-family="Times New Roman,serif" font-size="14.00">数据结构与程序设计专题实验</text>
</g>
<!-- 数据结构与算法i&#45;&gt;数据结构与程序设计专题实验 -->
<g id="edge11" class="edge">
<title>数据结构与算法i&#45;&gt;数据结构与程序设计专题实验</title>
<path fill="none" stroke="black" d="M1175.49,-218.67C1215.11,-207.78 1271.67,-192.75 1316.93,-181.05"/>
<polygon fill="black" stroke="black" points="1317.9,-184.42 1326.71,-178.53 1316.15,-177.64 1317.9,-184.42"/>
</g>
<!-- 计算机网络原理 -->
<g id="node16" class="node">
<title>计算机网络原理</title>
<ellipse fill="none" stroke="black" cx="1127" cy="-162" rx="89.08" ry="18"/>
<text text-anchor="middle" x="1127" y="-158.3" font-family="Times New Roman,serif" font-size="14.00">计算机网络原理</text>
</g>
<!-- 数据结构与算法i&#45;&gt;计算机网络原理 -->
<g id="edge12" class="edge">
<title>数据结构与算法i&#45;&gt;计算机网络原理</title>
<path fill="none" stroke="black" d="M1121.08,-215.7C1120.29,-207.98 1120.06,-198.71 1120.4,-190.11"/>
<polygon fill="black" stroke="black" points="1123.9,-190.32 1121.1,-180.1 1116.92,-189.84 1123.9,-190.32"/>
</g>
<!-- 电路 -->
<g id="node10" class="node">
<title>电路</title>
<ellipse fill="none" stroke="black" cx="610" cy="-378" rx="33.29" ry="18"/>
<text text-anchor="middle" x="610" y="-374.3" font-family="Times New Roman,serif" font-size="14.00">电路</text>
</g>
<!-- 离散数学a -->
<g id="node11" class="node">
<title>离散数学a</title>
<ellipse fill="none" stroke="black" cx="610" cy="-306" rx="59.59" ry="18"/>
<text text-anchor="middle" x="610" y="-302.3" font-family="Times New Roman,serif" font-size="14.00">离散数学a</text>
</g>
<!-- 电路&#45;&gt;离散数学a -->
<g id="edge8" class="edge">
<title>电路&#45;&gt;离散数学a</title>
<path fill="none" stroke="black" d="M604.12,-360.05C603.3,-352.35 603.06,-343.03 603.39,-334.36"/>
<polygon fill="black" stroke="black" points="606.89,-334.49 604.09,-324.28 599.91,-334.01 606.89,-334.49"/>
</g>
<!-- 离散数学a&#45;&gt;电路 -->
<g id="edge13" class="edge">
<title>离散数学a&#45;&gt;电路</title>
<path fill="none" stroke="black" d="M615.91,-324.28C616.71,-332.03 616.94,-341.36 616.59,-350.01"/>
<polygon fill="black" stroke="black" points="613.09,-349.83 615.88,-360.05 620.08,-350.33 613.09,-349.83"/>
</g>
<!-- 大学物理实验i2 -->
<g id="node17" class="node">
<title>大学物理实验i2</title>
<ellipse fill="none" stroke="black" cx="1069" cy="-594" rx="84.49" ry="18"/>
<text text-anchor="middle" x="1069" y="-590.3" font-family="Times New Roman,serif" font-size="14.00">大学物理实验i2</text>
</g>
<!-- 离散数学a&#45;&gt;大学物理实验i2 -->
<g id="edge14" class="edge">
<title>离散数学a&#45;&gt;大学物理实验i2</title>
<path fill="none" stroke="black" d="M585,-322.59C541.5,-351.67 460.07,-415.93 499,-468 555.65,-543.77 833.03,-575.52 978.91,-587.14"/>
<polygon fill="black" stroke="black" points="978.94,-590.66 989.18,-587.95 979.49,-583.68 978.94,-590.66"/>
</g>
<!-- 形式语言与编译 -->
<g id="node18" class="node">
<title>形式语言与编译</title>
<ellipse fill="none" stroke="black" cx="606" cy="-234" rx="89.08" ry="18"/>
<text text-anchor="middle" x="606" y="-230.3" font-family="Times New Roman,serif" font-size="14.00">形式语言与编译</text>
</g>
<!-- 离散数学a&#45;&gt;形式语言与编译 -->
<g id="edge15" class="edge">
<title>离散数学a&#45;&gt;形式语言与编译</title>
<path fill="none" stroke="black" d="M603.15,-288.05C601.89,-280.35 601.12,-271.03 600.96,-262.36"/>
<polygon fill="black" stroke="black" points="604.46,-262.31 601.07,-252.28 597.46,-262.23 604.46,-262.31"/>
</g>
<!-- 数理逻辑 -->
<g id="node19" class="node">
<title>数理逻辑</title>
<ellipse fill="none" stroke="black" cx="443" cy="-234" rx="55.79" ry="18"/>
<text text-anchor="middle" x="443" y="-230.3" font-family="Times New Roman,serif" font-size="14.00">数理逻辑</text>
</g>
<!-- 离散数学a&#45;&gt;数理逻辑 -->
<g id="edge16" class="edge">
<title>离散数学a&#45;&gt;数理逻辑</title>
<path fill="none" stroke="black" d="M572.76,-291.67C545.5,-280.88 508.77,-265.57 481.28,-253.58"/>
<polygon fill="black" stroke="black" points="482.54,-250.31 471.97,-249.49 479.72,-256.72 482.54,-250.31"/>
</g>
<!-- 概率统计与随机过程 -->
<g id="node12" class="node">
<title>概率统计与随机过程</title>
<ellipse fill="none" stroke="black" cx="178" cy="-306" rx="111.58" ry="18"/>
<text text-anchor="middle" x="178" y="-302.3" font-family="Times New Roman,serif" font-size="14.00">概率统计与随机过程</text>
</g>
<!-- 数字逻辑电路 -->
<g id="node13" class="node">
<title>数字逻辑电路</title>
<ellipse fill="none" stroke="black" cx="830" cy="-522" rx="77.99" ry="18"/>
<text text-anchor="middle" x="830" y="-518.3" font-family="Times New Roman,serif" font-size="14.00">数字逻辑电路</text>
</g>
<!-- 概率统计与随机过程&#45;&gt;数字逻辑电路 -->
<g id="edge9" class="edge">
<title>概率统计与随机过程&#45;&gt;数字逻辑电路</title>
<path fill="none" stroke="black" d="M176.63,-324.23C176.04,-344.23 178.34,-376.9 197,-396 272.12,-472.92 590.51,-504.77 745.09,-515.89"/>
<polygon fill="black" stroke="black" points="745.26,-519.41 755.49,-516.62 745.76,-512.43 745.26,-519.41"/>
</g>
<!-- 操作系统设计专题实验 -->
<g id="node14" class="node">
<title>操作系统设计专题实验</title>
<ellipse fill="none" stroke="black" cx="329" cy="-378" rx="122.68" ry="18"/>
<text text-anchor="middle" x="329" y="-374.3" font-family="Times New Roman,serif" font-size="14.00">操作系统设计专题实验</text>
</g>
<!-- 概率统计与随机过程&#45;&gt;操作系统设计专题实验 -->
<g id="edge10" class="edge">
<title>概率统计与随机过程&#45;&gt;操作系统设计专题实验</title>
<path fill="none" stroke="black" d="M217.99,-322.87C240.27,-332.67 267.81,-345.36 289.94,-356"/>
<polygon fill="black" stroke="black" points="288.53,-359.2 299.06,-360.41 291.58,-352.9 288.53,-359.2"/>
</g>
<!-- 模拟电子技术基础 -->
<g id="node23" class="node">
<title>模拟电子技术基础</title>
<ellipse fill="none" stroke="black" cx="761" cy="-450" rx="100.98" ry="18"/>
<text text-anchor="middle" x="761" y="-446.3" font-family="Times New Roman,serif" font-size="14.00">模拟电子技术基础</text>
</g>
<!-- 数字逻辑电路&#45;&gt;模拟电子技术基础 -->
<g id="edge34" class="edge">
<title>数字逻辑电路&#45;&gt;模拟电子技术基础</title>
<path fill="none" stroke="black" d="M813.3,-504.05C804.74,-495.37 794.16,-484.64 784.77,-475.11"/>
<polygon fill="black" stroke="black" points="787.06,-472.45 777.55,-467.79 782.08,-477.37 787.06,-472.45"/>
</g>
<!-- 数据库系统 -->
<g id="node30" class="node">
<title>数据库系统</title>
<ellipse fill="none" stroke="black" cx="575" cy="-450" rx="66.89" ry="18"/>
<text text-anchor="middle" x="575" y="-446.3" font-family="Times New Roman,serif" font-size="14.00">数据库系统</text>
</g>
<!-- 数字逻辑电路&#45;&gt;数据库系统 -->
<g id="edge35" class="edge">
<title>数字逻辑电路&#45;&gt;数据库系统</title>
<path fill="none" stroke="black" d="M781.74,-507.75C738.51,-495.89 675.16,-478.49 629.99,-466.1"/>
<polygon fill="black" stroke="black" points="630.64,-462.64 620.07,-463.37 628.79,-469.4 630.64,-462.64"/>
</g>
<!-- 软件工程 -->
<g id="node31" class="node">
<title>软件工程</title>
<ellipse fill="none" stroke="black" cx="899" cy="-378" rx="55.79" ry="18"/>
<text text-anchor="middle" x="899" y="-374.3" font-family="Times New Roman,serif" font-size="14.00">软件工程</text>
</g>
<!-- 数字逻辑电路&#45;&gt;软件工程 -->
<g id="edge36" class="edge">
<title>数字逻辑电路&#45;&gt;软件工程</title>
<path fill="none" stroke="black" d="M837.8,-503.93C845.17,-494.03 855.21,-480.99 862,-468 872.4,-448.11 879.74,-423.67 885.72,-405.44"/>
<polygon fill="black" stroke="black" points="889.11,-406.36 889,-395.76 882.48,-404.11 889.11,-406.36"/>
</g>
<!-- 操作系统设计专题实验&#45;&gt;概率统计与随机过程 -->
<g id="edge43" class="edge">
<title>操作系统设计专题实验&#45;&gt;概率统计与随机过程</title>
<path fill="none" stroke="black" d="M288.58,-360.94C266.28,-351.12 238.81,-338.46 216.78,-327.87"/>
<polygon fill="black" stroke="black" points="218.23,-324.68 207.7,-323.47 215.18,-330.98 218.23,-324.68"/>
</g>
<!-- 编译器设计专题实验 -->
<g id="node29" class="node">
<title>编译器设计专题实验</title>
<ellipse fill="none" stroke="black" cx="420" cy="-306" rx="111.58" ry="18"/>
<text text-anchor="middle" x="420" y="-302.3" font-family="Times New Roman,serif" font-size="14.00">编译器设计专题实验</text>
</g>
<!-- 操作系统设计专题实验&#45;&gt;编译器设计专题实验 -->
<g id="edge44" class="edge">
<title>操作系统设计专题实验&#45;&gt;编译器设计专题实验</title>
<path fill="none" stroke="black" d="M351.03,-360.05C362.77,-351.03 377.37,-339.79 390.12,-329.99"/>
<polygon fill="black" stroke="black" points="392.38,-332.66 398.17,-323.79 388.11,-327.11 392.38,-332.66"/>
</g>
<!-- 操作系统原理i -->
<g id="node34" class="node">
<title>操作系统原理i</title>
<ellipse fill="none" stroke="black" cx="653" cy="-90" rx="79.89" ry="18"/>
<text text-anchor="middle" x="653" y="-86.3" font-family="Times New Roman,serif" font-size="14.00">操作系统原理i</text>
</g>
<!-- 操作系统设计专题实验&#45;&gt;操作系统原理i -->
<g id="edge45" class="edge">
<title>操作系统设计专题实验&#45;&gt;操作系统原理i</title>
<path fill="none" stroke="black" d="M445.54,-372.12C533.26,-366.15 644.14,-352.97 679,-324 740.71,-272.71 724.18,-217.94 693,-144 688.77,-133.96 682.21,-124.11 675.62,-115.68"/>
<polygon fill="black" stroke="black" points="678.16,-113.26 669.1,-107.77 672.76,-117.71 678.16,-113.26"/>
</g>
<!-- 数据结构与程序设计专题实验&#45;&gt;数据结构与算法i -->
<g id="edge21" class="edge">
<title>数据结构与程序设计专题实验&#45;&gt;数据结构与算法i</title>
<path fill="none" stroke="black" d="M1336.5,-178.98C1294.68,-190.42 1236.87,-205.75 1192.53,-217.15"/>
<polygon fill="black" stroke="black" points="1191.53,-213.79 1182.71,-219.67 1193.27,-220.57 1191.53,-213.79"/>
</g>
<!-- 计算机网络原理&#45;&gt;数据结构与算法i -->
<g id="edge41" class="edge">
<title>计算机网络原理&#45;&gt;数据结构与算法i</title>
<path fill="none" stroke="black" d="M1132.9,-180.1C1133.7,-187.79 1133.94,-197.05 1133.6,-205.67"/>
<polygon fill="black" stroke="black" points="1130.11,-205.48 1132.92,-215.7 1137.09,-205.96 1130.11,-205.48"/>
</g>
<!-- 计算机网络原理&#45;&gt;操作系统原理i -->
<g id="edge42" class="edge">
<title>计算机网络原理&#45;&gt;操作系统原理i</title>
<path fill="none" stroke="black" d="M1063.02,-149.46C1051.7,-147.54 1040.02,-145.65 1029,-144 901.86,-125.01 868.98,-128.07 742,-108 735.21,-106.93 728.15,-105.73 721.11,-104.47"/>
<polygon fill="black" stroke="black" points="721.3,-100.95 710.83,-102.6 720.05,-107.84 721.3,-100.95"/>
</g>
<!-- 大学物理实验i2&#45;&gt;程序设计基础 -->
<g id="edge17" class="edge">
<title>大学物理实验i2&#45;&gt;程序设计基础</title>
<path fill="none" stroke="black" d="M1072,-575.79C1076.48,-544.94 1081.97,-479.04 1057,-432 1031.45,-383.87 978.48,-348.02 940.93,-327.34"/>
<polygon fill="black" stroke="black" points="942.21,-324.05 931.74,-322.41 938.9,-330.22 942.21,-324.05"/>
</g>
<!-- 大学物理实验i2&#45;&gt;数字逻辑电路 -->
<g id="edge19" class="edge">
<title>大学物理实验i2&#45;&gt;数字逻辑电路</title>
<path fill="none" stroke="black" d="M1021.5,-579.09C982.43,-567.64 926.99,-551.41 885.81,-539.35"/>
<polygon fill="black" stroke="black" points="886.78,-535.98 876.2,-536.53 884.81,-542.7 886.78,-535.98"/>
</g>
<!-- 面向对象程序设计 -->
<g id="node20" class="node">
<title>面向对象程序设计</title>
<ellipse fill="none" stroke="black" cx="1249" cy="-522" rx="100.98" ry="18"/>
<text text-anchor="middle" x="1249" y="-518.3" font-family="Times New Roman,serif" font-size="14.00">面向对象程序设计</text>
</g>
<!-- 大学物理实验i2&#45;&gt;面向对象程序设计 -->
<g id="edge18" class="edge">
<title>大学物理实验i2&#45;&gt;面向对象程序设计</title>
<path fill="none" stroke="black" d="M1107.61,-577.98C1134.44,-567.55 1170.42,-553.56 1199.37,-542.3"/>
<polygon fill="black" stroke="black" points="1200.84,-545.48 1208.89,-538.6 1198.3,-538.96 1200.84,-545.48"/>
</g>
<!-- 计算机系统综合设计实验 -->
<g id="node21" class="node">
<title>计算机系统综合设计实验</title>
<ellipse fill="none" stroke="black" cx="1069" cy="-666" rx="133.78" ry="18"/>
<text text-anchor="middle" x="1069" y="-662.3" font-family="Times New Roman,serif" font-size="14.00">计算机系统综合设计实验</text>
</g>
<!-- 大学物理实验i2&#45;&gt;计算机系统综合设计实验 -->
<g id="edge20" class="edge">
<title>大学物理实验i2&#45;&gt;计算机系统综合设计实验</title>
<path fill="none" stroke="black" d="M1074.9,-612.1C1075.7,-619.79 1075.94,-629.05 1075.6,-637.67"/>
<polygon fill="black" stroke="black" points="1072.11,-637.48 1074.92,-647.7 1079.09,-637.96 1072.11,-637.48"/>
</g>
<!-- 形式语言与编译&#45;&gt;离散数学a -->
<g id="edge26" class="edge">
<title>形式语言与编译&#45;&gt;离散数学a</title>
<path fill="none" stroke="black" d="M612.9,-252.28C614.14,-260.03 614.9,-269.36 615.05,-278.01"/>
<polygon fill="black" stroke="black" points="611.55,-278.01 614.91,-288.05 618.55,-278.1 611.55,-278.01"/>
</g>
<!-- 计算机组成 -->
<g id="node25" class="node">
<title>计算机组成</title>
<ellipse fill="none" stroke="black" cx="617" cy="-162" rx="66.89" ry="18"/>
<text text-anchor="middle" x="617" y="-158.3" font-family="Times New Roman,serif" font-size="14.00">计算机组成</text>
</g>
<!-- 形式语言与编译&#45;&gt;计算机组成 -->
<g id="edge27" class="edge">
<title>形式语言与编译&#45;&gt;计算机组成</title>
<path fill="none" stroke="black" d="M608.72,-215.7C609.93,-207.98 611.39,-198.71 612.74,-190.11"/>
<polygon fill="black" stroke="black" points="616.22,-190.53 614.31,-180.1 609.3,-189.44 616.22,-190.53"/>
</g>
<!-- 毕业设计（论文） -->
<g id="node26" class="node">
<title>毕业设计（论文）</title>
<ellipse fill="none" stroke="black" cx="198" cy="-162" rx="100.98" ry="18"/>
<text text-anchor="middle" x="198" y="-158.3" font-family="Times New Roman,serif" font-size="14.00">毕业设计（论文）</text>
</g>
<!-- 形式语言与编译&#45;&gt;毕业设计（论文） -->
<g id="edge28" class="edge">
<title>形式语言与编译&#45;&gt;毕业设计（论文）</title>
<path fill="none" stroke="black" d="M540.9,-221.68C529.92,-219.78 518.64,-217.83 508,-216 430.01,-202.57 340.97,-187.36 278.39,-176.69"/>
<polygon fill="black" stroke="black" points="278.63,-173.18 268.19,-174.95 277.46,-180.08 278.63,-173.18"/>
</g>
<!-- 数理逻辑&#45;&gt;离散数学a -->
<g id="edge39" class="edge">
<title>数理逻辑&#45;&gt;离散数学a</title>
<path fill="none" stroke="black" d="M478.96,-247.83C506.04,-258.52 542.98,-273.9 570.79,-286.02"/>
<polygon fill="black" stroke="black" points="569.66,-289.34 580.22,-290.15 572.47,-282.93 569.66,-289.34"/>
</g>
<!-- 计算机图形学 -->
<g id="node22" class="node">
<title>计算机图形学</title>
<ellipse fill="none" stroke="black" cx="1249" cy="-450" rx="77.99" ry="18"/>
<text text-anchor="middle" x="1249" y="-446.3" font-family="Times New Roman,serif" font-size="14.00">计算机图形学</text>
</g>
<!-- 面向对象程序设计&#45;&gt;计算机图形学 -->
<g id="edge22" class="edge">
<title>面向对象程序设计&#45;&gt;计算机图形学</title>
<path fill="none" stroke="black" d="M1249,-503.7C1249,-495.98 1249,-486.71 1249,-478.11"/>
<polygon fill="black" stroke="black" points="1252.5,-478.1 1249,-468.1 1245.5,-478.1 1252.5,-478.1"/>
</g>
<!-- 计算机系统综合设计实验&#45;&gt;大学物理实验i2 -->
<g id="edge56" class="edge">
<title>计算机系统综合设计实验&#45;&gt;大学物理实验i2</title>
<path fill="none" stroke="black" d="M1063.08,-647.7C1062.29,-639.98 1062.06,-630.71 1062.4,-622.11"/>
<polygon fill="black" stroke="black" points="1065.9,-622.32 1063.1,-612.1 1058.92,-621.84 1065.9,-622.32"/>
</g>
<!-- 模拟电子技术基础&#45;&gt;电路 -->
<g id="edge23" class="edge">
<title>模拟电子技术基础&#45;&gt;电路</title>
<path fill="none" stroke="black" d="M726.36,-432.94C701.61,-421.47 668.47,-406.11 643.89,-394.71"/>
<polygon fill="black" stroke="black" points="645.14,-391.43 634.6,-390.4 642.2,-397.78 645.14,-391.43"/>
</g>
<!-- 模拟电子技术基础&#45;&gt;形式语言与编译 -->
<g id="edge24" class="edge">
<title>模拟电子技术基础&#45;&gt;形式语言与编译</title>
<path fill="none" stroke="black" d="M755.35,-431.94C744.41,-400.75 717.91,-333.55 679,-288 668.83,-276.1 655.48,-265.41 642.98,-256.81"/>
<polygon fill="black" stroke="black" points="644.77,-253.8 634.51,-251.19 640.91,-259.63 644.77,-253.8"/>
</g>
<!-- 电子技术实验1 -->
<g id="node24" class="node">
<title>电子技术实验1</title>
<ellipse fill="none" stroke="black" cx="1136" cy="-378" rx="82.59" ry="18"/>
<text text-anchor="middle" x="1136" y="-374.3" font-family="Times New Roman,serif" font-size="14.00">电子技术实验1</text>
</g>
<!-- 模拟电子技术基础&#45;&gt;电子技术实验1 -->
<g id="edge25" class="edge">
<title>模拟电子技术基础&#45;&gt;电子技术实验1</title>
<path fill="none" stroke="black" d="M828.04,-436.49C894.87,-424.01 997.1,-404.93 1065.22,-392.21"/>
<polygon fill="black" stroke="black" points="1066.24,-395.58 1075.43,-390.31 1064.95,-388.7 1066.24,-395.58"/>
</g>
<!-- 电子技术实验2 -->
<g id="node27" class="node">
<title>电子技术实验2</title>
<ellipse fill="none" stroke="black" cx="1231" cy="-738" rx="82.59" ry="18"/>
<text text-anchor="middle" x="1231" y="-734.3" font-family="Times New Roman,serif" font-size="14.00">电子技术实验2</text>
</g>
<!-- 电子技术实验1&#45;&gt;电子技术实验2 -->
<g id="edge29" class="edge">
<title>电子技术实验1&#45;&gt;电子技术实验2</title>
<path fill="none" stroke="black" d="M1216.43,-382.47C1256.95,-388.24 1304.11,-401.68 1336,-432 1360.34,-455.15 1353.83,-470.81 1359,-504 1372.25,-589 1298.34,-673.75 1257.18,-713.55"/>
<polygon fill="black" stroke="black" points="1254.75,-711.02 1249.9,-720.44 1259.57,-716.1 1254.75,-711.02"/>
</g>
<!-- 计算机网络专题实验 -->
<g id="node28" class="node">
<title>计算机网络专题实验</title>
<ellipse fill="none" stroke="black" cx="1107" cy="-306" rx="111.58" ry="18"/>
<text text-anchor="middle" x="1107" y="-302.3" font-family="Times New Roman,serif" font-size="14.00">计算机网络专题实验</text>
</g>
<!-- 电子技术实验1&#45;&gt;计算机网络专题实验 -->
<g id="edge30" class="edge">
<title>电子技术实验1&#45;&gt;计算机网络专题实验</title>
<path fill="none" stroke="black" d="M1128.98,-360.05C1125.72,-352.18 1121.76,-342.62 1118.1,-333.79"/>
<polygon fill="black" stroke="black" points="1121.22,-332.17 1114.16,-324.28 1114.75,-334.85 1121.22,-332.17"/>
</g>
<!-- 计算机组成&#45;&gt;操作系统原理i -->
<g id="edge40" class="edge">
<title>计算机组成&#45;&gt;操作系统原理i</title>
<path fill="none" stroke="black" d="M625.71,-144.05C629.85,-136.01 634.89,-126.2 639.51,-117.23"/>
<polygon fill="black" stroke="black" points="642.65,-118.77 644.12,-108.28 636.43,-115.57 642.65,-118.77"/>
</g>
<!-- 毕业设计（论文）&#45;&gt;计算机系统综合设计实验 -->
<g id="edge59" class="edge">
<title>毕业设计（论文）&#45;&gt;计算机系统综合设计实验</title>
<path fill="none" stroke="black" d="M156.8,-178.56C109.39,-199.47 38,-241.49 38,-305 38,-523 38,-523 38,-523 38,-612.1 650.09,-648.2 931.02,-660.07"/>
<polygon fill="black" stroke="black" points="931.15,-663.58 941.29,-660.5 931.44,-656.59 931.15,-663.58"/>
</g>
<!-- 毕业设计（论文）&#45;&gt;电子技术实验2 -->
<g id="edge58" class="edge">
<title>毕业设计（论文）&#45;&gt;电子技术实验2</title>
<path fill="none" stroke="black" d="M135.15,-176.22C108.01,-184.29 77.23,-196.86 54,-216 18.29,-245.42 0,-258.73 0,-305 0,-595 0,-595 0,-595 0,-709.55 852.13,-731.79 1138.45,-736.02"/>
<polygon fill="black" stroke="black" points="1138.75,-739.53 1148.8,-736.17 1138.85,-732.53 1138.75,-739.53"/>
</g>
<!-- 电子技术实验2&#45;&gt;数据结构与程序设计专题实验 -->
<g id="edge32" class="edge">
<title>电子技术实验2&#45;&gt;数据结构与程序设计专题实验</title>
<path fill="none" stroke="black" d="M1286.87,-724.69C1379.79,-702.59 1556,-653.03 1556,-595 1556,-595 1556,-595 1556,-305 1556,-264.55 1563.56,-246.5 1537,-216 1522.94,-199.85 1503.55,-188.62 1483.49,-180.81"/>
<polygon fill="black" stroke="black" points="1484.52,-177.46 1473.93,-177.35 1482.14,-184.04 1484.52,-177.46"/>
</g>
<!-- 电子技术实验2&#45;&gt;计算机系统综合设计实验 -->
<g id="edge33" class="edge">
<title>电子技术实验2&#45;&gt;计算机系统综合设计实验</title>
<path fill="none" stroke="black" d="M1195.45,-721.64C1172.16,-711.57 1141.46,-698.31 1116.14,-687.37"/>
<polygon fill="black" stroke="black" points="1117.29,-684.05 1106.72,-683.3 1114.52,-690.48 1117.29,-684.05"/>
</g>
<!-- 计算机网络专题实验&#45;&gt;计算机网络原理 -->
<g id="edge51" class="edge">
<title>计算机网络专题实验&#45;&gt;计算机网络原理</title>
<path fill="none" stroke="black" d="M1067.5,-288.93C1051.95,-280.42 1035.75,-268.29 1027,-252 1019.43,-237.9 1018.75,-229.71 1027,-216 1036.32,-200.52 1051.84,-189.32 1067.91,-181.33"/>
<polygon fill="black" stroke="black" points="1069.76,-184.33 1077.4,-176.98 1066.85,-177.97 1069.76,-184.33"/>
</g>
<!-- 计算机组成与结构专题实验 -->
<g id="node35" class="node">
<title>计算机组成与结构专题实验</title>
<ellipse fill="none" stroke="black" cx="1382" cy="-234" rx="145.67" ry="18"/>
<text text-anchor="middle" x="1382" y="-230.3" font-family="Times New Roman,serif" font-size="14.00">计算机组成与结构专题实验</text>
</g>
<!-- 计算机网络专题实验&#45;&gt;计算机组成与结构专题实验 -->
<g id="edge52" class="edge">
<title>计算机网络专题实验&#45;&gt;计算机组成与结构专题实验</title>
<path fill="none" stroke="black" d="M1160.01,-290.07C1201.79,-279.09 1260.49,-264.12 1307.07,-252.56"/>
<polygon fill="black" stroke="black" points="1307.94,-255.95 1316.81,-250.15 1306.26,-249.15 1307.94,-255.95"/>
</g>
<!-- 编译器设计专题实验&#45;&gt;毕业设计（论文） -->
<g id="edge31" class="edge">
<title>编译器设计专题实验&#45;&gt;毕业设计（论文）</title>
<path fill="none" stroke="black" d="M394.1,-288.43C354,-262.78 276.85,-213.44 232.21,-184.88"/>
<polygon fill="black" stroke="black" points="234.05,-181.9 223.74,-179.46 230.27,-187.8 234.05,-181.9"/>
</g>
<!-- 数据库系统&#45;&gt;操作系统设计专题实验 -->
<g id="edge49" class="edge">
<title>数据库系统&#45;&gt;操作系统设计专题实验</title>
<path fill="none" stroke="black" d="M530.74,-436.4C492.24,-425.45 435.98,-409.44 392.65,-397.11"/>
<polygon fill="black" stroke="black" points="393.35,-393.67 382.77,-394.3 391.43,-400.4 393.35,-393.67"/>
</g>
<!-- 数据库系统&#45;&gt;软件工程 -->
<g id="edge50" class="edge">
<title>数据库系统&#45;&gt;软件工程</title>
<path fill="none" stroke="black" d="M624.45,-437.87C633.29,-435.9 642.41,-433.88 651,-432 716.99,-417.57 792.96,-401.4 843.25,-390.76"/>
<polygon fill="black" stroke="black" points="844.2,-394.13 853.26,-388.64 842.76,-387.28 844.2,-394.13"/>
</g>
<!-- 软件工程&#45;&gt;程序设计基础 -->
<g id="edge53" class="edge">
<title>软件工程&#45;&gt;程序设计基础</title>
<path fill="none" stroke="black" d="M899,-359.7C899,-351.98 899,-342.71 899,-334.11"/>
<polygon fill="black" stroke="black" points="902.5,-334.1 899,-324.1 895.5,-334.1 902.5,-334.1"/>
</g>
<!-- 软件工程&#45;&gt;数字逻辑电路 -->
<g id="edge54" class="edge">
<title>软件工程&#45;&gt;数字逻辑电路</title>
<path fill="none" stroke="black" d="M902.15,-396.1C900.34,-414.55 892.31,-444.46 880,-468 874.72,-478.1 867.47,-488.24 860.04,-496.9"/>
<polygon fill="black" stroke="black" points="857.35,-494.65 853.2,-504.4 862.53,-499.36 857.35,-494.65"/>
</g>
<!-- 软件工程&#45;&gt;计算机网络专题实验 -->
<g id="edge55" class="edge">
<title>软件工程&#45;&gt;计算机网络专题实验</title>
<path fill="none" stroke="black" d="M936.19,-364.49C968.26,-353.69 1015.03,-337.95 1051.53,-325.67"/>
<polygon fill="black" stroke="black" points="1052.69,-328.97 1061.05,-322.46 1050.46,-322.34 1052.69,-328.97"/>
</g>
<!-- 汇编语言 -->
<g id="node32" class="node">
<title>汇编语言</title>
<ellipse fill="none" stroke="black" cx="992" cy="-450" rx="55.79" ry="18"/>
<text text-anchor="middle" x="992" y="-446.3" font-family="Times New Roman,serif" font-size="14.00">汇编语言</text>
</g>
<!-- 汇编语言&#45;&gt;电子技术实验1 -->
<g id="edge37" class="edge">
<title>汇编语言&#45;&gt;电子技术实验1</title>
<path fill="none" stroke="black" d="M1021.49,-434.67C1042.63,-424.39 1071.38,-410.41 1094.79,-399.03"/>
<polygon fill="black" stroke="black" points="1096.33,-402.17 1103.8,-394.65 1093.27,-395.88 1096.33,-402.17"/>
</g>
<!-- 汇编语言&#45;&gt;软件工程 -->
<g id="edge38" class="edge">
<title>汇编语言&#45;&gt;软件工程</title>
<path fill="none" stroke="black" d="M970.9,-433.12C958.29,-423.63 942.1,-411.44 928.27,-401.03"/>
<polygon fill="black" stroke="black" points="930.11,-398.04 920.02,-394.82 925.9,-403.63 930.11,-398.04"/>
</g>
<!-- 数学建模ii -->
<g id="node33" class="node">
<title>数学建模ii</title>
<ellipse fill="none" stroke="black" cx="1640" cy="-738" rx="59.59" ry="18"/>
<text text-anchor="middle" x="1640" y="-734.3" font-family="Times New Roman,serif" font-size="14.00">数学建模ii</text>
</g>
<!-- 计算机组成与结构专题实验&#45;&gt;大学物理实验i2 -->
<g id="edge46" class="edge">
<title>计算机组成与结构专题实验&#45;&gt;大学物理实验i2</title>
<path fill="none" stroke="black" d="M1368.6,-252.18C1343.51,-283.57 1286.66,-351.09 1228,-396 1201.47,-416.31 1185.91,-408.66 1162,-432 1121.63,-471.4 1093.04,-532.03 1078.96,-566.55"/>
<polygon fill="black" stroke="black" points="1075.66,-565.37 1075.21,-575.96 1082.16,-567.96 1075.66,-565.37"/>
</g>
<!-- 计算机组成与结构专题实验&#45;&gt;计算机系统综合设计实验 -->
<g id="edge48" class="edge">
<title>计算机组成与结构专题实验&#45;&gt;计算机系统综合设计实验</title>
<path fill="none" stroke="black" d="M1388.88,-252.17C1398.82,-278.56 1416,-330.86 1416,-377 1416,-451 1416,-451 1416,-451 1416,-530.9 1399.47,-563.47 1336,-612 1311.46,-630.76 1242.36,-644.18 1180.61,-652.82"/>
<polygon fill="black" stroke="black" points="1179.81,-649.4 1170.38,-654.22 1180.76,-656.34 1179.81,-649.4"/>
</g>
<!-- 计算机组成与结构专题实验&#45;&gt;计算机网络专题实验 -->
<g id="edge47" class="edge">
<title>计算机组成与结构专题实验&#45;&gt;计算机网络专题实验</title>
<path fill="none" stroke="black" d="M1325.95,-250.73C1283.22,-261.94 1224.16,-276.98 1178.11,-288.39"/>
<polygon fill="black" stroke="black" points="1177.07,-285.04 1168.2,-290.83 1178.75,-291.83 1177.07,-285.04"/>
</g>
<!-- 人工智能 -->
<g id="node36" class="node">
<title>人工智能</title>
<ellipse fill="none" stroke="black" cx="1774" cy="-738" rx="55.79" ry="18"/>
<text text-anchor="middle" x="1774" y="-734.3" font-family="Times New Roman,serif" font-size="14.00">人工智能</text>
</g>
<!-- 软件定义网络 -->
<g id="node37" class="node">
<title>软件定义网络</title>
<ellipse fill="none" stroke="black" cx="1249" cy="-594" rx="77.99" ry="18"/>
<text text-anchor="middle" x="1249" y="-590.3" font-family="Times New Roman,serif" font-size="14.00">软件定义网络</text>
</g>
<!-- 软件定义网络&#45;&gt;面向对象程序设计 -->
<g id="edge57" class="edge">
<title>软件定义网络&#45;&gt;面向对象程序设计</title>
<path fill="none" stroke="black" d="M1249,-575.7C1249,-567.98 1249,-558.71 1249,-550.11"/>
<polygon fill="black" stroke="black" points="1252.5,-550.1 1249,-540.1 1245.5,-550.1 1252.5,-550.1"/>
</g>
</g>
</svg>
