<?xml version="1.0" encoding="UTF-8" standalone="no"?>
<!DOCTYPE svg PUBLIC "-//W3C//DTD SVG 1.1//EN"
 "http://www.w3.org/Graphics/SVG/1.1/DTD/svg11.dtd">
<!-- Generated by graphviz version 2.46.0 (20210118.1747)
 -->
<!-- Pages: 1 -->
<svg width="2490pt" height="836pt"
 viewBox="0.00 0.00 2489.69 836.00" xmlns="http://www.w3.org/2000/svg" xmlns:xlink="http://www.w3.org/1999/xlink">
<g id="graph0" class="graph" transform="scale(1 1) rotate(0) translate(4 832)">
<polygon fill="white" stroke="transparent" points="-4,4 -4,-832 2485.69,-832 2485.69,4 -4,4"/>
<!-- 高等数学i1 -->
<g id="node1" class="node">
<title>高等数学i1</title>
<ellipse fill="none" stroke="black" cx="728.69" cy="-306" rx="61.99" ry="18"/>
<text text-anchor="middle" x="728.69" y="-302.3" font-family="Times New Roman,serif" font-size="14.00">高等数学i1</text>
</g>
<!-- 大学物理实验i1 -->
<g id="node2" class="node">
<title>大学物理实验i1</title>
<ellipse fill="none" stroke="black" cx="267.69" cy="-234" rx="84.49" ry="18"/>
<text text-anchor="middle" x="267.69" y="-230.3" font-family="Times New Roman,serif" font-size="14.00">大学物理实验i1</text>
</g>
<!-- 高等数学i1&#45;&gt;大学物理实验i1 -->
<g id="edge1" class="edge">
<title>高等数学i1&#45;&gt;大学物理实验i1</title>
<path fill="none" stroke="black" d="M684.03,-293.42C675.65,-291.46 666.93,-289.55 658.69,-288 553.63,-268.18 431.34,-252.83 351.88,-243.86"/>
<polygon fill="black" stroke="black" points="352.26,-240.38 341.93,-242.75 351.48,-247.34 352.26,-240.38"/>
</g>
<!-- 大学物理ii1 -->
<g id="node4" class="node">
<title>大学物理ii1</title>
<ellipse fill="none" stroke="black" cx="63.69" cy="-162" rx="63.89" ry="18"/>
<text text-anchor="middle" x="63.69" y="-158.3" font-family="Times New Roman,serif" font-size="14.00">大学物理ii1</text>
</g>
<!-- 大学物理实验i1&#45;&gt;大学物理ii1 -->
<g id="edge2" class="edge">
<title>大学物理实验i1&#45;&gt;大学物理ii1</title>
<path fill="none" stroke="black" d="M224.93,-218.33C192.07,-207.05 146.66,-191.47 112.4,-179.71"/>
<polygon fill="black" stroke="black" points="113.2,-176.29 102.61,-176.35 110.93,-182.91 113.2,-176.29"/>
</g>
<!-- 线性代数与解析几何ii -->
<g id="node3" class="node">
<title>线性代数与解析几何ii</title>
<ellipse fill="none" stroke="black" cx="1794.69" cy="-810" rx="115.88" ry="18"/>
<text text-anchor="middle" x="1794.69" y="-806.3" font-family="Times New Roman,serif" font-size="14.00">线性代数与解析几何ii</text>
</g>
<!-- 大学物理ii2 -->
<g id="node5" class="node">
<title>大学物理ii2</title>
<ellipse fill="none" stroke="black" cx="63.69" cy="-90" rx="63.89" ry="18"/>
<text text-anchor="middle" x="63.69" y="-86.3" font-family="Times New Roman,serif" font-size="14.00">大学物理ii2</text>
</g>
<!-- 大学物理ii1&#45;&gt;大学物理ii2 -->
<g id="edge3" class="edge">
<title>大学物理ii1&#45;&gt;大学物理ii2</title>
<path fill="none" stroke="black" d="M63.69,-143.7C63.69,-135.98 63.69,-126.71 63.69,-118.11"/>
<polygon fill="black" stroke="black" points="67.19,-118.1 63.69,-108.1 60.19,-118.1 67.19,-118.1"/>
</g>
<!-- 高等数学i2 -->
<g id="node6" class="node">
<title>高等数学i2</title>
<ellipse fill="none" stroke="black" cx="831.69" cy="-378" rx="61.99" ry="18"/>
<text text-anchor="middle" x="831.69" y="-374.3" font-family="Times New Roman,serif" font-size="14.00">高等数学i2</text>
</g>
<!-- 高等数学i2&#45;&gt;高等数学i1 -->
<g id="edge4" class="edge">
<title>高等数学i2&#45;&gt;高等数学i1</title>
<path fill="none" stroke="black" d="M808.58,-361.29C794.37,-351.63 775.96,-339.12 760.4,-328.55"/>
<polygon fill="black" stroke="black" points="762.33,-325.63 752.09,-322.9 758.39,-331.41 762.33,-325.63"/>
</g>
<!-- 工程制图iii -->
<g id="node7" class="node">
<title>工程制图iii</title>
<ellipse fill="none" stroke="black" cx="869.69" cy="-306" rx="61.99" ry="18"/>
<text text-anchor="middle" x="869.69" y="-302.3" font-family="Times New Roman,serif" font-size="14.00">工程制图iii</text>
</g>
<!-- 高等数学i2&#45;&gt;工程制图iii -->
<g id="edge5" class="edge">
<title>高等数学i2&#45;&gt;工程制图iii</title>
<path fill="none" stroke="black" d="M840.89,-360.05C845.26,-352.01 850.58,-342.2 855.46,-333.23"/>
<polygon fill="black" stroke="black" points="858.62,-334.73 860.32,-324.28 852.47,-331.39 858.62,-334.73"/>
</g>
<!-- 程序设计基础 -->
<g id="node8" class="node">
<title>程序设计基础</title>
<ellipse fill="none" stroke="black" cx="261.69" cy="-306" rx="77.99" ry="18"/>
<text text-anchor="middle" x="261.69" y="-302.3" font-family="Times New Roman,serif" font-size="14.00">程序设计基础</text>
</g>
<!-- 程序设计基础&#45;&gt;大学物理实验i1 -->
<g id="edge6" class="edge">
<title>程序设计基础&#45;&gt;大学物理实验i1</title>
<path fill="none" stroke="black" d="M263.18,-287.7C263.84,-279.98 264.63,-270.71 265.37,-262.11"/>
<polygon fill="black" stroke="black" points="268.86,-262.37 266.23,-252.1 261.89,-261.77 268.86,-262.37"/>
</g>
<!-- 数据结构与算法i -->
<g id="node9" class="node">
<title>数据结构与算法i</title>
<ellipse fill="none" stroke="black" cx="995.69" cy="-234" rx="90.98" ry="18"/>
<text text-anchor="middle" x="995.69" y="-230.3" font-family="Times New Roman,serif" font-size="14.00">数据结构与算法i</text>
</g>
<!-- 程序设计基础&#45;&gt;数据结构与算法i -->
<g id="edge7" class="edge">
<title>程序设计基础&#45;&gt;数据结构与算法i</title>
<path fill="none" stroke="black" d="M317.23,-293.19C327.65,-291.25 338.48,-289.41 348.69,-288 542.58,-261.2 771.17,-246.37 898.15,-239.6"/>
<polygon fill="black" stroke="black" points="898.43,-243.09 908.24,-239.07 898.07,-236.1 898.43,-243.09"/>
</g>
<!-- 数据结构与程序设计专题实验 -->
<g id="node17" class="node">
<title>数据结构与程序设计专题实验</title>
<ellipse fill="none" stroke="black" cx="1170.69" cy="-18" rx="156.77" ry="18"/>
<text text-anchor="middle" x="1170.69" y="-14.3" font-family="Times New Roman,serif" font-size="14.00">数据结构与程序设计专题实验</text>
</g>
<!-- 数据结构与算法i&#45;&gt;数据结构与程序设计专题实验 -->
<g id="edge14" class="edge">
<title>数据结构与算法i&#45;&gt;数据结构与程序设计专题实验</title>
<path fill="none" stroke="black" d="M997.77,-215.72C1002.47,-183.56 1016.75,-113.99 1055.69,-72 1069.06,-57.59 1087.12,-46.78 1104.96,-38.81"/>
<polygon fill="black" stroke="black" points="1106.39,-42.01 1114.25,-34.9 1103.67,-35.56 1106.39,-42.01"/>
</g>
<!-- 电路 -->
<g id="node10" class="node">
<title>电路</title>
<ellipse fill="none" stroke="black" cx="1278.69" cy="-738" rx="33.29" ry="18"/>
<text text-anchor="middle" x="1278.69" y="-734.3" font-family="Times New Roman,serif" font-size="14.00">电路</text>
</g>
<!-- 数字逻辑电路 -->
<g id="node11" class="node">
<title>数字逻辑电路</title>
<ellipse fill="none" stroke="black" cx="792.69" cy="-666" rx="77.99" ry="18"/>
<text text-anchor="middle" x="792.69" y="-662.3" font-family="Times New Roman,serif" font-size="14.00">数字逻辑电路</text>
</g>
<!-- 电路&#45;&gt;数字逻辑电路 -->
<g id="edge8" class="edge">
<title>电路&#45;&gt;数字逻辑电路</title>
<path fill="none" stroke="black" d="M1246.81,-732.41C1170.4,-721.4 975.19,-693.29 867.26,-677.74"/>
<polygon fill="black" stroke="black" points="867.49,-674.24 857.09,-676.28 866.49,-681.17 867.49,-674.24"/>
</g>
<!-- 汇编语言 -->
<g id="node12" class="node">
<title>汇编语言</title>
<ellipse fill="none" stroke="black" cx="1120.69" cy="-90" rx="55.79" ry="18"/>
<text text-anchor="middle" x="1120.69" y="-86.3" font-family="Times New Roman,serif" font-size="14.00">汇编语言</text>
</g>
<!-- 电路&#45;&gt;汇编语言 -->
<g id="edge9" class="edge">
<title>电路&#45;&gt;汇编语言</title>
<path fill="none" stroke="black" d="M1245.39,-736.38C1059.22,-732.49 155.69,-707.81 155.69,-595 155.69,-595 155.69,-595 155.69,-233 155.69,-141.83 838.55,-103.56 1055.42,-93.71"/>
<polygon fill="black" stroke="black" points="1055.86,-97.19 1065.7,-93.25 1055.55,-90.2 1055.86,-97.19"/>
</g>
<!-- 数据库系统 -->
<g id="node26" class="node">
<title>数据库系统</title>
<ellipse fill="none" stroke="black" cx="839.69" cy="-594" rx="66.89" ry="18"/>
<text text-anchor="middle" x="839.69" y="-590.3" font-family="Times New Roman,serif" font-size="14.00">数据库系统</text>
</g>
<!-- 数字逻辑电路&#45;&gt;数据库系统 -->
<g id="edge31" class="edge">
<title>数字逻辑电路&#45;&gt;数据库系统</title>
<path fill="none" stroke="black" d="M804.07,-648.05C809.67,-639.71 816.54,-629.49 822.74,-620.25"/>
<polygon fill="black" stroke="black" points="825.75,-622.04 828.42,-611.79 819.94,-618.14 825.75,-622.04"/>
</g>
<!-- 软件工程 -->
<g id="node27" class="node">
<title>软件工程</title>
<ellipse fill="none" stroke="black" cx="791.69" cy="-522" rx="55.79" ry="18"/>
<text text-anchor="middle" x="791.69" y="-518.3" font-family="Times New Roman,serif" font-size="14.00">软件工程</text>
</g>
<!-- 数字逻辑电路&#45;&gt;软件工程 -->
<g id="edge32" class="edge">
<title>数字逻辑电路&#45;&gt;软件工程</title>
<path fill="none" stroke="black" d="M780.39,-647.78C774.04,-637.84 766.97,-624.8 763.69,-612 759.73,-596.5 759.84,-591.53 763.69,-576 766.02,-566.61 770.36,-557.04 774.93,-548.67"/>
<polygon fill="black" stroke="black" points="778.09,-550.21 780.1,-539.8 772.04,-546.68 778.09,-550.21"/>
</g>
<!-- 概率统计与随机过程 -->
<g id="node13" class="node">
<title>概率统计与随机过程</title>
<ellipse fill="none" stroke="black" cx="951.69" cy="-450" rx="111.58" ry="18"/>
<text text-anchor="middle" x="951.69" y="-446.3" font-family="Times New Roman,serif" font-size="14.00">概率统计与随机过程</text>
</g>
<!-- 概率统计与随机过程&#45;&gt;高等数学i2 -->
<g id="edge10" class="edge">
<title>概率统计与随机过程&#45;&gt;高等数学i2</title>
<path fill="none" stroke="black" d="M923.26,-432.41C906.49,-422.63 885.14,-410.18 867.27,-399.75"/>
<polygon fill="black" stroke="black" points="868.69,-396.53 858.28,-394.51 865.16,-402.57 868.69,-396.53"/>
</g>
<!-- 大学物理实验i2 -->
<g id="node14" class="node">
<title>大学物理实验i2</title>
<ellipse fill="none" stroke="black" cx="503.69" cy="-378" rx="84.49" ry="18"/>
<text text-anchor="middle" x="503.69" y="-374.3" font-family="Times New Roman,serif" font-size="14.00">大学物理实验i2</text>
</g>
<!-- 概率统计与随机过程&#45;&gt;大学物理实验i2 -->
<g id="edge11" class="edge">
<title>概率统计与随机过程&#45;&gt;大学物理实验i2</title>
<path fill="none" stroke="black" d="M874.43,-436.93C791.89,-424.03 661.89,-403.72 579.8,-390.89"/>
<polygon fill="black" stroke="black" points="580.21,-387.41 569.79,-389.33 579.13,-394.33 580.21,-387.41"/>
</g>
<!-- 面向对象程序设计 -->
<g id="node15" class="node">
<title>面向对象程序设计</title>
<ellipse fill="none" stroke="black" cx="1011.69" cy="-378" rx="100.98" ry="18"/>
<text text-anchor="middle" x="1011.69" y="-374.3" font-family="Times New Roman,serif" font-size="14.00">面向对象程序设计</text>
</g>
<!-- 概率统计与随机过程&#45;&gt;面向对象程序设计 -->
<g id="edge12" class="edge">
<title>概率统计与随机过程&#45;&gt;面向对象程序设计</title>
<path fill="none" stroke="black" d="M960.61,-431.7C967,-423.22 975.69,-412.86 984.15,-403.58"/>
<polygon fill="black" stroke="black" points="986.87,-405.8 991.14,-396.1 981.75,-401.02 986.87,-405.8"/>
</g>
<!-- 计算机组成与结构专题实验 -->
<g id="node16" class="node">
<title>计算机组成与结构专题实验</title>
<ellipse fill="none" stroke="black" cx="503.69" cy="-306" rx="145.67" ry="18"/>
<text text-anchor="middle" x="503.69" y="-302.3" font-family="Times New Roman,serif" font-size="14.00">计算机组成与结构专题实验</text>
</g>
<!-- 概率统计与随机过程&#45;&gt;计算机组成与结构专题实验 -->
<g id="edge13" class="edge">
<title>概率统计与随机过程&#45;&gt;计算机组成与结构专题实验</title>
<path fill="none" stroke="black" d="M895.43,-434.38C857.24,-424.22 805.71,-410.02 760.69,-396 689.97,-373.96 609.41,-345.51 557.63,-326.78"/>
<polygon fill="black" stroke="black" points="558.58,-323.4 547.99,-323.29 556.19,-329.99 558.58,-323.4"/>
</g>
<!-- 大学物理实验i2&#45;&gt;程序设计基础 -->
<g id="edge17" class="edge">
<title>大学物理实验i2&#45;&gt;程序设计基础</title>
<path fill="none" stroke="black" d="M455.59,-363.09C416.03,-351.64 359.9,-335.41 318.2,-323.35"/>
<polygon fill="black" stroke="black" points="319.05,-319.95 308.47,-320.53 317.1,-326.67 319.05,-319.95"/>
</g>
<!-- 大学物理实验i2&#45;&gt;数字逻辑电路 -->
<g id="edge18" class="edge">
<title>大学物理实验i2&#45;&gt;数字逻辑电路</title>
<path fill="none" stroke="black" d="M503.8,-396.11C504.67,-415.11 508.42,-446 522.69,-468 578.89,-554.64 687.45,-616.03 748.4,-645.4"/>
<polygon fill="black" stroke="black" points="747.23,-648.72 757.76,-649.84 750.23,-642.39 747.23,-648.72"/>
</g>
<!-- 大学物理实验i2&#45;&gt;计算机组成与结构专题实验 -->
<g id="edge19" class="edge">
<title>大学物理实验i2&#45;&gt;计算机组成与结构专题实验</title>
<path fill="none" stroke="black" d="M497.78,-359.7C496.98,-351.98 496.76,-342.71 497.1,-334.11"/>
<polygon fill="black" stroke="black" points="500.59,-334.32 497.8,-324.1 493.61,-333.84 500.59,-334.32"/>
</g>
<!-- 面向对象程序设计&#45;&gt;概率统计与随机过程 -->
<g id="edge20" class="edge">
<title>面向对象程序设计&#45;&gt;概率统计与随机过程</title>
<path fill="none" stroke="black" d="M1002.8,-396.28C996.38,-404.8 987.63,-415.22 979.12,-424.55"/>
<polygon fill="black" stroke="black" points="976.37,-422.36 972.1,-432.05 981.49,-427.15 976.37,-422.36"/>
</g>
<!-- 计算机图形学 -->
<g id="node20" class="node">
<title>计算机图形学</title>
<ellipse fill="none" stroke="black" cx="1027.69" cy="-306" rx="77.99" ry="18"/>
<text text-anchor="middle" x="1027.69" y="-302.3" font-family="Times New Roman,serif" font-size="14.00">计算机图形学</text>
</g>
<!-- 面向对象程序设计&#45;&gt;计算机图形学 -->
<g id="edge21" class="edge">
<title>面向对象程序设计&#45;&gt;计算机图形学</title>
<path fill="none" stroke="black" d="M1009.73,-359.7C1010.71,-351.9 1012.64,-342.51 1014.98,-333.83"/>
<polygon fill="black" stroke="black" points="1018.37,-334.69 1017.89,-324.1 1011.67,-332.68 1018.37,-334.69"/>
</g>
<!-- 计算机组成与结构专题实验&#45;&gt;大学物理实验i2 -->
<g id="edge43" class="edge">
<title>计算机组成与结构专题实验&#45;&gt;大学物理实验i2</title>
<path fill="none" stroke="black" d="M509.59,-324.1C510.39,-331.79 510.63,-341.05 510.3,-349.67"/>
<polygon fill="black" stroke="black" points="506.8,-349.48 509.61,-359.7 513.79,-349.96 506.8,-349.48"/>
</g>
<!-- 计算机网络专题实验 -->
<g id="node33" class="node">
<title>计算机网络专题实验</title>
<ellipse fill="none" stroke="black" cx="1216.69" cy="-234" rx="111.58" ry="18"/>
<text text-anchor="middle" x="1216.69" y="-230.3" font-family="Times New Roman,serif" font-size="14.00">计算机网络专题实验</text>
</g>
<!-- 计算机组成与结构专题实验&#45;&gt;计算机网络专题实验 -->
<g id="edge44" class="edge">
<title>计算机组成与结构专题实验&#45;&gt;计算机网络专题实验</title>
<path fill="none" stroke="black" d="M606.79,-293.22C623.79,-291.39 641.23,-289.59 657.69,-288 852.12,-269.28 901.57,-273.6 1095.69,-252 1106,-250.85 1116.78,-249.53 1127.48,-248.13"/>
<polygon fill="black" stroke="black" points="1128.24,-251.56 1137.7,-246.77 1127.32,-244.62 1128.24,-251.56"/>
</g>
<!-- 离散数学a -->
<g id="node18" class="node">
<title>离散数学a</title>
<ellipse fill="none" stroke="black" cx="1601.69" cy="-810" rx="59.59" ry="18"/>
<text text-anchor="middle" x="1601.69" y="-806.3" font-family="Times New Roman,serif" font-size="14.00">离散数学a</text>
</g>
<!-- 离散数学a&#45;&gt;电路 -->
<g id="edge15" class="edge">
<title>离散数学a&#45;&gt;电路</title>
<path fill="none" stroke="black" d="M1554.73,-798.82C1491.21,-785.06 1379.01,-760.74 1319.08,-747.75"/>
<polygon fill="black" stroke="black" points="1319.74,-744.31 1309.23,-745.62 1318.26,-751.16 1319.74,-744.31"/>
</g>
<!-- 电子技术实验2 -->
<g id="node19" class="node">
<title>电子技术实验2</title>
<ellipse fill="none" stroke="black" cx="1316.69" cy="-90" rx="82.59" ry="18"/>
<text text-anchor="middle" x="1316.69" y="-86.3" font-family="Times New Roman,serif" font-size="14.00">电子技术实验2</text>
</g>
<!-- 离散数学a&#45;&gt;电子技术实验2 -->
<g id="edge16" class="edge">
<title>离散数学a&#45;&gt;电子技术实验2</title>
<path fill="none" stroke="black" d="M1639.59,-796.02C1688.86,-776.46 1768.69,-734.36 1768.69,-667 1768.69,-667 1768.69,-667 1768.69,-233 1768.69,-156.44 1529.7,-116.14 1399.28,-99.85"/>
<polygon fill="black" stroke="black" points="1399.67,-96.37 1389.32,-98.62 1398.81,-103.32 1399.67,-96.37"/>
</g>
<!-- 电子技术实验2&#45;&gt;数据结构与程序设计专题实验 -->
<g id="edge30" class="edge">
<title>电子技术实验2&#45;&gt;数据结构与程序设计专题实验</title>
<path fill="none" stroke="black" d="M1283.93,-73.29C1263.48,-63.49 1236.9,-50.74 1214.63,-40.07"/>
<polygon fill="black" stroke="black" points="1215.92,-36.8 1205.39,-35.63 1212.89,-43.11 1215.92,-36.8"/>
</g>
<!-- 计算机图形学&#45;&gt;面向对象程序设计 -->
<g id="edge45" class="edge">
<title>计算机图形学&#45;&gt;面向对象程序设计</title>
<path fill="none" stroke="black" d="M1029.66,-324.28C1028.68,-332.12 1026.74,-341.57 1024.38,-350.29"/>
<polygon fill="black" stroke="black" points="1020.97,-349.47 1021.45,-360.05 1027.67,-351.48 1020.97,-349.47"/>
</g>
<!-- 模拟电子技术基础 -->
<g id="node21" class="node">
<title>模拟电子技术基础</title>
<ellipse fill="none" stroke="black" cx="1639.69" cy="-306" rx="100.98" ry="18"/>
<text text-anchor="middle" x="1639.69" y="-302.3" font-family="Times New Roman,serif" font-size="14.00">模拟电子技术基础</text>
</g>
<!-- 模拟电子技术基础&#45;&gt;电路 -->
<g id="edge22" class="edge">
<title>模拟电子技术基础&#45;&gt;电路</title>
<path fill="none" stroke="black" d="M1639.69,-324.05C1639.69,-350.71 1639.69,-403.89 1639.69,-449 1639.69,-523 1639.69,-523 1639.69,-523 1639.69,-669.6 1416.69,-717.95 1321.23,-731.93"/>
<polygon fill="black" stroke="black" points="1320.46,-728.51 1311.05,-733.36 1321.44,-735.44 1320.46,-728.51"/>
</g>
<!-- 电子技术实验1 -->
<g id="node22" class="node">
<title>电子技术实验1</title>
<ellipse fill="none" stroke="black" cx="1261.69" cy="-162" rx="82.59" ry="18"/>
<text text-anchor="middle" x="1261.69" y="-158.3" font-family="Times New Roman,serif" font-size="14.00">电子技术实验1</text>
</g>
<!-- 模拟电子技术基础&#45;&gt;电子技术实验1 -->
<g id="edge23" class="edge">
<title>模拟电子技术基础&#45;&gt;电子技术实验1</title>
<path fill="none" stroke="black" d="M1598.52,-289.53C1528.48,-263.22 1386.41,-209.85 1311.12,-181.57"/>
<polygon fill="black" stroke="black" points="1311.98,-178.15 1301.39,-177.91 1309.52,-184.71 1311.98,-178.15"/>
</g>
<!-- 电子技术实验1&#45;&gt;汇编语言 -->
<g id="edge28" class="edge">
<title>电子技术实验1&#45;&gt;汇编语言</title>
<path fill="none" stroke="black" d="M1230.05,-145.29C1209.02,-134.85 1181.28,-121.08 1159.01,-110.02"/>
<polygon fill="black" stroke="black" points="1160.34,-106.78 1149.83,-105.46 1157.23,-113.05 1160.34,-106.78"/>
</g>
<!-- 电子技术实验1&#45;&gt;电子技术实验2 -->
<g id="edge27" class="edge">
<title>电子技术实验1&#45;&gt;电子技术实验2</title>
<path fill="none" stroke="black" d="M1275.01,-144.05C1281.7,-135.54 1289.93,-125.07 1297.3,-115.68"/>
<polygon fill="black" stroke="black" points="1300.08,-117.81 1303.5,-107.79 1294.57,-113.49 1300.08,-117.81"/>
</g>
<!-- 形式语言与编译 -->
<g id="node23" class="node">
<title>形式语言与编译</title>
<ellipse fill="none" stroke="black" cx="1522.69" cy="-378" rx="89.08" ry="18"/>
<text text-anchor="middle" x="1522.69" y="-374.3" font-family="Times New Roman,serif" font-size="14.00">形式语言与编译</text>
</g>
<!-- 形式语言与编译&#45;&gt;离散数学a -->
<g id="edge24" class="edge">
<title>形式语言与编译&#45;&gt;离散数学a</title>
<path fill="none" stroke="black" d="M1539.45,-395.69C1562.64,-420.65 1601.69,-470.22 1601.69,-521 1601.69,-667 1601.69,-667 1601.69,-667 1601.69,-707 1601.69,-753.35 1601.69,-781.92"/>
<polygon fill="black" stroke="black" points="1598.19,-781.95 1601.69,-791.95 1605.19,-781.95 1598.19,-781.95"/>
</g>
<!-- 形式语言与编译&#45;&gt;模拟电子技术基础 -->
<g id="edge25" class="edge">
<title>形式语言与编译&#45;&gt;模拟电子技术基础</title>
<path fill="none" stroke="black" d="M1549.83,-360.76C1565.81,-351.2 1586.23,-338.99 1603.56,-328.62"/>
<polygon fill="black" stroke="black" points="1605.52,-331.53 1612.3,-323.39 1601.92,-325.52 1605.52,-331.53"/>
</g>
<!-- 毕业设计（论文） -->
<g id="node24" class="node">
<title>毕业设计（论文）</title>
<ellipse fill="none" stroke="black" cx="1420.69" cy="-306" rx="100.98" ry="18"/>
<text text-anchor="middle" x="1420.69" y="-302.3" font-family="Times New Roman,serif" font-size="14.00">毕业设计（论文）</text>
</g>
<!-- 形式语言与编译&#45;&gt;毕业设计（论文） -->
<g id="edge26" class="edge">
<title>形式语言与编译&#45;&gt;毕业设计（论文）</title>
<path fill="none" stroke="black" d="M1498.78,-360.59C1485.19,-351.26 1468,-339.46 1453.2,-329.31"/>
<polygon fill="black" stroke="black" points="1455.04,-326.32 1444.81,-323.55 1451.08,-332.1 1455.04,-326.32"/>
</g>
<!-- 毕业设计（论文）&#45;&gt;电子技术实验2 -->
<g id="edge53" class="edge">
<title>毕业设计（论文）&#45;&gt;电子技术实验2</title>
<path fill="none" stroke="black" d="M1414.99,-288C1404.62,-258.01 1381.22,-194.16 1353.69,-144 1348.51,-134.56 1342.01,-124.74 1335.91,-116.16"/>
<polygon fill="black" stroke="black" points="1338.73,-114.08 1330.01,-108.06 1333.07,-118.2 1338.73,-114.08"/>
</g>
<!-- 编译器设计专题实验 -->
<g id="node25" class="node">
<title>编译器设计专题实验</title>
<ellipse fill="none" stroke="black" cx="1407.69" cy="-450" rx="111.58" ry="18"/>
<text text-anchor="middle" x="1407.69" y="-446.3" font-family="Times New Roman,serif" font-size="14.00">编译器设计专题实验</text>
</g>
<!-- 编译器设计专题实验&#45;&gt;毕业设计（论文） -->
<g id="edge29" class="edge">
<title>编译器设计专题实验&#45;&gt;毕业设计（论文）</title>
<path fill="none" stroke="black" d="M1409.26,-431.87C1411.48,-407.67 1415.55,-363.21 1418.19,-334.39"/>
<polygon fill="black" stroke="black" points="1421.69,-334.47 1419.12,-324.19 1414.72,-333.83 1421.69,-334.47"/>
</g>
<!-- 数据库系统&#45;&gt;软件工程 -->
<g id="edge47" class="edge">
<title>数据库系统&#45;&gt;软件工程</title>
<path fill="none" stroke="black" d="M822.48,-576.41C815.92,-568.16 808.73,-558.01 802.83,-548.78"/>
<polygon fill="black" stroke="black" points="805.64,-546.66 797.44,-539.96 799.67,-550.31 805.64,-546.66"/>
</g>
<!-- 操作系统设计专题实验 -->
<g id="node34" class="node">
<title>操作系统设计专题实验</title>
<ellipse fill="none" stroke="black" cx="1115.69" cy="-522" rx="122.68" ry="18"/>
<text text-anchor="middle" x="1115.69" y="-518.3" font-family="Times New Roman,serif" font-size="14.00">操作系统设计专题实验</text>
</g>
<!-- 数据库系统&#45;&gt;操作系统设计专题实验 -->
<g id="edge46" class="edge">
<title>数据库系统&#45;&gt;操作系统设计专题实验</title>
<path fill="none" stroke="black" d="M886.51,-581.13C930.63,-569.94 997.26,-553.04 1047.32,-540.34"/>
<polygon fill="black" stroke="black" points="1048.27,-543.71 1057.1,-537.86 1046.55,-536.93 1048.27,-543.71"/>
</g>
<!-- 软件工程&#45;&gt;数据库系统 -->
<g id="edge49" class="edge">
<title>软件工程&#45;&gt;数据库系统</title>
<path fill="none" stroke="black" d="M808.69,-539.31C815.35,-547.67 822.71,-558.05 828.7,-567.44"/>
<polygon fill="black" stroke="black" points="825.76,-569.34 833.95,-576.05 831.73,-565.7 825.76,-569.34"/>
</g>
<!-- 计算机系统综合设计实验 -->
<g id="node36" class="node">
<title>计算机系统综合设计实验</title>
<ellipse fill="none" stroke="black" cx="665.69" cy="-450" rx="133.78" ry="18"/>
<text text-anchor="middle" x="665.69" y="-446.3" font-family="Times New Roman,serif" font-size="14.00">计算机系统综合设计实验</text>
</g>
<!-- 软件工程&#45;&gt;计算机系统综合设计实验 -->
<g id="edge50" class="edge">
<title>软件工程&#45;&gt;计算机系统综合设计实验</title>
<path fill="none" stroke="black" d="M764.97,-506.15C747.51,-496.45 724.41,-483.62 704.89,-472.77"/>
<polygon fill="black" stroke="black" points="706.36,-469.59 695.91,-467.79 702.96,-475.71 706.36,-469.59"/>
</g>
<!-- 数学建模ii -->
<g id="node28" class="node">
<title>数学建模ii</title>
<ellipse fill="none" stroke="black" cx="1987.69" cy="-810" rx="59.59" ry="18"/>
<text text-anchor="middle" x="1987.69" y="-806.3" font-family="Times New Roman,serif" font-size="14.00">数学建模ii</text>
</g>
<!-- 数理逻辑 -->
<g id="node29" class="node">
<title>数理逻辑</title>
<ellipse fill="none" stroke="black" cx="2121.69" cy="-810" rx="55.79" ry="18"/>
<text text-anchor="middle" x="2121.69" y="-806.3" font-family="Times New Roman,serif" font-size="14.00">数理逻辑</text>
</g>
<!-- 计算机组成 -->
<g id="node30" class="node">
<title>计算机组成</title>
<ellipse fill="none" stroke="black" cx="1210.69" cy="-450" rx="66.89" ry="18"/>
<text text-anchor="middle" x="1210.69" y="-446.3" font-family="Times New Roman,serif" font-size="14.00">计算机组成</text>
</g>
<!-- 计算机组成&#45;&gt;形式语言与编译 -->
<g id="edge33" class="edge">
<title>计算机组成&#45;&gt;形式语言与编译</title>
<path fill="none" stroke="black" d="M1260.48,-437.83C1313.25,-425.99 1396.91,-407.22 1455.51,-394.07"/>
<polygon fill="black" stroke="black" points="1456.42,-397.46 1465.41,-391.85 1454.89,-390.63 1456.42,-397.46"/>
</g>
<!-- 操作系统原理i -->
<g id="node31" class="node">
<title>操作系统原理i</title>
<ellipse fill="none" stroke="black" cx="1210.69" cy="-378" rx="79.89" ry="18"/>
<text text-anchor="middle" x="1210.69" y="-374.3" font-family="Times New Roman,serif" font-size="14.00">操作系统原理i</text>
</g>
<!-- 计算机组成&#45;&gt;操作系统原理i -->
<g id="edge34" class="edge">
<title>计算机组成&#45;&gt;操作系统原理i</title>
<path fill="none" stroke="black" d="M1204.82,-432.05C1204,-424.35 1203.76,-415.03 1204.09,-406.36"/>
<polygon fill="black" stroke="black" points="1207.59,-406.49 1204.78,-396.28 1200.61,-406.01 1207.59,-406.49"/>
</g>
<!-- 操作系统原理i&#45;&gt;计算机组成 -->
<g id="edge35" class="edge">
<title>操作系统原理i&#45;&gt;计算机组成</title>
<path fill="none" stroke="black" d="M1216.61,-396.28C1217.41,-404.03 1217.63,-413.36 1217.28,-422.01"/>
<polygon fill="black" stroke="black" points="1213.79,-421.83 1216.57,-432.05 1220.77,-422.33 1213.79,-421.83"/>
</g>
<!-- 计算机网络原理 -->
<g id="node32" class="node">
<title>计算机网络原理</title>
<ellipse fill="none" stroke="black" cx="1212.69" cy="-306" rx="89.08" ry="18"/>
<text text-anchor="middle" x="1212.69" y="-302.3" font-family="Times New Roman,serif" font-size="14.00">计算机网络原理</text>
</g>
<!-- 操作系统原理i&#45;&gt;计算机网络原理 -->
<g id="edge36" class="edge">
<title>操作系统原理i&#45;&gt;计算机网络原理</title>
<path fill="none" stroke="black" d="M1211.19,-359.7C1211.41,-351.98 1211.67,-342.71 1211.92,-334.11"/>
<polygon fill="black" stroke="black" points="1215.42,-334.2 1212.21,-324.1 1208.42,-334 1215.42,-334.2"/>
</g>
<!-- 计算机网络原理&#45;&gt;数据结构与算法i -->
<g id="edge37" class="edge">
<title>计算机网络原理&#45;&gt;数据结构与算法i</title>
<path fill="none" stroke="black" d="M1167.47,-290.41C1133.63,-279.5 1087.18,-264.51 1051.11,-252.88"/>
<polygon fill="black" stroke="black" points="1051.83,-249.43 1041.24,-249.69 1049.68,-256.09 1051.83,-249.43"/>
</g>
<!-- 计算机网络原理&#45;&gt;计算机网络专题实验 -->
<g id="edge38" class="edge">
<title>计算机网络原理&#45;&gt;计算机网络专题实验</title>
<path fill="none" stroke="black" d="M1213.68,-287.7C1214.12,-279.98 1214.65,-270.71 1215.15,-262.11"/>
<polygon fill="black" stroke="black" points="1218.64,-262.29 1215.72,-252.1 1211.65,-261.89 1218.64,-262.29"/>
</g>
<!-- 计算机网络专题实验&#45;&gt;电子技术实验1 -->
<g id="edge48" class="edge">
<title>计算机网络专题实验&#45;&gt;电子技术实验1</title>
<path fill="none" stroke="black" d="M1227.59,-216.05C1232.82,-207.92 1239.2,-198 1245.02,-188.94"/>
<polygon fill="black" stroke="black" points="1248.13,-190.58 1250.59,-180.28 1242.24,-186.79 1248.13,-190.58"/>
</g>
<!-- 操作系统设计专题实验&#45;&gt;概率统计与随机过程 -->
<g id="edge39" class="edge">
<title>操作系统设计专题实验&#45;&gt;概率统计与随机过程</title>
<path fill="none" stroke="black" d="M1077.66,-504.76C1054.08,-494.7 1023.62,-481.7 998.56,-471"/>
<polygon fill="black" stroke="black" points="999.81,-467.73 989.24,-467.03 997.07,-474.17 999.81,-467.73"/>
</g>
<!-- 操作系统设计专题实验&#45;&gt;编译器设计专题实验 -->
<g id="edge40" class="edge">
<title>操作系统设计专题实验&#45;&gt;编译器设计专题实验</title>
<path fill="none" stroke="black" d="M1176.91,-506.33C1224,-495.04 1289.1,-479.43 1338.16,-467.67"/>
<polygon fill="black" stroke="black" points="1339.15,-471.03 1348.06,-465.3 1337.52,-464.22 1339.15,-471.03"/>
</g>
<!-- 操作系统设计专题实验&#45;&gt;计算机组成 -->
<g id="edge41" class="edge">
<title>操作系统设计专题实验&#45;&gt;计算机组成</title>
<path fill="none" stroke="black" d="M1138.69,-504.05C1151.33,-494.74 1167.16,-483.07 1180.76,-473.06"/>
<polygon fill="black" stroke="black" points="1182.91,-475.82 1188.89,-467.07 1178.76,-470.18 1182.91,-475.82"/>
</g>
<!-- 操作系统设计专题实验&#45;&gt;操作系统原理i -->
<g id="edge42" class="edge">
<title>操作系统设计专题实验&#45;&gt;操作系统原理i</title>
<path fill="none" stroke="black" d="M1115.71,-503.84C1116.51,-484.79 1120.19,-453.85 1134.69,-432 1143.3,-419.04 1156.24,-408.31 1169.02,-399.98"/>
<polygon fill="black" stroke="black" points="1171.1,-402.81 1177.79,-394.59 1167.44,-396.84 1171.1,-402.81"/>
</g>
<!-- 人工智能 -->
<g id="node35" class="node">
<title>人工智能</title>
<ellipse fill="none" stroke="black" cx="2251.69" cy="-810" rx="55.79" ry="18"/>
<text text-anchor="middle" x="2251.69" y="-806.3" font-family="Times New Roman,serif" font-size="14.00">人工智能</text>
</g>
<!-- 计算机系统综合设计实验&#45;&gt;大学物理实验i2 -->
<g id="edge51" class="edge">
<title>计算机系统综合设计实验&#45;&gt;大学物理实验i2</title>
<path fill="none" stroke="black" d="M627.71,-432.59C604,-422.34 573.35,-409.1 548.45,-398.34"/>
<polygon fill="black" stroke="black" points="549.79,-395.1 539.22,-394.35 547.01,-401.53 549.79,-395.1"/>
</g>
<!-- 计算机系统综合设计实验&#45;&gt;计算机组成与结构专题实验 -->
<g id="edge52" class="edge">
<title>计算机系统综合设计实验&#45;&gt;计算机组成与结构专题实验</title>
<path fill="none" stroke="black" d="M655.42,-431.97C643.2,-412.75 621.36,-381.4 596.69,-360 582.61,-347.78 565.29,-337 549.42,-328.41"/>
<polygon fill="black" stroke="black" points="550.77,-325.16 540.29,-323.61 547.51,-331.36 550.77,-325.16"/>
</g>
<!-- 软件定义网络 -->
<g id="node37" class="node">
<title>软件定义网络</title>
<ellipse fill="none" stroke="black" cx="2403.69" cy="-810" rx="77.99" ry="18"/>
<text text-anchor="middle" x="2403.69" y="-806.3" font-family="Times New Roman,serif" font-size="14.00">软件定义网络</text>
</g>
</g>
</svg>
