<?xml version="1.0" encoding="UTF-8" standalone="no"?>
<!DOCTYPE svg PUBLIC "-//W3C//DTD SVG 1.1//EN"
 "http://www.w3.org/Graphics/SVG/1.1/DTD/svg11.dtd">
<!-- Generated by graphviz version 2.46.0 (20210118.1747)
 -->
<!-- Pages: 1 -->
<svg width="2651pt" height="836pt"
 viewBox="0.00 0.00 2650.69 836.00" xmlns="http://www.w3.org/2000/svg" xmlns:xlink="http://www.w3.org/1999/xlink">
<g id="graph0" class="graph" transform="scale(1 1) rotate(0) translate(4 832)">
<polygon fill="white" stroke="transparent" points="-4,4 -4,-832 2646.69,-832 2646.69,4 -4,4"/>
<!-- 人工智能 -->
<g id="node1" class="node">
<title>人工智能</title>
<ellipse fill="none" stroke="black" cx="2020.04" cy="-810" rx="55.79" ry="18"/>
<text text-anchor="middle" x="2020.04" y="-806.3" font-family="Times New Roman,serif" font-size="14.00">人工智能</text>
</g>
<!-- 优化方法基础 -->
<g id="node2" class="node">
<title>优化方法基础</title>
<ellipse fill="none" stroke="black" cx="783.04" cy="-666" rx="77.99" ry="18"/>
<text text-anchor="middle" x="783.04" y="-662.3" font-family="Times New Roman,serif" font-size="14.00">优化方法基础</text>
</g>
<!-- 数学建模ii -->
<g id="node3" class="node">
<title>数学建模ii</title>
<ellipse fill="none" stroke="black" cx="1865.04" cy="-594" rx="59.59" ry="18"/>
<text text-anchor="middle" x="1865.04" y="-590.3" font-family="Times New Roman,serif" font-size="14.00">数学建模ii</text>
</g>
<!-- 优化方法基础&#45;&gt;数学建模ii -->
<g id="edge1" class="edge">
<title>优化方法基础&#45;&gt;数学建模ii</title>
<path fill="none" stroke="black" d="M859.73,-662.45C1020.8,-656.72 1406.04,-640.97 1728.04,-612 1752.27,-609.82 1778.81,-606.7 1802.04,-603.72"/>
<polygon fill="black" stroke="black" points="1802.64,-607.17 1812.11,-602.41 1801.74,-600.23 1802.64,-607.17"/>
</g>
<!-- 编译器设计专题实验 -->
<g id="node4" class="node">
<title>编译器设计专题实验</title>
<ellipse fill="none" stroke="black" cx="342.04" cy="-594" rx="111.58" ry="18"/>
<text text-anchor="middle" x="342.04" y="-590.3" font-family="Times New Roman,serif" font-size="14.00">编译器设计专题实验</text>
</g>
<!-- 优化方法基础&#45;&gt;编译器设计专题实验 -->
<g id="edge2" class="edge">
<title>优化方法基础&#45;&gt;编译器设计专题实验</title>
<path fill="none" stroke="black" d="M720.79,-655.12C644.51,-643.01 514.83,-622.43 428.8,-608.77"/>
<polygon fill="black" stroke="black" points="429.22,-605.29 418.79,-607.18 428.12,-612.21 429.22,-605.29"/>
</g>
<!-- 软件工程 -->
<g id="node5" class="node">
<title>软件工程</title>
<ellipse fill="none" stroke="black" cx="913.04" cy="-594" rx="55.79" ry="18"/>
<text text-anchor="middle" x="913.04" y="-590.3" font-family="Times New Roman,serif" font-size="14.00">软件工程</text>
</g>
<!-- 优化方法基础&#45;&gt;软件工程 -->
<g id="edge3" class="edge">
<title>优化方法基础&#45;&gt;软件工程</title>
<path fill="none" stroke="black" d="M812.22,-649.29C831.17,-639.08 856.04,-625.69 876.34,-614.77"/>
<polygon fill="black" stroke="black" points="878.16,-617.76 885.3,-609.94 874.84,-611.6 878.16,-617.76"/>
</g>
<!-- 数据库系统 -->
<g id="node22" class="node">
<title>数据库系统</title>
<ellipse fill="none" stroke="black" cx="196.04" cy="-522" rx="66.89" ry="18"/>
<text text-anchor="middle" x="196.04" y="-518.3" font-family="Times New Roman,serif" font-size="14.00">数据库系统</text>
</g>
<!-- 编译器设计专题实验&#45;&gt;数据库系统 -->
<g id="edge70" class="edge">
<title>编译器设计专题实验&#45;&gt;数据库系统</title>
<path fill="none" stroke="black" d="M308.18,-576.76C286.8,-566.52 259.07,-553.22 236.54,-542.41"/>
<polygon fill="black" stroke="black" points="237.76,-539.12 227.23,-537.95 234.73,-545.43 237.76,-539.12"/>
</g>
<!-- 大学计算机iii -->
<g id="node15" class="node">
<title>大学计算机iii</title>
<ellipse fill="none" stroke="black" cx="1092.04" cy="-234" rx="72.59" ry="18"/>
<text text-anchor="middle" x="1092.04" y="-230.3" font-family="Times New Roman,serif" font-size="14.00">大学计算机iii</text>
</g>
<!-- 软件工程&#45;&gt;大学计算机iii -->
<g id="edge90" class="edge">
<title>软件工程&#45;&gt;大学计算机iii</title>
<path fill="none" stroke="black" d="M961.34,-584.8C1045.55,-567.48 1215.9,-518.21 1275.04,-396 1307.57,-328.79 1208.33,-277.75 1143.5,-252.51"/>
<polygon fill="black" stroke="black" points="1144.41,-249.11 1133.81,-248.83 1141.92,-255.65 1144.41,-249.11"/>
</g>
<!-- 数理逻辑 -->
<g id="node33" class="node">
<title>数理逻辑</title>
<ellipse fill="none" stroke="black" cx="997.04" cy="-522" rx="55.79" ry="18"/>
<text text-anchor="middle" x="997.04" y="-518.3" font-family="Times New Roman,serif" font-size="14.00">数理逻辑</text>
</g>
<!-- 软件工程&#45;&gt;数理逻辑 -->
<g id="edge91" class="edge">
<title>软件工程&#45;&gt;数理逻辑</title>
<path fill="none" stroke="black" d="M932.52,-576.76C943.66,-567.49 957.78,-555.71 969.98,-545.55"/>
<polygon fill="black" stroke="black" points="972.22,-548.24 977.67,-539.15 967.74,-542.86 972.22,-548.24"/>
</g>
<!-- 模拟电子技术基础 -->
<g id="node34" class="node">
<title>模拟电子技术基础</title>
<ellipse fill="none" stroke="black" cx="997.04" cy="-450" rx="100.98" ry="18"/>
<text text-anchor="middle" x="997.04" y="-446.3" font-family="Times New Roman,serif" font-size="14.00">模拟电子技术基础</text>
</g>
<!-- 软件工程&#45;&gt;模拟电子技术基础 -->
<g id="edge92" class="edge">
<title>软件工程&#45;&gt;模拟电子技术基础</title>
<path fill="none" stroke="black" d="M913.38,-575.69C914.48,-556.79 918.45,-526.24 932.04,-504 939.3,-492.12 950.21,-481.72 961.02,-473.35"/>
<polygon fill="black" stroke="black" points="963.21,-476.09 969.21,-467.36 959.08,-470.44 963.21,-476.09"/>
</g>
<!-- 计算机系统综合设计实验 -->
<g id="node36" class="node">
<title>计算机系统综合设计实验</title>
<ellipse fill="none" stroke="black" cx="806.04" cy="-378" rx="133.78" ry="18"/>
<text text-anchor="middle" x="806.04" y="-374.3" font-family="Times New Roman,serif" font-size="14.00">计算机系统综合设计实验</text>
</g>
<!-- 软件工程&#45;&gt;计算机系统综合设计实验 -->
<g id="edge93" class="edge">
<title>软件工程&#45;&gt;计算机系统综合设计实验</title>
<path fill="none" stroke="black" d="M890.32,-577.44C877.99,-567.93 863.39,-554.78 854.04,-540 827.3,-497.75 814.85,-439.88 809.54,-406.26"/>
<polygon fill="black" stroke="black" points="812.98,-405.63 808.06,-396.25 806.06,-406.65 812.98,-405.63"/>
</g>
<!-- 软件定义网络 -->
<g id="node42" class="node">
<title>软件定义网络</title>
<ellipse fill="none" stroke="black" cx="885.04" cy="-306" rx="77.99" ry="18"/>
<text text-anchor="middle" x="885.04" y="-302.3" font-family="Times New Roman,serif" font-size="14.00">软件定义网络</text>
</g>
<!-- 软件工程&#45;&gt;软件定义网络 -->
<g id="edge94" class="edge">
<title>软件工程&#45;&gt;软件定义网络</title>
<path fill="none" stroke="black" d="M903.65,-576.2C887.81,-545.42 860.06,-478.87 887.04,-432 902.94,-404.39 933.14,-423.61 949.04,-396 957.02,-382.13 955.85,-374.48 949.04,-360 943.22,-347.62 932.93,-337.14 922.28,-328.85"/>
<polygon fill="black" stroke="black" points="924.28,-325.98 914.13,-322.94 920.18,-331.65 924.28,-325.98"/>
</g>
<!-- 大学物理II&#45;1 -->
<g id="node6" class="node">
<title>大学物理II&#45;1</title>
<ellipse fill="none" stroke="black" cx="1750.04" cy="-450" rx="68.79" ry="18"/>
<text text-anchor="middle" x="1750.04" y="-446.3" font-family="Times New Roman,serif" font-size="14.00">大学物理II&#45;1</text>
</g>
<!-- 大学物理II&#45;2 -->
<g id="node7" class="node">
<title>大学物理II&#45;2</title>
<ellipse fill="none" stroke="black" cx="1974.04" cy="-378" rx="68.79" ry="18"/>
<text text-anchor="middle" x="1974.04" y="-374.3" font-family="Times New Roman,serif" font-size="14.00">大学物理II&#45;2</text>
</g>
<!-- 大学物理II&#45;1&#45;&gt;大学物理II&#45;2 -->
<g id="edge4" class="edge">
<title>大学物理II&#45;1&#45;&gt;大学物理II&#45;2</title>
<path fill="none" stroke="black" d="M1792.44,-435.75C1829.15,-424.28 1882.4,-407.64 1921.75,-395.34"/>
<polygon fill="black" stroke="black" points="1922.94,-398.64 1931.44,-392.31 1920.85,-391.96 1922.94,-398.64"/>
</g>
<!-- 大学物理实验I&#45;2 -->
<g id="node8" class="node">
<title>大学物理实验I&#45;2</title>
<ellipse fill="none" stroke="black" cx="2162.04" cy="-306" rx="88.28" ry="18"/>
<text text-anchor="middle" x="2162.04" y="-302.3" font-family="Times New Roman,serif" font-size="14.00">大学物理实验I&#45;2</text>
</g>
<!-- 大学物理II&#45;2&#45;&gt;大学物理实验I&#45;2 -->
<g id="edge5" class="edge">
<title>大学物理II&#45;2&#45;&gt;大学物理实验I&#45;2</title>
<path fill="none" stroke="black" d="M2012.09,-362.83C2040.87,-352.12 2080.65,-337.3 2112.01,-325.63"/>
<polygon fill="black" stroke="black" points="2113.3,-328.88 2121.45,-322.11 2110.86,-322.32 2113.3,-328.88"/>
</g>
<!-- 概率统计与随机过程 -->
<g id="node9" class="node">
<title>概率统计与随机过程</title>
<ellipse fill="none" stroke="black" cx="2279.04" cy="-162" rx="111.58" ry="18"/>
<text text-anchor="middle" x="2279.04" y="-158.3" font-family="Times New Roman,serif" font-size="14.00">概率统计与随机过程</text>
</g>
<!-- 大学物理II&#45;2&#45;&gt;概率统计与随机过程 -->
<g id="edge6" class="edge">
<title>大学物理II&#45;2&#45;&gt;概率统计与随机过程</title>
<path fill="none" stroke="black" d="M1988.75,-360.32C2005.91,-341.43 2035.7,-310.38 2065.04,-288 2120.62,-245.62 2191.83,-206.69 2236.46,-183.9"/>
<polygon fill="black" stroke="black" points="2238.23,-186.93 2245.56,-179.29 2235.06,-180.69 2238.23,-186.93"/>
</g>
<!-- 大学物理实验I&#45;2&#45;&gt;概率统计与随机过程 -->
<g id="edge11" class="edge">
<title>大学物理实验I&#45;2&#45;&gt;概率统计与随机过程</title>
<path fill="none" stroke="black" d="M2175.92,-288.15C2196.31,-263.41 2234.49,-217.08 2258.23,-188.25"/>
<polygon fill="black" stroke="black" points="2261.16,-190.21 2264.81,-180.27 2255.75,-185.76 2261.16,-190.21"/>
</g>
<!-- 离散数学a -->
<g id="node13" class="node">
<title>离散数学a</title>
<ellipse fill="none" stroke="black" cx="2457.04" cy="-234" rx="59.59" ry="18"/>
<text text-anchor="middle" x="2457.04" y="-230.3" font-family="Times New Roman,serif" font-size="14.00">离散数学a</text>
</g>
<!-- 大学物理实验I&#45;2&#45;&gt;离散数学a -->
<g id="edge12" class="edge">
<title>大学物理实验I&#45;2&#45;&gt;离散数学a</title>
<path fill="none" stroke="black" d="M2217.18,-291.92C2269.82,-279.42 2348.73,-260.7 2401.5,-248.18"/>
<polygon fill="black" stroke="black" points="2402.44,-251.55 2411.36,-245.84 2400.82,-244.74 2402.44,-251.55"/>
</g>
<!-- 大学物理实验I&#45;1 -->
<g id="node10" class="node">
<title>大学物理实验I&#45;1</title>
<ellipse fill="none" stroke="black" cx="1631.04" cy="-594" rx="88.28" ry="18"/>
<text text-anchor="middle" x="1631.04" y="-590.3" font-family="Times New Roman,serif" font-size="14.00">大学物理实验I&#45;1</text>
</g>
<!-- 大学物理实验I&#45;1&#45;&gt;大学物理II&#45;1 -->
<g id="edge7" class="edge">
<title>大学物理实验I&#45;1&#45;&gt;大学物理II&#45;1</title>
<path fill="none" stroke="black" d="M1692.33,-581.02C1715.06,-573.29 1738.55,-560.64 1752.04,-540 1763.96,-521.77 1762.15,-496.65 1758.12,-477.74"/>
<polygon fill="black" stroke="black" points="1761.5,-476.84 1755.72,-467.96 1754.7,-478.5 1761.5,-476.84"/>
</g>
<!-- 大学物理实验I&#45;1&#45;&gt;大学物理实验I&#45;2 -->
<g id="edge8" class="edge">
<title>大学物理实验I&#45;1&#45;&gt;大学物理实验I&#45;2</title>
<path fill="none" stroke="black" d="M1684.2,-579.58C1711.69,-571.04 1744.87,-558.12 1771.04,-540 1797.32,-521.8 1838.31,-447.89 1866.04,-432 1939.1,-390.14 1975.71,-431.54 2052.04,-396 2085.96,-380.21 2118.45,-351.71 2139.21,-331.21"/>
<polygon fill="black" stroke="black" points="2141.75,-333.62 2146.31,-324.06 2136.78,-328.69 2141.75,-333.62"/>
</g>
<!-- 程序设计基础 -->
<g id="node11" class="node">
<title>程序设计基础</title>
<ellipse fill="none" stroke="black" cx="1482.04" cy="-666" rx="77.99" ry="18"/>
<text text-anchor="middle" x="1482.04" y="-662.3" font-family="Times New Roman,serif" font-size="14.00">程序设计基础</text>
</g>
<!-- 大学物理实验I&#45;1&#45;&gt;程序设计基础 -->
<g id="edge9" class="edge">
<title>大学物理实验I&#45;1&#45;&gt;程序设计基础</title>
<path fill="none" stroke="black" d="M1602.17,-611.29C1581.26,-621.66 1552.69,-635.13 1528.6,-645.98"/>
<polygon fill="black" stroke="black" points="1526.98,-642.88 1519.28,-650.15 1529.83,-649.27 1526.98,-642.88"/>
</g>
<!-- 线性代数与解析几何 -->
<g id="node12" class="node">
<title>线性代数与解析几何</title>
<ellipse fill="none" stroke="black" cx="1631.04" cy="-522" rx="111.58" ry="18"/>
<text text-anchor="middle" x="1631.04" y="-518.3" font-family="Times New Roman,serif" font-size="14.00">线性代数与解析几何</text>
</g>
<!-- 大学物理实验I&#45;1&#45;&gt;线性代数与解析几何 -->
<g id="edge10" class="edge">
<title>大学物理实验I&#45;1&#45;&gt;线性代数与解析几何</title>
<path fill="none" stroke="black" d="M1625.13,-575.7C1624.33,-567.98 1624.1,-558.71 1624.45,-550.11"/>
<polygon fill="black" stroke="black" points="1627.94,-550.32 1625.15,-540.1 1620.96,-549.84 1627.94,-550.32"/>
</g>
<!-- 程序设计基础&#45;&gt;大学物理II&#45;1 -->
<g id="edge57" class="edge">
<title>程序设计基础&#45;&gt;大学物理II&#45;1</title>
<path fill="none" stroke="black" d="M1559.72,-663.98C1611.64,-659.75 1679.14,-647.08 1728.04,-612 1770.02,-581.88 1780.73,-554.75 1771.04,-504 1769.33,-495.06 1766.14,-485.7 1762.75,-477.37"/>
<polygon fill="black" stroke="black" points="1765.95,-475.95 1758.76,-468.17 1759.53,-478.73 1765.95,-475.95"/>
</g>
<!-- 程序设计基础&#45;&gt;大学物理实验I&#45;1 -->
<g id="edge58" class="edge">
<title>程序设计基础&#45;&gt;大学物理实验I&#45;1</title>
<path fill="none" stroke="black" d="M1510.09,-649.12C1530.74,-638.86 1559.17,-625.45 1583.33,-614.54"/>
<polygon fill="black" stroke="black" points="1585,-617.62 1592.69,-610.34 1582.14,-611.24 1585,-617.62"/>
</g>
<!-- 工程制图 -->
<g id="node18" class="node">
<title>工程制图</title>
<ellipse fill="none" stroke="black" cx="1388.04" cy="-378" rx="55.79" ry="18"/>
<text text-anchor="middle" x="1388.04" y="-374.3" font-family="Times New Roman,serif" font-size="14.00">工程制图</text>
</g>
<!-- 程序设计基础&#45;&gt;工程制图 -->
<g id="edge59" class="edge">
<title>程序设计基础&#45;&gt;工程制图</title>
<path fill="none" stroke="black" d="M1461.66,-648.17C1430.03,-616.01 1371.77,-542.4 1351.04,-468 1346.75,-452.59 1347.19,-447.53 1351.04,-432 1353.46,-422.25 1358.03,-412.33 1363.27,-403.74"/>
<polygon fill="black" stroke="black" points="1366.24,-405.59 1368.91,-395.34 1360.43,-401.69 1366.24,-405.59"/>
</g>
<!-- 高等数学I&#45;1 -->
<g id="node20" class="node">
<title>高等数学I&#45;1</title>
<ellipse fill="none" stroke="black" cx="1435.04" cy="-450" rx="65.79" ry="18"/>
<text text-anchor="middle" x="1435.04" y="-446.3" font-family="Times New Roman,serif" font-size="14.00">高等数学I&#45;1</text>
</g>
<!-- 程序设计基础&#45;&gt;高等数学I&#45;1 -->
<g id="edge61" class="edge">
<title>程序设计基础&#45;&gt;高等数学I&#45;1</title>
<path fill="none" stroke="black" d="M1465.6,-648.23C1459.5,-638.01 1453.63,-624.54 1450.04,-612 1436.91,-566.11 1430.66,-510.69 1430.51,-478.29"/>
<polygon fill="black" stroke="black" points="1434.01,-478.29 1430.69,-468.23 1427.01,-478.17 1434.01,-478.29"/>
</g>
<!-- 面向对象程序设计 -->
<g id="node39" class="node">
<title>面向对象程序设计</title>
<ellipse fill="none" stroke="black" cx="1862.04" cy="-738" rx="100.98" ry="18"/>
<text text-anchor="middle" x="1862.04" y="-734.3" font-family="Times New Roman,serif" font-size="14.00">面向对象程序设计</text>
</g>
<!-- 程序设计基础&#45;&gt;面向对象程序设计 -->
<g id="edge60" class="edge">
<title>程序设计基础&#45;&gt;面向对象程序设计</title>
<path fill="none" stroke="black" d="M1542.83,-677.29C1609.35,-689.14 1715.9,-708.73 1787.42,-722.22"/>
<polygon fill="black" stroke="black" points="1786.8,-725.66 1797.28,-724.08 1788.1,-718.78 1786.8,-725.66"/>
</g>
<!-- 高等数学I&#45;2 -->
<g id="node41" class="node">
<title>高等数学I&#45;2</title>
<ellipse fill="none" stroke="black" cx="1528.04" cy="-378" rx="65.79" ry="18"/>
<text text-anchor="middle" x="1528.04" y="-374.3" font-family="Times New Roman,serif" font-size="14.00">高等数学I&#45;2</text>
</g>
<!-- 程序设计基础&#45;&gt;高等数学I&#45;2 -->
<g id="edge62" class="edge">
<title>程序设计基础&#45;&gt;高等数学I&#45;2</title>
<path fill="none" stroke="black" d="M1481.37,-647.97C1484.88,-600.08 1506.53,-463.98 1519.58,-405.85"/>
<polygon fill="black" stroke="black" points="1523.03,-406.48 1521.91,-395.94 1516.21,-404.88 1523.03,-406.48"/>
</g>
<!-- 线性代数与解析几何&#45;&gt;大学物理II&#45;1 -->
<g id="edge66" class="edge">
<title>线性代数与解析几何&#45;&gt;大学物理II&#45;1</title>
<path fill="none" stroke="black" d="M1659.24,-504.41C1675.75,-494.7 1696.75,-482.35 1714.39,-471.97"/>
<polygon fill="black" stroke="black" points="1716.42,-474.84 1723.27,-466.75 1712.88,-468.8 1716.42,-474.84"/>
</g>
<!-- 线性代数与解析几何&#45;&gt;大学物理实验I&#45;1 -->
<g id="edge67" class="edge">
<title>线性代数与解析几何&#45;&gt;大学物理实验I&#45;1</title>
<path fill="none" stroke="black" d="M1636.94,-540.1C1637.74,-547.79 1637.98,-557.05 1637.65,-565.67"/>
<polygon fill="black" stroke="black" points="1634.15,-565.48 1636.96,-575.7 1641.13,-565.96 1634.15,-565.48"/>
</g>
<!-- 计算机科学技术导论 -->
<g id="node19" class="node">
<title>计算机科学技术导论</title>
<ellipse fill="none" stroke="black" cx="1565.04" cy="-306" rx="111.58" ry="18"/>
<text text-anchor="middle" x="1565.04" y="-302.3" font-family="Times New Roman,serif" font-size="14.00">计算机科学技术导论</text>
</g>
<!-- 线性代数与解析几何&#45;&gt;计算机科学技术导论 -->
<g id="edge68" class="edge">
<title>线性代数与解析几何&#45;&gt;计算机科学技术导论</title>
<path fill="none" stroke="black" d="M1625.18,-503.85C1620.16,-473.64 1614.78,-409.45 1594.04,-360 1590.05,-350.49 1584.1,-341.04 1578.48,-332.81"/>
<polygon fill="black" stroke="black" points="1581.21,-330.62 1572.62,-324.42 1575.47,-334.62 1581.21,-330.62"/>
</g>
<!-- 线性代数与解析几何&#45;&gt;高等数学I&#45;1 -->
<g id="edge69" class="edge">
<title>线性代数与解析几何&#45;&gt;高等数学I&#45;1</title>
<path fill="none" stroke="black" d="M1582.58,-505.72C1550.99,-494.91 1510.15,-480.36 1479.4,-468.98"/>
<polygon fill="black" stroke="black" points="1480.39,-465.61 1469.8,-465.41 1477.95,-472.17 1480.39,-465.61"/>
</g>
<!-- 离散数学a&#45;&gt;概率统计与随机过程 -->
<g id="edge56" class="edge">
<title>离散数学a&#45;&gt;概率统计与随机过程</title>
<path fill="none" stroke="black" d="M2422.3,-219.34C2395.64,-208.85 2358.48,-194.24 2328.69,-182.52"/>
<polygon fill="black" stroke="black" points="2329.88,-179.23 2319.3,-178.83 2327.32,-185.75 2329.88,-179.23"/>
</g>
<!-- 大学英语i -->
<g id="node14" class="node">
<title>大学英语i</title>
<ellipse fill="none" stroke="black" cx="1092.04" cy="-306" rx="57.69" ry="18"/>
<text text-anchor="middle" x="1092.04" y="-302.3" font-family="Times New Roman,serif" font-size="14.00">大学英语i</text>
</g>
<!-- 大学英语i&#45;&gt;软件工程 -->
<g id="edge14" class="edge">
<title>大学英语i&#45;&gt;软件工程</title>
<path fill="none" stroke="black" d="M1093.44,-324.1C1094.99,-342.05 1097.71,-371.06 1101.04,-396 1103.19,-412.08 1105.7,-415.83 1107.04,-432 1108.36,-447.95 1111.45,-452.62 1107.04,-468 1096.64,-504.27 1091.46,-516.36 1062.04,-540 1035.7,-561.17 1000.24,-574.23 970.53,-582.09"/>
<polygon fill="black" stroke="black" points="969.54,-578.73 960.69,-584.56 971.24,-585.52 969.54,-578.73"/>
</g>
<!-- 大学英语i&#45;&gt;大学计算机iii -->
<g id="edge13" class="edge">
<title>大学英语i&#45;&gt;大学计算机iii</title>
<path fill="none" stroke="black" d="M1092.04,-287.7C1092.04,-279.98 1092.04,-270.71 1092.04,-262.11"/>
<polygon fill="black" stroke="black" points="1095.54,-262.1 1092.04,-252.1 1088.54,-262.1 1095.54,-262.1"/>
</g>
<!-- 大学英语iii1 -->
<g id="node16" class="node">
<title>大学英语iii1</title>
<ellipse fill="none" stroke="black" cx="2577.04" cy="-810" rx="65.79" ry="18"/>
<text text-anchor="middle" x="2577.04" y="-806.3" font-family="Times New Roman,serif" font-size="14.00">大学英语iii1</text>
</g>
<!-- 大学英语iii2 -->
<g id="node17" class="node">
<title>大学英语iii2</title>
<ellipse fill="none" stroke="black" cx="2577.04" cy="-738" rx="65.79" ry="18"/>
<text text-anchor="middle" x="2577.04" y="-734.3" font-family="Times New Roman,serif" font-size="14.00">大学英语iii2</text>
</g>
<!-- 大学英语iii1&#45;&gt;大学英语iii2 -->
<g id="edge15" class="edge">
<title>大学英语iii1&#45;&gt;大学英语iii2</title>
<path fill="none" stroke="black" d="M2571.16,-792.05C2570.35,-784.35 2570.1,-775.03 2570.44,-766.36"/>
<polygon fill="black" stroke="black" points="2573.94,-766.49 2571.13,-756.28 2566.95,-766.01 2573.94,-766.49"/>
</g>
<!-- 大学英语iii2&#45;&gt;大学英语iii1 -->
<g id="edge16" class="edge">
<title>大学英语iii2&#45;&gt;大学英语iii1</title>
<path fill="none" stroke="black" d="M2582.95,-756.28C2583.76,-764.03 2583.98,-773.36 2583.63,-782.01"/>
<polygon fill="black" stroke="black" points="2580.14,-781.83 2582.92,-792.05 2587.12,-782.33 2580.14,-781.83"/>
</g>
<!-- 工程制图&#45;&gt;程序设计基础 -->
<g id="edge18" class="edge">
<title>工程制图&#45;&gt;程序设计基础</title>
<path fill="none" stroke="black" d="M1384.08,-396.28C1379.03,-406.24 1372.2,-419.27 1369.04,-432 1365.19,-447.53 1364.75,-452.59 1369.04,-468 1388.1,-536.41 1438.89,-604.15 1465.63,-639.62"/>
<polygon fill="black" stroke="black" points="1463.07,-642.03 1471.88,-647.92 1468.67,-637.82 1463.07,-642.03"/>
</g>
<!-- 工程制图&#45;&gt;大学计算机iii -->
<g id="edge17" class="edge">
<title>工程制图&#45;&gt;大学计算机iii</title>
<path fill="none" stroke="black" d="M1377.52,-360.12C1363.98,-339.83 1338.52,-306.25 1308.04,-288 1265.94,-262.78 1212.4,-249.54 1169.16,-242.6"/>
<polygon fill="black" stroke="black" points="1169.66,-239.14 1159.25,-241.09 1168.61,-246.06 1169.66,-239.14"/>
</g>
<!-- 工程制图&#45;&gt;计算机科学技术导论 -->
<g id="edge19" class="edge">
<title>工程制图&#45;&gt;计算机科学技术导论</title>
<path fill="none" stroke="black" d="M1418.31,-362.83C1443.54,-352.31 1479.97,-337.83 1510.26,-326.25"/>
<polygon fill="black" stroke="black" points="1511.75,-329.43 1519.85,-322.61 1509.26,-322.89 1511.75,-329.43"/>
</g>
<!-- 工程制图&#45;&gt;高等数学I&#45;1 -->
<g id="edge20" class="edge">
<title>工程制图&#45;&gt;高等数学I&#45;1</title>
<path fill="none" stroke="black" d="M1404.8,-395.31C1411.35,-403.67 1418.56,-414.05 1424.41,-423.44"/>
<polygon fill="black" stroke="black" points="1421.42,-425.26 1429.54,-432.05 1427.43,-421.67 1421.42,-425.26"/>
</g>
<!-- 计算机科学技术导论&#45;&gt;线性代数与解析几何 -->
<g id="edge72" class="edge">
<title>计算机科学技术导论&#45;&gt;线性代数与解析几何</title>
<path fill="none" stroke="black" d="M1588.15,-323.94C1597.23,-333.8 1606.52,-346.84 1612.04,-360 1630.67,-404.43 1636.91,-460.75 1636.37,-493.64"/>
<polygon fill="black" stroke="black" points="1632.86,-493.71 1635.93,-503.85 1639.85,-494.01 1632.86,-493.71"/>
</g>
<!-- 计算机科学技术导论&#45;&gt;工程制图 -->
<g id="edge71" class="edge">
<title>计算机科学技术导论&#45;&gt;工程制图</title>
<path fill="none" stroke="black" d="M1530.11,-323.1C1502.69,-334.46 1464.39,-349.6 1434.42,-360.95"/>
<polygon fill="black" stroke="black" points="1433.13,-357.69 1425,-364.49 1435.59,-364.24 1433.13,-357.69"/>
</g>
<!-- 高等数学I&#45;1&#45;&gt;大学物理实验I&#45;1 -->
<g id="edge99" class="edge">
<title>高等数学I&#45;1&#45;&gt;大学物理实验I&#45;1</title>
<path fill="none" stroke="black" d="M1445.66,-467.77C1458.76,-487.32 1482.69,-519.56 1510.04,-540 1529.65,-554.65 1553.93,-566.29 1575.59,-574.89"/>
<polygon fill="black" stroke="black" points="1574.42,-578.19 1585.01,-578.51 1576.93,-571.66 1574.42,-578.19"/>
</g>
<!-- 高等数学I&#45;1&#45;&gt;程序设计基础 -->
<g id="edge101" class="edge">
<title>高等数学I&#45;1&#45;&gt;程序设计基础</title>
<path fill="none" stroke="black" d="M1441.56,-468.23C1447.33,-498.04 1453.43,-560.92 1468.04,-612 1470.55,-620.78 1474.19,-630.01 1477.42,-638.27"/>
<polygon fill="black" stroke="black" points="1474.21,-639.68 1481.07,-647.76 1480.75,-637.17 1474.21,-639.68"/>
</g>
<!-- 高等数学I&#45;1&#45;&gt;线性代数与解析几何 -->
<g id="edge102" class="edge">
<title>高等数学I&#45;1&#45;&gt;线性代数与解析几何</title>
<path fill="none" stroke="black" d="M1476.67,-463.94C1507.55,-474.43 1549.63,-489.37 1582.11,-501.33"/>
<polygon fill="black" stroke="black" points="1581.26,-504.75 1591.86,-504.94 1583.69,-498.19 1581.26,-504.75"/>
</g>
<!-- 高等数学I&#45;1&#45;&gt;工程制图 -->
<g id="edge100" class="edge">
<title>高等数学I&#45;1&#45;&gt;工程制图</title>
<path fill="none" stroke="black" d="M1418.06,-432.41C1411.63,-424.16 1404.58,-414.01 1398.81,-404.78"/>
<polygon fill="black" stroke="black" points="1401.68,-402.75 1393.55,-395.96 1395.67,-406.34 1401.68,-402.75"/>
</g>
<!-- 高等数学I&#45;1&#45;&gt;高等数学I&#45;2 -->
<g id="edge103" class="edge">
<title>高等数学I&#45;1&#45;&gt;高等数学I&#45;2</title>
<path fill="none" stroke="black" d="M1451.24,-432.41C1462.95,-422.81 1478.99,-410.63 1493.44,-400.33"/>
<polygon fill="black" stroke="black" points="1495.55,-403.12 1501.72,-394.51 1491.52,-397.4 1495.55,-403.12"/>
</g>
<!-- 形式语言与编译 -->
<g id="node21" class="node">
<title>形式语言与编译</title>
<ellipse fill="none" stroke="black" cx="89.04" cy="-90" rx="89.08" ry="18"/>
<text text-anchor="middle" x="89.04" y="-86.3" font-family="Times New Roman,serif" font-size="14.00">形式语言与编译</text>
</g>
<!-- 形式语言与编译&#45;&gt;编译器设计专题实验 -->
<g id="edge22" class="edge">
<title>形式语言与编译&#45;&gt;编译器设计专题实验</title>
<path fill="none" stroke="black" d="M72.71,-107.77C50.11,-132.83 12.04,-182.52 12.04,-233 12.04,-451 12.04,-451 12.04,-451 12.04,-545.88 128.56,-578.14 223.12,-588.7"/>
<polygon fill="black" stroke="black" points="222.76,-592.18 233.07,-589.74 223.49,-585.22 222.76,-592.18"/>
</g>
<!-- 形式语言与编译&#45;&gt;数据库系统 -->
<g id="edge21" class="edge">
<title>形式语言与编译&#45;&gt;数据库系统</title>
<path fill="none" stroke="black" d="M81.15,-108.07C69.75,-134.33 50.04,-186.47 50.04,-233 50.04,-379 50.04,-379 50.04,-379 50.04,-422.55 60.8,-436.66 91.04,-468 106.02,-483.53 126.52,-495.26 145.43,-503.69"/>
<polygon fill="black" stroke="black" points="144.27,-507.01 154.85,-507.69 147.01,-500.56 144.27,-507.01"/>
</g>
<!-- 操作系统原理i -->
<g id="node23" class="node">
<title>操作系统原理i</title>
<ellipse fill="none" stroke="black" cx="196.04" cy="-450" rx="79.89" ry="18"/>
<text text-anchor="middle" x="196.04" y="-446.3" font-family="Times New Roman,serif" font-size="14.00">操作系统原理i</text>
</g>
<!-- 数据库系统&#45;&gt;操作系统原理i -->
<g id="edge30" class="edge">
<title>数据库系统&#45;&gt;操作系统原理i</title>
<path fill="none" stroke="black" d="M196.04,-503.7C196.04,-495.98 196.04,-486.71 196.04,-478.11"/>
<polygon fill="black" stroke="black" points="199.54,-478.1 196.04,-468.1 192.54,-478.1 199.54,-478.1"/>
</g>
<!-- 操作系统设计专题实验 -->
<g id="node24" class="node">
<title>操作系统设计专题实验</title>
<ellipse fill="none" stroke="black" cx="493.04" cy="-378" rx="122.68" ry="18"/>
<text text-anchor="middle" x="493.04" y="-374.3" font-family="Times New Roman,serif" font-size="14.00">操作系统设计专题实验</text>
</g>
<!-- 操作系统原理i&#45;&gt;操作系统设计专题实验 -->
<g id="edge23" class="edge">
<title>操作系统原理i&#45;&gt;操作系统设计专题实验</title>
<path fill="none" stroke="black" d="M249.14,-436.49C297.1,-425.18 368.1,-408.45 421.14,-395.95"/>
<polygon fill="black" stroke="black" points="422.23,-399.29 431.16,-393.59 420.62,-392.47 422.23,-399.29"/>
</g>
<!-- 计算机组成 -->
<g id="node25" class="node">
<title>计算机组成</title>
<ellipse fill="none" stroke="black" cx="284.04" cy="-162" rx="66.89" ry="18"/>
<text text-anchor="middle" x="284.04" y="-158.3" font-family="Times New Roman,serif" font-size="14.00">计算机组成</text>
</g>
<!-- 操作系统原理i&#45;&gt;计算机组成 -->
<g id="edge24" class="edge">
<title>操作系统原理i&#45;&gt;计算机组成</title>
<path fill="none" stroke="black" d="M196.57,-431.97C198.15,-401.38 204.51,-335.9 230.04,-288 240.54,-268.31 254.52,-271.68 265.04,-252 275.31,-232.78 280.03,-208.44 282.2,-190.07"/>
<polygon fill="black" stroke="black" points="285.69,-190.33 283.2,-180.03 278.73,-189.63 285.69,-190.33"/>
</g>
<!-- 操作系统设计专题实验&#45;&gt;编译器设计专题实验 -->
<g id="edge25" class="edge">
<title>操作系统设计专题实验&#45;&gt;编译器设计专题实验</title>
<path fill="none" stroke="black" d="M481.09,-395.94C454.66,-433.39 391.12,-523.44 359.93,-567.65"/>
<polygon fill="black" stroke="black" points="357.05,-565.66 354.14,-575.85 362.77,-569.7 357.05,-565.66"/>
</g>
<!-- 计算机组成与结构专题实验 -->
<g id="node26" class="node">
<title>计算机组成与结构专题实验</title>
<ellipse fill="none" stroke="black" cx="548.04" cy="-90" rx="145.67" ry="18"/>
<text text-anchor="middle" x="548.04" y="-86.3" font-family="Times New Roman,serif" font-size="14.00">计算机组成与结构专题实验</text>
</g>
<!-- 操作系统设计专题实验&#45;&gt;计算机组成与结构专题实验 -->
<g id="edge26" class="edge">
<title>操作系统设计专题实验&#45;&gt;计算机组成与结构专题实验</title>
<path fill="none" stroke="black" d="M496.32,-359.97C505.51,-312.19 531.58,-176.62 542.8,-118.27"/>
<polygon fill="black" stroke="black" points="546.26,-118.79 544.71,-108.31 539.39,-117.47 546.26,-118.79"/>
</g>
<!-- 计算机网络专题实验 -->
<g id="node27" class="node">
<title>计算机网络专题实验</title>
<ellipse fill="none" stroke="black" cx="351.04" cy="-306" rx="111.58" ry="18"/>
<text text-anchor="middle" x="351.04" y="-302.3" font-family="Times New Roman,serif" font-size="14.00">计算机网络专题实验</text>
</g>
<!-- 操作系统设计专题实验&#45;&gt;计算机网络专题实验 -->
<g id="edge27" class="edge">
<title>操作系统设计专题实验&#45;&gt;计算机网络专题实验</title>
<path fill="none" stroke="black" d="M459.75,-360.59C439.9,-350.8 414.51,-338.29 393.26,-327.81"/>
<polygon fill="black" stroke="black" points="394.64,-324.59 384.13,-323.31 391.55,-330.87 394.64,-324.59"/>
</g>
<!-- 计算机组成&#45;&gt;形式语言与编译 -->
<g id="edge77" class="edge">
<title>计算机组成&#45;&gt;形式语言与编译</title>
<path fill="none" stroke="black" d="M245.52,-147.17C215.41,-136.36 173.29,-121.24 140.33,-109.41"/>
<polygon fill="black" stroke="black" points="141.46,-106.1 130.86,-106.01 139.09,-112.69 141.46,-106.1"/>
</g>
<!-- 计算机组成&#45;&gt;操作系统设计专题实验 -->
<g id="edge78" class="edge">
<title>计算机组成&#45;&gt;操作系统设计专题实验</title>
<path fill="none" stroke="black" d="M320.17,-177.16C363.16,-195.91 433.88,-233.14 472.04,-288 484.68,-306.17 489.78,-330.94 491.81,-349.74"/>
<polygon fill="black" stroke="black" points="488.32,-350.09 492.66,-359.76 495.3,-349.49 488.32,-350.09"/>
</g>
<!-- 计算机组成&#45;&gt;计算机组成与结构专题实验 -->
<g id="edge79" class="edge">
<title>计算机组成&#45;&gt;计算机组成与结构专题实验</title>
<path fill="none" stroke="black" d="M330.03,-148.81C371.27,-137.87 432.34,-121.68 479.37,-109.21"/>
<polygon fill="black" stroke="black" points="480.41,-112.55 489.18,-106.61 478.61,-105.79 480.41,-112.55"/>
</g>
<!-- 计算机组成与结构专题实验&#45;&gt;计算机网络专题实验 -->
<g id="edge81" class="edge">
<title>计算机组成与结构专题实验&#45;&gt;计算机网络专题实验</title>
<path fill="none" stroke="black" d="M532.45,-107.94C497.75,-145.63 414.04,-236.57 373.62,-280.47"/>
<polygon fill="black" stroke="black" points="371.03,-278.12 366.83,-287.85 376.18,-282.86 371.03,-278.12"/>
</g>
<!-- 计算机图形学 -->
<g id="node43" class="node">
<title>计算机图形学</title>
<ellipse fill="none" stroke="black" cx="548.04" cy="-18" rx="77.99" ry="18"/>
<text text-anchor="middle" x="548.04" y="-14.3" font-family="Times New Roman,serif" font-size="14.00">计算机图形学</text>
</g>
<!-- 计算机组成与结构专题实验&#45;&gt;计算机图形学 -->
<g id="edge80" class="edge">
<title>计算机组成与结构专题实验&#45;&gt;计算机图形学</title>
<path fill="none" stroke="black" d="M548.04,-71.7C548.04,-63.98 548.04,-54.71 548.04,-46.11"/>
<polygon fill="black" stroke="black" points="551.54,-46.1 548.04,-36.1 544.54,-46.1 551.54,-46.1"/>
</g>
<!-- 计算机网络专题实验&#45;&gt;编译器设计专题实验 -->
<g id="edge83" class="edge">
<title>计算机网络专题实验&#45;&gt;编译器设计专题实验</title>
<path fill="none" stroke="black" d="M350.5,-324.31C348.99,-372.31 344.73,-507.44 342.9,-565.7"/>
<polygon fill="black" stroke="black" points="339.39,-565.86 342.58,-575.97 346.39,-566.08 339.39,-565.86"/>
</g>
<!-- 计算机网络专题实验&#45;&gt;数据库系统 -->
<g id="edge82" class="edge">
<title>计算机网络专题实验&#45;&gt;数据库系统</title>
<path fill="none" stroke="black" d="M343.45,-324.13C338.9,-334.48 333.05,-347.96 328.04,-360 308.2,-407.7 318.57,-428.7 285.04,-468 273.04,-482.07 256.32,-493.38 240.61,-501.89"/>
<polygon fill="black" stroke="black" points="238.81,-498.88 231.52,-506.57 242.02,-505.11 238.81,-498.88"/>
</g>
<!-- 计算机网络原理 -->
<g id="node44" class="node">
<title>计算机网络原理</title>
<ellipse fill="none" stroke="black" cx="167.04" cy="-234" rx="89.08" ry="18"/>
<text text-anchor="middle" x="167.04" y="-230.3" font-family="Times New Roman,serif" font-size="14.00">计算机网络原理</text>
</g>
<!-- 计算机网络专题实验&#45;&gt;计算机网络原理 -->
<g id="edge84" class="edge">
<title>计算机网络专题实验&#45;&gt;计算机网络原理</title>
<path fill="none" stroke="black" d="M309.29,-289.12C281.76,-278.64 245.57,-264.87 216.58,-253.85"/>
<polygon fill="black" stroke="black" points="217.64,-250.51 207.05,-250.22 215.15,-257.05 217.64,-250.51"/>
</g>
<!-- 数字逻辑电路 -->
<g id="node28" class="node">
<title>数字逻辑电路</title>
<ellipse fill="none" stroke="black" cx="1953.04" cy="-450" rx="77.99" ry="18"/>
<text text-anchor="middle" x="1953.04" y="-446.3" font-family="Times New Roman,serif" font-size="14.00">数字逻辑电路</text>
</g>
<!-- 数字逻辑电路&#45;&gt;概率统计与随机过程 -->
<g id="edge28" class="edge">
<title>数字逻辑电路&#45;&gt;概率统计与随机过程</title>
<path fill="none" stroke="black" d="M1927.65,-432.83C1915.66,-423.65 1902.57,-410.99 1896.04,-396 1889.65,-381.33 1888.48,-374.1 1896.04,-360 1955.31,-249.54 2101.19,-199.27 2194.84,-177.73"/>
<polygon fill="black" stroke="black" points="2195.87,-181.09 2204.86,-175.49 2194.34,-174.26 2195.87,-181.09"/>
</g>
<!-- 电子技术实验1 -->
<g id="node29" class="node">
<title>电子技术实验1</title>
<ellipse fill="none" stroke="black" cx="2220.04" cy="-378" rx="82.59" ry="18"/>
<text text-anchor="middle" x="2220.04" y="-374.3" font-family="Times New Roman,serif" font-size="14.00">电子技术实验1</text>
</g>
<!-- 数字逻辑电路&#45;&gt;电子技术实验1 -->
<g id="edge29" class="edge">
<title>数字逻辑电路&#45;&gt;电子技术实验1</title>
<path fill="none" stroke="black" d="M2002.64,-436C2046.99,-424.37 2112.11,-407.3 2159.52,-394.87"/>
<polygon fill="black" stroke="black" points="2160.57,-398.21 2169.35,-392.29 2158.79,-391.44 2160.57,-398.21"/>
</g>
<!-- 电子技术实验1&#45;&gt;大学物理实验I&#45;2 -->
<g id="edge44" class="edge">
<title>电子技术实验1&#45;&gt;大学物理实验I&#45;2</title>
<path fill="none" stroke="black" d="M2206,-360.05C2198.95,-351.54 2190.27,-341.07 2182.49,-331.68"/>
<polygon fill="black" stroke="black" points="2185.03,-329.26 2175.95,-323.79 2179.64,-333.72 2185.03,-329.26"/>
</g>
<!-- 数据结构与程序设计专题实验 -->
<g id="node30" class="node">
<title>数据结构与程序设计专题实验</title>
<ellipse fill="none" stroke="black" cx="2176.04" cy="-666" rx="156.77" ry="18"/>
<text text-anchor="middle" x="2176.04" y="-662.3" font-family="Times New Roman,serif" font-size="14.00">数据结构与程序设计专题实验</text>
</g>
<!-- 数据结构与程序设计专题实验&#45;&gt;数学建模ii -->
<g id="edge31" class="edge">
<title>数据结构与程序设计专题实验&#45;&gt;数学建模ii</title>
<path fill="none" stroke="black" d="M2108.18,-649.72C2052.26,-637.14 1973.91,-619.5 1921.41,-607.69"/>
<polygon fill="black" stroke="black" points="1922.12,-604.26 1911.59,-605.48 1920.58,-611.09 1922.12,-604.26"/>
</g>
<!-- 数据结构与算法i -->
<g id="node31" class="node">
<title>数据结构与算法i</title>
<ellipse fill="none" stroke="black" cx="2176.04" cy="-594" rx="90.98" ry="18"/>
<text text-anchor="middle" x="2176.04" y="-590.3" font-family="Times New Roman,serif" font-size="14.00">数据结构与算法i</text>
</g>
<!-- 数据结构与程序设计专题实验&#45;&gt;数据结构与算法i -->
<g id="edge32" class="edge">
<title>数据结构与程序设计专题实验&#45;&gt;数据结构与算法i</title>
<path fill="none" stroke="black" d="M2170.13,-647.7C2169.33,-639.98 2169.1,-630.71 2169.45,-622.11"/>
<polygon fill="black" stroke="black" points="2172.94,-622.32 2170.15,-612.1 2165.96,-621.84 2172.94,-622.32"/>
</g>
<!-- 数据结构与算法i&#45;&gt;数据结构与程序设计专题实验 -->
<g id="edge33" class="edge">
<title>数据结构与算法i&#45;&gt;数据结构与程序设计专题实验</title>
<path fill="none" stroke="black" d="M2181.94,-612.1C2182.74,-619.79 2182.98,-629.05 2182.65,-637.67"/>
<polygon fill="black" stroke="black" points="2179.15,-637.48 2181.96,-647.7 2186.13,-637.96 2179.15,-637.48"/>
</g>
<!-- 电路 -->
<g id="node32" class="node">
<title>电路</title>
<ellipse fill="none" stroke="black" cx="2235.04" cy="-522" rx="33.29" ry="18"/>
<text text-anchor="middle" x="2235.04" y="-518.3" font-family="Times New Roman,serif" font-size="14.00">电路</text>
</g>
<!-- 数据结构与算法i&#45;&gt;电路 -->
<g id="edge34" class="edge">
<title>数据结构与算法i&#45;&gt;电路</title>
<path fill="none" stroke="black" d="M2190.32,-576.05C2197.78,-567.2 2207.03,-556.23 2215.18,-546.57"/>
<polygon fill="black" stroke="black" points="2217.93,-548.73 2221.7,-538.83 2212.58,-544.22 2217.93,-548.73"/>
</g>
<!-- 电路&#45;&gt;大学物理II&#45;2 -->
<g id="edge50" class="edge">
<title>电路&#45;&gt;大学物理II&#45;2</title>
<path fill="none" stroke="black" d="M2204.45,-514.81C2171.53,-507.24 2118.46,-492.34 2078.04,-468 2058.11,-456 2057.57,-447.3 2040.04,-432 2028.28,-421.74 2014.92,-410.87 2003.31,-401.66"/>
<polygon fill="black" stroke="black" points="2005.23,-398.72 1995.21,-395.28 2000.9,-404.22 2005.23,-398.72"/>
</g>
<!-- 电路&#45;&gt;概率统计与随机过程 -->
<g id="edge52" class="edge">
<title>电路&#45;&gt;概率统计与随机过程</title>
<path fill="none" stroke="black" d="M2259,-509.43C2297.54,-488.94 2369.04,-442.39 2369.04,-379 2369.04,-379 2369.04,-379 2369.04,-305 2369.04,-257.71 2333,-213.41 2306.53,-187.25"/>
<polygon fill="black" stroke="black" points="2308.66,-184.44 2299.02,-180.05 2303.81,-189.49 2308.66,-184.44"/>
</g>
<!-- 电路&#45;&gt;离散数学a -->
<g id="edge54" class="edge">
<title>电路&#45;&gt;离散数学a</title>
<path fill="none" stroke="black" d="M2267.52,-518.06C2301.16,-513.27 2352.92,-500.74 2383.04,-468 2439.1,-407.07 2402,-365.54 2431.04,-288 2434.44,-278.93 2438.87,-269.34 2443.1,-260.85"/>
<polygon fill="black" stroke="black" points="2446.29,-262.31 2447.74,-251.81 2440.06,-259.11 2446.29,-262.31"/>
</g>
<!-- 电路&#45;&gt;数字逻辑电路 -->
<g id="edge51" class="edge">
<title>电路&#45;&gt;数字逻辑电路</title>
<path fill="none" stroke="black" d="M2205.4,-513.64C2160.21,-502.43 2073.15,-480.81 2014.07,-466.15"/>
<polygon fill="black" stroke="black" points="2014.66,-462.69 2004.11,-463.68 2012.97,-469.48 2014.66,-462.69"/>
</g>
<!-- 电路&#45;&gt;电子技术实验1 -->
<g id="edge53" class="edge">
<title>电路&#45;&gt;电子技术实验1</title>
<path fill="none" stroke="black" d="M2250.32,-505.83C2259.12,-495.97 2269.34,-482.33 2274.04,-468 2279.03,-452.8 2280.23,-446.75 2274.04,-432 2269.28,-420.66 2260.79,-410.53 2251.92,-402.24"/>
<polygon fill="black" stroke="black" points="2253.96,-399.38 2244.12,-395.44 2249.36,-404.65 2253.96,-399.38"/>
</g>
<!-- 算法分析与设计 -->
<g id="node40" class="node">
<title>算法分析与设计</title>
<ellipse fill="none" stroke="black" cx="2176.04" cy="-450" rx="89.08" ry="18"/>
<text text-anchor="middle" x="2176.04" y="-446.3" font-family="Times New Roman,serif" font-size="14.00">算法分析与设计</text>
</g>
<!-- 电路&#45;&gt;算法分析与设计 -->
<g id="edge55" class="edge">
<title>电路&#45;&gt;算法分析与设计</title>
<path fill="none" stroke="black" d="M2221.65,-505.12C2214.32,-496.42 2205.08,-485.45 2196.83,-475.66"/>
<polygon fill="black" stroke="black" points="2199.32,-473.19 2190.2,-467.8 2193.97,-477.7 2199.32,-473.19"/>
</g>
<!-- 数理逻辑&#45;&gt;模拟电子技术基础 -->
<g id="edge35" class="edge">
<title>数理逻辑&#45;&gt;模拟电子技术基础</title>
<path fill="none" stroke="black" d="M991.16,-504.05C990.35,-496.35 990.1,-487.03 990.44,-478.36"/>
<polygon fill="black" stroke="black" points="993.94,-478.49 991.13,-468.28 986.95,-478.01 993.94,-478.49"/>
</g>
<!-- 模拟电子技术基础&#45;&gt;大学英语i -->
<g id="edge37" class="edge">
<title>模拟电子技术基础&#45;&gt;大学英语i</title>
<path fill="none" stroke="black" d="M1008.5,-431.87C1025.07,-407.11 1055.82,-361.14 1075.04,-332.42"/>
<polygon fill="black" stroke="black" points="1078.19,-334.01 1080.84,-323.75 1072.37,-330.11 1078.19,-334.01"/>
</g>
<!-- 模拟电子技术基础&#45;&gt;大学计算机iii -->
<g id="edge38" class="edge">
<title>模拟电子技术基础&#45;&gt;大学计算机iii</title>
<path fill="none" stroke="black" d="M996.17,-431.65C995.4,-400.57 997.47,-334.32 1025.04,-288 1032.43,-275.59 1043.89,-264.95 1055.25,-256.54"/>
<polygon fill="black" stroke="black" points="1057.26,-259.4 1063.45,-250.81 1053.25,-253.67 1057.26,-259.4"/>
</g>
<!-- 模拟电子技术基础&#45;&gt;数理逻辑 -->
<g id="edge39" class="edge">
<title>模拟电子技术基础&#45;&gt;数理逻辑</title>
<path fill="none" stroke="black" d="M1002.95,-468.28C1003.76,-476.03 1003.98,-485.36 1003.63,-494.01"/>
<polygon fill="black" stroke="black" points="1000.14,-493.83 1002.92,-504.05 1007.12,-494.33 1000.14,-493.83"/>
</g>
<!-- 模拟电子技术 -->
<g id="node35" class="node">
<title>模拟电子技术</title>
<ellipse fill="none" stroke="black" cx="1188.04" cy="-378" rx="77.99" ry="18"/>
<text text-anchor="middle" x="1188.04" y="-374.3" font-family="Times New Roman,serif" font-size="14.00">模拟电子技术</text>
</g>
<!-- 模拟电子技术基础&#45;&gt;模拟电子技术 -->
<g id="edge40" class="edge">
<title>模拟电子技术基础&#45;&gt;模拟电子技术</title>
<path fill="none" stroke="black" d="M1039.43,-433.46C1068.79,-422.71 1107.96,-408.35 1138.71,-397.08"/>
<polygon fill="black" stroke="black" points="1140.19,-400.26 1148.38,-393.54 1137.79,-393.69 1140.19,-400.26"/>
</g>
<!-- 模拟电子技术基础&#45;&gt;计算机系统综合设计实验 -->
<g id="edge41" class="edge">
<title>模拟电子技术基础&#45;&gt;计算机系统综合设计实验</title>
<path fill="none" stroke="black" d="M950.41,-433.98C921.28,-423.77 883.92,-410.14 854.47,-399.01"/>
<polygon fill="black" stroke="black" points="855.39,-395.62 844.8,-395.34 852.91,-402.16 855.39,-395.62"/>
</g>
<!-- 模拟电子技术&#45;&gt;大学英语i -->
<g id="edge36" class="edge">
<title>模拟电子技术&#45;&gt;大学英语i</title>
<path fill="none" stroke="black" d="M1165.29,-360.41C1152.34,-350.97 1135.97,-339.03 1121.99,-328.83"/>
<polygon fill="black" stroke="black" points="1123.78,-325.81 1113.64,-322.75 1119.66,-331.47 1123.78,-325.81"/>
</g>
<!-- 计算机系统综合设计实验&#45;&gt;计算机组成与结构专题实验 -->
<g id="edge75" class="edge">
<title>计算机系统综合设计实验&#45;&gt;计算机组成与结构专题实验</title>
<path fill="none" stroke="black" d="M739.94,-362.33C715.18,-354.25 688.2,-342.08 668.04,-324 603.66,-266.27 568.73,-165.84 555.01,-117.93"/>
<polygon fill="black" stroke="black" points="558.38,-116.96 552.33,-108.27 551.63,-118.84 558.38,-116.96"/>
</g>
<!-- 计算机系统综合设计实验&#45;&gt;模拟电子技术基础 -->
<g id="edge73" class="edge">
<title>计算机系统综合设计实验&#45;&gt;模拟电子技术基础</title>
<path fill="none" stroke="black" d="M854.96,-394.82C884.2,-405.1 921.09,-418.57 949.99,-429.51"/>
<polygon fill="black" stroke="black" points="948.87,-432.83 959.46,-433.12 951.36,-426.29 948.87,-432.83"/>
</g>
<!-- 汇编语言 -->
<g id="node37" class="node">
<title>汇编语言</title>
<ellipse fill="none" stroke="black" cx="733.04" cy="-306" rx="55.79" ry="18"/>
<text text-anchor="middle" x="733.04" y="-302.3" font-family="Times New Roman,serif" font-size="14.00">汇编语言</text>
</g>
<!-- 计算机系统综合设计实验&#45;&gt;汇编语言 -->
<g id="edge74" class="edge">
<title>计算机系统综合设计实验&#45;&gt;汇编语言</title>
<path fill="none" stroke="black" d="M788.37,-360.05C779.09,-351.16 767.57,-340.11 757.45,-330.41"/>
<polygon fill="black" stroke="black" points="759.69,-327.7 750.05,-323.31 754.84,-332.75 759.69,-327.7"/>
</g>
<!-- 计算机系统综合设计实验&#45;&gt;软件定义网络 -->
<g id="edge76" class="edge">
<title>计算机系统综合设计实验&#45;&gt;软件定义网络</title>
<path fill="none" stroke="black" d="M819.29,-360.05C828.56,-350.98 841.16,-339.68 852.89,-329.84"/>
<polygon fill="black" stroke="black" points="855.33,-332.36 860.83,-323.31 850.88,-326.96 855.33,-332.36"/>
</g>
<!-- 汇编语言&#45;&gt;优化方法基础 -->
<g id="edge42" class="edge">
<title>汇编语言&#45;&gt;优化方法基础</title>
<path fill="none" stroke="black" d="M704.85,-321.8C690.2,-330.91 673.27,-343.92 663.04,-360 641.33,-394.13 644.04,-408.55 644.04,-449 644.04,-523 644.04,-523 644.04,-523 644.04,-579.13 700.18,-621.27 741.11,-644.53"/>
<polygon fill="black" stroke="black" points="739.65,-647.72 750.1,-649.48 743.03,-641.59 739.65,-647.72"/>
</g>
<!-- 汇编语言&#45;&gt;大学计算机iii -->
<g id="edge43" class="edge">
<title>汇编语言&#45;&gt;大学计算机iii</title>
<path fill="none" stroke="black" d="M774.19,-293.73C782.08,-291.71 790.3,-289.71 798.04,-288 874.29,-271.18 962.53,-255.82 1022.29,-246.01"/>
<polygon fill="black" stroke="black" points="1023.06,-249.43 1032.37,-244.37 1021.93,-242.52 1023.06,-249.43"/>
</g>
<!-- 电子技术实验2 -->
<g id="node38" class="node">
<title>电子技术实验2</title>
<ellipse fill="none" stroke="black" cx="2176.04" cy="-810" rx="82.59" ry="18"/>
<text text-anchor="middle" x="2176.04" y="-806.3" font-family="Times New Roman,serif" font-size="14.00">电子技术实验2</text>
</g>
<!-- 电子技术实验2&#45;&gt;离散数学a -->
<g id="edge48" class="edge">
<title>电子技术实验2&#45;&gt;离散数学a</title>
<path fill="none" stroke="black" d="M2256.3,-805.53C2347.26,-796.78 2483.04,-766.98 2483.04,-667 2483.04,-667 2483.04,-667 2483.04,-377 2483.04,-336.55 2472.71,-290.67 2465.07,-262.28"/>
<polygon fill="black" stroke="black" points="2468.35,-261 2462.3,-252.3 2461.6,-262.87 2468.35,-261"/>
</g>
<!-- 电子技术实验2&#45;&gt;数字逻辑电路 -->
<g id="edge45" class="edge">
<title>电子技术实验2&#45;&gt;数字逻辑电路</title>
<path fill="none" stroke="black" d="M2127.92,-795.16C2073.1,-776.1 1991.04,-736.03 1991.04,-667 1991.04,-667 1991.04,-667 1991.04,-593 1991.04,-551.63 1975.81,-505.72 1964.63,-477.61"/>
<polygon fill="black" stroke="black" points="1967.76,-476.02 1960.73,-468.09 1961.29,-478.67 1967.76,-476.02"/>
</g>
<!-- 电子技术实验2&#45;&gt;电子技术实验1 -->
<g id="edge46" class="edge">
<title>电子技术实验2&#45;&gt;电子技术实验1</title>
<path fill="none" stroke="black" d="M2229.21,-796.19C2255.77,-787.89 2287.23,-775.01 2311.04,-756 2341.29,-731.85 2348.65,-720.99 2360.04,-684 2386.33,-598.66 2359.73,-528.34 2291.04,-432 2282.35,-419.81 2270,-409.22 2258.03,-400.78"/>
<polygon fill="black" stroke="black" points="2259.69,-397.69 2249.44,-395.03 2255.8,-403.5 2259.69,-397.69"/>
</g>
<!-- 电子技术实验2&#45;&gt;电路 -->
<g id="edge47" class="edge">
<title>电子技术实验2&#45;&gt;电路</title>
<path fill="none" stroke="black" d="M2212.53,-793.73C2252.7,-774.68 2315.15,-737.91 2342.04,-684 2369.24,-629.47 2304.02,-571.29 2263.81,-542.08"/>
<polygon fill="black" stroke="black" points="2265.83,-539.22 2255.65,-536.3 2261.78,-544.93 2265.83,-539.22"/>
</g>
<!-- 电子技术实验2&#45;&gt;面向对象程序设计 -->
<g id="edge49" class="edge">
<title>电子技术实验2&#45;&gt;面向对象程序设计</title>
<path fill="none" stroke="black" d="M2117.93,-797.2C2064.31,-785.66 1984.86,-767.99 1928.7,-755.15"/>
<polygon fill="black" stroke="black" points="1929.38,-751.72 1918.85,-752.89 1927.81,-758.54 1929.38,-751.72"/>
</g>
<!-- 面向对象程序设计&#45;&gt;程序设计基础 -->
<g id="edge98" class="edge">
<title>面向对象程序设计&#45;&gt;程序设计基础</title>
<path fill="none" stroke="black" d="M1791.92,-725.05C1722.52,-712.62 1617.15,-693.22 1548.9,-680.32"/>
<polygon fill="black" stroke="black" points="1549.17,-676.81 1538.7,-678.38 1547.87,-683.68 1549.17,-676.81"/>
</g>
<!-- 面向对象程序设计&#45;&gt;离散数学a -->
<g id="edge97" class="edge">
<title>面向对象程序设计&#45;&gt;离散数学a</title>
<path fill="none" stroke="black" d="M1957.24,-732.05C2088.71,-724.37 2313.03,-707.95 2342.04,-684 2472.74,-576.13 2466.23,-341.88 2459.81,-262.18"/>
<polygon fill="black" stroke="black" points="2463.27,-261.65 2458.92,-251.99 2456.3,-262.26 2463.27,-261.65"/>
</g>
<!-- 面向对象程序设计&#45;&gt;数字逻辑电路 -->
<g id="edge95" class="edge">
<title>面向对象程序设计&#45;&gt;数字逻辑电路</title>
<path fill="none" stroke="black" d="M1874.96,-719.87C1891.67,-696.74 1920.25,-653.6 1934.04,-612 1949,-566.87 1952.49,-511.21 1953.13,-478.56"/>
<polygon fill="black" stroke="black" points="1956.64,-478.45 1953.26,-468.41 1949.64,-478.37 1956.64,-478.45"/>
</g>
<!-- 面向对象程序设计&#45;&gt;电子技术实验2 -->
<g id="edge96" class="edge">
<title>面向对象程序设计&#45;&gt;电子技术实验2</title>
<path fill="none" stroke="black" d="M1925.85,-752.02C1980.67,-763.86 2059.16,-781.34 2113.59,-793.81"/>
<polygon fill="black" stroke="black" points="2112.93,-797.25 2123.46,-796.08 2114.5,-790.43 2112.93,-797.25"/>
</g>
<!-- 算法分析与设计&#45;&gt;大学物理实验I&#45;2 -->
<g id="edge63" class="edge">
<title>算法分析与设计&#45;&gt;大学物理实验I&#45;2</title>
<path fill="none" stroke="black" d="M2155.08,-432.48C2144.83,-423.04 2133.53,-410.25 2128.04,-396 2122.29,-381.07 2123.54,-375.35 2128.04,-360 2130.92,-350.19 2136.23,-340.47 2141.81,-332.09"/>
<polygon fill="black" stroke="black" points="2144.7,-334.07 2147.64,-323.9 2139,-330.02 2144.7,-334.07"/>
</g>
<!-- 算法分析与设计&#45;&gt;概率统计与随机过程 -->
<g id="edge64" class="edge">
<title>算法分析与设计&#45;&gt;概率统计与随机过程</title>
<path fill="none" stroke="black" d="M2245.43,-438.68C2270.72,-431.2 2296.81,-418.28 2312.04,-396 2355.74,-332.08 2316.65,-235.1 2293.4,-189.05"/>
<polygon fill="black" stroke="black" points="2296.43,-187.28 2288.72,-180.02 2290.22,-190.51 2296.43,-187.28"/>
</g>
<!-- 算法分析与设计&#45;&gt;模拟电子技术 -->
<g id="edge65" class="edge">
<title>算法分析与设计&#45;&gt;模拟电子技术</title>
<path fill="none" stroke="black" d="M2104.86,-439.09C2084,-436.46 2061.14,-433.85 2040.04,-432 1722.19,-404.19 1640.88,-423.95 1323.04,-396 1303.5,-394.28 1282.44,-391.89 1262.89,-389.44"/>
<polygon fill="black" stroke="black" points="1263.19,-385.95 1252.83,-388.16 1262.3,-392.9 1263.19,-385.95"/>
</g>
<!-- 高等数学I&#45;2&#45;&gt;程序设计基础 -->
<g id="edge104" class="edge">
<title>高等数学I&#45;2&#45;&gt;程序设计基础</title>
<path fill="none" stroke="black" d="M1528.7,-396.31C1525.12,-444.41 1503.55,-580 1490.52,-638.06"/>
<polygon fill="black" stroke="black" points="1487.08,-637.43 1488.19,-647.97 1493.89,-639.03 1487.08,-637.43"/>
</g>
<!-- 高等数学I&#45;2&#45;&gt;高等数学I&#45;1 -->
<g id="edge105" class="edge">
<title>高等数学I&#45;2&#45;&gt;高等数学I&#45;1</title>
<path fill="none" stroke="black" d="M1511.99,-395.47C1500.29,-405.07 1484.21,-417.29 1469.71,-427.63"/>
<polygon fill="black" stroke="black" points="1467.57,-424.85 1461.4,-433.46 1471.6,-430.58 1467.57,-424.85"/>
</g>
<!-- 软件定义网络&#45;&gt;计算机系统综合设计实验 -->
<g id="edge89" class="edge">
<title>软件定义网络&#45;&gt;计算机系统综合设计实验</title>
<path fill="none" stroke="black" d="M871.96,-323.79C862.85,-332.71 850.5,-343.81 838.91,-353.56"/>
<polygon fill="black" stroke="black" points="836.53,-350.99 831.04,-360.05 840.98,-356.39 836.53,-350.99"/>
</g>
<!-- 计算机网络原理&#45;&gt;形式语言与编译 -->
<g id="edge85" class="edge">
<title>计算机网络原理&#45;&gt;形式语言与编译</title>
<path fill="none" stroke="black" d="M157.63,-215.87C144.16,-191.35 119.27,-146.03 103.47,-117.26"/>
<polygon fill="black" stroke="black" points="106.37,-115.27 98.48,-108.19 100.23,-118.64 106.37,-115.27"/>
</g>
<!-- 计算机网络原理&#45;&gt;数据库系统 -->
<g id="edge87" class="edge">
<title>计算机网络原理&#45;&gt;数据库系统</title>
<path fill="none" stroke="black" d="M154.59,-251.94C126.81,-291.98 65.35,-394.64 107.04,-468 115.81,-483.42 131.03,-494.83 146.44,-503.02"/>
<polygon fill="black" stroke="black" points="144.96,-506.2 155.48,-507.48 148.06,-499.92 144.96,-506.2"/>
</g>
<!-- 计算机网络原理&#45;&gt;操作系统原理i -->
<g id="edge86" class="edge">
<title>计算机网络原理&#45;&gt;操作系统原理i</title>
<path fill="none" stroke="black" d="M169.38,-252.23C174.4,-289.32 186.28,-376.98 192.34,-421.71"/>
<polygon fill="black" stroke="black" points="188.91,-422.41 193.72,-431.85 195.84,-421.47 188.91,-422.41"/>
</g>
<!-- 计算机网络原理&#45;&gt;计算机组成 -->
<g id="edge88" class="edge">
<title>计算机网络原理&#45;&gt;计算机组成</title>
<path fill="none" stroke="black" d="M194.18,-216.76C210.5,-207 231.46,-194.46 249.02,-183.95"/>
<polygon fill="black" stroke="black" points="251.07,-186.8 257.86,-178.67 247.48,-180.8 251.07,-186.8"/>
</g>
</g>
</svg>
