<?xml version="1.0" encoding="UTF-8" standalone="no"?>
<!DOCTYPE svg PUBLIC "-//W3C//DTD SVG 1.1//EN"
 "http://www.w3.org/Graphics/SVG/1.1/DTD/svg11.dtd">
<!-- Generated by graphviz version 2.46.0 (20210118.1747)
 -->
<!-- Pages: 1 -->
<svg width="1912pt" height="1412pt"
 viewBox="0.00 0.00 1912.04 1412.00" xmlns="http://www.w3.org/2000/svg" xmlns:xlink="http://www.w3.org/1999/xlink">
<g id="graph0" class="graph" transform="scale(1 1) rotate(0) translate(4 1408)">
<polygon fill="white" stroke="transparent" points="-4,4 -4,-1408 1908.04,-1408 1908.04,4 -4,4"/>
<!-- 人工智能 -->
<g id="node1" class="node">
<title>人工智能</title>
<ellipse fill="none" stroke="black" cx="732" cy="-234" rx="55.79" ry="18"/>
<text text-anchor="middle" x="732" y="-230.3" font-family="Times New Roman,serif" font-size="14.00">人工智能</text>
</g>
<!-- 计算机图形学 -->
<g id="node2" class="node">
<title>计算机图形学</title>
<ellipse fill="none" stroke="black" cx="1236" cy="-90" rx="77.99" ry="18"/>
<text text-anchor="middle" x="1236" y="-86.3" font-family="Times New Roman,serif" font-size="14.00">计算机图形学</text>
</g>
<!-- 人工智能&#45;&gt;计算机图形学 -->
<g id="edge1" class="edge">
<title>人工智能&#45;&gt;计算机图形学</title>
<path fill="none" stroke="black" d="M773.93,-221.92C781.6,-219.93 789.54,-217.88 797,-216 862.64,-199.43 879.72,-197.91 945,-180 1028.8,-157.01 1125.05,-126.82 1183.15,-108.18"/>
<polygon fill="black" stroke="black" points="1184.4,-111.45 1192.84,-105.06 1182.25,-104.79 1184.4,-111.45"/>
</g>
<!-- 计算机网络原理 -->
<g id="node3" class="node">
<title>计算机网络原理</title>
<ellipse fill="none" stroke="black" cx="1641" cy="-18" rx="89.08" ry="18"/>
<text text-anchor="middle" x="1641" y="-14.3" font-family="Times New Roman,serif" font-size="14.00">计算机网络原理</text>
</g>
<!-- 人工智能&#45;&gt;计算机网络原理 -->
<g id="edge2" class="edge">
<title>人工智能&#45;&gt;计算机网络原理</title>
<path fill="none" stroke="black" d="M763.89,-219.01C805.34,-200.98 880.11,-168.99 945,-144 1034.73,-109.45 1055.24,-93.29 1149,-72 1284.06,-41.33 1444.13,-28.27 1544.15,-22.8"/>
<polygon fill="black" stroke="black" points="1544.44,-26.29 1554.24,-22.27 1544.06,-19.3 1544.44,-26.29"/>
</g>
<!-- 优化方法基础 -->
<g id="node4" class="node">
<title>优化方法基础</title>
<ellipse fill="none" stroke="black" cx="926" cy="-882" rx="77.99" ry="18"/>
<text text-anchor="middle" x="926" y="-878.3" font-family="Times New Roman,serif" font-size="14.00">优化方法基础</text>
</g>
<!-- 数学建模ii -->
<g id="node5" class="node">
<title>数学建模ii</title>
<ellipse fill="none" stroke="black" cx="472" cy="-306" rx="59.59" ry="18"/>
<text text-anchor="middle" x="472" y="-302.3" font-family="Times New Roman,serif" font-size="14.00">数学建模ii</text>
</g>
<!-- 优化方法基础&#45;&gt;数学建模ii -->
<g id="edge3" class="edge">
<title>优化方法基础&#45;&gt;数学建模ii</title>
<path fill="none" stroke="black" d="M912.53,-864.21C893.49,-838.74 861,-788.07 861,-739 861,-739 861,-739 861,-665 861,-568.53 598.69,-389.09 504.87,-328"/>
<polygon fill="black" stroke="black" points="506.63,-324.96 496.33,-322.46 502.82,-330.84 506.63,-324.96"/>
</g>
<!-- 高等数学I&#45;1 -->
<g id="node6" class="node">
<title>高等数学I&#45;1</title>
<ellipse fill="none" stroke="black" cx="1070" cy="-810" rx="65.79" ry="18"/>
<text text-anchor="middle" x="1070" y="-806.3" font-family="Times New Roman,serif" font-size="14.00">高等数学I&#45;1</text>
</g>
<!-- 优化方法基础&#45;&gt;高等数学I&#45;1 -->
<g id="edge4" class="edge">
<title>优化方法基础&#45;&gt;高等数学I&#45;1</title>
<path fill="none" stroke="black" d="M957.96,-865.46C979.22,-855.13 1007.32,-841.47 1030.06,-830.42"/>
<polygon fill="black" stroke="black" points="1031.66,-833.53 1039.12,-826.01 1028.6,-827.24 1031.66,-833.53"/>
</g>
<!-- 程序设计基础 -->
<g id="node12" class="node">
<title>程序设计基础</title>
<ellipse fill="none" stroke="black" cx="1117" cy="-1314" rx="77.99" ry="18"/>
<text text-anchor="middle" x="1117" y="-1310.3" font-family="Times New Roman,serif" font-size="14.00">程序设计基础</text>
</g>
<!-- 高等数学I&#45;1&#45;&gt;程序设计基础 -->
<g id="edge105" class="edge">
<title>高等数学I&#45;1&#45;&gt;程序设计基础</title>
<path fill="none" stroke="black" d="M1079.51,-827.89C1093.24,-853.91 1117,-905.74 1117,-953 1117,-1171 1117,-1171 1117,-1171 1117,-1211 1117,-1257.35 1117,-1285.92"/>
<polygon fill="black" stroke="black" points="1113.5,-1285.95 1117,-1295.95 1120.5,-1285.95 1113.5,-1285.95"/>
</g>
<!-- 线性代数与解析几何 -->
<g id="node13" class="node">
<title>线性代数与解析几何</title>
<ellipse fill="none" stroke="black" cx="645" cy="-738" rx="111.58" ry="18"/>
<text text-anchor="middle" x="645" y="-734.3" font-family="Times New Roman,serif" font-size="14.00">线性代数与解析几何</text>
</g>
<!-- 高等数学I&#45;1&#45;&gt;线性代数与解析几何 -->
<g id="edge106" class="edge">
<title>高等数学I&#45;1&#45;&gt;线性代数与解析几何</title>
<path fill="none" stroke="black" d="M1015.31,-799.99C943.07,-788.09 815.07,-767.01 730.12,-753.02"/>
<polygon fill="black" stroke="black" points="730.68,-749.56 720.24,-751.39 729.54,-756.47 730.68,-749.56"/>
</g>
<!-- 工程制图 -->
<g id="node24" class="node">
<title>工程制图</title>
<ellipse fill="none" stroke="black" cx="1296" cy="-1242" rx="55.79" ry="18"/>
<text text-anchor="middle" x="1296" y="-1238.3" font-family="Times New Roman,serif" font-size="14.00">工程制图</text>
</g>
<!-- 高等数学I&#45;1&#45;&gt;工程制图 -->
<g id="edge104" class="edge">
<title>高等数学I&#45;1&#45;&gt;工程制图</title>
<path fill="none" stroke="black" d="M1097.6,-826.54C1133.87,-849.23 1193,-895.11 1193,-953 1193,-1099 1193,-1099 1193,-1099 1193,-1149.32 1235.91,-1193.84 1266.34,-1219.08"/>
<polygon fill="black" stroke="black" points="1264.17,-1221.83 1274.16,-1225.38 1268.56,-1216.38 1264.17,-1221.83"/>
</g>
<!-- 高等数学I&#45;2 -->
<g id="node43" class="node">
<title>高等数学I&#45;2</title>
<ellipse fill="none" stroke="black" cx="1187" cy="-738" rx="65.79" ry="18"/>
<text text-anchor="middle" x="1187" y="-734.3" font-family="Times New Roman,serif" font-size="14.00">高等数学I&#45;2</text>
</g>
<!-- 高等数学I&#45;1&#45;&gt;高等数学I&#45;2 -->
<g id="edge107" class="edge">
<title>高等数学I&#45;1&#45;&gt;高等数学I&#45;2</title>
<path fill="none" stroke="black" d="M1095.97,-793.46C1112.36,-783.66 1133.76,-770.85 1151.69,-760.13"/>
<polygon fill="black" stroke="black" points="1153.92,-762.87 1160.7,-754.73 1150.32,-756.86 1153.92,-762.87"/>
</g>
<!-- 大学物理II&#45;1 -->
<g id="node7" class="node">
<title>大学物理II&#45;1</title>
<ellipse fill="none" stroke="black" cx="645" cy="-666" rx="68.79" ry="18"/>
<text text-anchor="middle" x="645" y="-662.3" font-family="Times New Roman,serif" font-size="14.00">大学物理II&#45;1</text>
</g>
<!-- 大学物理II&#45;2 -->
<g id="node8" class="node">
<title>大学物理II&#45;2</title>
<ellipse fill="none" stroke="black" cx="645" cy="-594" rx="68.79" ry="18"/>
<text text-anchor="middle" x="645" y="-590.3" font-family="Times New Roman,serif" font-size="14.00">大学物理II&#45;2</text>
</g>
<!-- 大学物理II&#45;1&#45;&gt;大学物理II&#45;2 -->
<g id="edge5" class="edge">
<title>大学物理II&#45;1&#45;&gt;大学物理II&#45;2</title>
<path fill="none" stroke="black" d="M645,-647.7C645,-639.98 645,-630.71 645,-622.11"/>
<polygon fill="black" stroke="black" points="648.5,-622.1 645,-612.1 641.5,-622.1 648.5,-622.1"/>
</g>
<!-- 大学物理实验I&#45;2 -->
<g id="node9" class="node">
<title>大学物理实验I&#45;2</title>
<ellipse fill="none" stroke="black" cx="470" cy="-666" rx="88.28" ry="18"/>
<text text-anchor="middle" x="470" y="-662.3" font-family="Times New Roman,serif" font-size="14.00">大学物理实验I&#45;2</text>
</g>
<!-- 大学物理II&#45;2&#45;&gt;大学物理实验I&#45;2 -->
<g id="edge6" class="edge">
<title>大学物理II&#45;2&#45;&gt;大学物理实验I&#45;2</title>
<path fill="none" stroke="black" d="M613,-610.07C587.57,-620.76 551.63,-635.19 522.09,-646.57"/>
<polygon fill="black" stroke="black" points="520.83,-643.31 512.75,-650.15 523.34,-649.84 520.83,-643.31"/>
</g>
<!-- 概率统计与随机过程 -->
<g id="node10" class="node">
<title>概率统计与随机过程</title>
<ellipse fill="none" stroke="black" cx="467" cy="-522" rx="111.58" ry="18"/>
<text text-anchor="middle" x="467" y="-518.3" font-family="Times New Roman,serif" font-size="14.00">概率统计与随机过程</text>
</g>
<!-- 大学物理II&#45;2&#45;&gt;概率统计与随机过程 -->
<g id="edge7" class="edge">
<title>大学物理II&#45;2&#45;&gt;概率统计与随机过程</title>
<path fill="none" stroke="black" d="M604.78,-579.34C577.09,-569.01 540.39,-554.66 511.78,-543.04"/>
<polygon fill="black" stroke="black" points="513,-539.75 502.42,-539.21 510.35,-546.23 513,-539.75"/>
</g>
<!-- 大学物理实验I&#45;2&#45;&gt;大学物理II&#45;2 -->
<g id="edge13" class="edge">
<title>大学物理实验I&#45;2&#45;&gt;大学物理II&#45;2</title>
<path fill="none" stroke="black" d="M503.53,-649.29C529.6,-638.35 566.01,-623.76 595.42,-612.46"/>
<polygon fill="black" stroke="black" points="597,-615.6 605.1,-608.76 594.51,-609.06 597,-615.6"/>
</g>
<!-- 大学物理实验I&#45;2&#45;&gt;概率统计与随机过程 -->
<g id="edge15" class="edge">
<title>大学物理实验I&#45;2&#45;&gt;概率统计与随机过程</title>
<path fill="none" stroke="black" d="M480.14,-647.68C487.88,-638.1 497.41,-625.43 502,-612 507.17,-596.86 507.43,-591.05 502,-576 498.28,-565.71 491.6,-556 484.96,-547.78"/>
<polygon fill="black" stroke="black" points="487.58,-545.45 478.45,-540.08 482.24,-549.98 487.58,-545.45"/>
</g>
<!-- 操作系统设计专题实验 -->
<g id="node15" class="node">
<title>操作系统设计专题实验</title>
<ellipse fill="none" stroke="black" cx="1387" cy="-234" rx="122.68" ry="18"/>
<text text-anchor="middle" x="1387" y="-230.3" font-family="Times New Roman,serif" font-size="14.00">操作系统设计专题实验</text>
</g>
<!-- 大学物理实验I&#45;2&#45;&gt;操作系统设计专题实验 -->
<g id="edge14" class="edge">
<title>大学物理实验I&#45;2&#45;&gt;操作系统设计专题实验</title>
<path fill="none" stroke="black" d="M535.02,-653.78C604.59,-641.4 707.13,-621.91 723,-612 843.36,-536.86 800.74,-438.4 919,-360 1026.24,-288.91 1172.46,-258.15 1272.76,-244.9"/>
<polygon fill="black" stroke="black" points="1273.45,-248.34 1282.93,-243.59 1272.56,-241.39 1273.45,-248.34"/>
</g>
<!-- 离散数学a -->
<g id="node16" class="node">
<title>离散数学a</title>
<ellipse fill="none" stroke="black" cx="296" cy="-450" rx="59.59" ry="18"/>
<text text-anchor="middle" x="296" y="-446.3" font-family="Times New Roman,serif" font-size="14.00">离散数学a</text>
</g>
<!-- 大学物理实验I&#45;2&#45;&gt;离散数学a -->
<g id="edge16" class="edge">
<title>大学物理实验I&#45;2&#45;&gt;离散数学a</title>
<path fill="none" stroke="black" d="M394.64,-656.5C365.47,-649.3 334.48,-636.12 315,-612 284.23,-573.9 286.51,-513.22 291.13,-478.25"/>
<polygon fill="black" stroke="black" points="294.6,-478.68 292.6,-468.27 287.68,-477.65 294.6,-478.68"/>
</g>
<!-- 算法分析与设计 -->
<g id="node17" class="node">
<title>算法分析与设计</title>
<ellipse fill="none" stroke="black" cx="413" cy="-594" rx="89.08" ry="18"/>
<text text-anchor="middle" x="413" y="-590.3" font-family="Times New Roman,serif" font-size="14.00">算法分析与设计</text>
</g>
<!-- 大学物理实验I&#45;2&#45;&gt;算法分析与设计 -->
<g id="edge17" class="edge">
<title>大学物理实验I&#45;2&#45;&gt;算法分析与设计</title>
<path fill="none" stroke="black" d="M456.2,-648.05C449.27,-639.54 440.74,-629.07 433.1,-619.68"/>
<polygon fill="black" stroke="black" points="435.7,-617.33 426.67,-611.79 430.27,-621.75 435.7,-617.33"/>
</g>
<!-- 概率统计与随机过程&#45;&gt;大学物理II&#45;2 -->
<g id="edge47" class="edge">
<title>概率统计与随机过程&#45;&gt;大学物理II&#45;2</title>
<path fill="none" stroke="black" d="M512.07,-538.48C540.08,-549 575.76,-562.99 603.16,-574.16"/>
<polygon fill="black" stroke="black" points="601.89,-577.42 612.47,-577.98 604.55,-570.95 601.89,-577.42"/>
</g>
<!-- 概率统计与随机过程&#45;&gt;大学物理实验I&#45;2 -->
<g id="edge48" class="edge">
<title>概率统计与随机过程&#45;&gt;大学物理实验I&#45;2</title>
<path fill="none" stroke="black" d="M493.99,-539.62C504.48,-549.18 514.96,-562.05 520,-576 525.43,-591.05 525.17,-596.86 520,-612 516.37,-622.62 509.66,-632.76 502.21,-641.28"/>
<polygon fill="black" stroke="black" points="499.6,-638.95 495.24,-648.61 504.67,-643.78 499.6,-638.95"/>
</g>
<!-- 概率统计与随机过程&#45;&gt;离散数学a -->
<g id="edge49" class="edge">
<title>概率统计与随机过程&#45;&gt;离散数学a</title>
<path fill="none" stroke="black" d="M422.88,-505.29C395.77,-494.7 361.43,-480.68 335.26,-469.54"/>
<polygon fill="black" stroke="black" points="336.59,-466.3 326.02,-465.58 333.83,-472.74 336.59,-466.3"/>
</g>
<!-- 大学物理实验I&#45;1 -->
<g id="node11" class="node">
<title>大学物理实验I&#45;1</title>
<ellipse fill="none" stroke="black" cx="525" cy="-1386" rx="88.28" ry="18"/>
<text text-anchor="middle" x="525" y="-1382.3" font-family="Times New Roman,serif" font-size="14.00">大学物理实验I&#45;1</text>
</g>
<!-- 大学物理实验I&#45;1&#45;&gt;大学物理II&#45;1 -->
<g id="edge8" class="edge">
<title>大学物理实验I&#45;1&#45;&gt;大学物理II&#45;1</title>
<path fill="none" stroke="black" d="M508.88,-1368.19C486.57,-1343.09 449,-1293.33 449,-1243 449,-1243 449,-1243 449,-809 449,-740.08 529.45,-701.19 587.27,-682.13"/>
<polygon fill="black" stroke="black" points="588.58,-685.39 597.05,-679.02 586.46,-678.72 588.58,-685.39"/>
</g>
<!-- 大学物理实验I&#45;1&#45;&gt;大学物理实验I&#45;2 -->
<g id="edge9" class="edge">
<title>大学物理实验I&#45;1&#45;&gt;大学物理实验I&#45;2</title>
<path fill="none" stroke="black" d="M487.43,-1369.6C442.42,-1348.36 373,-1305.48 373,-1243 373,-1243 373,-1243 373,-809 373,-760.42 412.18,-716.24 440.74,-690.48"/>
<polygon fill="black" stroke="black" points="443.25,-692.93 448.47,-683.71 438.64,-687.66 443.25,-692.93"/>
</g>
<!-- 大学物理实验I&#45;1&#45;&gt;程序设计基础 -->
<g id="edge10" class="edge">
<title>大学物理实验I&#45;1&#45;&gt;程序设计基础</title>
<path fill="none" stroke="black" d="M599.38,-1376.21C711.97,-1362.89 924.66,-1337.74 1039.22,-1324.2"/>
<polygon fill="black" stroke="black" points="1039.8,-1327.65 1049.32,-1323 1038.98,-1320.7 1039.8,-1327.65"/>
</g>
<!-- 大学物理实验I&#45;1&#45;&gt;线性代数与解析几何 -->
<g id="edge11" class="edge">
<title>大学物理实验I&#45;1&#45;&gt;线性代数与解析几何</title>
<path fill="none" stroke="black" d="M525,-1367.95C525,-1341.29 525,-1288.11 525,-1243 525,-1243 525,-1243 525,-881 525,-828.78 572.93,-785.85 608.21,-761.32"/>
<polygon fill="black" stroke="black" points="610.53,-763.98 616.87,-755.49 606.62,-758.17 610.53,-763.98"/>
</g>
<!-- 软件工程 -->
<g id="node14" class="node">
<title>软件工程</title>
<ellipse fill="none" stroke="black" cx="781" cy="-954" rx="55.79" ry="18"/>
<text text-anchor="middle" x="781" y="-950.3" font-family="Times New Roman,serif" font-size="14.00">软件工程</text>
</g>
<!-- 大学物理实验I&#45;1&#45;&gt;软件工程 -->
<g id="edge12" class="edge">
<title>大学物理实验I&#45;1&#45;&gt;软件工程</title>
<path fill="none" stroke="black" d="M532.69,-1367.91C543.79,-1341.62 563,-1289.45 563,-1243 563,-1243 563,-1243 563,-1097 563,-1020.15 659.3,-982.73 723.89,-966.27"/>
<polygon fill="black" stroke="black" points="725.08,-969.58 733.97,-963.81 723.42,-962.78 725.08,-969.58"/>
</g>
<!-- 程序设计基础&#45;&gt;工程制图 -->
<g id="edge72" class="edge">
<title>程序设计基础&#45;&gt;工程制图</title>
<path fill="none" stroke="black" d="M1154.96,-1298.15C1183.48,-1287 1222.6,-1271.7 1252.4,-1260.05"/>
<polygon fill="black" stroke="black" points="1253.69,-1263.31 1261.73,-1256.4 1251.14,-1256.79 1253.69,-1263.31"/>
</g>
<!-- 面向对象程序设计 -->
<g id="node42" class="node">
<title>面向对象程序设计</title>
<ellipse fill="none" stroke="black" cx="167" cy="-522" rx="100.98" ry="18"/>
<text text-anchor="middle" x="167" y="-518.3" font-family="Times New Roman,serif" font-size="14.00">面向对象程序设计</text>
</g>
<!-- 程序设计基础&#45;&gt;面向对象程序设计 -->
<g id="edge73" class="edge">
<title>程序设计基础&#45;&gt;面向对象程序设计</title>
<path fill="none" stroke="black" d="M1041.11,-1309.55C940.77,-1303.88 770.29,-1290.07 716,-1260 406.39,-1088.53 221.13,-660.86 177.19,-549.73"/>
<polygon fill="black" stroke="black" points="180.39,-548.3 173.48,-540.26 173.87,-550.85 180.39,-548.3"/>
</g>
<!-- 程序设计基础&#45;&gt;高等数学I&#45;2 -->
<g id="edge74" class="edge">
<title>程序设计基础&#45;&gt;高等数学I&#45;2</title>
<path fill="none" stroke="black" d="M1133.33,-1296.32C1164.86,-1262.29 1231,-1181.09 1231,-1099 1231,-1099 1231,-1099 1231,-881 1231,-838.98 1213.2,-792.98 1200.25,-765.05"/>
<polygon fill="black" stroke="black" points="1203.37,-763.47 1195.9,-755.96 1197.06,-766.49 1203.37,-763.47"/>
</g>
<!-- 线性代数与解析几何&#45;&gt;大学物理II&#45;1 -->
<g id="edge76" class="edge">
<title>线性代数与解析几何&#45;&gt;大学物理II&#45;1</title>
<path fill="none" stroke="black" d="M645,-719.7C645,-711.98 645,-702.71 645,-694.11"/>
<polygon fill="black" stroke="black" points="648.5,-694.1 645,-684.1 641.5,-694.1 648.5,-694.1"/>
</g>
<!-- 线性代数与解析几何&#45;&gt;概率统计与随机过程 -->
<g id="edge77" class="edge">
<title>线性代数与解析几何&#45;&gt;概率统计与随机过程</title>
<path fill="none" stroke="black" d="M683.13,-720.94C698.42,-712.38 714.42,-700.2 723,-684 745.46,-641.58 753.31,-613.22 723,-576 712.3,-562.85 626.89,-547 557.63,-536.08"/>
<polygon fill="black" stroke="black" points="557.96,-532.59 547.54,-534.5 556.88,-539.5 557.96,-532.59"/>
</g>
<!-- 计算机科学技术导论 -->
<g id="node25" class="node">
<title>计算机科学技术导论</title>
<ellipse fill="none" stroke="black" cx="1296" cy="-666" rx="111.58" ry="18"/>
<text text-anchor="middle" x="1296" y="-662.3" font-family="Times New Roman,serif" font-size="14.00">计算机科学技术导论</text>
</g>
<!-- 线性代数与解析几何&#45;&gt;计算机科学技术导论 -->
<g id="edge78" class="edge">
<title>线性代数与解析几何&#45;&gt;计算机科学技术导论</title>
<path fill="none" stroke="black" d="M735.18,-727.3C856.09,-714.3 1070.07,-691.29 1195.86,-677.77"/>
<polygon fill="black" stroke="black" points="1196.32,-681.24 1205.88,-676.69 1195.57,-674.28 1196.32,-681.24"/>
</g>
<!-- 软件工程&#45;&gt;优化方法基础 -->
<g id="edge98" class="edge">
<title>软件工程&#45;&gt;优化方法基础</title>
<path fill="none" stroke="black" d="M810.69,-938.67C832.05,-928.35 861.13,-914.32 884.74,-902.92"/>
<polygon fill="black" stroke="black" points="886.34,-906.03 893.83,-898.53 883.3,-899.73 886.34,-906.03"/>
</g>
<!-- 大学计算机iii -->
<g id="node19" class="node">
<title>大学计算机iii</title>
<ellipse fill="none" stroke="black" cx="781" cy="-1170" rx="72.59" ry="18"/>
<text text-anchor="middle" x="781" y="-1166.3" font-family="Times New Roman,serif" font-size="14.00">大学计算机iii</text>
</g>
<!-- 软件工程&#45;&gt;大学计算机iii -->
<g id="edge99" class="edge">
<title>软件工程&#45;&gt;大学计算机iii</title>
<path fill="none" stroke="black" d="M774.4,-972.07C760.95,-995.14 733.49,-1038.21 723,-1080 719.1,-1095.52 716.03,-1101.6 723,-1116 728.97,-1128.32 739.34,-1138.65 749.75,-1146.82"/>
<polygon fill="black" stroke="black" points="747.89,-1149.8 758.02,-1152.91 752.04,-1144.16 747.89,-1149.8"/>
</g>
<!-- 数理逻辑 -->
<g id="node22" class="node">
<title>数理逻辑</title>
<ellipse fill="none" stroke="black" cx="862" cy="-234" rx="55.79" ry="18"/>
<text text-anchor="middle" x="862" y="-230.3" font-family="Times New Roman,serif" font-size="14.00">数理逻辑</text>
</g>
<!-- 软件工程&#45;&gt;数理逻辑 -->
<g id="edge100" class="edge">
<title>软件工程&#45;&gt;数理逻辑</title>
<path fill="none" stroke="black" d="M781.73,-935.91C785.19,-859.66 801.74,-543.18 848,-288 849.55,-279.44 851.78,-270.24 854,-261.94"/>
<polygon fill="black" stroke="black" points="857.45,-262.6 856.77,-252.03 850.71,-260.72 857.45,-262.6"/>
</g>
<!-- 计算机系统综合设计实验 -->
<g id="node39" class="node">
<title>计算机系统综合设计实验</title>
<ellipse fill="none" stroke="black" cx="1062" cy="-378" rx="133.78" ry="18"/>
<text text-anchor="middle" x="1062" y="-374.3" font-family="Times New Roman,serif" font-size="14.00">计算机系统综合设计实验</text>
</g>
<!-- 软件工程&#45;&gt;计算机系统综合设计实验 -->
<g id="edge101" class="edge">
<title>软件工程&#45;&gt;计算机系统综合设计实验</title>
<path fill="none" stroke="black" d="M786.08,-936.05C811.67,-850.99 926.62,-473.25 962,-432 973.82,-418.22 990.12,-407.49 1006.14,-399.39"/>
<polygon fill="black" stroke="black" points="1007.99,-402.39 1015.51,-394.93 1004.97,-396.07 1007.99,-402.39"/>
</g>
<!-- 计算机组成 -->
<g id="node27" class="node">
<title>计算机组成</title>
<ellipse fill="none" stroke="black" cx="1514" cy="-162" rx="66.89" ry="18"/>
<text text-anchor="middle" x="1514" y="-158.3" font-family="Times New Roman,serif" font-size="14.00">计算机组成</text>
</g>
<!-- 操作系统设计专题实验&#45;&gt;计算机组成 -->
<g id="edge33" class="edge">
<title>操作系统设计专题实验&#45;&gt;计算机组成</title>
<path fill="none" stroke="black" d="M1417.1,-216.41C1435,-206.54 1457.85,-193.95 1476.87,-183.47"/>
<polygon fill="black" stroke="black" points="1478.79,-186.4 1485.86,-178.51 1475.41,-180.27 1478.79,-186.4"/>
</g>
<!-- 操作系统原理i -->
<g id="node28" class="node">
<title>操作系统原理i</title>
<ellipse fill="none" stroke="black" cx="1514" cy="-90" rx="79.89" ry="18"/>
<text text-anchor="middle" x="1514" y="-86.3" font-family="Times New Roman,serif" font-size="14.00">操作系统原理i</text>
</g>
<!-- 操作系统设计专题实验&#45;&gt;操作系统原理i -->
<g id="edge31" class="edge">
<title>操作系统设计专题实验&#45;&gt;操作系统原理i</title>
<path fill="none" stroke="black" d="M1394.08,-215.82C1402.52,-196.76 1418.04,-165.81 1438,-144 1449.05,-131.93 1463.31,-121.08 1476.5,-112.39"/>
<polygon fill="black" stroke="black" points="1478.41,-115.33 1484.96,-107 1474.64,-109.42 1478.41,-115.33"/>
</g>
<!-- 编译器设计专题实验 -->
<g id="node29" class="node">
<title>编译器设计专题实验</title>
<ellipse fill="none" stroke="black" cx="1486" cy="-594" rx="111.58" ry="18"/>
<text text-anchor="middle" x="1486" y="-590.3" font-family="Times New Roman,serif" font-size="14.00">编译器设计专题实验</text>
</g>
<!-- 操作系统设计专题实验&#45;&gt;编译器设计专题实验 -->
<g id="edge32" class="edge">
<title>操作系统设计专题实验&#45;&gt;编译器设计专题实验</title>
<path fill="none" stroke="black" d="M1360.79,-251.69C1327.41,-275.23 1274,-321.55 1274,-377 1274,-451 1274,-451 1274,-451 1274,-519.65 1351.68,-557.22 1412.99,-576.18"/>
<polygon fill="black" stroke="black" points="1412.1,-579.57 1422.68,-579.07 1414.1,-572.86 1412.1,-579.57"/>
</g>
<!-- 计算机组成与结构专题实验 -->
<g id="node30" class="node">
<title>计算机组成与结构专题实验</title>
<ellipse fill="none" stroke="black" cx="1486" cy="-306" rx="145.67" ry="18"/>
<text text-anchor="middle" x="1486" y="-302.3" font-family="Times New Roman,serif" font-size="14.00">计算机组成与结构专题实验</text>
</g>
<!-- 操作系统设计专题实验&#45;&gt;计算机组成与结构专题实验 -->
<g id="edge34" class="edge">
<title>操作系统设计专题实验&#45;&gt;计算机组成与结构专题实验</title>
<path fill="none" stroke="black" d="M1416.24,-251.55C1430,-260.58 1446.2,-271.9 1459.58,-281.8"/>
<polygon fill="black" stroke="black" points="1457.82,-284.85 1467.91,-288.05 1462.02,-279.25 1457.82,-284.85"/>
</g>
<!-- 计算机网络专题实验 -->
<g id="node31" class="node">
<title>计算机网络专题实验</title>
<ellipse fill="none" stroke="black" cx="1486" cy="-522" rx="111.58" ry="18"/>
<text text-anchor="middle" x="1486" y="-518.3" font-family="Times New Roman,serif" font-size="14.00">计算机网络专题实验</text>
</g>
<!-- 操作系统设计专题实验&#45;&gt;计算机网络专题实验 -->
<g id="edge35" class="edge">
<title>操作系统设计专题实验&#45;&gt;计算机网络专题实验</title>
<path fill="none" stroke="black" d="M1361.46,-251.72C1349.84,-260.89 1337.3,-273.37 1331,-288 1324.67,-302.7 1325.77,-308.88 1331,-324 1356.26,-396.95 1420.93,-463.39 1458.27,-497.31"/>
<polygon fill="black" stroke="black" points="1456.01,-499.99 1465.8,-504.05 1460.68,-494.77 1456.01,-499.99"/>
</g>
<!-- 离散数学a&#45;&gt;概率统计与随机过程 -->
<g id="edge70" class="edge">
<title>离散数学a&#45;&gt;概率统计与随机过程</title>
<path fill="none" stroke="black" d="M333.42,-464.1C360.05,-474.4 395.78,-488.92 423.64,-500.72"/>
<polygon fill="black" stroke="black" points="422.57,-504.06 433.14,-504.76 425.31,-497.62 422.57,-504.06"/>
</g>
<!-- 电路 -->
<g id="node33" class="node">
<title>电路</title>
<ellipse fill="none" stroke="black" cx="406" cy="-18" rx="33.29" ry="18"/>
<text text-anchor="middle" x="406" y="-14.3" font-family="Times New Roman,serif" font-size="14.00">电路</text>
</g>
<!-- 离散数学a&#45;&gt;电路 -->
<g id="edge71" class="edge">
<title>离散数学a&#45;&gt;电路</title>
<path fill="none" stroke="black" d="M349.33,-441.79C377.46,-434.98 409.65,-421.73 427,-396 435.94,-382.73 431.64,-375.31 427,-360 421.43,-341.6 408.57,-342.4 403,-324 373.08,-225.17 390.48,-99.94 400.47,-45.87"/>
<polygon fill="black" stroke="black" points="403.91,-46.51 402.36,-36.03 397.04,-45.19 403.91,-46.51"/>
</g>
<!-- 数据结构与程序设计专题实验 -->
<g id="node35" class="node">
<title>数据结构与程序设计专题实验</title>
<ellipse fill="none" stroke="black" cx="261" cy="-378" rx="156.77" ry="18"/>
<text text-anchor="middle" x="261" y="-374.3" font-family="Times New Roman,serif" font-size="14.00">数据结构与程序设计专题实验</text>
</g>
<!-- 离散数学a&#45;&gt;数据结构与程序设计专题实验 -->
<g id="edge69" class="edge">
<title>离散数学a&#45;&gt;数据结构与程序设计专题实验</title>
<path fill="none" stroke="black" d="M287.53,-432.05C283.5,-424.01 278.6,-414.2 274.11,-405.23"/>
<polygon fill="black" stroke="black" points="277.24,-403.65 269.64,-396.28 270.98,-406.78 277.24,-403.65"/>
</g>
<!-- 算法分析与设计&#45;&gt;概率统计与随机过程 -->
<g id="edge75" class="edge">
<title>算法分析与设计&#45;&gt;概率统计与随机过程</title>
<path fill="none" stroke="black" d="M426.07,-576.05C432.48,-567.75 440.32,-557.58 447.42,-548.38"/>
<polygon fill="black" stroke="black" points="450.34,-550.33 453.67,-540.28 444.79,-546.06 450.34,-550.33"/>
</g>
<!-- 大学英语i -->
<g id="node18" class="node">
<title>大学英语i</title>
<ellipse fill="none" stroke="black" cx="781" cy="-1098" rx="57.69" ry="18"/>
<text text-anchor="middle" x="781" y="-1094.3" font-family="Times New Roman,serif" font-size="14.00">大学英语i</text>
</g>
<!-- 大学英语i&#45;&gt;软件工程 -->
<g id="edge20" class="edge">
<title>大学英语i&#45;&gt;软件工程</title>
<path fill="none" stroke="black" d="M781,-1079.87C781,-1055.67 781,-1011.21 781,-982.39"/>
<polygon fill="black" stroke="black" points="784.5,-982.19 781,-972.19 777.5,-982.19 784.5,-982.19"/>
</g>
<!-- 大学英语i&#45;&gt;大学计算机iii -->
<g id="edge18" class="edge">
<title>大学英语i&#45;&gt;大学计算机iii</title>
<path fill="none" stroke="black" d="M786.91,-1116.28C787.71,-1124.03 787.94,-1133.36 787.59,-1142.01"/>
<polygon fill="black" stroke="black" points="784.09,-1141.83 786.88,-1152.05 791.08,-1142.33 784.09,-1141.83"/>
</g>
<!-- 模拟电子技术基础 -->
<g id="node20" class="node">
<title>模拟电子技术基础</title>
<ellipse fill="none" stroke="black" cx="925" cy="-1026" rx="100.98" ry="18"/>
<text text-anchor="middle" x="925" y="-1022.3" font-family="Times New Roman,serif" font-size="14.00">模拟电子技术基础</text>
</g>
<!-- 大学英语i&#45;&gt;模拟电子技术基础 -->
<g id="edge19" class="edge">
<title>大学英语i&#45;&gt;模拟电子技术基础</title>
<path fill="none" stroke="black" d="M810.84,-1082.5C831.62,-1072.39 859.63,-1058.78 882.71,-1047.56"/>
<polygon fill="black" stroke="black" points="884.47,-1050.59 891.93,-1043.07 881.41,-1044.3 884.47,-1050.59"/>
</g>
<!-- 大学计算机iii&#45;&gt;软件工程 -->
<g id="edge24" class="edge">
<title>大学计算机iii&#45;&gt;软件工程</title>
<path fill="none" stroke="black" d="M743.97,-1154.24C728.72,-1145.3 712.95,-1132.42 705,-1116 698.03,-1101.6 701.1,-1095.52 705,-1080 714.49,-1042.19 737.87,-1003.33 756.46,-979.19"/>
<polygon fill="black" stroke="black" points="759.27,-981.28 762.8,-971.29 753.81,-976.89 759.27,-981.28"/>
</g>
<!-- 大学计算机iii&#45;&gt;大学英语i -->
<g id="edge23" class="edge">
<title>大学计算机iii&#45;&gt;大学英语i</title>
<path fill="none" stroke="black" d="M775.12,-1152.05C774.3,-1144.35 774.06,-1135.03 774.39,-1126.36"/>
<polygon fill="black" stroke="black" points="777.89,-1126.49 775.09,-1116.28 770.91,-1126.01 777.89,-1126.49"/>
</g>
<!-- 模拟电子技术基础&#45;&gt;软件工程 -->
<g id="edge54" class="edge">
<title>模拟电子技术基础&#45;&gt;软件工程</title>
<path fill="none" stroke="black" d="M891.96,-1008.94C870.46,-998.49 842.31,-984.81 819.75,-973.84"/>
<polygon fill="black" stroke="black" points="820.98,-970.55 810.46,-969.32 817.92,-976.84 820.98,-970.55"/>
</g>
<!-- 模拟电子技术基础&#45;&gt;大学计算机iii -->
<g id="edge51" class="edge">
<title>模拟电子技术基础&#45;&gt;大学计算机iii</title>
<path fill="none" stroke="black" d="M911.96,-1043.91C897.3,-1062.46 872.36,-1092.69 848,-1116 836.79,-1126.73 823.55,-1137.54 811.82,-1146.57"/>
<polygon fill="black" stroke="black" points="809.45,-1143.98 803.59,-1152.81 813.67,-1149.56 809.45,-1143.98"/>
</g>
<!-- 模拟电子技术基础&#45;&gt;数理逻辑 -->
<g id="edge52" class="edge">
<title>模拟电子技术基础&#45;&gt;数理逻辑</title>
<path fill="none" stroke="black" d="M942.38,-1007.9C963.82,-985.47 999.14,-943.77 1013,-900 1017.83,-884.75 1020.36,-878.21 1013,-864 1000.24,-839.37 977.89,-850.74 962,-828 938.54,-794.41 938,-779.97 938,-739 938,-739 938,-739 938,-665 938,-510.29 889.7,-328.97 870.11,-261.79"/>
<polygon fill="black" stroke="black" points="873.41,-260.61 867.22,-252.01 866.7,-262.6 873.41,-260.61"/>
</g>
<!-- 模拟电子技术基础&#45;&gt;计算机系统综合设计实验 -->
<g id="edge53" class="edge">
<title>模拟电子技术基础&#45;&gt;计算机系统综合设计实验</title>
<path fill="none" stroke="black" d="M974.69,-1010.32C998.03,-1001.74 1025.23,-989.17 1046,-972 1105.87,-922.52 1121.96,-902.17 1145,-828 1149.75,-812.72 1150.8,-806.91 1145,-792 1137.13,-771.77 1121.18,-775.67 1112,-756 1055.62,-635.26 1057.06,-470.58 1060.19,-406.28"/>
<polygon fill="black" stroke="black" points="1063.7,-406.34 1060.74,-396.16 1056.71,-405.96 1063.7,-406.34"/>
</g>
<!-- 大学英语iii1 -->
<g id="node21" class="node">
<title>大学英语iii1</title>
<ellipse fill="none" stroke="black" cx="730" cy="-306" rx="65.79" ry="18"/>
<text text-anchor="middle" x="730" y="-302.3" font-family="Times New Roman,serif" font-size="14.00">大学英语iii1</text>
</g>
<!-- 大学英语iii1&#45;&gt;数理逻辑 -->
<g id="edge21" class="edge">
<title>大学英语iii1&#45;&gt;数理逻辑</title>
<path fill="none" stroke="black" d="M758.97,-289.64C778.4,-279.33 804.17,-265.66 825.08,-254.58"/>
<polygon fill="black" stroke="black" points="826.81,-257.62 834,-249.85 823.53,-251.44 826.81,-257.62"/>
</g>
<!-- 大学英语iii2 -->
<g id="node23" class="node">
<title>大学英语iii2</title>
<ellipse fill="none" stroke="black" cx="730" cy="-378" rx="65.79" ry="18"/>
<text text-anchor="middle" x="730" y="-374.3" font-family="Times New Roman,serif" font-size="14.00">大学英语iii2</text>
</g>
<!-- 大学英语iii2&#45;&gt;大学英语iii1 -->
<g id="edge22" class="edge">
<title>大学英语iii2&#45;&gt;大学英语iii1</title>
<path fill="none" stroke="black" d="M730,-359.7C730,-351.98 730,-342.71 730,-334.11"/>
<polygon fill="black" stroke="black" points="733.5,-334.1 730,-324.1 726.5,-334.1 733.5,-334.1"/>
</g>
<!-- 工程制图&#45;&gt;大学计算机iii -->
<g id="edge25" class="edge">
<title>工程制图&#45;&gt;大学计算机iii</title>
<path fill="none" stroke="black" d="M1245.68,-1234.16C1153.86,-1221.68 958.85,-1195.17 852.99,-1180.79"/>
<polygon fill="black" stroke="black" points="853.41,-1177.31 843.03,-1179.43 852.47,-1184.25 853.41,-1177.31"/>
</g>
<!-- 工程制图&#45;&gt;计算机科学技术导论 -->
<g id="edge26" class="edge">
<title>工程制图&#45;&gt;计算机科学技术导论</title>
<path fill="none" stroke="black" d="M1290.29,-1223.95C1287,-1197.29 1287,-1144.11 1287,-1099 1287,-1099 1287,-1099 1287,-809 1287,-769 1287,-722.65 1289.29,-694.08"/>
<polygon fill="black" stroke="black" points="1292.78,-694.35 1290.29,-684.05 1285.82,-693.65 1292.78,-694.35"/>
</g>
<!-- 计算机科学技术导论&#45;&gt;工程制图 -->
<g id="edge82" class="edge">
<title>计算机科学技术导论&#45;&gt;工程制图</title>
<path fill="none" stroke="black" d="M1301.71,-684.05C1305,-710.71 1305,-763.89 1305,-809 1305,-1099 1305,-1099 1305,-1099 1305,-1139 1305,-1185.35 1302.71,-1213.92"/>
<polygon fill="black" stroke="black" points="1299.22,-1213.65 1301.71,-1223.95 1306.18,-1214.35 1299.22,-1213.65"/>
</g>
<!-- 计算机科学技术导论&#45;&gt;编译器设计专题实验 -->
<g id="edge83" class="edge">
<title>计算机科学技术导论&#45;&gt;编译器设计专题实验</title>
<path fill="none" stroke="black" d="M1338.64,-649.29C1366.88,-638.89 1404.09,-625.18 1434.05,-614.14"/>
<polygon fill="black" stroke="black" points="1435.33,-617.4 1443.5,-610.66 1432.91,-610.83 1435.33,-617.4"/>
</g>
<!-- 形式语言与编译 -->
<g id="node26" class="node">
<title>形式语言与编译</title>
<ellipse fill="none" stroke="black" cx="1815" cy="-234" rx="89.08" ry="18"/>
<text text-anchor="middle" x="1815" y="-230.3" font-family="Times New Roman,serif" font-size="14.00">形式语言与编译</text>
</g>
<!-- 形式语言与编译&#45;&gt;计算机网络原理 -->
<g id="edge28" class="edge">
<title>形式语言与编译&#45;&gt;计算机网络原理</title>
<path fill="none" stroke="black" d="M1806.55,-215.62C1790.88,-184.49 1754.94,-118.16 1712,-72 1701.36,-60.56 1687.99,-49.86 1675.72,-41.11"/>
<polygon fill="black" stroke="black" points="1677.67,-38.2 1667.46,-35.37 1673.68,-43.95 1677.67,-38.2"/>
</g>
<!-- 形式语言与编译&#45;&gt;计算机组成 -->
<g id="edge27" class="edge">
<title>形式语言与编译&#45;&gt;计算机组成</title>
<path fill="none" stroke="black" d="M1758.74,-219.92C1705.72,-207.58 1626.58,-189.18 1572.76,-176.66"/>
<polygon fill="black" stroke="black" points="1573.55,-173.26 1563.02,-174.4 1571.96,-180.07 1573.55,-173.26"/>
</g>
<!-- 计算机组成&#45;&gt;计算机图形学 -->
<g id="edge87" class="edge">
<title>计算机组成&#45;&gt;计算机图形学</title>
<path fill="none" stroke="black" d="M1466.84,-149.13C1419.93,-137.31 1347.76,-119.14 1296.62,-106.26"/>
<polygon fill="black" stroke="black" points="1297.24,-102.81 1286.69,-103.76 1295.53,-109.6 1297.24,-102.81"/>
</g>
<!-- 计算机组成&#45;&gt;计算机网络原理 -->
<g id="edge88" class="edge">
<title>计算机组成&#45;&gt;计算机网络原理</title>
<path fill="none" stroke="black" d="M1549.31,-146.43C1567.32,-137.54 1588.44,-124.65 1603,-108 1618.59,-90.18 1628.53,-65.01 1634.31,-45.99"/>
<polygon fill="black" stroke="black" points="1637.75,-46.71 1637.11,-36.13 1631.01,-44.8 1637.75,-46.71"/>
</g>
<!-- 计算机组成&#45;&gt;操作系统原理i -->
<g id="edge86" class="edge">
<title>计算机组成&#45;&gt;操作系统原理i</title>
<path fill="none" stroke="black" d="M1508.12,-144.05C1507.3,-136.35 1507.06,-127.03 1507.39,-118.36"/>
<polygon fill="black" stroke="black" points="1510.89,-118.49 1508.09,-108.28 1503.91,-118.01 1510.89,-118.49"/>
</g>
<!-- 操作系统原理i&#45;&gt;计算机网络原理 -->
<g id="edge30" class="edge">
<title>操作系统原理i&#45;&gt;计算机网络原理</title>
<path fill="none" stroke="black" d="M1542.82,-73.12C1560.63,-63.3 1583.71,-50.58 1603.01,-39.94"/>
<polygon fill="black" stroke="black" points="1604.79,-42.96 1611.86,-35.06 1601.41,-36.83 1604.79,-42.96"/>
</g>
<!-- 操作系统原理i&#45;&gt;计算机组成 -->
<g id="edge29" class="edge">
<title>操作系统原理i&#45;&gt;计算机组成</title>
<path fill="none" stroke="black" d="M1519.91,-108.28C1520.71,-116.03 1520.94,-125.36 1520.59,-134.01"/>
<polygon fill="black" stroke="black" points="1517.09,-133.83 1519.88,-144.05 1524.08,-134.33 1517.09,-133.83"/>
</g>
<!-- 编译器设计专题实验&#45;&gt;形式语言与编译 -->
<g id="edge79" class="edge">
<title>编译器设计专题实验&#45;&gt;形式语言与编译</title>
<path fill="none" stroke="black" d="M1557.91,-580.09C1664,-558.96 1850,-513.07 1850,-451 1850,-451 1850,-451 1850,-377 1850,-335.84 1835.97,-289.88 1825.67,-261.69"/>
<polygon fill="black" stroke="black" points="1828.88,-260.28 1822.08,-252.15 1822.33,-262.74 1828.88,-260.28"/>
</g>
<!-- 编译器设计专题实验&#45;&gt;计算机网络专题实验 -->
<g id="edge81" class="edge">
<title>编译器设计专题实验&#45;&gt;计算机网络专题实验</title>
<path fill="none" stroke="black" d="M1486,-575.7C1486,-567.98 1486,-558.71 1486,-550.11"/>
<polygon fill="black" stroke="black" points="1489.5,-550.1 1486,-540.1 1482.5,-550.1 1489.5,-550.1"/>
</g>
<!-- 数据库系统 -->
<g id="node34" class="node">
<title>数据库系统</title>
<ellipse fill="none" stroke="black" cx="1755" cy="-306" rx="66.89" ry="18"/>
<text text-anchor="middle" x="1755" y="-302.3" font-family="Times New Roman,serif" font-size="14.00">数据库系统</text>
</g>
<!-- 编译器设计专题实验&#45;&gt;数据库系统 -->
<g id="edge80" class="edge">
<title>编译器设计专题实验&#45;&gt;数据库系统</title>
<path fill="none" stroke="black" d="M1531.99,-577.42C1580.57,-558.72 1656.21,-522.84 1701,-468 1733.22,-428.54 1746.55,-369 1751.81,-334.46"/>
<polygon fill="black" stroke="black" points="1755.33,-334.57 1753.24,-324.18 1748.39,-333.6 1755.33,-334.57"/>
</g>
<!-- 计算机组成与结构专题实验&#45;&gt;操作系统设计专题实验 -->
<g id="edge89" class="edge">
<title>计算机组成与结构专题实验&#45;&gt;操作系统设计专题实验</title>
<path fill="none" stroke="black" d="M1456.43,-288.23C1442.69,-279.21 1426.58,-267.94 1413.28,-258.1"/>
<polygon fill="black" stroke="black" points="1415.09,-255.08 1404.99,-251.87 1410.88,-260.68 1415.09,-255.08"/>
</g>
<!-- 计算机组成与结构专题实验&#45;&gt;计算机组成 -->
<g id="edge90" class="edge">
<title>计算机组成与结构专题实验&#45;&gt;计算机组成</title>
<path fill="none" stroke="black" d="M1499.98,-288.04C1507.19,-278.18 1515.25,-265.13 1519,-252 1524.77,-231.82 1523.02,-208.04 1520.1,-190.14"/>
<polygon fill="black" stroke="black" points="1523.51,-189.3 1518.25,-180.1 1516.62,-190.57 1523.51,-189.3"/>
</g>
<!-- 计算机组成与结构专题实验&#45;&gt;计算机网络专题实验 -->
<g id="edge91" class="edge">
<title>计算机组成与结构专题实验&#45;&gt;计算机网络专题实验</title>
<path fill="none" stroke="black" d="M1489.89,-324.23C1493.42,-361.32 1493.68,-448.98 1490.69,-493.71"/>
<polygon fill="black" stroke="black" points="1487.18,-493.6 1489.88,-503.85 1494.16,-494.16 1487.18,-493.6"/>
</g>
<!-- 计算机网络专题实验&#45;&gt;计算机网络原理 -->
<g id="edge94" class="edge">
<title>计算机网络专题实验&#45;&gt;计算机网络原理</title>
<path fill="none" stroke="black" d="M1533.09,-505.6C1584.62,-485.43 1660,-444.7 1660,-379 1660,-379 1660,-379 1660,-161 1660,-120.86 1652.45,-74.9 1646.87,-46.4"/>
<polygon fill="black" stroke="black" points="1650.26,-45.5 1644.84,-36.39 1643.39,-46.88 1650.26,-45.5"/>
</g>
<!-- 计算机网络专题实验&#45;&gt;计算机组成与结构专题实验 -->
<g id="edge93" class="edge">
<title>计算机网络专题实验&#45;&gt;计算机组成与结构专题实验</title>
<path fill="none" stroke="black" d="M1482.12,-503.85C1478.59,-466.83 1478.32,-379.18 1481.31,-334.39"/>
<polygon fill="black" stroke="black" points="1484.81,-334.48 1482.11,-324.23 1477.83,-333.92 1484.81,-334.48"/>
</g>
<!-- 计算机网络专题实验&#45;&gt;数据库系统 -->
<g id="edge92" class="edge">
<title>计算机网络专题实验&#45;&gt;数据库系统</title>
<path fill="none" stroke="black" d="M1575.91,-511.19C1609.62,-503.77 1646.4,-490.77 1674,-468 1696.24,-449.65 1728.44,-374.28 1744.73,-333.49"/>
<polygon fill="black" stroke="black" points="1748,-334.75 1748.42,-324.16 1741.49,-332.17 1748,-334.75"/>
</g>
<!-- 软件定义网络 -->
<g id="node44" class="node">
<title>软件定义网络</title>
<ellipse fill="none" stroke="black" cx="1168" cy="-450" rx="77.99" ry="18"/>
<text text-anchor="middle" x="1168" y="-446.3" font-family="Times New Roman,serif" font-size="14.00">软件定义网络</text>
</g>
<!-- 计算机网络专题实验&#45;&gt;软件定义网络 -->
<g id="edge95" class="edge">
<title>计算机网络专题实验&#45;&gt;软件定义网络</title>
<path fill="none" stroke="black" d="M1422.79,-507.09C1367.63,-494.94 1287.94,-477.4 1232.43,-465.18"/>
<polygon fill="black" stroke="black" points="1232.87,-461.7 1222.35,-462.96 1231.36,-468.53 1232.87,-461.7"/>
</g>
<!-- 数字逻辑电路 -->
<g id="node32" class="node">
<title>数字逻辑电路</title>
<ellipse fill="none" stroke="black" cx="262" cy="-90" rx="77.99" ry="18"/>
<text text-anchor="middle" x="262" y="-86.3" font-family="Times New Roman,serif" font-size="14.00">数字逻辑电路</text>
</g>
<!-- 数字逻辑电路&#45;&gt;概率统计与随机过程 -->
<g id="edge36" class="edge">
<title>数字逻辑电路&#45;&gt;概率统计与随机过程</title>
<path fill="none" stroke="black" d="M302.57,-105.47C366.97,-130.93 490.47,-190.47 541,-288 577.88,-359.19 520.04,-452.19 487.18,-496.05"/>
<polygon fill="black" stroke="black" points="484.29,-494.07 480.98,-504.14 489.84,-498.33 484.29,-494.07"/>
</g>
<!-- 数字逻辑电路&#45;&gt;电路 -->
<g id="edge37" class="edge">
<title>数字逻辑电路&#45;&gt;电路</title>
<path fill="none" stroke="black" d="M293.96,-73.46C317.41,-62.07 349.17,-46.63 372.88,-35.1"/>
<polygon fill="black" stroke="black" points="374.72,-38.1 382.19,-30.58 371.66,-31.8 374.72,-38.1"/>
</g>
<!-- 电路&#45;&gt;大学物理II&#45;2 -->
<g id="edge66" class="edge">
<title>电路&#45;&gt;大学物理II&#45;2</title>
<path fill="none" stroke="black" d="M437.98,-23.59C501.18,-34.65 636,-69.02 636,-161 636,-307 636,-307 636,-307 636,-402.11 641.03,-514.92 643.57,-565.76"/>
<polygon fill="black" stroke="black" points="640.09,-566.11 644.09,-575.92 647.08,-565.76 640.09,-566.11"/>
</g>
<!-- 电路&#45;&gt;概率统计与随机过程 -->
<g id="edge68" class="edge">
<title>电路&#45;&gt;概率统计与随机过程</title>
<path fill="none" stroke="black" d="M435.58,-26.15C489.44,-41.12 598,-81.19 598,-161 598,-379 598,-379 598,-379 598,-433.03 546.13,-475.29 507.67,-499.2"/>
<polygon fill="black" stroke="black" points="505.47,-496.43 498.71,-504.59 509.08,-502.43 505.47,-496.43"/>
</g>
<!-- 数据结构与算法i -->
<g id="node36" class="node">
<title>数据结构与算法i</title>
<ellipse fill="none" stroke="black" cx="265" cy="-306" rx="90.98" ry="18"/>
<text text-anchor="middle" x="265" y="-302.3" font-family="Times New Roman,serif" font-size="14.00">数据结构与算法i</text>
</g>
<!-- 电路&#45;&gt;数据结构与算法i -->
<g id="edge67" class="edge">
<title>电路&#45;&gt;数据结构与算法i</title>
<path fill="none" stroke="black" d="M397.82,-35.59C374.34,-83.23 306.53,-220.76 277.95,-278.74"/>
<polygon fill="black" stroke="black" points="274.68,-277.45 273.4,-287.97 280.96,-280.54 274.68,-277.45"/>
</g>
<!-- 数据库系统&#45;&gt;计算机网络原理 -->
<g id="edge40" class="edge">
<title>数据库系统&#45;&gt;计算机网络原理</title>
<path fill="none" stroke="black" d="M1740.51,-288.39C1732.52,-278.43 1723.02,-265.18 1717,-252 1682.84,-177.18 1705.7,-147.9 1674,-72 1670.03,-62.5 1664.46,-52.75 1659.03,-44.25"/>
<polygon fill="black" stroke="black" points="1661.94,-42.29 1653.49,-35.9 1656.1,-46.17 1661.94,-42.29"/>
</g>
<!-- 数据库系统&#45;&gt;形式语言与编译 -->
<g id="edge38" class="edge">
<title>数据库系统&#45;&gt;形式语言与编译</title>
<path fill="none" stroke="black" d="M1769.52,-288.05C1776.89,-279.46 1785.98,-268.86 1794.09,-259.4"/>
<polygon fill="black" stroke="black" points="1796.76,-261.66 1800.61,-251.79 1791.44,-257.1 1796.76,-261.66"/>
</g>
<!-- 数据库系统&#45;&gt;操作系统原理i -->
<g id="edge39" class="edge">
<title>数据库系统&#45;&gt;操作系统原理i</title>
<path fill="none" stroke="black" d="M1730.99,-289C1716.74,-279.05 1698.66,-265.6 1684,-252 1637.35,-208.72 1637.34,-186.52 1590,-144 1577.43,-132.71 1562.39,-121.77 1549.02,-112.79"/>
<polygon fill="black" stroke="black" points="1550.79,-109.76 1540.51,-107.18 1546.94,-115.61 1550.79,-109.76"/>
</g>
<!-- 数据结构与程序设计专题实验&#45;&gt;数学建模ii -->
<g id="edge42" class="edge">
<title>数据结构与程序设计专题实验&#45;&gt;数学建模ii</title>
<path fill="none" stroke="black" d="M309.67,-360.85C343.9,-349.5 389.5,-334.37 423.66,-323.04"/>
<polygon fill="black" stroke="black" points="425.03,-326.27 433.42,-319.8 422.82,-319.63 425.03,-326.27"/>
</g>
<!-- 数据结构与程序设计专题实验&#45;&gt;大学英语iii1 -->
<g id="edge41" class="edge">
<title>数据结构与程序设计专题实验&#45;&gt;大学英语iii1</title>
<path fill="none" stroke="black" d="M352.54,-363.34C443.93,-349.7 582.17,-329.06 663.54,-316.92"/>
<polygon fill="black" stroke="black" points="664.29,-320.35 673.67,-315.41 663.26,-313.42 664.29,-320.35"/>
</g>
<!-- 数据结构与程序设计专题实验&#45;&gt;数据结构与算法i -->
<g id="edge43" class="edge">
<title>数据结构与程序设计专题实验&#45;&gt;数据结构与算法i</title>
<path fill="none" stroke="black" d="M261.99,-359.7C262.43,-351.98 262.96,-342.71 263.45,-334.11"/>
<polygon fill="black" stroke="black" points="266.95,-334.29 264.02,-324.1 259.96,-333.89 266.95,-334.29"/>
</g>
<!-- 电子技术实验1 -->
<g id="node37" class="node">
<title>电子技术实验1</title>
<ellipse fill="none" stroke="black" cx="187" cy="-234" rx="82.59" ry="18"/>
<text text-anchor="middle" x="187" y="-230.3" font-family="Times New Roman,serif" font-size="14.00">电子技术实验1</text>
</g>
<!-- 数据结构与程序设计专题实验&#45;&gt;电子技术实验1 -->
<g id="edge44" class="edge">
<title>数据结构与程序设计专题实验&#45;&gt;电子技术实验1</title>
<path fill="none" stroke="black" d="M202.17,-361.29C183.96,-353.11 166.11,-341.13 156,-324 144.46,-304.45 152.61,-279.05 163.65,-260.39"/>
<polygon fill="black" stroke="black" points="166.7,-262.12 169.23,-251.83 160.84,-258.3 166.7,-262.12"/>
</g>
<!-- 数据结构与算法i&#45;&gt;人工智能 -->
<g id="edge45" class="edge">
<title>数据结构与算法i&#45;&gt;人工智能</title>
<path fill="none" stroke="black" d="M335.17,-294.48C426.92,-280.73 586.09,-256.87 672.33,-243.94"/>
<polygon fill="black" stroke="black" points="673.11,-247.37 682.48,-242.42 672.07,-240.44 673.11,-247.37"/>
</g>
<!-- 数据结构与算法i&#45;&gt;电子技术实验1 -->
<g id="edge46" class="edge">
<title>数据结构与算法i&#45;&gt;电子技术实验1</title>
<path fill="none" stroke="black" d="M240.68,-288.41C229.95,-279.65 217.59,-268.73 207.36,-259.06"/>
<polygon fill="black" stroke="black" points="209.64,-256.39 200.01,-251.96 204.77,-261.42 209.64,-256.39"/>
</g>
<!-- 电子技术实验1&#45;&gt;大学物理实验I&#45;2 -->
<g id="edge58" class="edge">
<title>电子技术实验1&#45;&gt;大学物理实验I&#45;2</title>
<path fill="none" stroke="black" d="M150.93,-250.24C106.83,-271.57 38,-314.82 38,-377 38,-523 38,-523 38,-523 38,-595.45 260.03,-637 385.74,-654.72"/>
<polygon fill="black" stroke="black" points="385.35,-658.2 395.74,-656.11 386.31,-651.27 385.35,-658.2"/>
</g>
<!-- 电子技术实验1&#45;&gt;数字逻辑电路 -->
<g id="edge59" class="edge">
<title>电子技术实验1&#45;&gt;数字逻辑电路</title>
<path fill="none" stroke="black" d="M219.24,-217.38C233.75,-208.55 249.5,-196.04 258,-180 267.99,-161.15 268.37,-136.78 266.61,-118.3"/>
<polygon fill="black" stroke="black" points="270.06,-117.7 265.37,-108.19 263.11,-118.54 270.06,-117.7"/>
</g>
<!-- 电子技术实验1&#45;&gt;数据结构与程序设计专题实验 -->
<g id="edge60" class="edge">
<title>电子技术实验1&#45;&gt;数据结构与程序设计专题实验</title>
<path fill="none" stroke="black" d="M182.17,-252.17C173.65,-270.95 160.65,-301.38 174,-324 182.1,-337.72 195.16,-348.13 208.75,-355.93"/>
<polygon fill="black" stroke="black" points="207.25,-359.1 217.72,-360.69 210.53,-352.91 207.25,-359.1"/>
</g>
<!-- 电子技术实验1&#45;&gt;数据结构与算法i -->
<g id="edge61" class="edge">
<title>电子技术实验1&#45;&gt;数据结构与算法i</title>
<path fill="none" stroke="black" d="M210.98,-251.31C221.76,-260.1 234.26,-271.12 244.58,-280.89"/>
<polygon fill="black" stroke="black" points="242.37,-283.62 252,-288.05 247.24,-278.59 242.37,-283.62"/>
</g>
<!-- 电子技术实验2 -->
<g id="node41" class="node">
<title>电子技术实验2</title>
<ellipse fill="none" stroke="black" cx="166" cy="-162" rx="82.59" ry="18"/>
<text text-anchor="middle" x="166" y="-158.3" font-family="Times New Roman,serif" font-size="14.00">电子技术实验2</text>
</g>
<!-- 电子技术实验1&#45;&gt;电子技术实验2 -->
<g id="edge62" class="edge">
<title>电子技术实验1&#45;&gt;电子技术实验2</title>
<path fill="none" stroke="black" d="M176.04,-216.05C172.87,-208.26 169.8,-198.82 167.53,-190.08"/>
<polygon fill="black" stroke="black" points="170.93,-189.23 165.27,-180.28 164.11,-190.81 170.93,-189.23"/>
</g>
<!-- 模拟电子技术 -->
<g id="node38" class="node">
<title>模拟电子技术</title>
<ellipse fill="none" stroke="black" cx="973" cy="-1098" rx="77.99" ry="18"/>
<text text-anchor="middle" x="973" y="-1094.3" font-family="Times New Roman,serif" font-size="14.00">模拟电子技术</text>
</g>
<!-- 模拟电子技术&#45;&gt;模拟电子技术基础 -->
<g id="edge50" class="edge">
<title>模拟电子技术&#45;&gt;模拟电子技术基础</title>
<path fill="none" stroke="black" d="M961.38,-1080.05C955.75,-1071.84 948.86,-1061.79 942.6,-1052.66"/>
<polygon fill="black" stroke="black" points="945.39,-1050.54 936.85,-1044.28 939.61,-1054.5 945.39,-1050.54"/>
</g>
<!-- 计算机系统综合设计实验&#45;&gt;计算机图形学 -->
<g id="edge84" class="edge">
<title>计算机系统综合设计实验&#45;&gt;计算机图形学</title>
<path fill="none" stroke="black" d="M1072.36,-359.97C1101.68,-311.78 1185.33,-174.28 1220.32,-116.78"/>
<polygon fill="black" stroke="black" points="1223.48,-118.31 1225.69,-107.94 1217.5,-114.67 1223.48,-118.31"/>
</g>
<!-- 计算机系统综合设计实验&#45;&gt;计算机组成与结构专题实验 -->
<g id="edge85" class="edge">
<title>计算机系统综合设计实验&#45;&gt;计算机组成与结构专题实验</title>
<path fill="none" stroke="black" d="M1143,-363.63C1214.2,-351.87 1317.81,-334.77 1392.51,-322.43"/>
<polygon fill="black" stroke="black" points="1393.09,-325.89 1402.39,-320.8 1391.95,-318.98 1393.09,-325.89"/>
</g>
<!-- 汇编语言 -->
<g id="node40" class="node">
<title>汇编语言</title>
<ellipse fill="none" stroke="black" cx="781" cy="-1242" rx="55.79" ry="18"/>
<text text-anchor="middle" x="781" y="-1238.3" font-family="Times New Roman,serif" font-size="14.00">汇编语言</text>
</g>
<!-- 汇编语言&#45;&gt;软件工程 -->
<g id="edge57" class="edge">
<title>汇编语言&#45;&gt;软件工程</title>
<path fill="none" stroke="black" d="M745.67,-1227.78C728.29,-1219.26 708.97,-1206.31 699,-1188 660.41,-1117.11 682.12,-1077.59 723,-1008 729.87,-996.31 740.15,-985.7 750.16,-977.1"/>
<polygon fill="black" stroke="black" points="752.52,-979.69 758.06,-970.66 748.1,-974.27 752.52,-979.69"/>
</g>
<!-- 汇编语言&#45;&gt;大学计算机iii -->
<g id="edge55" class="edge">
<title>汇编语言&#45;&gt;大学计算机iii</title>
<path fill="none" stroke="black" d="M781,-1223.7C781,-1215.98 781,-1206.71 781,-1198.11"/>
<polygon fill="black" stroke="black" points="784.5,-1198.1 781,-1188.1 777.5,-1198.1 784.5,-1198.1"/>
</g>
<!-- 汇编语言&#45;&gt;计算机系统综合设计实验 -->
<g id="edge56" class="edge">
<title>汇编语言&#45;&gt;计算机系统综合设计实验</title>
<path fill="none" stroke="black" d="M832.23,-1234.74C897.99,-1223.66 1009.57,-1193.85 1060,-1116 1075.18,-1092.56 1100.88,-1009.01 1030,-864 1020.2,-843.95 1005.52,-847.68 995,-828 975.94,-792.33 976,-779.45 976,-739 976,-739 976,-739 976,-521 976,-474.31 1010.44,-429.84 1035.73,-403.49"/>
<polygon fill="black" stroke="black" points="1038.37,-405.8 1042.91,-396.23 1033.39,-400.88 1038.37,-405.8"/>
</g>
<!-- 电子技术实验2&#45;&gt;离散数学a -->
<g id="edge65" class="edge">
<title>电子技术实验2&#45;&gt;离散数学a</title>
<path fill="none" stroke="black" d="M133.07,-178.68C118.59,-187.46 103.07,-199.91 95,-216 59.14,-287.51 46.17,-332.63 95,-396 111.76,-417.75 179.63,-432.37 231.92,-440.65"/>
<polygon fill="black" stroke="black" points="231.4,-444.12 241.82,-442.18 232.47,-437.2 231.4,-444.12"/>
</g>
<!-- 电子技术实验2&#45;&gt;数字逻辑电路 -->
<g id="edge63" class="edge">
<title>电子技术实验2&#45;&gt;数字逻辑电路</title>
<path fill="none" stroke="black" d="M188.75,-144.41C201.42,-135.17 217.38,-123.54 231.16,-113.49"/>
<polygon fill="black" stroke="black" points="233.39,-116.19 239.41,-107.47 229.27,-110.53 233.39,-116.19"/>
</g>
<!-- 电子技术实验2&#45;&gt;电子技术实验1 -->
<g id="edge64" class="edge">
<title>电子技术实验2&#45;&gt;电子技术实验1</title>
<path fill="none" stroke="black" d="M177.03,-180.1C180.17,-187.88 183.22,-197.26 185.48,-205.95"/>
<polygon fill="black" stroke="black" points="182.07,-206.74 187.72,-215.7 188.89,-205.17 182.07,-206.74"/>
</g>
<!-- 面向对象程序设计&#45;&gt;离散数学a -->
<g id="edge103" class="edge">
<title>面向对象程序设计&#45;&gt;离散数学a</title>
<path fill="none" stroke="black" d="M196.92,-504.76C215.42,-494.72 239.32,-481.76 259.01,-471.07"/>
<polygon fill="black" stroke="black" points="260.89,-474.03 268.01,-466.19 257.55,-467.88 260.89,-474.03"/>
</g>
<!-- 面向对象程序设计&#45;&gt;数字逻辑电路 -->
<g id="edge102" class="edge">
<title>面向对象程序设计&#45;&gt;数字逻辑电路</title>
<path fill="none" stroke="black" d="M123.12,-505.6C73.64,-485.09 0,-443.7 0,-379 0,-379 0,-379 0,-233 0,-148.83 105.82,-114.29 182.96,-100.29"/>
<polygon fill="black" stroke="black" points="183.9,-103.68 193.16,-98.53 182.71,-96.79 183.9,-103.68"/>
</g>
<!-- 软件定义网络&#45;&gt;数理逻辑 -->
<g id="edge96" class="edge">
<title>软件定义网络&#45;&gt;数理逻辑</title>
<path fill="none" stroke="black" d="M1184.41,-432.17C1200.64,-413.42 1220.93,-382.76 1205,-360 1142.27,-270.37 1008.18,-244.78 927.5,-237.62"/>
<polygon fill="black" stroke="black" points="927.7,-234.12 917.45,-236.8 927.13,-241.1 927.7,-234.12"/>
</g>
<!-- 软件定义网络&#45;&gt;计算机系统综合设计实验 -->
<g id="edge97" class="edge">
<title>软件定义网络&#45;&gt;计算机系统综合设计实验</title>
<path fill="none" stroke="black" d="M1143.42,-432.76C1129.41,-423.51 1111.64,-411.78 1096.28,-401.64"/>
<polygon fill="black" stroke="black" points="1097.83,-398.47 1087.56,-395.88 1093.97,-404.31 1097.83,-398.47"/>
</g>
</g>
</svg>
