<?xml version="1.0" encoding="UTF-8" standalone="no"?>
<!DOCTYPE svg PUBLIC "-//W3C//DTD SVG 1.1//EN"
 "http://www.w3.org/Graphics/SVG/1.1/DTD/svg11.dtd">
<!-- Generated by graphviz version 2.46.0 (20210118.1747)
 -->
<!-- Pages: 1 -->
<svg width="2749pt" height="548pt"
 viewBox="0.00 0.00 2748.64 548.00" xmlns="http://www.w3.org/2000/svg" xmlns:xlink="http://www.w3.org/1999/xlink">
<g id="graph0" class="graph" transform="scale(1 1) rotate(0) translate(4 544)">
<polygon fill="white" stroke="transparent" points="-4,4 -4,-544 2744.64,-544 2744.64,4 -4,4"/>
<!-- 大学物理II&#45;1 -->
<g id="node1" class="node">
<title>大学物理II&#45;1</title>
<ellipse fill="none" stroke="black" cx="181" cy="-306" rx="68.79" ry="18"/>
<text text-anchor="middle" x="181" y="-302.3" font-family="Times New Roman,serif" font-size="14.00">大学物理II&#45;1</text>
</g>
<!-- 大学物理II&#45;2 -->
<g id="node2" class="node">
<title>大学物理II&#45;2</title>
<ellipse fill="none" stroke="black" cx="178" cy="-234" rx="68.79" ry="18"/>
<text text-anchor="middle" x="178" y="-230.3" font-family="Times New Roman,serif" font-size="14.00">大学物理II&#45;2</text>
</g>
<!-- 大学物理II&#45;1&#45;&gt;大学物理II&#45;2 -->
<g id="edge1" class="edge">
<title>大学物理II&#45;1&#45;&gt;大学物理II&#45;2</title>
<path fill="none" stroke="black" d="M180.26,-287.7C179.93,-279.98 179.53,-270.71 179.16,-262.11"/>
<polygon fill="black" stroke="black" points="182.66,-261.95 178.73,-252.1 175.66,-262.25 182.66,-261.95"/>
</g>
<!-- 大学物理实验I&#45;2 -->
<g id="node3" class="node">
<title>大学物理实验I&#45;2</title>
<ellipse fill="none" stroke="black" cx="291" cy="-162" rx="88.28" ry="18"/>
<text text-anchor="middle" x="291" y="-158.3" font-family="Times New Roman,serif" font-size="14.00">大学物理实验I&#45;2</text>
</g>
<!-- 大学物理II&#45;2&#45;&gt;大学物理实验I&#45;2 -->
<g id="edge2" class="edge">
<title>大学物理II&#45;2&#45;&gt;大学物理实验I&#45;2</title>
<path fill="none" stroke="black" d="M203.64,-217.12C219.17,-207.5 239.18,-195.1 256.13,-184.6"/>
<polygon fill="black" stroke="black" points="258.02,-187.55 264.68,-179.31 254.33,-181.6 258.02,-187.55"/>
</g>
<!-- 概率统计与随机过程 -->
<g id="node4" class="node">
<title>概率统计与随机过程</title>
<ellipse fill="none" stroke="black" cx="252" cy="-18" rx="111.58" ry="18"/>
<text text-anchor="middle" x="252" y="-14.3" font-family="Times New Roman,serif" font-size="14.00">概率统计与随机过程</text>
</g>
<!-- 大学物理II&#45;2&#45;&gt;概率统计与随机过程 -->
<g id="edge3" class="edge">
<title>大学物理II&#45;2&#45;&gt;概率统计与随机过程</title>
<path fill="none" stroke="black" d="M179.75,-215.96C181.91,-197.81 186.29,-168.4 194,-144 205.2,-108.56 224.17,-70.09 237.35,-45.33"/>
<polygon fill="black" stroke="black" points="240.6,-46.69 242.27,-36.23 234.44,-43.37 240.6,-46.69"/>
</g>
<!-- 大学物理实验I&#45;2&#45;&gt;概率统计与随机过程 -->
<g id="edge4" class="edge">
<title>大学物理实验I&#45;2&#45;&gt;概率统计与随机过程</title>
<path fill="none" stroke="black" d="M283.85,-144.04C279.7,-133.74 274.6,-120.27 271,-108 265,-87.57 260.05,-63.98 256.71,-46.22"/>
<polygon fill="black" stroke="black" points="260.13,-45.46 254.89,-36.25 253.24,-46.72 260.13,-45.46"/>
</g>
<!-- 离散数学a -->
<g id="node5" class="node">
<title>离散数学a</title>
<ellipse fill="none" stroke="black" cx="340" cy="-90" rx="59.59" ry="18"/>
<text text-anchor="middle" x="340" y="-86.3" font-family="Times New Roman,serif" font-size="14.00">离散数学a</text>
</g>
<!-- 大学物理实验I&#45;2&#45;&gt;离散数学a -->
<g id="edge5" class="edge">
<title>大学物理实验I&#45;2&#45;&gt;离散数学a</title>
<path fill="none" stroke="black" d="M302.86,-144.05C308.7,-135.71 315.86,-125.49 322.32,-116.25"/>
<polygon fill="black" stroke="black" points="325.38,-117.99 328.25,-107.79 319.65,-113.97 325.38,-117.99"/>
</g>
<!-- 离散数学a&#45;&gt;概率统计与随机过程 -->
<g id="edge13" class="edge">
<title>离散数学a&#45;&gt;概率统计与随机过程</title>
<path fill="none" stroke="black" d="M319.59,-72.76C308.18,-63.69 293.76,-52.22 281.17,-42.21"/>
<polygon fill="black" stroke="black" points="283.22,-39.36 273.22,-35.88 278.87,-44.84 283.22,-39.36"/>
</g>
<!-- 大学计算机iii -->
<g id="node6" class="node">
<title>大学计算机iii</title>
<ellipse fill="none" stroke="black" cx="892" cy="-306" rx="72.59" ry="18"/>
<text text-anchor="middle" x="892" y="-302.3" font-family="Times New Roman,serif" font-size="14.00">大学计算机iii</text>
</g>
<!-- 大学英语i -->
<g id="node7" class="node">
<title>大学英语i</title>
<ellipse fill="none" stroke="black" cx="993" cy="-234" rx="57.69" ry="18"/>
<text text-anchor="middle" x="993" y="-230.3" font-family="Times New Roman,serif" font-size="14.00">大学英语i</text>
</g>
<!-- 大学计算机iii&#45;&gt;大学英语i -->
<g id="edge6" class="edge">
<title>大学计算机iii&#45;&gt;大学英语i</title>
<path fill="none" stroke="black" d="M915.43,-288.76C929.26,-279.18 946.94,-266.92 961.93,-256.53"/>
<polygon fill="black" stroke="black" points="964.17,-259.24 970.4,-250.67 960.18,-253.49 964.17,-259.24"/>
</g>
<!-- 程序设计基础 -->
<g id="node8" class="node">
<title>程序设计基础</title>
<ellipse fill="none" stroke="black" cx="413" cy="-450" rx="77.99" ry="18"/>
<text text-anchor="middle" x="413" y="-446.3" font-family="Times New Roman,serif" font-size="14.00">程序设计基础</text>
</g>
<!-- 程序设计基础&#45;&gt;大学物理II&#45;1 -->
<g id="edge7" class="edge">
<title>程序设计基础&#45;&gt;大学物理II&#45;1</title>
<path fill="none" stroke="black" stroke-dasharray="5,2" d="M394.24,-432.52C365.81,-407.58 314.63,-362.85 310,-360 285.87,-345.17 256.86,-332.82 232.47,-323.79"/>
<polygon fill="black" stroke="black" points="233.61,-320.48 223.02,-320.37 231.23,-327.07 233.61,-320.48"/>
</g>
<!-- 工程制图 -->
<g id="node9" class="node">
<title>工程制图</title>
<ellipse fill="none" stroke="black" cx="489" cy="-378" rx="55.79" ry="18"/>
<text text-anchor="middle" x="489" y="-374.3" font-family="Times New Roman,serif" font-size="14.00">工程制图</text>
</g>
<!-- 程序设计基础&#45;&gt;工程制图 -->
<g id="edge8" class="edge">
<title>程序设计基础&#45;&gt;工程制图</title>
<path fill="none" stroke="black" stroke-dasharray="5,2" d="M431.01,-432.41C440.83,-423.37 453.14,-412.03 463.89,-402.13"/>
<polygon fill="black" stroke="black" points="466.4,-404.58 471.38,-395.23 461.65,-399.43 466.4,-404.58"/>
</g>
<!-- 面向对象程序设计 -->
<g id="node10" class="node">
<title>面向对象程序设计</title>
<ellipse fill="none" stroke="black" cx="407" cy="-234" rx="100.98" ry="18"/>
<text text-anchor="middle" x="407" y="-230.3" font-family="Times New Roman,serif" font-size="14.00">面向对象程序设计</text>
</g>
<!-- 程序设计基础&#45;&gt;面向对象程序设计 -->
<g id="edge9" class="edge">
<title>程序设计基础&#45;&gt;面向对象程序设计</title>
<path fill="none" stroke="black" stroke-dasharray="5,2" d="M406.18,-432.03C395.25,-402.63 376.01,-340.34 386,-288 387.71,-279.06 390.9,-269.7 394.29,-261.37"/>
<polygon fill="black" stroke="black" points="397.51,-262.73 398.28,-252.17 391.09,-259.95 397.51,-262.73"/>
</g>
<!-- 高等数学I&#45;2 -->
<g id="node11" class="node">
<title>高等数学I&#45;2</title>
<ellipse fill="none" stroke="black" cx="629" cy="-378" rx="65.79" ry="18"/>
<text text-anchor="middle" x="629" y="-374.3" font-family="Times New Roman,serif" font-size="14.00">高等数学I&#45;2</text>
</g>
<!-- 程序设计基础&#45;&gt;高等数学I&#45;2 -->
<g id="edge10" class="edge">
<title>程序设计基础&#45;&gt;高等数学I&#45;2</title>
<path fill="none" stroke="black" stroke-dasharray="5,2" d="M456.19,-435C491.45,-423.58 541.34,-407.41 578.45,-395.38"/>
<polygon fill="black" stroke="black" points="579.64,-398.67 588.08,-392.26 577.49,-392.02 579.64,-398.67"/>
</g>
<!-- 工程制图&#45;&gt;大学计算机iii -->
<g id="edge11" class="edge">
<title>工程制图&#45;&gt;大学计算机iii</title>
<path fill="none" stroke="black" d="M529.75,-365.57C537.75,-363.54 546.11,-361.58 554,-360 667.1,-337.37 697.38,-343.86 811,-324 816.89,-322.97 823.01,-321.83 829.13,-320.63"/>
<polygon fill="black" stroke="black" points="830.26,-323.97 839.38,-318.58 828.89,-317.11 830.26,-323.97"/>
</g>
<!-- 计算机科学技术导论 -->
<g id="node12" class="node">
<title>计算机科学技术导论</title>
<ellipse fill="none" stroke="black" cx="507" cy="-306" rx="111.58" ry="18"/>
<text text-anchor="middle" x="507" y="-302.3" font-family="Times New Roman,serif" font-size="14.00">计算机科学技术导论</text>
</g>
<!-- 工程制图&#45;&gt;计算机科学技术导论 -->
<g id="edge12" class="edge">
<title>工程制图&#45;&gt;计算机科学技术导论</title>
<path fill="none" stroke="black" d="M493.45,-359.7C495.45,-351.9 497.87,-342.51 500.1,-333.83"/>
<polygon fill="black" stroke="black" points="503.5,-334.66 502.6,-324.1 496.72,-332.92 503.5,-334.66"/>
</g>
<!-- 面向对象程序设计&#45;&gt;离散数学a -->
<g id="edge47" class="edge">
<title>面向对象程序设计&#45;&gt;离散数学a</title>
<path fill="none" stroke="black" d="M405.98,-215.71C404.28,-197.1 399.81,-167.06 388,-144 382.54,-133.34 374.38,-123.19 366.33,-114.67"/>
<polygon fill="black" stroke="black" points="368.58,-111.97 359.05,-107.35 363.62,-116.91 368.58,-111.97"/>
</g>
<!-- 数字逻辑电路 -->
<g id="node15" class="node">
<title>数字逻辑电路</title>
<ellipse fill="none" stroke="black" cx="561" cy="-162" rx="77.99" ry="18"/>
<text text-anchor="middle" x="561" y="-158.3" font-family="Times New Roman,serif" font-size="14.00">数字逻辑电路</text>
</g>
<!-- 面向对象程序设计&#45;&gt;数字逻辑电路 -->
<g id="edge48" class="edge">
<title>面向对象程序设计&#45;&gt;数字逻辑电路</title>
<path fill="none" stroke="black" stroke-dasharray="5,2" d="M441.94,-217.12C464.51,-206.86 494.02,-193.45 518.02,-182.54"/>
<polygon fill="black" stroke="black" points="519.6,-185.66 527.25,-178.34 516.7,-179.29 519.6,-185.66"/>
</g>
<!-- 大学物理实验I&#45;1 -->
<g id="node13" class="node">
<title>大学物理实验I&#45;1</title>
<ellipse fill="none" stroke="black" cx="213" cy="-378" rx="88.28" ry="18"/>
<text text-anchor="middle" x="213" y="-374.3" font-family="Times New Roman,serif" font-size="14.00">大学物理实验I&#45;1</text>
</g>
<!-- 大学物理实验I&#45;1&#45;&gt;大学物理II&#45;1 -->
<g id="edge14" class="edge">
<title>大学物理实验I&#45;1&#45;&gt;大学物理II&#45;1</title>
<path fill="none" stroke="black" d="M205.25,-360.05C201.61,-352.09 197.19,-342.41 193.12,-333.51"/>
<polygon fill="black" stroke="black" points="196.24,-331.91 188.9,-324.28 189.87,-334.83 196.24,-331.91"/>
</g>
<!-- 大学物理实验I&#45;1&#45;&gt;大学物理实验I&#45;2 -->
<g id="edge15" class="edge">
<title>大学物理实验I&#45;1&#45;&gt;大学物理实验I&#45;2</title>
<path fill="none" stroke="black" d="M231.78,-360.08C241.35,-350.43 252.35,-337.57 259,-324 280.29,-280.54 287.41,-223.9 289.8,-190.69"/>
<polygon fill="black" stroke="black" points="293.31,-190.57 290.44,-180.37 286.33,-190.14 293.31,-190.57"/>
</g>
<!-- 电子技术实验1 -->
<g id="node14" class="node">
<title>电子技术实验1</title>
<ellipse fill="none" stroke="black" cx="608" cy="-234" rx="82.59" ry="18"/>
<text text-anchor="middle" x="608" y="-230.3" font-family="Times New Roman,serif" font-size="14.00">电子技术实验1</text>
</g>
<!-- 电子技术实验1&#45;&gt;大学物理实验I&#45;2 -->
<g id="edge16" class="edge">
<title>电子技术实验1&#45;&gt;大学物理实验I&#45;2</title>
<path fill="none" stroke="black" d="M552.06,-220.65C498.06,-208.72 416.25,-190.66 358.63,-177.93"/>
<polygon fill="black" stroke="black" points="359.04,-174.44 348.52,-175.7 357.53,-181.28 359.04,-174.44"/>
</g>
<!-- 电子技术实验1&#45;&gt;数字逻辑电路 -->
<g id="edge17" class="edge">
<title>电子技术实验1&#45;&gt;数字逻辑电路</title>
<path fill="none" stroke="black" stroke-dasharray="5,2" d="M596.62,-216.05C591.11,-207.84 584.36,-197.79 578.23,-188.66"/>
<polygon fill="black" stroke="black" points="581.08,-186.63 572.6,-180.28 575.27,-190.53 581.08,-186.63"/>
</g>
<!-- 数字逻辑电路&#45;&gt;概率统计与随机过程 -->
<g id="edge54" class="edge">
<title>数字逻辑电路&#45;&gt;概率统计与随机过程</title>
<path fill="none" stroke="black" d="M521.6,-146.38C498.83,-137.05 470.2,-123.76 447,-108 427.76,-94.93 428.93,-84 409,-72 382.77,-56.2 351.2,-44.38 323.28,-35.96"/>
<polygon fill="black" stroke="black" points="324.15,-32.56 313.57,-33.12 322.18,-39.28 324.15,-32.56"/>
</g>
<!-- 模拟电子技术基础 -->
<g id="node16" class="node">
<title>模拟电子技术基础</title>
<ellipse fill="none" stroke="black" cx="1076" cy="-450" rx="100.98" ry="18"/>
<text text-anchor="middle" x="1076" y="-446.3" font-family="Times New Roman,serif" font-size="14.00">模拟电子技术基础</text>
</g>
<!-- 模拟电子技术基础&#45;&gt;大学计算机iii -->
<g id="edge18" class="edge">
<title>模拟电子技术基础&#45;&gt;大学计算机iii</title>
<path fill="none" stroke="black" d="M986.55,-441.68C923.57,-434.46 847.06,-420.78 827,-396 816.93,-383.56 820.14,-374.45 827,-360 832.97,-347.42 843.55,-336.85 854.47,-328.53"/>
<polygon fill="black" stroke="black" points="856.67,-331.26 862.8,-322.62 852.62,-325.55 856.67,-331.26"/>
</g>
<!-- 模拟电子技术基础&#45;&gt;大学英语i -->
<g id="edge19" class="edge">
<title>模拟电子技术基础&#45;&gt;大学英语i</title>
<path fill="none" stroke="black" d="M1093.04,-432.25C1122.15,-401.56 1175.27,-335.14 1142,-288 1123,-261.08 1089.07,-247.75 1058.38,-241.19"/>
<polygon fill="black" stroke="black" points="1059.04,-237.75 1048.56,-239.29 1057.71,-244.62 1059.04,-237.75"/>
</g>
<!-- 数理逻辑 -->
<g id="node17" class="node">
<title>数理逻辑</title>
<ellipse fill="none" stroke="black" cx="1077" cy="-306" rx="55.79" ry="18"/>
<text text-anchor="middle" x="1077" y="-302.3" font-family="Times New Roman,serif" font-size="14.00">数理逻辑</text>
</g>
<!-- 模拟电子技术基础&#45;&gt;数理逻辑 -->
<g id="edge20" class="edge">
<title>模拟电子技术基础&#45;&gt;数理逻辑</title>
<path fill="none" stroke="black" d="M1080.46,-431.95C1082.94,-421.63 1085.75,-408.15 1087,-396 1088.63,-380.08 1088.49,-375.93 1087,-360 1086.2,-351.48 1084.7,-342.28 1083.1,-333.99"/>
<polygon fill="black" stroke="black" points="1086.5,-333.16 1081.06,-324.07 1079.64,-334.57 1086.5,-333.16"/>
</g>
<!-- 软件工程 -->
<g id="node18" class="node">
<title>软件工程</title>
<ellipse fill="none" stroke="black" cx="1022" cy="-378" rx="55.79" ry="18"/>
<text text-anchor="middle" x="1022" y="-374.3" font-family="Times New Roman,serif" font-size="14.00">软件工程</text>
</g>
<!-- 模拟电子技术基础&#45;&gt;软件工程 -->
<g id="edge21" class="edge">
<title>模拟电子技术基础&#45;&gt;软件工程</title>
<path fill="none" stroke="black" d="M1062.93,-432.05C1056.43,-423.63 1048.44,-413.28 1041.26,-403.97"/>
<polygon fill="black" stroke="black" points="1043.83,-401.57 1034.95,-395.79 1038.29,-405.84 1043.83,-401.57"/>
</g>
<!-- 软件工程&#45;&gt;大学计算机iii -->
<g id="edge22" class="edge">
<title>软件工程&#45;&gt;大学计算机iii</title>
<path fill="none" stroke="black" d="M994.43,-362.15C975.6,-352.02 950.42,-338.46 929.73,-327.32"/>
<polygon fill="black" stroke="black" points="931.35,-324.21 920.88,-322.55 928.03,-330.37 931.35,-324.21"/>
</g>
<!-- 软件工程&#45;&gt;大学英语i -->
<g id="edge23" class="edge">
<title>软件工程&#45;&gt;大学英语i</title>
<path fill="none" stroke="black" stroke-dasharray="5,2" d="M1018.5,-359.87C1013.54,-335.56 1004.4,-290.82 998.52,-262.01"/>
<polygon fill="black" stroke="black" points="1001.94,-261.29 996.51,-252.19 995.08,-262.69 1001.94,-261.29"/>
</g>
<!-- 软件工程&#45;&gt;数理逻辑 -->
<g id="edge24" class="edge">
<title>软件工程&#45;&gt;数理逻辑</title>
<path fill="none" stroke="black" d="M1035.03,-360.41C1041.72,-351.91 1049.99,-341.37 1057.42,-331.91"/>
<polygon fill="black" stroke="black" points="1060.25,-333.98 1063.68,-323.96 1054.75,-329.66 1060.25,-333.98"/>
</g>
<!-- 编译器设计专题实验 -->
<g id="node19" class="node">
<title>编译器设计专题实验</title>
<ellipse fill="none" stroke="black" cx="1272" cy="-522" rx="111.58" ry="18"/>
<text text-anchor="middle" x="1272" y="-518.3" font-family="Times New Roman,serif" font-size="14.00">编译器设计专题实验</text>
</g>
<!-- 操作系统设计专题实验 -->
<g id="node20" class="node">
<title>操作系统设计专题实验</title>
<ellipse fill="none" stroke="black" cx="1499" cy="-450" rx="122.68" ry="18"/>
<text text-anchor="middle" x="1499" y="-446.3" font-family="Times New Roman,serif" font-size="14.00">操作系统设计专题实验</text>
</g>
<!-- 编译器设计专题实验&#45;&gt;操作系统设计专题实验 -->
<g id="edge25" class="edge">
<title>编译器设计专题实验&#45;&gt;操作系统设计专题实验</title>
<path fill="none" stroke="black" d="M1321.26,-505.81C1355.85,-495.14 1402.31,-480.82 1439.06,-469.48"/>
<polygon fill="black" stroke="black" points="1440.14,-472.81 1448.66,-466.52 1438.08,-466.12 1440.14,-472.81"/>
</g>
<!-- 计算机网络专题实验 -->
<g id="node21" class="node">
<title>计算机网络专题实验</title>
<ellipse fill="none" stroke="black" cx="1369" cy="-378" rx="111.58" ry="18"/>
<text text-anchor="middle" x="1369" y="-374.3" font-family="Times New Roman,serif" font-size="14.00">计算机网络专题实验</text>
</g>
<!-- 编译器设计专题实验&#45;&gt;计算机网络专题实验 -->
<g id="edge30" class="edge">
<title>编译器设计专题实验&#45;&gt;计算机网络专题实验</title>
<path fill="none" stroke="black" d="M1283.7,-503.87C1300.6,-479.14 1331.95,-433.24 1351.57,-404.51"/>
<polygon fill="black" stroke="black" points="1354.51,-406.42 1357.26,-396.19 1348.73,-402.47 1354.51,-406.42"/>
</g>
<!-- 形式语言与编译 -->
<g id="node24" class="node">
<title>形式语言与编译</title>
<ellipse fill="none" stroke="black" cx="1323" cy="-306" rx="89.08" ry="18"/>
<text text-anchor="middle" x="1323" y="-302.3" font-family="Times New Roman,serif" font-size="14.00">形式语言与编译</text>
</g>
<!-- 编译器设计专题实验&#45;&gt;形式语言与编译 -->
<g id="edge29" class="edge">
<title>编译器设计专题实验&#45;&gt;形式语言与编译</title>
<path fill="none" stroke="black" stroke-dasharray="5,2" d="M1263.11,-503.92C1248.49,-473.27 1223.31,-407.68 1248,-360 1254.85,-346.77 1266.69,-336.14 1278.97,-327.97"/>
<polygon fill="black" stroke="black" points="1280.82,-330.94 1287.48,-322.71 1277.13,-324.99 1280.82,-330.94"/>
</g>
<!-- 操作系统设计专题实验&#45;&gt;计算机网络专题实验 -->
<g id="edge26" class="edge">
<title>操作系统设计专题实验&#45;&gt;计算机网络专题实验</title>
<path fill="none" stroke="black" d="M1468.19,-432.41C1450.3,-422.78 1427.58,-410.54 1408.4,-400.22"/>
<polygon fill="black" stroke="black" points="1410.05,-397.13 1399.59,-395.47 1406.73,-403.29 1410.05,-397.13"/>
</g>
<!-- 计算机组成 -->
<g id="node22" class="node">
<title>计算机组成</title>
<ellipse fill="none" stroke="black" cx="1604" cy="-378" rx="66.89" ry="18"/>
<text text-anchor="middle" x="1604" y="-374.3" font-family="Times New Roman,serif" font-size="14.00">计算机组成</text>
</g>
<!-- 操作系统设计专题实验&#45;&gt;计算机组成 -->
<g id="edge27" class="edge">
<title>操作系统设计专题实验&#45;&gt;计算机组成</title>
<path fill="none" stroke="black" stroke-dasharray="5,2" d="M1524.15,-432.23C1538.35,-422.77 1556.26,-410.83 1571.51,-400.66"/>
<polygon fill="black" stroke="black" points="1573.76,-403.37 1580.14,-394.91 1569.87,-397.54 1573.76,-403.37"/>
</g>
<!-- 操作系统原理i -->
<g id="node23" class="node">
<title>操作系统原理i</title>
<ellipse fill="none" stroke="black" cx="1556" cy="-306" rx="79.89" ry="18"/>
<text text-anchor="middle" x="1556" y="-302.3" font-family="Times New Roman,serif" font-size="14.00">操作系统原理i</text>
</g>
<!-- 操作系统设计专题实验&#45;&gt;操作系统原理i -->
<g id="edge28" class="edge">
<title>操作系统设计专题实验&#45;&gt;操作系统原理i</title>
<path fill="none" stroke="black" d="M1503.61,-431.95C1508.74,-413.8 1517.67,-384.39 1528,-360 1531.77,-351.09 1536.5,-341.66 1540.99,-333.26"/>
<polygon fill="black" stroke="black" points="1544.16,-334.75 1545.9,-324.3 1538.02,-331.39 1544.16,-334.75"/>
</g>
<!-- 计算机组成&#45;&gt;操作系统原理i -->
<g id="edge45" class="edge">
<title>计算机组成&#45;&gt;操作系统原理i</title>
<path fill="none" stroke="black" d="M1592.38,-360.05C1586.75,-351.84 1579.86,-341.79 1573.6,-332.66"/>
<polygon fill="black" stroke="black" points="1576.39,-330.54 1567.85,-324.28 1570.61,-334.5 1576.39,-330.54"/>
</g>
<!-- 数据库系统 -->
<g id="node27" class="node">
<title>数据库系统</title>
<ellipse fill="none" stroke="black" cx="1439" cy="-234" rx="66.89" ry="18"/>
<text text-anchor="middle" x="1439" y="-230.3" font-family="Times New Roman,serif" font-size="14.00">数据库系统</text>
</g>
<!-- 操作系统原理i&#45;&gt;数据库系统 -->
<g id="edge46" class="edge">
<title>操作系统原理i&#45;&gt;数据库系统</title>
<path fill="none" stroke="black" stroke-dasharray="5,2" d="M1529.16,-288.94C1512.84,-279.18 1491.82,-266.6 1474.19,-256.05"/>
<polygon fill="black" stroke="black" points="1475.69,-252.87 1465.31,-250.74 1472.1,-258.88 1475.69,-252.87"/>
</g>
<!-- 形式语言与编译&#45;&gt;数据库系统 -->
<g id="edge39" class="edge">
<title>形式语言与编译&#45;&gt;数据库系统</title>
<path fill="none" stroke="black" stroke-dasharray="5,2" d="M1349.9,-288.76C1366.09,-279 1386.86,-266.46 1404.28,-255.95"/>
<polygon fill="black" stroke="black" points="1406.29,-258.83 1413.04,-250.67 1402.67,-252.84 1406.29,-258.83"/>
</g>
<!-- 高等数学I&#45;1 -->
<g id="node25" class="node">
<title>高等数学I&#45;1</title>
<ellipse fill="none" stroke="black" cx="360" cy="-522" rx="65.79" ry="18"/>
<text text-anchor="middle" x="360" y="-518.3" font-family="Times New Roman,serif" font-size="14.00">高等数学I&#45;1</text>
</g>
<!-- 高等数学I&#45;1&#45;&gt;程序设计基础 -->
<g id="edge31" class="edge">
<title>高等数学I&#45;1&#45;&gt;程序设计基础</title>
<path fill="none" stroke="black" d="M372.83,-504.05C379.21,-495.63 387.05,-485.28 394.1,-475.97"/>
<polygon fill="black" stroke="black" points="397.04,-477.87 400.29,-467.79 391.46,-473.65 397.04,-477.87"/>
</g>
<!-- 高等数学I&#45;1&#45;&gt;高等数学I&#45;2 -->
<g id="edge34" class="edge">
<title>高等数学I&#45;1&#45;&gt;高等数学I&#45;2</title>
<path fill="none" stroke="black" d="M401.88,-508.11C430.31,-498.65 468.35,-484.59 500,-468 536.59,-448.82 575.15,-421.08 600.48,-401.69"/>
<polygon fill="black" stroke="black" points="602.77,-404.34 608.54,-395.45 598.49,-398.8 602.77,-404.34"/>
</g>
<!-- 高等数学I&#45;1&#45;&gt;大学物理实验I&#45;1 -->
<g id="edge32" class="edge">
<title>高等数学I&#45;1&#45;&gt;大学物理实验I&#45;1</title>
<path fill="none" stroke="black" d="M348.49,-504.1C335.2,-485.28 312.07,-454.56 288,-432 275.88,-420.64 261.2,-409.75 248.06,-400.83"/>
<polygon fill="black" stroke="black" points="249.95,-397.88 239.68,-395.26 246.08,-403.71 249.95,-397.88"/>
</g>
<!-- 线性代数与解析几何 -->
<g id="node26" class="node">
<title>线性代数与解析几何</title>
<ellipse fill="none" stroke="black" cx="167" cy="-450" rx="111.58" ry="18"/>
<text text-anchor="middle" x="167" y="-446.3" font-family="Times New Roman,serif" font-size="14.00">线性代数与解析几何</text>
</g>
<!-- 高等数学I&#45;1&#45;&gt;线性代数与解析几何 -->
<g id="edge33" class="edge">
<title>高等数学I&#45;1&#45;&gt;线性代数与解析几何</title>
<path fill="none" stroke="black" d="M321.87,-507.17C292.7,-496.59 252.13,-481.88 219.83,-470.16"/>
<polygon fill="black" stroke="black" points="220.69,-466.75 210.1,-466.63 218.3,-473.33 220.69,-466.75"/>
</g>
<!-- 线性代数与解析几何&#45;&gt;大学物理II&#45;1 -->
<g id="edge35" class="edge">
<title>线性代数与解析几何&#45;&gt;大学物理II&#45;1</title>
<path fill="none" stroke="black" d="M144.23,-432.28C133.48,-422.96 121.78,-410.33 116,-396 110.02,-381.16 109.14,-374.45 116,-360 122.02,-347.32 132.73,-336.67 143.74,-328.32"/>
<polygon fill="black" stroke="black" points="145.99,-331.02 152.14,-322.39 141.95,-325.3 145.99,-331.02"/>
</g>
<!-- 线性代数与解析几何&#45;&gt;概率统计与随机过程 -->
<g id="edge36" class="edge">
<title>线性代数与解析几何&#45;&gt;概率统计与随机过程</title>
<path fill="none" stroke="black" stroke-dasharray="5,2" d="M122.69,-433.41C73.21,-412.84 0,-371.51 0,-307 0,-307 0,-307 0,-161 0,-84.86 88.39,-49.1 160.48,-32.6"/>
<polygon fill="black" stroke="black" points="161.51,-35.95 170.53,-30.39 160.01,-29.12 161.51,-35.95"/>
</g>
<!-- 线性代数与解析几何&#45;&gt;计算机科学技术导论 -->
<g id="edge38" class="edge">
<title>线性代数与解析几何&#45;&gt;计算机科学技术导论</title>
<path fill="none" stroke="black" d="M211.43,-433.43C239.82,-423.26 277.3,-409.43 310,-396 363.67,-373.96 424.37,-346.08 464.03,-327.45"/>
<polygon fill="black" stroke="black" points="465.59,-330.59 473.15,-323.16 462.61,-324.25 465.59,-330.59"/>
</g>
<!-- 线性代数与解析几何&#45;&gt;大学物理实验I&#45;1 -->
<g id="edge37" class="edge">
<title>线性代数与解析几何&#45;&gt;大学物理实验I&#45;1</title>
<path fill="none" stroke="black" stroke-dasharray="5,2" d="M178.14,-432.05C183.54,-423.84 190.14,-413.79 196.14,-404.66"/>
<polygon fill="black" stroke="black" points="199.08,-406.55 201.65,-396.28 193.23,-402.71 199.08,-406.55"/>
</g>
<!-- 电子技术实验2 -->
<g id="node28" class="node">
<title>电子技术实验2</title>
<ellipse fill="none" stroke="black" cx="719" cy="-306" rx="82.59" ry="18"/>
<text text-anchor="middle" x="719" y="-302.3" font-family="Times New Roman,serif" font-size="14.00">电子技术实验2</text>
</g>
<!-- 电子技术实验2&#45;&gt;离散数学a -->
<g id="edge40" class="edge">
<title>电子技术实验2&#45;&gt;离散数学a</title>
<path fill="none" stroke="black" d="M724.03,-287.82C728.51,-269.3 732.95,-239.33 723,-216 704.88,-173.49 689.24,-164.83 648,-144 642.49,-141.22 489.17,-115.61 400.97,-101.03"/>
<polygon fill="black" stroke="black" points="401.51,-97.57 391.07,-99.4 400.37,-104.48 401.51,-97.57"/>
</g>
<!-- 电子技术实验2&#45;&gt;电子技术实验1 -->
<g id="edge41" class="edge">
<title>电子技术实验2&#45;&gt;电子技术实验1</title>
<path fill="none" stroke="black" d="M693.26,-288.76C678.12,-279.22 658.81,-267.04 642.38,-256.68"/>
<polygon fill="black" stroke="black" points="643.93,-253.52 633.61,-251.15 640.2,-259.44 643.93,-253.52"/>
</g>
<!-- 电子技术实验2&#45;&gt;数字逻辑电路 -->
<g id="edge42" class="edge">
<title>电子技术实验2&#45;&gt;数字逻辑电路</title>
<path fill="none" stroke="black" stroke-dasharray="5,2" d="M719.93,-287.83C720.06,-268.19 717.27,-236.16 700,-216 682.87,-196 657.33,-183.53 632.8,-175.75"/>
<polygon fill="black" stroke="black" points="633.69,-172.37 623.11,-172.9 631.71,-179.08 633.69,-172.37"/>
</g>
<!-- 电路 -->
<g id="node29" class="node">
<title>电路</title>
<ellipse fill="none" stroke="black" cx="61" cy="-306" rx="33.29" ry="18"/>
<text text-anchor="middle" x="61" y="-302.3" font-family="Times New Roman,serif" font-size="14.00">电路</text>
</g>
<!-- 电路&#45;&gt;大学物理II&#45;2 -->
<g id="edge43" class="edge">
<title>电路&#45;&gt;大学物理II&#45;2</title>
<path fill="none" stroke="black" d="M82.46,-292.16C99.39,-282.03 123.36,-267.69 143.05,-255.91"/>
<polygon fill="black" stroke="black" points="144.98,-258.84 151.76,-250.7 141.38,-252.83 144.98,-258.84"/>
</g>
<!-- 电路&#45;&gt;概率统计与随机过程 -->
<g id="edge44" class="edge">
<title>电路&#45;&gt;概率统计与随机过程</title>
<path fill="none" stroke="black" d="M67.15,-288.07C74.09,-269.77 86.22,-239.99 100,-216 139.46,-147.32 155.33,-133.7 205,-72 212.68,-62.46 221.49,-52.33 229.39,-43.51"/>
<polygon fill="black" stroke="black" points="232.23,-45.59 236.34,-35.83 227.03,-40.9 232.23,-45.59"/>
</g>
<!-- 计算机组成与结构专题实验 -->
<g id="node30" class="node">
<title>计算机组成与结构专题实验</title>
<ellipse fill="none" stroke="black" cx="1547" cy="-522" rx="145.67" ry="18"/>
<text text-anchor="middle" x="1547" y="-518.3" font-family="Times New Roman,serif" font-size="14.00">计算机组成与结构专题实验</text>
</g>
<!-- 计算机组成与结构专题实验&#45;&gt;操作系统设计专题实验 -->
<g id="edge49" class="edge">
<title>计算机组成与结构专题实验&#45;&gt;操作系统设计专题实验</title>
<path fill="none" stroke="black" d="M1535.38,-504.05C1529.75,-495.84 1522.86,-485.79 1516.6,-476.66"/>
<polygon fill="black" stroke="black" points="1519.39,-474.54 1510.85,-468.28 1513.61,-478.5 1519.39,-474.54"/>
</g>
<!-- 计算机组成与结构专题实验&#45;&gt;计算机网络专题实验 -->
<g id="edge50" class="edge">
<title>计算机组成与结构专题实验&#45;&gt;计算机网络专题实验</title>
<path fill="none" stroke="black" d="M1465.88,-506.91C1424.14,-497.84 1379.44,-484.63 1367,-468 1353.96,-450.56 1355.88,-425.36 1360.24,-406.22"/>
<polygon fill="black" stroke="black" points="1363.69,-406.86 1362.84,-396.3 1356.92,-405.09 1363.69,-406.86"/>
</g>
<!-- 计算机系统综合设计实验 -->
<g id="node39" class="node">
<title>计算机系统综合设计实验</title>
<ellipse fill="none" stroke="black" cx="1970" cy="-450" rx="133.78" ry="18"/>
<text text-anchor="middle" x="1970" y="-446.3" font-family="Times New Roman,serif" font-size="14.00">计算机系统综合设计实验</text>
</g>
<!-- 计算机组成与结构专题实验&#45;&gt;计算机系统综合设计实验 -->
<g id="edge57" class="edge">
<title>计算机组成与结构专题实验&#45;&gt;计算机系统综合设计实验</title>
<path fill="none" stroke="black" stroke-dasharray="5,2" d="M1630.32,-507.21C1701.93,-495.36 1805.01,-478.3 1878.8,-466.09"/>
<polygon fill="black" stroke="black" points="1879.72,-469.49 1889.02,-464.4 1878.58,-462.58 1879.72,-469.49"/>
</g>
<!-- 优化方法基础 -->
<g id="node31" class="node">
<title>优化方法基础</title>
<ellipse fill="none" stroke="black" cx="2182" cy="-522" rx="77.99" ry="18"/>
<text text-anchor="middle" x="2182" y="-518.3" font-family="Times New Roman,serif" font-size="14.00">优化方法基础</text>
</g>
<!-- 数学建模ii -->
<g id="node32" class="node">
<title>数学建模ii</title>
<ellipse fill="none" stroke="black" cx="2182" cy="-450" rx="59.59" ry="18"/>
<text text-anchor="middle" x="2182" y="-446.3" font-family="Times New Roman,serif" font-size="14.00">数学建模ii</text>
</g>
<!-- 优化方法基础&#45;&gt;数学建模ii -->
<g id="edge51" class="edge">
<title>优化方法基础&#45;&gt;数学建模ii</title>
<path fill="none" stroke="black" d="M2182,-503.7C2182,-495.98 2182,-486.71 2182,-478.11"/>
<polygon fill="black" stroke="black" points="2185.5,-478.1 2182,-468.1 2178.5,-478.1 2185.5,-478.1"/>
</g>
<!-- 汇编语言 -->
<g id="node33" class="node">
<title>汇编语言</title>
<ellipse fill="none" stroke="black" cx="892" cy="-378" rx="55.79" ry="18"/>
<text text-anchor="middle" x="892" y="-374.3" font-family="Times New Roman,serif" font-size="14.00">汇编语言</text>
</g>
<!-- 汇编语言&#45;&gt;大学计算机iii -->
<g id="edge52" class="edge">
<title>汇编语言&#45;&gt;大学计算机iii</title>
<path fill="none" stroke="black" d="M892,-359.7C892,-351.98 892,-342.71 892,-334.11"/>
<polygon fill="black" stroke="black" points="895.5,-334.1 892,-324.1 888.5,-334.1 895.5,-334.1"/>
</g>
<!-- 大学英语iii1 -->
<g id="node34" class="node">
<title>大学英语iii1</title>
<ellipse fill="none" stroke="black" cx="2344" cy="-522" rx="65.79" ry="18"/>
<text text-anchor="middle" x="2344" y="-518.3" font-family="Times New Roman,serif" font-size="14.00">大学英语iii1</text>
</g>
<!-- 大学英语iii2 -->
<g id="node35" class="node">
<title>大学英语iii2</title>
<ellipse fill="none" stroke="black" cx="2344" cy="-450" rx="65.79" ry="18"/>
<text text-anchor="middle" x="2344" y="-446.3" font-family="Times New Roman,serif" font-size="14.00">大学英语iii2</text>
</g>
<!-- 大学英语iii1&#45;&gt;大学英语iii2 -->
<g id="edge53" class="edge">
<title>大学英语iii1&#45;&gt;大学英语iii2</title>
<path fill="none" stroke="black" d="M2344,-503.7C2344,-495.98 2344,-486.71 2344,-478.11"/>
<polygon fill="black" stroke="black" points="2347.5,-478.1 2344,-468.1 2340.5,-478.1 2347.5,-478.1"/>
</g>
<!-- 算法分析与设计 -->
<g id="node36" class="node">
<title>算法分析与设计</title>
<ellipse fill="none" stroke="black" cx="545" cy="-90" rx="89.08" ry="18"/>
<text text-anchor="middle" x="545" y="-86.3" font-family="Times New Roman,serif" font-size="14.00">算法分析与设计</text>
</g>
<!-- 算法分析与设计&#45;&gt;概率统计与随机过程 -->
<g id="edge55" class="edge">
<title>算法分析与设计&#45;&gt;概率统计与随机过程</title>
<path fill="none" stroke="black" d="M489.89,-75.83C442.26,-64.45 373.16,-47.95 321.7,-35.65"/>
<polygon fill="black" stroke="black" points="322.19,-32.17 311.65,-33.25 320.56,-38.98 322.19,-32.17"/>
</g>
<!-- 数据结构与程序设计专题实验 -->
<g id="node37" class="node">
<title>数据结构与程序设计专题实验</title>
<ellipse fill="none" stroke="black" cx="2584" cy="-522" rx="156.77" ry="18"/>
<text text-anchor="middle" x="2584" y="-518.3" font-family="Times New Roman,serif" font-size="14.00">数据结构与程序设计专题实验</text>
</g>
<!-- 数据结构与算法i -->
<g id="node38" class="node">
<title>数据结构与算法i</title>
<ellipse fill="none" stroke="black" cx="2584" cy="-450" rx="90.98" ry="18"/>
<text text-anchor="middle" x="2584" y="-446.3" font-family="Times New Roman,serif" font-size="14.00">数据结构与算法i</text>
</g>
<!-- 数据结构与程序设计专题实验&#45;&gt;数据结构与算法i -->
<g id="edge56" class="edge">
<title>数据结构与程序设计专题实验&#45;&gt;数据结构与算法i</title>
<path fill="none" stroke="black" d="M2584,-503.7C2584,-495.98 2584,-486.71 2584,-478.11"/>
<polygon fill="black" stroke="black" points="2587.5,-478.1 2584,-468.1 2580.5,-478.1 2587.5,-478.1"/>
</g>
<!-- 软件定义网络 -->
<g id="node40" class="node">
<title>软件定义网络</title>
<ellipse fill="none" stroke="black" cx="1970" cy="-522" rx="77.99" ry="18"/>
<text text-anchor="middle" x="1970" y="-518.3" font-family="Times New Roman,serif" font-size="14.00">软件定义网络</text>
</g>
<!-- 软件定义网络&#45;&gt;计算机系统综合设计实验 -->
<g id="edge58" class="edge">
<title>软件定义网络&#45;&gt;计算机系统综合设计实验</title>
<path fill="none" stroke="black" stroke-dasharray="5,2" d="M1970,-503.7C1970,-495.98 1970,-486.71 1970,-478.11"/>
<polygon fill="black" stroke="black" points="1973.5,-478.1 1970,-468.1 1966.5,-478.1 1973.5,-478.1"/>
</g>
<!-- 计算机网络原理 -->
<g id="node41" class="node">
<title>计算机网络原理</title>
<ellipse fill="none" stroke="black" cx="1729" cy="-450" rx="89.08" ry="18"/>
<text text-anchor="middle" x="1729" y="-446.3" font-family="Times New Roman,serif" font-size="14.00">计算机网络原理</text>
</g>
<!-- 计算机网络原理&#45;&gt;计算机组成 -->
<g id="edge59" class="edge">
<title>计算机网络原理&#45;&gt;计算机组成</title>
<path fill="none" stroke="black" stroke-dasharray="5,2" d="M1700.32,-432.94C1682.53,-422.97 1659.49,-410.08 1640.42,-399.39"/>
<polygon fill="black" stroke="black" points="1642.12,-396.34 1631.68,-394.5 1638.7,-402.44 1642.12,-396.34"/>
</g>
<!-- 计算机网络原理&#45;&gt;操作系统原理i -->
<g id="edge60" class="edge">
<title>计算机网络原理&#45;&gt;操作系统原理i</title>
<path fill="none" stroke="black" stroke-dasharray="5,2" d="M1723.4,-431.73C1716.21,-412 1701.97,-379.89 1680,-360 1661.86,-343.58 1637.86,-331.73 1615.81,-323.46"/>
<polygon fill="black" stroke="black" points="1616.77,-320.08 1606.17,-320.02 1614.41,-326.68 1616.77,-320.08"/>
</g>
</g>
</svg>
