<?xml version="1.0" encoding="UTF-8" standalone="no"?>
<!DOCTYPE svg PUBLIC "-//W3C//DTD SVG 1.1//EN"
 "http://www.w3.org/Graphics/SVG/1.1/DTD/svg11.dtd">
<!-- Generated by graphviz version 2.46.0 (20210118.1747)
 -->
<!-- Pages: 1 -->
<svg width="2362pt" height="548pt"
 viewBox="0.00 0.00 2361.64 548.00" xmlns="http://www.w3.org/2000/svg" xmlns:xlink="http://www.w3.org/1999/xlink">
<g id="graph0" class="graph" transform="scale(1 1) rotate(0) translate(4 544)">
<polygon fill="white" stroke="transparent" points="-4,4 -4,-544 2357.64,-544 2357.64,4 -4,4"/>
<!-- 大学物理II&#45;1 -->
<g id="node1" class="node">
<title>大学物理II&#45;1</title>
<ellipse fill="none" stroke="black" cx="181" cy="-306" rx="68.79" ry="18"/>
<text text-anchor="middle" x="181" y="-302.3" font-family="Times New Roman,serif" font-size="14.00">大学物理II&#45;1</text>
</g>
<!-- 大学物理II&#45;2 -->
<g id="node2" class="node">
<title>大学物理II&#45;2</title>
<ellipse fill="none" stroke="black" cx="178" cy="-234" rx="68.79" ry="18"/>
<text text-anchor="middle" x="178" y="-230.3" font-family="Times New Roman,serif" font-size="14.00">大学物理II&#45;2</text>
</g>
<!-- 大学物理II&#45;1&#45;&gt;大学物理II&#45;2 -->
<g id="edge1" class="edge">
<title>大学物理II&#45;1&#45;&gt;大学物理II&#45;2</title>
<path fill="none" stroke="black" d="M180.26,-287.7C179.93,-279.98 179.53,-270.71 179.16,-262.11"/>
<polygon fill="black" stroke="black" points="182.66,-261.95 178.73,-252.1 175.66,-262.25 182.66,-261.95"/>
</g>
<!-- 大学物理实验I&#45;2 -->
<g id="node3" class="node">
<title>大学物理实验I&#45;2</title>
<ellipse fill="none" stroke="black" cx="291" cy="-162" rx="88.28" ry="18"/>
<text text-anchor="middle" x="291" y="-158.3" font-family="Times New Roman,serif" font-size="14.00">大学物理实验I&#45;2</text>
</g>
<!-- 大学物理II&#45;2&#45;&gt;大学物理实验I&#45;2 -->
<g id="edge2" class="edge">
<title>大学物理II&#45;2&#45;&gt;大学物理实验I&#45;2</title>
<path fill="none" stroke="black" d="M203.64,-217.12C219.17,-207.5 239.18,-195.1 256.13,-184.6"/>
<polygon fill="black" stroke="black" points="258.02,-187.55 264.68,-179.31 254.33,-181.6 258.02,-187.55"/>
</g>
<!-- 概率统计与随机过程 -->
<g id="node4" class="node">
<title>概率统计与随机过程</title>
<ellipse fill="none" stroke="black" cx="252" cy="-18" rx="111.58" ry="18"/>
<text text-anchor="middle" x="252" y="-14.3" font-family="Times New Roman,serif" font-size="14.00">概率统计与随机过程</text>
</g>
<!-- 大学物理II&#45;2&#45;&gt;概率统计与随机过程 -->
<g id="edge3" class="edge">
<title>大学物理II&#45;2&#45;&gt;概率统计与随机过程</title>
<path fill="none" stroke="black" d="M179.75,-215.96C181.91,-197.81 186.29,-168.4 194,-144 205.2,-108.56 224.17,-70.09 237.35,-45.33"/>
<polygon fill="black" stroke="black" points="240.6,-46.69 242.27,-36.23 234.44,-43.37 240.6,-46.69"/>
</g>
<!-- 大学物理实验I&#45;2&#45;&gt;概率统计与随机过程 -->
<g id="edge4" class="edge">
<title>大学物理实验I&#45;2&#45;&gt;概率统计与随机过程</title>
<path fill="none" stroke="black" d="M283.85,-144.04C279.7,-133.74 274.6,-120.27 271,-108 265,-87.57 260.05,-63.98 256.71,-46.22"/>
<polygon fill="black" stroke="black" points="260.13,-45.46 254.89,-36.25 253.24,-46.72 260.13,-45.46"/>
</g>
<!-- 离散数学a -->
<g id="node5" class="node">
<title>离散数学a</title>
<ellipse fill="none" stroke="black" cx="340" cy="-90" rx="59.59" ry="18"/>
<text text-anchor="middle" x="340" y="-86.3" font-family="Times New Roman,serif" font-size="14.00">离散数学a</text>
</g>
<!-- 大学物理实验I&#45;2&#45;&gt;离散数学a -->
<g id="edge5" class="edge">
<title>大学物理实验I&#45;2&#45;&gt;离散数学a</title>
<path fill="none" stroke="black" d="M302.86,-144.05C308.7,-135.71 315.86,-125.49 322.32,-116.25"/>
<polygon fill="black" stroke="black" points="325.38,-117.99 328.25,-107.79 319.65,-113.97 325.38,-117.99"/>
</g>
<!-- 离散数学a&#45;&gt;概率统计与随机过程 -->
<g id="edge13" class="edge">
<title>离散数学a&#45;&gt;概率统计与随机过程</title>
<path fill="none" stroke="black" d="M319.59,-72.76C308.18,-63.69 293.76,-52.22 281.17,-42.21"/>
<polygon fill="black" stroke="black" points="283.22,-39.36 273.22,-35.88 278.87,-44.84 283.22,-39.36"/>
</g>
<!-- 大学计算机iii -->
<g id="node6" class="node">
<title>大学计算机iii</title>
<ellipse fill="none" stroke="black" cx="892" cy="-306" rx="72.59" ry="18"/>
<text text-anchor="middle" x="892" y="-302.3" font-family="Times New Roman,serif" font-size="14.00">大学计算机iii</text>
</g>
<!-- 大学英语i -->
<g id="node7" class="node">
<title>大学英语i</title>
<ellipse fill="none" stroke="black" cx="993" cy="-234" rx="57.69" ry="18"/>
<text text-anchor="middle" x="993" y="-230.3" font-family="Times New Roman,serif" font-size="14.00">大学英语i</text>
</g>
<!-- 大学计算机iii&#45;&gt;大学英语i -->
<g id="edge6" class="edge">
<title>大学计算机iii&#45;&gt;大学英语i</title>
<path fill="none" stroke="black" d="M915.43,-288.76C929.26,-279.18 946.94,-266.92 961.93,-256.53"/>
<polygon fill="black" stroke="black" points="964.17,-259.24 970.4,-250.67 960.18,-253.49 964.17,-259.24"/>
</g>
<!-- 程序设计基础 -->
<g id="node8" class="node">
<title>程序设计基础</title>
<ellipse fill="none" stroke="black" cx="413" cy="-450" rx="77.99" ry="18"/>
<text text-anchor="middle" x="413" y="-446.3" font-family="Times New Roman,serif" font-size="14.00">程序设计基础</text>
</g>
<!-- 程序设计基础&#45;&gt;大学物理II&#45;1 -->
<g id="edge7" class="edge">
<title>程序设计基础&#45;&gt;大学物理II&#45;1</title>
<path fill="none" stroke="black" stroke-dasharray="5,2" d="M394.24,-432.52C365.81,-407.58 314.63,-362.85 310,-360 285.87,-345.17 256.86,-332.82 232.47,-323.79"/>
<polygon fill="black" stroke="black" points="233.61,-320.48 223.02,-320.37 231.23,-327.07 233.61,-320.48"/>
</g>
<!-- 工程制图 -->
<g id="node9" class="node">
<title>工程制图</title>
<ellipse fill="none" stroke="black" cx="489" cy="-378" rx="55.79" ry="18"/>
<text text-anchor="middle" x="489" y="-374.3" font-family="Times New Roman,serif" font-size="14.00">工程制图</text>
</g>
<!-- 程序设计基础&#45;&gt;工程制图 -->
<g id="edge8" class="edge">
<title>程序设计基础&#45;&gt;工程制图</title>
<path fill="none" stroke="black" stroke-dasharray="5,2" d="M431.01,-432.41C440.83,-423.37 453.14,-412.03 463.89,-402.13"/>
<polygon fill="black" stroke="black" points="466.4,-404.58 471.38,-395.23 461.65,-399.43 466.4,-404.58"/>
</g>
<!-- 面向对象程序设计 -->
<g id="node10" class="node">
<title>面向对象程序设计</title>
<ellipse fill="none" stroke="black" cx="407" cy="-234" rx="100.98" ry="18"/>
<text text-anchor="middle" x="407" y="-230.3" font-family="Times New Roman,serif" font-size="14.00">面向对象程序设计</text>
</g>
<!-- 程序设计基础&#45;&gt;面向对象程序设计 -->
<g id="edge9" class="edge">
<title>程序设计基础&#45;&gt;面向对象程序设计</title>
<path fill="none" stroke="black" stroke-dasharray="5,2" d="M406.18,-432.03C395.25,-402.63 376.01,-340.34 386,-288 387.71,-279.06 390.9,-269.7 394.29,-261.37"/>
<polygon fill="black" stroke="black" points="397.51,-262.73 398.28,-252.17 391.09,-259.95 397.51,-262.73"/>
</g>
<!-- 高等数学I&#45;2 -->
<g id="node11" class="node">
<title>高等数学I&#45;2</title>
<ellipse fill="none" stroke="black" cx="629" cy="-378" rx="65.79" ry="18"/>
<text text-anchor="middle" x="629" y="-374.3" font-family="Times New Roman,serif" font-size="14.00">高等数学I&#45;2</text>
</g>
<!-- 程序设计基础&#45;&gt;高等数学I&#45;2 -->
<g id="edge10" class="edge">
<title>程序设计基础&#45;&gt;高等数学I&#45;2</title>
<path fill="none" stroke="black" stroke-dasharray="5,2" d="M456.19,-435C491.45,-423.58 541.34,-407.41 578.45,-395.38"/>
<polygon fill="black" stroke="black" points="579.64,-398.67 588.08,-392.26 577.49,-392.02 579.64,-398.67"/>
</g>
<!-- 工程制图&#45;&gt;大学计算机iii -->
<g id="edge11" class="edge">
<title>工程制图&#45;&gt;大学计算机iii</title>
<path fill="none" stroke="black" d="M529.75,-365.57C537.75,-363.54 546.11,-361.58 554,-360 667.1,-337.37 697.38,-343.86 811,-324 816.89,-322.97 823.01,-321.83 829.13,-320.63"/>
<polygon fill="black" stroke="black" points="830.26,-323.97 839.38,-318.58 828.89,-317.11 830.26,-323.97"/>
</g>
<!-- 计算机科学技术导论 -->
<g id="node12" class="node">
<title>计算机科学技术导论</title>
<ellipse fill="none" stroke="black" cx="507" cy="-306" rx="111.58" ry="18"/>
<text text-anchor="middle" x="507" y="-302.3" font-family="Times New Roman,serif" font-size="14.00">计算机科学技术导论</text>
</g>
<!-- 工程制图&#45;&gt;计算机科学技术导论 -->
<g id="edge12" class="edge">
<title>工程制图&#45;&gt;计算机科学技术导论</title>
<path fill="none" stroke="black" d="M493.45,-359.7C495.45,-351.9 497.87,-342.51 500.1,-333.83"/>
<polygon fill="black" stroke="black" points="503.5,-334.66 502.6,-324.1 496.72,-332.92 503.5,-334.66"/>
</g>
<!-- 面向对象程序设计&#45;&gt;离散数学a -->
<g id="edge47" class="edge">
<title>面向对象程序设计&#45;&gt;离散数学a</title>
<path fill="none" stroke="black" d="M405.98,-215.71C404.28,-197.1 399.81,-167.06 388,-144 382.54,-133.34 374.38,-123.19 366.33,-114.67"/>
<polygon fill="black" stroke="black" points="368.58,-111.97 359.05,-107.35 363.62,-116.91 368.58,-111.97"/>
</g>
<!-- 数字逻辑电路 -->
<g id="node15" class="node">
<title>数字逻辑电路</title>
<ellipse fill="none" stroke="black" cx="561" cy="-162" rx="77.99" ry="18"/>
<text text-anchor="middle" x="561" y="-158.3" font-family="Times New Roman,serif" font-size="14.00">数字逻辑电路</text>
</g>
<!-- 面向对象程序设计&#45;&gt;数字逻辑电路 -->
<g id="edge48" class="edge">
<title>面向对象程序设计&#45;&gt;数字逻辑电路</title>
<path fill="none" stroke="black" stroke-dasharray="5,2" d="M441.94,-217.12C464.51,-206.86 494.02,-193.45 518.02,-182.54"/>
<polygon fill="black" stroke="black" points="519.6,-185.66 527.25,-178.34 516.7,-179.29 519.6,-185.66"/>
</g>
<!-- 大学物理实验I&#45;1 -->
<g id="node13" class="node">
<title>大学物理实验I&#45;1</title>
<ellipse fill="none" stroke="black" cx="213" cy="-378" rx="88.28" ry="18"/>
<text text-anchor="middle" x="213" y="-374.3" font-family="Times New Roman,serif" font-size="14.00">大学物理实验I&#45;1</text>
</g>
<!-- 大学物理实验I&#45;1&#45;&gt;大学物理II&#45;1 -->
<g id="edge14" class="edge">
<title>大学物理实验I&#45;1&#45;&gt;大学物理II&#45;1</title>
<path fill="none" stroke="black" d="M205.25,-360.05C201.61,-352.09 197.19,-342.41 193.12,-333.51"/>
<polygon fill="black" stroke="black" points="196.24,-331.91 188.9,-324.28 189.87,-334.83 196.24,-331.91"/>
</g>
<!-- 大学物理实验I&#45;1&#45;&gt;大学物理实验I&#45;2 -->
<g id="edge15" class="edge">
<title>大学物理实验I&#45;1&#45;&gt;大学物理实验I&#45;2</title>
<path fill="none" stroke="black" d="M231.78,-360.08C241.35,-350.43 252.35,-337.57 259,-324 280.29,-280.54 287.41,-223.9 289.8,-190.69"/>
<polygon fill="black" stroke="black" points="293.31,-190.57 290.44,-180.37 286.33,-190.14 293.31,-190.57"/>
</g>
<!-- 电子技术实验1 -->
<g id="node14" class="node">
<title>电子技术实验1</title>
<ellipse fill="none" stroke="black" cx="608" cy="-234" rx="82.59" ry="18"/>
<text text-anchor="middle" x="608" y="-230.3" font-family="Times New Roman,serif" font-size="14.00">电子技术实验1</text>
</g>
<!-- 电子技术实验1&#45;&gt;大学物理实验I&#45;2 -->
<g id="edge16" class="edge">
<title>电子技术实验1&#45;&gt;大学物理实验I&#45;2</title>
<path fill="none" stroke="black" d="M552.06,-220.65C498.06,-208.72 416.25,-190.66 358.63,-177.93"/>
<polygon fill="black" stroke="black" points="359.04,-174.44 348.52,-175.7 357.53,-181.28 359.04,-174.44"/>
</g>
<!-- 电子技术实验1&#45;&gt;数字逻辑电路 -->
<g id="edge17" class="edge">
<title>电子技术实验1&#45;&gt;数字逻辑电路</title>
<path fill="none" stroke="black" stroke-dasharray="5,2" d="M596.62,-216.05C591.11,-207.84 584.36,-197.79 578.23,-188.66"/>
<polygon fill="black" stroke="black" points="581.08,-186.63 572.6,-180.28 575.27,-190.53 581.08,-186.63"/>
</g>
<!-- 数字逻辑电路&#45;&gt;概率统计与随机过程 -->
<g id="edge54" class="edge">
<title>数字逻辑电路&#45;&gt;概率统计与随机过程</title>
<path fill="none" stroke="black" d="M521.6,-146.38C498.83,-137.05 470.2,-123.76 447,-108 427.76,-94.93 428.93,-84 409,-72 382.77,-56.2 351.2,-44.38 323.28,-35.96"/>
<polygon fill="black" stroke="black" points="324.15,-32.56 313.57,-33.12 322.18,-39.28 324.15,-32.56"/>
</g>
<!-- 模拟电子技术基础 -->
<g id="node16" class="node">
<title>模拟电子技术基础</title>
<ellipse fill="none" stroke="black" cx="1064" cy="-450" rx="100.98" ry="18"/>
<text text-anchor="middle" x="1064" y="-446.3" font-family="Times New Roman,serif" font-size="14.00">模拟电子技术基础</text>
</g>
<!-- 模拟电子技术基础&#45;&gt;大学计算机iii -->
<g id="edge18" class="edge">
<title>模拟电子技术基础&#45;&gt;大学计算机iii</title>
<path fill="none" stroke="black" d="M976.94,-440.85C917.34,-433.26 845.81,-419.49 827,-396 817,-383.51 820.14,-374.45 827,-360 832.97,-347.42 843.55,-336.85 854.47,-328.53"/>
<polygon fill="black" stroke="black" points="856.67,-331.26 862.8,-322.62 852.62,-325.55 856.67,-331.26"/>
</g>
<!-- 模拟电子技术基础&#45;&gt;大学英语i -->
<g id="edge19" class="edge">
<title>模拟电子技术基础&#45;&gt;大学英语i</title>
<path fill="none" stroke="black" d="M1083.41,-432.27C1116.26,-401.89 1176.11,-336.34 1142,-288 1123,-261.08 1089.07,-247.75 1058.38,-241.19"/>
<polygon fill="black" stroke="black" points="1059.04,-237.75 1048.56,-239.29 1057.71,-244.62 1059.04,-237.75"/>
</g>
<!-- 数理逻辑 -->
<g id="node17" class="node">
<title>数理逻辑</title>
<ellipse fill="none" stroke="black" cx="1077" cy="-306" rx="55.79" ry="18"/>
<text text-anchor="middle" x="1077" y="-302.3" font-family="Times New Roman,serif" font-size="14.00">数理逻辑</text>
</g>
<!-- 模拟电子技术基础&#45;&gt;数理逻辑 -->
<g id="edge20" class="edge">
<title>模拟电子技术基础&#45;&gt;数理逻辑</title>
<path fill="none" stroke="black" d="M1073.54,-431.93C1078.64,-421.82 1084.39,-408.57 1087,-396 1091.24,-375.58 1088.29,-352.12 1084.52,-334.41"/>
<polygon fill="black" stroke="black" points="1087.82,-333.15 1082.13,-324.21 1081,-334.75 1087.82,-333.15"/>
</g>
<!-- 软件工程 -->
<g id="node18" class="node">
<title>软件工程</title>
<ellipse fill="none" stroke="black" cx="1022" cy="-378" rx="55.79" ry="18"/>
<text text-anchor="middle" x="1022" y="-374.3" font-family="Times New Roman,serif" font-size="14.00">软件工程</text>
</g>
<!-- 模拟电子技术基础&#45;&gt;软件工程 -->
<g id="edge21" class="edge">
<title>模拟电子技术基础&#45;&gt;软件工程</title>
<path fill="none" stroke="black" d="M1053.83,-432.05C1048.88,-423.8 1042.82,-413.7 1037.32,-404.54"/>
<polygon fill="black" stroke="black" points="1040.22,-402.56 1032.07,-395.79 1034.22,-406.16 1040.22,-402.56"/>
</g>
<!-- 软件工程&#45;&gt;大学计算机iii -->
<g id="edge22" class="edge">
<title>软件工程&#45;&gt;大学计算机iii</title>
<path fill="none" stroke="black" d="M994.43,-362.15C975.6,-352.02 950.42,-338.46 929.73,-327.32"/>
<polygon fill="black" stroke="black" points="931.35,-324.21 920.88,-322.55 928.03,-330.37 931.35,-324.21"/>
</g>
<!-- 软件工程&#45;&gt;大学英语i -->
<g id="edge23" class="edge">
<title>软件工程&#45;&gt;大学英语i</title>
<path fill="none" stroke="black" stroke-dasharray="5,2" d="M1018.5,-359.87C1013.54,-335.56 1004.4,-290.82 998.52,-262.01"/>
<polygon fill="black" stroke="black" points="1001.94,-261.29 996.51,-252.19 995.08,-262.69 1001.94,-261.29"/>
</g>
<!-- 软件工程&#45;&gt;数理逻辑 -->
<g id="edge24" class="edge">
<title>软件工程&#45;&gt;数理逻辑</title>
<path fill="none" stroke="black" d="M1035.03,-360.41C1041.72,-351.91 1049.99,-341.37 1057.42,-331.91"/>
<polygon fill="black" stroke="black" points="1060.25,-333.98 1063.68,-323.96 1054.75,-329.66 1060.25,-333.98"/>
</g>
<!-- 操作系统设计专题实验 -->
<g id="node19" class="node">
<title>操作系统设计专题实验</title>
<ellipse fill="none" stroke="black" cx="1508" cy="-306" rx="122.68" ry="18"/>
<text text-anchor="middle" x="1508" y="-302.3" font-family="Times New Roman,serif" font-size="14.00">操作系统设计专题实验</text>
</g>
<!-- 编译器设计专题实验 -->
<g id="node20" class="node">
<title>编译器设计专题实验</title>
<ellipse fill="none" stroke="black" cx="1584" cy="-162" rx="111.58" ry="18"/>
<text text-anchor="middle" x="1584" y="-158.3" font-family="Times New Roman,serif" font-size="14.00">编译器设计专题实验</text>
</g>
<!-- 操作系统设计专题实验&#45;&gt;编译器设计专题实验 -->
<g id="edge25" class="edge">
<title>操作系统设计专题实验&#45;&gt;编译器设计专题实验</title>
<path fill="none" stroke="black" d="M1508.62,-287.85C1509.96,-269.09 1514.14,-238.67 1527,-216 1533.3,-204.89 1542.72,-194.76 1552.1,-186.4"/>
<polygon fill="black" stroke="black" points="1554.52,-188.94 1559.9,-179.81 1550,-183.59 1554.52,-188.94"/>
</g>
<!-- 计算机网络专题实验 -->
<g id="node21" class="node">
<title>计算机网络专题实验</title>
<ellipse fill="none" stroke="black" cx="1648" cy="-234" rx="111.58" ry="18"/>
<text text-anchor="middle" x="1648" y="-230.3" font-family="Times New Roman,serif" font-size="14.00">计算机网络专题实验</text>
</g>
<!-- 操作系统设计专题实验&#45;&gt;计算机网络专题实验 -->
<g id="edge26" class="edge">
<title>操作系统设计专题实验&#45;&gt;计算机网络专题实验</title>
<path fill="none" stroke="black" d="M1540.82,-288.59C1560.4,-278.8 1585.43,-266.29 1606.38,-255.81"/>
<polygon fill="black" stroke="black" points="1608,-258.91 1615.38,-251.31 1604.87,-252.65 1608,-258.91"/>
</g>
<!-- 计算机组成 -->
<g id="node22" class="node">
<title>计算机组成</title>
<ellipse fill="none" stroke="black" cx="1374" cy="-234" rx="66.89" ry="18"/>
<text text-anchor="middle" x="1374" y="-230.3" font-family="Times New Roman,serif" font-size="14.00">计算机组成</text>
</g>
<!-- 操作系统设计专题实验&#45;&gt;计算机组成 -->
<g id="edge27" class="edge">
<title>操作系统设计专题实验&#45;&gt;计算机组成</title>
<path fill="none" stroke="black" stroke-dasharray="5,2" d="M1476.58,-288.59C1457.4,-278.57 1432.73,-265.68 1412.39,-255.05"/>
<polygon fill="black" stroke="black" points="1413.87,-251.88 1403.38,-250.35 1410.63,-258.08 1413.87,-251.88"/>
</g>
<!-- 操作系统原理i -->
<g id="node23" class="node">
<title>操作系统原理i</title>
<ellipse fill="none" stroke="black" cx="1374" cy="-162" rx="79.89" ry="18"/>
<text text-anchor="middle" x="1374" y="-158.3" font-family="Times New Roman,serif" font-size="14.00">操作系统原理i</text>
</g>
<!-- 操作系统设计专题实验&#45;&gt;操作系统原理i -->
<g id="edge28" class="edge">
<title>操作系统设计专题实验&#45;&gt;操作系统原理i</title>
<path fill="none" stroke="black" d="M1499.43,-287.89C1489.37,-268.88 1471.31,-237.99 1450,-216 1438.52,-204.16 1424.04,-193.3 1410.81,-184.53"/>
<polygon fill="black" stroke="black" points="1412.65,-181.55 1402.34,-179.09 1408.86,-187.44 1412.65,-181.55"/>
</g>
<!-- 形式语言与编译 -->
<g id="node24" class="node">
<title>形式语言与编译</title>
<ellipse fill="none" stroke="black" cx="1479" cy="-18" rx="89.08" ry="18"/>
<text text-anchor="middle" x="1479" y="-14.3" font-family="Times New Roman,serif" font-size="14.00">形式语言与编译</text>
</g>
<!-- 编译器设计专题实验&#45;&gt;形式语言与编译 -->
<g id="edge29" class="edge">
<title>编译器设计专题实验&#45;&gt;形式语言与编译</title>
<path fill="none" stroke="black" stroke-dasharray="5,2" d="M1571.33,-143.87C1553.05,-119.14 1519.11,-73.24 1497.86,-44.51"/>
<polygon fill="black" stroke="black" points="1500.47,-42.15 1491.71,-36.19 1494.84,-46.31 1500.47,-42.15"/>
</g>
<!-- 计算机网络专题实验&#45;&gt;编译器设计专题实验 -->
<g id="edge30" class="edge">
<title>计算机网络专题实验&#45;&gt;编译器设计专题实验</title>
<path fill="none" stroke="black" d="M1632.51,-216.05C1624.76,-207.58 1615.24,-197.17 1606.69,-187.82"/>
<polygon fill="black" stroke="black" points="1609.13,-185.29 1599.79,-180.28 1603.96,-190.02 1609.13,-185.29"/>
</g>
<!-- 计算机组成&#45;&gt;操作系统原理i -->
<g id="edge45" class="edge">
<title>计算机组成&#45;&gt;操作系统原理i</title>
<path fill="none" stroke="black" d="M1374,-215.7C1374,-207.98 1374,-198.71 1374,-190.11"/>
<polygon fill="black" stroke="black" points="1377.5,-190.1 1374,-180.1 1370.5,-190.1 1377.5,-190.1"/>
</g>
<!-- 数据库系统 -->
<g id="node27" class="node">
<title>数据库系统</title>
<ellipse fill="none" stroke="black" cx="1403" cy="-90" rx="66.89" ry="18"/>
<text text-anchor="middle" x="1403" y="-86.3" font-family="Times New Roman,serif" font-size="14.00">数据库系统</text>
</g>
<!-- 操作系统原理i&#45;&gt;数据库系统 -->
<g id="edge46" class="edge">
<title>操作系统原理i&#45;&gt;数据库系统</title>
<path fill="none" stroke="black" stroke-dasharray="5,2" d="M1381.02,-144.05C1384.28,-136.18 1388.24,-126.62 1391.9,-117.79"/>
<polygon fill="black" stroke="black" points="1395.25,-118.85 1395.84,-108.28 1388.78,-116.17 1395.25,-118.85"/>
</g>
<!-- 高等数学I&#45;1 -->
<g id="node25" class="node">
<title>高等数学I&#45;1</title>
<ellipse fill="none" stroke="black" cx="360" cy="-522" rx="65.79" ry="18"/>
<text text-anchor="middle" x="360" y="-518.3" font-family="Times New Roman,serif" font-size="14.00">高等数学I&#45;1</text>
</g>
<!-- 高等数学I&#45;1&#45;&gt;程序设计基础 -->
<g id="edge31" class="edge">
<title>高等数学I&#45;1&#45;&gt;程序设计基础</title>
<path fill="none" stroke="black" d="M372.83,-504.05C379.21,-495.63 387.05,-485.28 394.1,-475.97"/>
<polygon fill="black" stroke="black" points="397.04,-477.87 400.29,-467.79 391.46,-473.65 397.04,-477.87"/>
</g>
<!-- 高等数学I&#45;1&#45;&gt;高等数学I&#45;2 -->
<g id="edge34" class="edge">
<title>高等数学I&#45;1&#45;&gt;高等数学I&#45;2</title>
<path fill="none" stroke="black" d="M401.88,-508.11C430.31,-498.65 468.35,-484.59 500,-468 536.59,-448.82 575.15,-421.08 600.48,-401.69"/>
<polygon fill="black" stroke="black" points="602.77,-404.34 608.54,-395.45 598.49,-398.8 602.77,-404.34"/>
</g>
<!-- 高等数学I&#45;1&#45;&gt;大学物理实验I&#45;1 -->
<g id="edge32" class="edge">
<title>高等数学I&#45;1&#45;&gt;大学物理实验I&#45;1</title>
<path fill="none" stroke="black" d="M348.49,-504.1C335.2,-485.28 312.07,-454.56 288,-432 275.88,-420.64 261.2,-409.75 248.06,-400.83"/>
<polygon fill="black" stroke="black" points="249.95,-397.88 239.68,-395.26 246.08,-403.71 249.95,-397.88"/>
</g>
<!-- 线性代数与解析几何 -->
<g id="node26" class="node">
<title>线性代数与解析几何</title>
<ellipse fill="none" stroke="black" cx="167" cy="-450" rx="111.58" ry="18"/>
<text text-anchor="middle" x="167" y="-446.3" font-family="Times New Roman,serif" font-size="14.00">线性代数与解析几何</text>
</g>
<!-- 高等数学I&#45;1&#45;&gt;线性代数与解析几何 -->
<g id="edge33" class="edge">
<title>高等数学I&#45;1&#45;&gt;线性代数与解析几何</title>
<path fill="none" stroke="black" d="M321.87,-507.17C292.7,-496.59 252.13,-481.88 219.83,-470.16"/>
<polygon fill="black" stroke="black" points="220.69,-466.75 210.1,-466.63 218.3,-473.33 220.69,-466.75"/>
</g>
<!-- 线性代数与解析几何&#45;&gt;大学物理II&#45;1 -->
<g id="edge35" class="edge">
<title>线性代数与解析几何&#45;&gt;大学物理II&#45;1</title>
<path fill="none" stroke="black" d="M144.23,-432.28C133.48,-422.96 121.78,-410.33 116,-396 110.02,-381.16 109.14,-374.45 116,-360 122.02,-347.32 132.73,-336.67 143.74,-328.32"/>
<polygon fill="black" stroke="black" points="145.99,-331.02 152.14,-322.39 141.95,-325.3 145.99,-331.02"/>
</g>
<!-- 线性代数与解析几何&#45;&gt;概率统计与随机过程 -->
<g id="edge36" class="edge">
<title>线性代数与解析几何&#45;&gt;概率统计与随机过程</title>
<path fill="none" stroke="black" stroke-dasharray="5,2" d="M122.69,-433.41C73.21,-412.84 0,-371.51 0,-307 0,-307 0,-307 0,-161 0,-84.86 88.39,-49.1 160.48,-32.6"/>
<polygon fill="black" stroke="black" points="161.51,-35.95 170.53,-30.39 160.01,-29.12 161.51,-35.95"/>
</g>
<!-- 线性代数与解析几何&#45;&gt;计算机科学技术导论 -->
<g id="edge38" class="edge">
<title>线性代数与解析几何&#45;&gt;计算机科学技术导论</title>
<path fill="none" stroke="black" d="M211.43,-433.43C239.82,-423.26 277.3,-409.43 310,-396 363.67,-373.96 424.37,-346.08 464.03,-327.45"/>
<polygon fill="black" stroke="black" points="465.59,-330.59 473.15,-323.16 462.61,-324.25 465.59,-330.59"/>
</g>
<!-- 线性代数与解析几何&#45;&gt;大学物理实验I&#45;1 -->
<g id="edge37" class="edge">
<title>线性代数与解析几何&#45;&gt;大学物理实验I&#45;1</title>
<path fill="none" stroke="black" stroke-dasharray="5,2" d="M178.14,-432.05C183.54,-423.84 190.14,-413.79 196.14,-404.66"/>
<polygon fill="black" stroke="black" points="199.08,-406.55 201.65,-396.28 193.23,-402.71 199.08,-406.55"/>
</g>
<!-- 数据库系统&#45;&gt;形式语言与编译 -->
<g id="edge39" class="edge">
<title>数据库系统&#45;&gt;形式语言与编译</title>
<path fill="none" stroke="black" stroke-dasharray="5,2" d="M1421.01,-72.41C1430.69,-63.5 1442.79,-52.36 1453.42,-42.56"/>
<polygon fill="black" stroke="black" points="1455.87,-45.06 1460.85,-35.71 1451.13,-39.91 1455.87,-45.06"/>
</g>
<!-- 电子技术实验2 -->
<g id="node28" class="node">
<title>电子技术实验2</title>
<ellipse fill="none" stroke="black" cx="719" cy="-306" rx="82.59" ry="18"/>
<text text-anchor="middle" x="719" y="-302.3" font-family="Times New Roman,serif" font-size="14.00">电子技术实验2</text>
</g>
<!-- 电子技术实验2&#45;&gt;离散数学a -->
<g id="edge40" class="edge">
<title>电子技术实验2&#45;&gt;离散数学a</title>
<path fill="none" stroke="black" d="M724.03,-287.82C728.51,-269.3 732.95,-239.33 723,-216 704.88,-173.49 689.24,-164.83 648,-144 642.49,-141.22 489.17,-115.61 400.97,-101.03"/>
<polygon fill="black" stroke="black" points="401.51,-97.57 391.07,-99.4 400.37,-104.48 401.51,-97.57"/>
</g>
<!-- 电子技术实验2&#45;&gt;电子技术实验1 -->
<g id="edge41" class="edge">
<title>电子技术实验2&#45;&gt;电子技术实验1</title>
<path fill="none" stroke="black" d="M693.26,-288.76C678.12,-279.22 658.81,-267.04 642.38,-256.68"/>
<polygon fill="black" stroke="black" points="643.93,-253.52 633.61,-251.15 640.2,-259.44 643.93,-253.52"/>
</g>
<!-- 电子技术实验2&#45;&gt;数字逻辑电路 -->
<g id="edge42" class="edge">
<title>电子技术实验2&#45;&gt;数字逻辑电路</title>
<path fill="none" stroke="black" stroke-dasharray="5,2" d="M719.93,-287.83C720.06,-268.19 717.27,-236.16 700,-216 682.87,-196 657.33,-183.53 632.8,-175.75"/>
<polygon fill="black" stroke="black" points="633.69,-172.37 623.11,-172.9 631.71,-179.08 633.69,-172.37"/>
</g>
<!-- 电路 -->
<g id="node29" class="node">
<title>电路</title>
<ellipse fill="none" stroke="black" cx="61" cy="-306" rx="33.29" ry="18"/>
<text text-anchor="middle" x="61" y="-302.3" font-family="Times New Roman,serif" font-size="14.00">电路</text>
</g>
<!-- 电路&#45;&gt;大学物理II&#45;2 -->
<g id="edge43" class="edge">
<title>电路&#45;&gt;大学物理II&#45;2</title>
<path fill="none" stroke="black" d="M82.46,-292.16C99.39,-282.03 123.36,-267.69 143.05,-255.91"/>
<polygon fill="black" stroke="black" points="144.98,-258.84 151.76,-250.7 141.38,-252.83 144.98,-258.84"/>
</g>
<!-- 电路&#45;&gt;概率统计与随机过程 -->
<g id="edge44" class="edge">
<title>电路&#45;&gt;概率统计与随机过程</title>
<path fill="none" stroke="black" d="M67.15,-288.07C74.09,-269.77 86.22,-239.99 100,-216 139.46,-147.32 155.33,-133.7 205,-72 212.68,-62.46 221.49,-52.33 229.39,-43.51"/>
<polygon fill="black" stroke="black" points="232.23,-45.59 236.34,-35.83 227.03,-40.9 232.23,-45.59"/>
</g>
<!-- 计算机组成与结构专题实验 -->
<g id="node30" class="node">
<title>计算机组成与结构专题实验</title>
<ellipse fill="none" stroke="black" cx="1583" cy="-378" rx="145.67" ry="18"/>
<text text-anchor="middle" x="1583" y="-374.3" font-family="Times New Roman,serif" font-size="14.00">计算机组成与结构专题实验</text>
</g>
<!-- 计算机组成与结构专题实验&#45;&gt;操作系统设计专题实验 -->
<g id="edge49" class="edge">
<title>计算机组成与结构专题实验&#45;&gt;操作系统设计专题实验</title>
<path fill="none" stroke="black" d="M1564.84,-360.05C1555.52,-351.35 1543.99,-340.59 1533.76,-331.04"/>
<polygon fill="black" stroke="black" points="1535.95,-328.3 1526.25,-324.03 1531.17,-333.41 1535.95,-328.3"/>
</g>
<!-- 计算机组成与结构专题实验&#45;&gt;计算机网络专题实验 -->
<g id="edge50" class="edge">
<title>计算机组成与结构专题实验&#45;&gt;计算机网络专题实验</title>
<path fill="none" stroke="black" d="M1608.42,-360.12C1620.11,-350.91 1632.92,-338.44 1640,-324 1649.42,-304.79 1651.01,-280.44 1650.47,-262.07"/>
<polygon fill="black" stroke="black" points="1653.97,-261.84 1649.96,-252.03 1646.98,-262.2 1653.97,-261.84"/>
</g>
<!-- 优化方法基础 -->
<g id="node31" class="node">
<title>优化方法基础</title>
<ellipse fill="none" stroke="black" cx="1795" cy="-522" rx="77.99" ry="18"/>
<text text-anchor="middle" x="1795" y="-518.3" font-family="Times New Roman,serif" font-size="14.00">优化方法基础</text>
</g>
<!-- 数学建模ii -->
<g id="node32" class="node">
<title>数学建模ii</title>
<ellipse fill="none" stroke="black" cx="1795" cy="-450" rx="59.59" ry="18"/>
<text text-anchor="middle" x="1795" y="-446.3" font-family="Times New Roman,serif" font-size="14.00">数学建模ii</text>
</g>
<!-- 优化方法基础&#45;&gt;数学建模ii -->
<g id="edge51" class="edge">
<title>优化方法基础&#45;&gt;数学建模ii</title>
<path fill="none" stroke="black" d="M1795,-503.7C1795,-495.98 1795,-486.71 1795,-478.11"/>
<polygon fill="black" stroke="black" points="1798.5,-478.1 1795,-468.1 1791.5,-478.1 1798.5,-478.1"/>
</g>
<!-- 汇编语言 -->
<g id="node33" class="node">
<title>汇编语言</title>
<ellipse fill="none" stroke="black" cx="892" cy="-378" rx="55.79" ry="18"/>
<text text-anchor="middle" x="892" y="-374.3" font-family="Times New Roman,serif" font-size="14.00">汇编语言</text>
</g>
<!-- 汇编语言&#45;&gt;大学计算机iii -->
<g id="edge52" class="edge">
<title>汇编语言&#45;&gt;大学计算机iii</title>
<path fill="none" stroke="black" d="M892,-359.7C892,-351.98 892,-342.71 892,-334.11"/>
<polygon fill="black" stroke="black" points="895.5,-334.1 892,-324.1 888.5,-334.1 895.5,-334.1"/>
</g>
<!-- 大学英语iii1 -->
<g id="node34" class="node">
<title>大学英语iii1</title>
<ellipse fill="none" stroke="black" cx="1957" cy="-522" rx="65.79" ry="18"/>
<text text-anchor="middle" x="1957" y="-518.3" font-family="Times New Roman,serif" font-size="14.00">大学英语iii1</text>
</g>
<!-- 大学英语iii2 -->
<g id="node35" class="node">
<title>大学英语iii2</title>
<ellipse fill="none" stroke="black" cx="1957" cy="-450" rx="65.79" ry="18"/>
<text text-anchor="middle" x="1957" y="-446.3" font-family="Times New Roman,serif" font-size="14.00">大学英语iii2</text>
</g>
<!-- 大学英语iii1&#45;&gt;大学英语iii2 -->
<g id="edge53" class="edge">
<title>大学英语iii1&#45;&gt;大学英语iii2</title>
<path fill="none" stroke="black" d="M1957,-503.7C1957,-495.98 1957,-486.71 1957,-478.11"/>
<polygon fill="black" stroke="black" points="1960.5,-478.1 1957,-468.1 1953.5,-478.1 1960.5,-478.1"/>
</g>
<!-- 算法分析与设计 -->
<g id="node36" class="node">
<title>算法分析与设计</title>
<ellipse fill="none" stroke="black" cx="545" cy="-90" rx="89.08" ry="18"/>
<text text-anchor="middle" x="545" y="-86.3" font-family="Times New Roman,serif" font-size="14.00">算法分析与设计</text>
</g>
<!-- 算法分析与设计&#45;&gt;概率统计与随机过程 -->
<g id="edge55" class="edge">
<title>算法分析与设计&#45;&gt;概率统计与随机过程</title>
<path fill="none" stroke="black" d="M489.89,-75.83C442.26,-64.45 373.16,-47.95 321.7,-35.65"/>
<polygon fill="black" stroke="black" points="322.19,-32.17 311.65,-33.25 320.56,-38.98 322.19,-32.17"/>
</g>
<!-- 数据结构与程序设计专题实验 -->
<g id="node37" class="node">
<title>数据结构与程序设计专题实验</title>
<ellipse fill="none" stroke="black" cx="2197" cy="-522" rx="156.77" ry="18"/>
<text text-anchor="middle" x="2197" y="-518.3" font-family="Times New Roman,serif" font-size="14.00">数据结构与程序设计专题实验</text>
</g>
<!-- 数据结构与算法i -->
<g id="node38" class="node">
<title>数据结构与算法i</title>
<ellipse fill="none" stroke="black" cx="2197" cy="-450" rx="90.98" ry="18"/>
<text text-anchor="middle" x="2197" y="-446.3" font-family="Times New Roman,serif" font-size="14.00">数据结构与算法i</text>
</g>
<!-- 数据结构与程序设计专题实验&#45;&gt;数据结构与算法i -->
<g id="edge56" class="edge">
<title>数据结构与程序设计专题实验&#45;&gt;数据结构与算法i</title>
<path fill="none" stroke="black" d="M2197,-503.7C2197,-495.98 2197,-486.71 2197,-478.11"/>
<polygon fill="black" stroke="black" points="2200.5,-478.1 2197,-468.1 2193.5,-478.1 2200.5,-478.1"/>
</g>
<!-- 计算机系统综合设计实验 -->
<g id="node39" class="node">
<title>计算机系统综合设计实验</title>
<ellipse fill="none" stroke="black" cx="1583" cy="-450" rx="133.78" ry="18"/>
<text text-anchor="middle" x="1583" y="-446.3" font-family="Times New Roman,serif" font-size="14.00">计算机系统综合设计实验</text>
</g>
<!-- 计算机系统综合设计实验&#45;&gt;计算机组成与结构专题实验 -->
<g id="edge57" class="edge">
<title>计算机系统综合设计实验&#45;&gt;计算机组成与结构专题实验</title>
<path fill="none" stroke="black" stroke-dasharray="5,2" d="M1583,-431.7C1583,-423.98 1583,-414.71 1583,-406.11"/>
<polygon fill="black" stroke="black" points="1586.5,-406.1 1583,-396.1 1579.5,-406.1 1586.5,-406.1"/>
</g>
<!-- 软件定义网络 -->
<g id="node40" class="node">
<title>软件定义网络</title>
<ellipse fill="none" stroke="black" cx="1583" cy="-522" rx="77.99" ry="18"/>
<text text-anchor="middle" x="1583" y="-518.3" font-family="Times New Roman,serif" font-size="14.00">软件定义网络</text>
</g>
<!-- 软件定义网络&#45;&gt;计算机系统综合设计实验 -->
<g id="edge58" class="edge">
<title>软件定义网络&#45;&gt;计算机系统综合设计实验</title>
<path fill="none" stroke="black" stroke-dasharray="5,2" d="M1583,-503.7C1583,-495.98 1583,-486.71 1583,-478.11"/>
<polygon fill="black" stroke="black" points="1586.5,-478.1 1583,-468.1 1579.5,-478.1 1586.5,-478.1"/>
</g>
<!-- 计算机网络原理 -->
<g id="node41" class="node">
<title>计算机网络原理</title>
<ellipse fill="none" stroke="black" cx="1278" cy="-306" rx="89.08" ry="18"/>
<text text-anchor="middle" x="1278" y="-302.3" font-family="Times New Roman,serif" font-size="14.00">计算机网络原理</text>
</g>
<!-- 计算机网络原理&#45;&gt;计算机组成 -->
<g id="edge59" class="edge">
<title>计算机网络原理&#45;&gt;计算机组成</title>
<path fill="none" stroke="black" stroke-dasharray="5,2" d="M1300.75,-288.41C1313.52,-279.1 1329.61,-267.37 1343.46,-257.27"/>
<polygon fill="black" stroke="black" points="1345.73,-259.95 1351.74,-251.23 1341.6,-254.29 1345.73,-259.95"/>
</g>
<!-- 计算机网络原理&#45;&gt;操作系统原理i -->
<g id="edge60" class="edge">
<title>计算机网络原理&#45;&gt;操作系统原理i</title>
<path fill="none" stroke="black" stroke-dasharray="5,2" d="M1278.24,-287.83C1279.28,-268.77 1283.34,-237.82 1298,-216 1306.67,-203.09 1319.63,-192.37 1332.41,-184.03"/>
<polygon fill="black" stroke="black" points="1334.49,-186.86 1341.17,-178.64 1330.82,-180.9 1334.49,-186.86"/>
</g>
</g>
</svg>
